G04*
G04 #@! TF.GenerationSoftware,Altium Limited,Altium Designer,21.0.3 (12)*
G04*
G04 Layer_Color=16711935*
%FSLAX25Y25*%
%MOIN*%
G70*
G04*
G04 #@! TF.SameCoordinates,E6294E34-86D8-4D4B-B4CD-31F9D36B8334*
G04*
G04*
G04 #@! TF.FilePolarity,Negative*
G04*
G01*
G75*
%ADD70C,0.10249*%
%ADD71O,0.20800X0.12800*%
%ADD72R,0.20800X0.12800*%
%ADD73R,0.16548X0.08674*%
%ADD74R,0.08674X0.16548*%
%ADD75C,0.08674*%
%ADD76R,0.08674X0.08674*%
%ADD77C,0.12611*%
%ADD78R,0.07493X0.07493*%
%ADD79C,0.07493*%
%ADD80C,0.06706*%
%ADD81R,0.06706X0.06706*%
%ADD82R,0.07493X0.07493*%
%ADD83C,0.48044*%
D70*
X77500Y175461D02*
D03*
Y110500D02*
D03*
Y143965D02*
D03*
Y208925D02*
D03*
X286961Y356000D02*
D03*
X222000D02*
D03*
X255465D02*
D03*
X320425D02*
D03*
D71*
X53150Y261968D02*
D03*
D72*
Y241968D02*
D03*
D73*
X76772Y292520D02*
D03*
D74*
X62992Y311024D02*
D03*
X87402D02*
D03*
D75*
X98000Y364000D02*
D03*
X108000D02*
D03*
X118000D02*
D03*
X128000D02*
D03*
X148000D02*
D03*
X158000D02*
D03*
X168000D02*
D03*
X178000D02*
D03*
X138000D02*
D03*
X105000Y69000D02*
D03*
X115000D02*
D03*
X125000D02*
D03*
X153000D02*
D03*
X163000D02*
D03*
X173000D02*
D03*
X241000D02*
D03*
X201000D02*
D03*
X211000D02*
D03*
X221000D02*
D03*
X231000D02*
D03*
D76*
X188000Y364000D02*
D03*
X95000Y69000D02*
D03*
X143000D02*
D03*
X191000D02*
D03*
D77*
X294000Y278000D02*
D03*
Y325244D02*
D03*
X245969Y278000D02*
D03*
Y325244D02*
D03*
X238094Y301622D02*
D03*
D78*
X218032Y281000D02*
D03*
D79*
Y291000D02*
D03*
X312000Y39000D02*
D03*
X322000D02*
D03*
X332000D02*
D03*
X312000Y49000D02*
D03*
X322000D02*
D03*
X332000D02*
D03*
X312000Y59000D02*
D03*
X322000D02*
D03*
X332000D02*
D03*
X272000Y39000D02*
D03*
X282000D02*
D03*
X292000D02*
D03*
X272000Y49000D02*
D03*
X282000D02*
D03*
X292000D02*
D03*
X272000Y59000D02*
D03*
X282000D02*
D03*
X292000Y59000D02*
D03*
D80*
X220000Y251000D02*
D03*
X230000Y251000D02*
D03*
X240000Y251000D02*
D03*
X250000D02*
D03*
X260000Y251000D02*
D03*
X270000Y251000D02*
D03*
X280000D02*
D03*
X290000D02*
D03*
X300000D02*
D03*
X310000Y251000D02*
D03*
X320000Y251000D02*
D03*
X330000Y251000D02*
D03*
X340000D02*
D03*
X350000D02*
D03*
X360000Y231000D02*
D03*
X350000Y231000D02*
D03*
X340000Y231000D02*
D03*
X330000D02*
D03*
X320000D02*
D03*
X310000D02*
D03*
X300000D02*
D03*
X290000D02*
D03*
X280000D02*
D03*
X270000D02*
D03*
X260000Y231000D02*
D03*
X250000Y231000D02*
D03*
X240000D02*
D03*
X230000D02*
D03*
X220000Y121000D02*
D03*
X230000Y121000D02*
D03*
X240000D02*
D03*
X250000D02*
D03*
X260000D02*
D03*
X270000D02*
D03*
X280000D02*
D03*
X290000D02*
D03*
X300000D02*
D03*
X310000Y121000D02*
D03*
X320000Y121000D02*
D03*
X330000D02*
D03*
X340000D02*
D03*
X350000D02*
D03*
X360000Y141000D02*
D03*
X350000Y141000D02*
D03*
X340000D02*
D03*
X330000D02*
D03*
X320000D02*
D03*
X310000D02*
D03*
X300000D02*
D03*
X290000D02*
D03*
X280000D02*
D03*
X270000Y141000D02*
D03*
X260000Y141000D02*
D03*
X250000D02*
D03*
X240000D02*
D03*
X230000D02*
D03*
D81*
X360000Y251000D02*
D03*
X220000Y231000D02*
D03*
X360000Y121000D02*
D03*
X220000Y141000D02*
D03*
D82*
X302000Y39000D02*
D03*
Y49000D02*
D03*
Y59000D02*
D03*
X262000Y39000D02*
D03*
Y49000D02*
D03*
X262000Y59000D02*
D03*
D83*
X374016Y374016D02*
D03*
Y59055D02*
D03*
X59055Y374016D02*
D03*
Y59055D02*
D03*
M02*
