M48
;Layer_Color=9474304
;FILE_FORMAT=2:5
INCH,LZ
;TYPE=PLATED
T1F00S00C0.01181
T2F00S00C0.02799
T4F00S00C0.03543
T5F00S00C0.04331
T6F00S00C0.04724
T7F00S00C0.05000
T8F00S00C0.06299
T9F00S00C0.20472
%
T01
X01Y0039
X01055Y0094
X0115
X01165Y0099
X0131
X0146
X01555Y01015
X01055Y014
X00955Y0134
X00445Y0104
X0158Y00985
Y0093
X0169Y00875
Y01035
X0165Y0113
X01625Y01145
X019Y0082
X02055Y00775
X0216
X0226
X0236
X02305Y01015
X02565
X02715Y0099
X0282
X0292Y00985
X0302Y0098
X02535Y0056
X02265Y00385
X0162Y00395
X0345Y0039
X0327Y0083
X03245Y00975
X0313Y0098
X039Y0099
X03945Y00895
X039Y01255
Y0152
X03665Y01545
X0366Y013
X03375Y01555
X03315Y0166
X03305Y0183
Y0199
X0335958Y0202042
X0339Y0202
X03485Y02
X0367Y0193
X039Y0205
Y01785
Y02315
X03905Y02595
Y0285
Y03115
X03425Y02955
X03255Y0279
Y0263
X0337
X03475
X032Y02035
X031
X031Y0211319
X03
X03Y02035
X029002Y0204038
X029Y0211319
X026
X025
X02255Y0214
X0220724Y0216
X0217862
X0215
X0212138
X0211992Y0200819
X0214854
X0217725
X0220624
X02255
X0233Y01965
X02325Y01835
Y01695
X0219Y01625
X025Y0159
X0165Y01625
X0161Y02
Y0212
Y0224
Y0236
X01575Y02465
X01665Y02515
X01655Y0278
X01775Y0279
X01845Y02825
X01795Y0268
X0211Y02955
X0154Y0276
X0141Y0275
X01105Y02765
X01095Y0253
Y0248
Y02415
X011Y0231
X0117
Y02235
Y0217
X011
Y02235
X01095Y02055
X00955Y01765
X01055Y0165
X01155Y0168
X0138Y0173
Y0178
Y0183
X00445Y02085
Y01565
Y0278
X0081Y0279
X0097Y03345
X01235Y0327
X01365Y0324
X015
X01515Y03905
X0109
X0043Y0344
X01605Y0336
X0177
X019
X0195Y03345
X0211Y03405
X022Y033
X02075Y032
X01985Y039
X0247Y03905
X029
X03445
X03255Y032
X0314
X03905Y0338
T02
X01555Y0151
X0174
X0206507Y0150993
X03505Y0092
X036Y0202
X01135Y03455
T04
X0262Y0039
Y0049
X0272
X0282
X0292
X0302
Y0039
X0292
X0282
X0272
X0272Y0059
X0282
X0292Y0059
X0302Y0059
X0312
Y0049
Y0039
X0262Y0059
X026Y0121
X027
X028
X029
X03
X031Y0121
Y0141
X03
X029
X028
X027Y0141
X026Y0141
X025
X024
X023
X022
X022Y0121
X023Y0121
X024
X025
X032
X033
X034
X035
X036
X036Y0141
X035Y0141
X034
X033
X032
X0322Y0059
X0322Y0049
X0332
Y0039
X0322
X0332Y0059
X033Y0231
X034
X035Y0231
X036Y0231
X036Y0251
X035Y0251
X034
X033
X032Y0251
X032Y0231
X031
X03
X029
X028
X027
X026Y0231
X025Y0231
X024
X023
X022
X022Y0251
X023Y0251
X024Y0251
X025
X026Y0251
X027Y0251
X028
X029
X03
X031Y0251
X0218032Y0281
Y0291
T05
X0095Y0069
X0105
X0115
X0125
X0143
X0153
X0163
X0173
X0191
X0201
X0211
X0221
X0231
X0241
X0148Y0364
X0138
X0128
X0118
X0108
X0098
X0158
X0168
X0178
X0188
T06
X00775Y01105
Y0143965
Y0175461
Y0208925
X0222Y0356
X0255465
X0286961
X0320425
T07
X005315Y0241968
Y0261968
T08
X0245969Y0278
X0238094Y0301622
X0294Y0278
Y0325244
X0245969
T09
X0059055Y0059055
X0374016
X0059055Y0374016
X0374016
M30
