G04*
G04 #@! TF.GenerationSoftware,Altium Limited,Altium Designer,21.0.3 (12)*
G04*
G04 Layer_Physical_Order=2*
G04 Layer_Color=16711680*
%FSLAX25Y25*%
%MOIN*%
G70*
G04*
G04 #@! TF.SameCoordinates,090C1E97-9EAB-41C8-8700-309E0BB34FF0*
G04*
G04*
G04 #@! TF.FilePolarity,Positive*
G04*
G01*
G75*
%ADD10C,0.01000*%
%ADD17C,0.02362*%
%ADD26O,0.05118X0.06890*%
%ADD27C,0.05000*%
%ADD157C,0.03150*%
%ADD158R,0.07874X0.07874*%
%ADD159C,0.07874*%
%ADD160R,0.20000X0.12000*%
%ADD161O,0.20000X0.12000*%
%ADD162R,0.07874X0.15748*%
%ADD163R,0.15748X0.07874*%
%ADD164C,0.05118*%
%ADD165C,0.07087*%
%ADD166R,0.07087X0.07087*%
%ADD167R,0.07874X0.07874*%
%ADD168C,0.47244*%
%ADD169C,0.05906*%
%ADD170C,0.09843*%
%ADD171R,0.05906X0.05906*%
%ADD172C,0.06693*%
%ADD173R,0.06693X0.06693*%
%ADD174R,0.06693X0.06693*%
%ADD175O,0.04724X0.07087*%
%ADD176O,0.04724X0.07874*%
%ADD177R,0.05906X0.05906*%
%ADD178R,0.06299X0.06299*%
%ADD179C,0.06299*%
%ADD180C,0.02953*%
%ADD181C,0.02362*%
%ADD182C,0.07874*%
%ADD183C,0.10000*%
%ADD184C,0.01575*%
G36*
X1246219Y765901D02*
X1246214Y765598D01*
X1244357Y763520D01*
X1242745Y761248D01*
X1241397Y758810D01*
X1240331Y756237D01*
X1239560Y753559D01*
X1239094Y750813D01*
X1238937Y748032D01*
X1239094Y745250D01*
X1239560Y742504D01*
X1240331Y739827D01*
X1241397Y737253D01*
X1242745Y734815D01*
X1244357Y732543D01*
X1246214Y730466D01*
X1248291Y728609D01*
X1250563Y726997D01*
X1253001Y725649D01*
X1255575Y724583D01*
X1258252Y723812D01*
X1260998Y723346D01*
X1263780Y723189D01*
X1266561Y723346D01*
X1269308Y723812D01*
X1271984Y724583D01*
X1274558Y725649D01*
X1276997Y726997D01*
X1279268Y728609D01*
X1281346Y730466D01*
X1281903Y731090D01*
X1282403Y731109D01*
X1289370Y724409D01*
X1289370Y269685D01*
X1281346Y261661D01*
X1279268Y263517D01*
X1276997Y265129D01*
X1274558Y266476D01*
X1271984Y267543D01*
X1269308Y268314D01*
X1266561Y268780D01*
X1263780Y268937D01*
X1260998Y268780D01*
X1258252Y268314D01*
X1255575Y267543D01*
X1253001Y266476D01*
X1250563Y265129D01*
X1248291Y263517D01*
X1246214Y261661D01*
X1244357Y259583D01*
X1242745Y257311D01*
X1241397Y254873D01*
X1240331Y252299D01*
X1239560Y249622D01*
X1239094Y246876D01*
X1238937Y244094D01*
X1239094Y241313D01*
X1239560Y238566D01*
X1240331Y235890D01*
X1241397Y233316D01*
X1242745Y230877D01*
X1244357Y228606D01*
X1246213Y226528D01*
X1238189Y218504D01*
X531496D01*
X524658Y225342D01*
X524672Y225842D01*
X525440Y226528D01*
X527296Y228606D01*
X528908Y230877D01*
X530256Y233316D01*
X531322Y235890D01*
X532093Y238566D01*
X532560Y241313D01*
X532716Y244094D01*
X532560Y246876D01*
X532093Y249622D01*
X531322Y252299D01*
X530256Y254873D01*
X528908Y257311D01*
X527296Y259583D01*
X525440Y261661D01*
X523363Y263517D01*
X521091Y265129D01*
X518653Y266476D01*
X516079Y267543D01*
X513402Y268314D01*
X510655Y268780D01*
X507874Y268937D01*
X505093Y268780D01*
X502346Y268314D01*
X499669Y267543D01*
X497095Y266476D01*
X494657Y265129D01*
X492385Y263517D01*
X490308Y261661D01*
X489621Y260892D01*
X489122Y260878D01*
X482283Y267717D01*
X482283Y724409D01*
X489251Y731109D01*
X489750Y731090D01*
X490308Y730466D01*
X492385Y728609D01*
X494657Y726997D01*
X497095Y725649D01*
X499669Y724583D01*
X502346Y723812D01*
X505093Y723346D01*
X507874Y723189D01*
X510655Y723346D01*
X513402Y723812D01*
X516079Y724583D01*
X518653Y725649D01*
X521091Y726997D01*
X523363Y728609D01*
X525440Y730466D01*
X527296Y732543D01*
X528908Y734815D01*
X530256Y737253D01*
X531322Y739827D01*
X532093Y742504D01*
X532560Y745250D01*
X532716Y748032D01*
X532560Y750813D01*
X532093Y753559D01*
X531322Y756237D01*
X530256Y758810D01*
X528908Y761248D01*
X527296Y763520D01*
X525440Y765598D01*
X525435Y765901D01*
X533465Y773622D01*
X1238189D01*
X1246219Y765901D01*
D02*
G37*
%LPC*%
G36*
X732527Y758528D02*
X723472D01*
Y749473D01*
X732527D01*
Y758528D01*
D02*
G37*
G36*
X692527D02*
X683472D01*
Y749473D01*
X692527D01*
Y758528D01*
D02*
G37*
G36*
X672528D02*
X663473D01*
Y749473D01*
X672528D01*
Y758528D01*
D02*
G37*
G36*
X758000Y758567D02*
X756818Y758411D01*
X755717Y757955D01*
X754771Y757229D01*
X754045Y756283D01*
X753589Y755182D01*
X753433Y754000D01*
X753589Y752818D01*
X754045Y751717D01*
X754771Y750771D01*
X755717Y750045D01*
X756818Y749589D01*
X758000Y749433D01*
X759182Y749589D01*
X760283Y750045D01*
X761229Y750771D01*
X761955Y751717D01*
X762411Y752818D01*
X762567Y754000D01*
X762411Y755182D01*
X761955Y756283D01*
X761229Y757229D01*
X760283Y757955D01*
X759182Y758411D01*
X758000Y758567D01*
D02*
G37*
G36*
X748000D02*
X746818Y758411D01*
X745717Y757955D01*
X744771Y757229D01*
X744045Y756283D01*
X743589Y755182D01*
X743433Y754000D01*
X743589Y752818D01*
X744045Y751717D01*
X744771Y750771D01*
X745717Y750045D01*
X746818Y749589D01*
X748000Y749433D01*
X749182Y749589D01*
X750283Y750045D01*
X751229Y750771D01*
X751955Y751717D01*
X752411Y752818D01*
X752567Y754000D01*
X752411Y755182D01*
X751955Y756283D01*
X751229Y757229D01*
X750283Y757955D01*
X749182Y758411D01*
X748000Y758567D01*
D02*
G37*
G36*
X738000D02*
X736818Y758411D01*
X735717Y757955D01*
X734771Y757229D01*
X734045Y756283D01*
X733589Y755182D01*
X733433Y754000D01*
X733589Y752818D01*
X734045Y751717D01*
X734771Y750771D01*
X735717Y750045D01*
X736818Y749589D01*
X738000Y749433D01*
X739182Y749589D01*
X740283Y750045D01*
X741229Y750771D01*
X741955Y751717D01*
X742411Y752818D01*
X742567Y754000D01*
X742411Y755182D01*
X741955Y756283D01*
X741229Y757229D01*
X740283Y757955D01*
X739182Y758411D01*
X738000Y758567D01*
D02*
G37*
G36*
X718000D02*
X716818Y758411D01*
X715717Y757955D01*
X714771Y757229D01*
X714045Y756283D01*
X713589Y755182D01*
X713433Y754000D01*
X713589Y752818D01*
X714045Y751717D01*
X714771Y750771D01*
X715717Y750045D01*
X716818Y749589D01*
X718000Y749433D01*
X719182Y749589D01*
X720283Y750045D01*
X721229Y750771D01*
X721955Y751717D01*
X722411Y752818D01*
X722567Y754000D01*
X722411Y755182D01*
X721955Y756283D01*
X721229Y757229D01*
X720283Y757955D01*
X719182Y758411D01*
X718000Y758567D01*
D02*
G37*
G36*
X708000D02*
X706818Y758411D01*
X705717Y757955D01*
X704771Y757229D01*
X704045Y756283D01*
X703589Y755182D01*
X703433Y754000D01*
X703589Y752818D01*
X704045Y751717D01*
X704771Y750771D01*
X705717Y750045D01*
X706818Y749589D01*
X708000Y749433D01*
X709182Y749589D01*
X710283Y750045D01*
X711229Y750771D01*
X711955Y751717D01*
X712411Y752818D01*
X712567Y754000D01*
X712411Y755182D01*
X711955Y756283D01*
X711229Y757229D01*
X710283Y757955D01*
X709182Y758411D01*
X708000Y758567D01*
D02*
G37*
G36*
X698000D02*
X696818Y758411D01*
X695717Y757955D01*
X694771Y757229D01*
X694045Y756283D01*
X693589Y755182D01*
X693433Y754000D01*
X693589Y752818D01*
X694045Y751717D01*
X694771Y750771D01*
X695717Y750045D01*
X696818Y749589D01*
X698000Y749433D01*
X699182Y749589D01*
X700283Y750045D01*
X701229Y750771D01*
X701955Y751717D01*
X702411Y752818D01*
X702567Y754000D01*
X702411Y755182D01*
X701955Y756283D01*
X701229Y757229D01*
X700283Y757955D01*
X699182Y758411D01*
X698000Y758567D01*
D02*
G37*
G36*
X678000D02*
X676818Y758411D01*
X675717Y757955D01*
X674771Y757229D01*
X674045Y756283D01*
X673589Y755182D01*
X673433Y754000D01*
X673589Y752818D01*
X674045Y751717D01*
X674771Y750771D01*
X675717Y750045D01*
X676818Y749589D01*
X678000Y749433D01*
X679182Y749589D01*
X680283Y750045D01*
X681229Y750771D01*
X681955Y751717D01*
X682411Y752818D01*
X682567Y754000D01*
X682411Y755182D01*
X681955Y756283D01*
X681229Y757229D01*
X680283Y757955D01*
X679182Y758411D01*
X678000Y758567D01*
D02*
G37*
G36*
X581378Y753642D02*
X580684Y753551D01*
X580038Y753283D01*
X579483Y752857D01*
X579057Y752302D01*
X578789Y751655D01*
X578698Y750962D01*
X578789Y750268D01*
X579057Y749621D01*
X579483Y749066D01*
X580038Y748640D01*
X580684Y748373D01*
X581378Y748281D01*
X582072Y748373D01*
X582718Y748640D01*
X583273Y749066D01*
X583699Y749621D01*
X583967Y750268D01*
X584058Y750962D01*
X583967Y751655D01*
X583699Y752302D01*
X583273Y752857D01*
X582718Y753283D01*
X582072Y753551D01*
X581378Y753642D01*
D02*
G37*
G36*
X558622D02*
X557928Y753551D01*
X557282Y753283D01*
X556727Y752857D01*
X556301Y752302D01*
X556033Y751655D01*
X555942Y750962D01*
X556033Y750268D01*
X556301Y749621D01*
X556727Y749066D01*
X557282Y748640D01*
X557928Y748373D01*
X558622Y748281D01*
X559316Y748373D01*
X559962Y748640D01*
X560517Y749066D01*
X560943Y749621D01*
X561211Y750268D01*
X561302Y750962D01*
X561211Y751655D01*
X560943Y752302D01*
X560517Y752857D01*
X559962Y753283D01*
X559316Y753551D01*
X558622Y753642D01*
D02*
G37*
G36*
X1227000Y755169D02*
X1225921Y755027D01*
X1224915Y754611D01*
X1224052Y753948D01*
X1223389Y753085D01*
X1222973Y752079D01*
X1222830Y751000D01*
X1222973Y749921D01*
X1223389Y748915D01*
X1224052Y748052D01*
X1224915Y747389D01*
X1225921Y746973D01*
X1227000Y746831D01*
X1228079Y746973D01*
X1229085Y747389D01*
X1229948Y748052D01*
X1230611Y748915D01*
X1231027Y749921D01*
X1231170Y751000D01*
X1231027Y752079D01*
X1230611Y753085D01*
X1229948Y753948D01*
X1229085Y754611D01*
X1228079Y755027D01*
X1227000Y755169D01*
D02*
G37*
G36*
X1217000D02*
X1215921Y755027D01*
X1214915Y754611D01*
X1214052Y753948D01*
X1213389Y753085D01*
X1212973Y752079D01*
X1212831Y751000D01*
X1212973Y749921D01*
X1213389Y748915D01*
X1214052Y748052D01*
X1214915Y747389D01*
X1215921Y746973D01*
X1217000Y746831D01*
X1218079Y746973D01*
X1219085Y747389D01*
X1219948Y748052D01*
X1220611Y748915D01*
X1221027Y749921D01*
X1221169Y751000D01*
X1221027Y752079D01*
X1220611Y753085D01*
X1219948Y753948D01*
X1219085Y754611D01*
X1218079Y755027D01*
X1217000Y755169D01*
D02*
G37*
G36*
X1207000D02*
X1205921Y755027D01*
X1204915Y754611D01*
X1204052Y753948D01*
X1203389Y753085D01*
X1202973Y752079D01*
X1202831Y751000D01*
X1202973Y749921D01*
X1203389Y748915D01*
X1204052Y748052D01*
X1204915Y747389D01*
X1205921Y746973D01*
X1207000Y746831D01*
X1208079Y746973D01*
X1209085Y747389D01*
X1209948Y748052D01*
X1210611Y748915D01*
X1211027Y749921D01*
X1211170Y751000D01*
X1211027Y752079D01*
X1210611Y753085D01*
X1209948Y753948D01*
X1209085Y754611D01*
X1208079Y755027D01*
X1207000Y755169D01*
D02*
G37*
G36*
X1197000D02*
X1195921Y755027D01*
X1194915Y754611D01*
X1194052Y753948D01*
X1193389Y753085D01*
X1192973Y752079D01*
X1192830Y751000D01*
X1192973Y749921D01*
X1193389Y748915D01*
X1194052Y748052D01*
X1194915Y747389D01*
X1195921Y746973D01*
X1197000Y746831D01*
X1198079Y746973D01*
X1199085Y747389D01*
X1199948Y748052D01*
X1200611Y748915D01*
X1201027Y749921D01*
X1201169Y751000D01*
X1201027Y752079D01*
X1200611Y753085D01*
X1199948Y753948D01*
X1199085Y754611D01*
X1198079Y755027D01*
X1197000Y755169D01*
D02*
G37*
G36*
X1187000D02*
X1185921Y755027D01*
X1184915Y754611D01*
X1184052Y753948D01*
X1183389Y753085D01*
X1182973Y752079D01*
X1182831Y751000D01*
X1182973Y749921D01*
X1183389Y748915D01*
X1184052Y748052D01*
X1184915Y747389D01*
X1185921Y746973D01*
X1187000Y746831D01*
X1188079Y746973D01*
X1189085Y747389D01*
X1189948Y748052D01*
X1190611Y748915D01*
X1191027Y749921D01*
X1191169Y751000D01*
X1191027Y752079D01*
X1190611Y753085D01*
X1189948Y753948D01*
X1189085Y754611D01*
X1188079Y755027D01*
X1187000Y755169D01*
D02*
G37*
G36*
X1177000D02*
X1175921Y755027D01*
X1174915Y754611D01*
X1174052Y753948D01*
X1173389Y753085D01*
X1172973Y752079D01*
X1172830Y751000D01*
X1172973Y749921D01*
X1173389Y748915D01*
X1174052Y748052D01*
X1174915Y747389D01*
X1175921Y746973D01*
X1177000Y746831D01*
X1178079Y746973D01*
X1179085Y747389D01*
X1179948Y748052D01*
X1180611Y748915D01*
X1181027Y749921D01*
X1181170Y751000D01*
X1181027Y752079D01*
X1180611Y753085D01*
X1179948Y753948D01*
X1179085Y754611D01*
X1178079Y755027D01*
X1177000Y755169D01*
D02*
G37*
G36*
X1167000D02*
X1165921Y755027D01*
X1164915Y754611D01*
X1164052Y753948D01*
X1163389Y753085D01*
X1162973Y752079D01*
X1162831Y751000D01*
X1162973Y749921D01*
X1163389Y748915D01*
X1164052Y748052D01*
X1164915Y747389D01*
X1165921Y746973D01*
X1167000Y746831D01*
X1168079Y746973D01*
X1169085Y747389D01*
X1169948Y748052D01*
X1170611Y748915D01*
X1171027Y749921D01*
X1171169Y751000D01*
X1171027Y752079D01*
X1170611Y753085D01*
X1169948Y753948D01*
X1169085Y754611D01*
X1168079Y755027D01*
X1167000Y755169D01*
D02*
G37*
G36*
X1157000D02*
X1155921Y755027D01*
X1154915Y754611D01*
X1154052Y753948D01*
X1153389Y753085D01*
X1152973Y752079D01*
X1152831Y751000D01*
X1152973Y749921D01*
X1153389Y748915D01*
X1154052Y748052D01*
X1154915Y747389D01*
X1155921Y746973D01*
X1157000Y746831D01*
X1158079Y746973D01*
X1159085Y747389D01*
X1159948Y748052D01*
X1160611Y748915D01*
X1161027Y749921D01*
X1161170Y751000D01*
X1161027Y752079D01*
X1160611Y753085D01*
X1159948Y753948D01*
X1159085Y754611D01*
X1158079Y755027D01*
X1157000Y755169D01*
D02*
G37*
G36*
X1147000D02*
X1145921Y755027D01*
X1144915Y754611D01*
X1144052Y753948D01*
X1143389Y753085D01*
X1142973Y752079D01*
X1142830Y751000D01*
X1142973Y749921D01*
X1143389Y748915D01*
X1144052Y748052D01*
X1144915Y747389D01*
X1145921Y746973D01*
X1147000Y746831D01*
X1148079Y746973D01*
X1149085Y747389D01*
X1149948Y748052D01*
X1150611Y748915D01*
X1151027Y749921D01*
X1151169Y751000D01*
X1151027Y752079D01*
X1150611Y753085D01*
X1149948Y753948D01*
X1149085Y754611D01*
X1148079Y755027D01*
X1147000Y755169D01*
D02*
G37*
G36*
X1137000D02*
X1135921Y755027D01*
X1134915Y754611D01*
X1134052Y753948D01*
X1133389Y753085D01*
X1132973Y752079D01*
X1132831Y751000D01*
X1132973Y749921D01*
X1133389Y748915D01*
X1134052Y748052D01*
X1134915Y747389D01*
X1135921Y746973D01*
X1137000Y746831D01*
X1138079Y746973D01*
X1139085Y747389D01*
X1139948Y748052D01*
X1140611Y748915D01*
X1141027Y749921D01*
X1141169Y751000D01*
X1141027Y752079D01*
X1140611Y753085D01*
X1139948Y753948D01*
X1139085Y754611D01*
X1138079Y755027D01*
X1137000Y755169D01*
D02*
G37*
G36*
X1127000D02*
X1125921Y755027D01*
X1124915Y754611D01*
X1124052Y753948D01*
X1123389Y753085D01*
X1122973Y752079D01*
X1122830Y751000D01*
X1122973Y749921D01*
X1123389Y748915D01*
X1124052Y748052D01*
X1124915Y747389D01*
X1125921Y746973D01*
X1127000Y746831D01*
X1128079Y746973D01*
X1129085Y747389D01*
X1129948Y748052D01*
X1130611Y748915D01*
X1131027Y749921D01*
X1131170Y751000D01*
X1131027Y752079D01*
X1130611Y753085D01*
X1129948Y753948D01*
X1129085Y754611D01*
X1128079Y755027D01*
X1127000Y755169D01*
D02*
G37*
G36*
X1117000D02*
X1115921Y755027D01*
X1114915Y754611D01*
X1114052Y753948D01*
X1113389Y753085D01*
X1112973Y752079D01*
X1112831Y751000D01*
X1112973Y749921D01*
X1113389Y748915D01*
X1114052Y748052D01*
X1114915Y747389D01*
X1115921Y746973D01*
X1117000Y746831D01*
X1118079Y746973D01*
X1119085Y747389D01*
X1119948Y748052D01*
X1120611Y748915D01*
X1121027Y749921D01*
X1121169Y751000D01*
X1121027Y752079D01*
X1120611Y753085D01*
X1119948Y753948D01*
X1119085Y754611D01*
X1118079Y755027D01*
X1117000Y755169D01*
D02*
G37*
G36*
X1107000D02*
X1105921Y755027D01*
X1104915Y754611D01*
X1104052Y753948D01*
X1103389Y753085D01*
X1102973Y752079D01*
X1102831Y751000D01*
X1102973Y749921D01*
X1103389Y748915D01*
X1104052Y748052D01*
X1104915Y747389D01*
X1105921Y746973D01*
X1107000Y746831D01*
X1108079Y746973D01*
X1109085Y747389D01*
X1109948Y748052D01*
X1110611Y748915D01*
X1111027Y749921D01*
X1111170Y751000D01*
X1111027Y752079D01*
X1110611Y753085D01*
X1109948Y753948D01*
X1109085Y754611D01*
X1108079Y755027D01*
X1107000Y755169D01*
D02*
G37*
G36*
X1097000D02*
X1095921Y755027D01*
X1094915Y754611D01*
X1094052Y753948D01*
X1093389Y753085D01*
X1092973Y752079D01*
X1092830Y751000D01*
X1092973Y749921D01*
X1093389Y748915D01*
X1094052Y748052D01*
X1094915Y747389D01*
X1095921Y746973D01*
X1097000Y746831D01*
X1098079Y746973D01*
X1099085Y747389D01*
X1099948Y748052D01*
X1100611Y748915D01*
X1101027Y749921D01*
X1101169Y751000D01*
X1101027Y752079D01*
X1100611Y753085D01*
X1099948Y753948D01*
X1099085Y754611D01*
X1098079Y755027D01*
X1097000Y755169D01*
D02*
G37*
G36*
X1087000D02*
X1085921Y755027D01*
X1084915Y754611D01*
X1084052Y753948D01*
X1083389Y753085D01*
X1082973Y752079D01*
X1082831Y751000D01*
X1082973Y749921D01*
X1083389Y748915D01*
X1084052Y748052D01*
X1084915Y747389D01*
X1085921Y746973D01*
X1087000Y746831D01*
X1088079Y746973D01*
X1089085Y747389D01*
X1089948Y748052D01*
X1090611Y748915D01*
X1091027Y749921D01*
X1091169Y751000D01*
X1091027Y752079D01*
X1090611Y753085D01*
X1089948Y753948D01*
X1089085Y754611D01*
X1088079Y755027D01*
X1087000Y755169D01*
D02*
G37*
G36*
X1077000D02*
X1075921Y755027D01*
X1074915Y754611D01*
X1074052Y753948D01*
X1073389Y753085D01*
X1072973Y752079D01*
X1072830Y751000D01*
X1072973Y749921D01*
X1073389Y748915D01*
X1074052Y748052D01*
X1074915Y747389D01*
X1075921Y746973D01*
X1077000Y746831D01*
X1078079Y746973D01*
X1079085Y747389D01*
X1079948Y748052D01*
X1080611Y748915D01*
X1081027Y749921D01*
X1081170Y751000D01*
X1081027Y752079D01*
X1080611Y753085D01*
X1079948Y753948D01*
X1079085Y754611D01*
X1078079Y755027D01*
X1077000Y755169D01*
D02*
G37*
G36*
X1067000D02*
X1065921Y755027D01*
X1064915Y754611D01*
X1064052Y753948D01*
X1063389Y753085D01*
X1062973Y752079D01*
X1062831Y751000D01*
X1062973Y749921D01*
X1063389Y748915D01*
X1064052Y748052D01*
X1064915Y747389D01*
X1065921Y746973D01*
X1067000Y746831D01*
X1068079Y746973D01*
X1069085Y747389D01*
X1069948Y748052D01*
X1070611Y748915D01*
X1071027Y749921D01*
X1071169Y751000D01*
X1071027Y752079D01*
X1070611Y753085D01*
X1069948Y753948D01*
X1069085Y754611D01*
X1068079Y755027D01*
X1067000Y755169D01*
D02*
G37*
G36*
X1057000D02*
X1055921Y755027D01*
X1054915Y754611D01*
X1054052Y753948D01*
X1053389Y753085D01*
X1052973Y752079D01*
X1052831Y751000D01*
X1052973Y749921D01*
X1053389Y748915D01*
X1054052Y748052D01*
X1054915Y747389D01*
X1055921Y746973D01*
X1057000Y746831D01*
X1058079Y746973D01*
X1059085Y747389D01*
X1059948Y748052D01*
X1060611Y748915D01*
X1061027Y749921D01*
X1061170Y751000D01*
X1061027Y752079D01*
X1060611Y753085D01*
X1059948Y753948D01*
X1059085Y754611D01*
X1058079Y755027D01*
X1057000Y755169D01*
D02*
G37*
G36*
X1047000D02*
X1045921Y755027D01*
X1044915Y754611D01*
X1044052Y753948D01*
X1043389Y753085D01*
X1042973Y752079D01*
X1042830Y751000D01*
X1042973Y749921D01*
X1043389Y748915D01*
X1044052Y748052D01*
X1044915Y747389D01*
X1045921Y746973D01*
X1047000Y746831D01*
X1048079Y746973D01*
X1049085Y747389D01*
X1049948Y748052D01*
X1050611Y748915D01*
X1051027Y749921D01*
X1051169Y751000D01*
X1051027Y752079D01*
X1050611Y753085D01*
X1049948Y753948D01*
X1049085Y754611D01*
X1048079Y755027D01*
X1047000Y755169D01*
D02*
G37*
G36*
X1037000D02*
X1035921Y755027D01*
X1034915Y754611D01*
X1034052Y753948D01*
X1033389Y753085D01*
X1032973Y752079D01*
X1032831Y751000D01*
X1032973Y749921D01*
X1033389Y748915D01*
X1034052Y748052D01*
X1034915Y747389D01*
X1035921Y746973D01*
X1037000Y746831D01*
X1038079Y746973D01*
X1039085Y747389D01*
X1039948Y748052D01*
X1040611Y748915D01*
X1041027Y749921D01*
X1041169Y751000D01*
X1041027Y752079D01*
X1040611Y753085D01*
X1039948Y753948D01*
X1039085Y754611D01*
X1038079Y755027D01*
X1037000Y755169D01*
D02*
G37*
G36*
X1027000D02*
X1025921Y755027D01*
X1024915Y754611D01*
X1024052Y753948D01*
X1023389Y753085D01*
X1022973Y752079D01*
X1022830Y751000D01*
X1022973Y749921D01*
X1023389Y748915D01*
X1024052Y748052D01*
X1024915Y747389D01*
X1025921Y746973D01*
X1027000Y746831D01*
X1028079Y746973D01*
X1029085Y747389D01*
X1029948Y748052D01*
X1030611Y748915D01*
X1031027Y749921D01*
X1031170Y751000D01*
X1031027Y752079D01*
X1030611Y753085D01*
X1029948Y753948D01*
X1029085Y754611D01*
X1028079Y755027D01*
X1027000Y755169D01*
D02*
G37*
G36*
X1017000D02*
X1015921Y755027D01*
X1014915Y754611D01*
X1014052Y753948D01*
X1013389Y753085D01*
X1012973Y752079D01*
X1012831Y751000D01*
X1012973Y749921D01*
X1013389Y748915D01*
X1014052Y748052D01*
X1014915Y747389D01*
X1015921Y746973D01*
X1017000Y746831D01*
X1018079Y746973D01*
X1019085Y747389D01*
X1019948Y748052D01*
X1020611Y748915D01*
X1021027Y749921D01*
X1021169Y751000D01*
X1021027Y752079D01*
X1020611Y753085D01*
X1019948Y753948D01*
X1019085Y754611D01*
X1018079Y755027D01*
X1017000Y755169D01*
D02*
G37*
G36*
X1007000D02*
X1005921Y755027D01*
X1004915Y754611D01*
X1004052Y753948D01*
X1003389Y753085D01*
X1002973Y752079D01*
X1002831Y751000D01*
X1002973Y749921D01*
X1003389Y748915D01*
X1004052Y748052D01*
X1004915Y747389D01*
X1005921Y746973D01*
X1007000Y746831D01*
X1008079Y746973D01*
X1009085Y747389D01*
X1009948Y748052D01*
X1010611Y748915D01*
X1011027Y749921D01*
X1011170Y751000D01*
X1011027Y752079D01*
X1010611Y753085D01*
X1009948Y753948D01*
X1009085Y754611D01*
X1008079Y755027D01*
X1007000Y755169D01*
D02*
G37*
G36*
X997000D02*
X995921Y755027D01*
X994915Y754611D01*
X994052Y753948D01*
X993389Y753085D01*
X992973Y752079D01*
X992830Y751000D01*
X992973Y749921D01*
X993389Y748915D01*
X994052Y748052D01*
X994915Y747389D01*
X995921Y746973D01*
X997000Y746831D01*
X998079Y746973D01*
X999085Y747389D01*
X999948Y748052D01*
X1000611Y748915D01*
X1001027Y749921D01*
X1001169Y751000D01*
X1001027Y752079D01*
X1000611Y753085D01*
X999948Y753948D01*
X999085Y754611D01*
X998079Y755027D01*
X997000Y755169D01*
D02*
G37*
G36*
X987000D02*
X985921Y755027D01*
X984915Y754611D01*
X984052Y753948D01*
X983389Y753085D01*
X982973Y752079D01*
X982831Y751000D01*
X982973Y749921D01*
X983389Y748915D01*
X984052Y748052D01*
X984915Y747389D01*
X985921Y746973D01*
X987000Y746831D01*
X988079Y746973D01*
X989085Y747389D01*
X989948Y748052D01*
X990611Y748915D01*
X991027Y749921D01*
X991169Y751000D01*
X991027Y752079D01*
X990611Y753085D01*
X989948Y753948D01*
X989085Y754611D01*
X988079Y755027D01*
X987000Y755169D01*
D02*
G37*
G36*
X977000D02*
X975921Y755027D01*
X974915Y754611D01*
X974052Y753948D01*
X973389Y753085D01*
X972973Y752079D01*
X972830Y751000D01*
X972973Y749921D01*
X973389Y748915D01*
X974052Y748052D01*
X974915Y747389D01*
X975921Y746973D01*
X977000Y746831D01*
X978079Y746973D01*
X979085Y747389D01*
X979948Y748052D01*
X980611Y748915D01*
X981027Y749921D01*
X981170Y751000D01*
X981027Y752079D01*
X980611Y753085D01*
X979948Y753948D01*
X979085Y754611D01*
X978079Y755027D01*
X977000Y755169D01*
D02*
G37*
G36*
X967000D02*
X965921Y755027D01*
X964915Y754611D01*
X964052Y753948D01*
X963389Y753085D01*
X962973Y752079D01*
X962831Y751000D01*
X962973Y749921D01*
X963389Y748915D01*
X964052Y748052D01*
X964915Y747389D01*
X965921Y746973D01*
X967000Y746831D01*
X968079Y746973D01*
X969085Y747389D01*
X969948Y748052D01*
X970611Y748915D01*
X971027Y749921D01*
X971169Y751000D01*
X971027Y752079D01*
X970611Y753085D01*
X969948Y753948D01*
X969085Y754611D01*
X968079Y755027D01*
X967000Y755169D01*
D02*
G37*
G36*
X957000D02*
X955921Y755027D01*
X954915Y754611D01*
X954052Y753948D01*
X953389Y753085D01*
X952973Y752079D01*
X952831Y751000D01*
X952973Y749921D01*
X953389Y748915D01*
X954052Y748052D01*
X954915Y747389D01*
X955921Y746973D01*
X957000Y746831D01*
X958079Y746973D01*
X959085Y747389D01*
X959948Y748052D01*
X960611Y748915D01*
X961027Y749921D01*
X961170Y751000D01*
X961027Y752079D01*
X960611Y753085D01*
X959948Y753948D01*
X959085Y754611D01*
X958079Y755027D01*
X957000Y755169D01*
D02*
G37*
G36*
X947000D02*
X945921Y755027D01*
X944915Y754611D01*
X944052Y753948D01*
X943389Y753085D01*
X942973Y752079D01*
X942830Y751000D01*
X942973Y749921D01*
X943389Y748915D01*
X944052Y748052D01*
X944915Y747389D01*
X945921Y746973D01*
X947000Y746831D01*
X948079Y746973D01*
X949085Y747389D01*
X949948Y748052D01*
X950611Y748915D01*
X951027Y749921D01*
X951169Y751000D01*
X951027Y752079D01*
X950611Y753085D01*
X949948Y753948D01*
X949085Y754611D01*
X948079Y755027D01*
X947000Y755169D01*
D02*
G37*
G36*
X937000D02*
X935921Y755027D01*
X934915Y754611D01*
X934052Y753948D01*
X933389Y753085D01*
X932973Y752079D01*
X932831Y751000D01*
X932973Y749921D01*
X933389Y748915D01*
X934052Y748052D01*
X934915Y747389D01*
X935921Y746973D01*
X937000Y746831D01*
X938079Y746973D01*
X939085Y747389D01*
X939948Y748052D01*
X940611Y748915D01*
X941027Y749921D01*
X941169Y751000D01*
X941027Y752079D01*
X940611Y753085D01*
X939948Y753948D01*
X939085Y754611D01*
X938079Y755027D01*
X937000Y755169D01*
D02*
G37*
G36*
X927000D02*
X925921Y755027D01*
X924915Y754611D01*
X924052Y753948D01*
X923389Y753085D01*
X922973Y752079D01*
X922830Y751000D01*
X922973Y749921D01*
X923389Y748915D01*
X924052Y748052D01*
X924915Y747389D01*
X925921Y746973D01*
X927000Y746831D01*
X928079Y746973D01*
X929085Y747389D01*
X929948Y748052D01*
X930611Y748915D01*
X931027Y749921D01*
X931170Y751000D01*
X931027Y752079D01*
X930611Y753085D01*
X929948Y753948D01*
X929085Y754611D01*
X928079Y755027D01*
X927000Y755169D01*
D02*
G37*
G36*
X917000D02*
X915921Y755027D01*
X914915Y754611D01*
X914052Y753948D01*
X913389Y753085D01*
X912973Y752079D01*
X912831Y751000D01*
X912973Y749921D01*
X913389Y748915D01*
X914052Y748052D01*
X914915Y747389D01*
X915921Y746973D01*
X917000Y746831D01*
X918079Y746973D01*
X919085Y747389D01*
X919948Y748052D01*
X920611Y748915D01*
X921027Y749921D01*
X921169Y751000D01*
X921027Y752079D01*
X920611Y753085D01*
X919948Y753948D01*
X919085Y754611D01*
X918079Y755027D01*
X917000Y755169D01*
D02*
G37*
G36*
X907000D02*
X905921Y755027D01*
X904915Y754611D01*
X904052Y753948D01*
X903389Y753085D01*
X902973Y752079D01*
X902831Y751000D01*
X902973Y749921D01*
X903389Y748915D01*
X904052Y748052D01*
X904915Y747389D01*
X905921Y746973D01*
X907000Y746831D01*
X908079Y746973D01*
X909085Y747389D01*
X909948Y748052D01*
X910611Y748915D01*
X911027Y749921D01*
X911170Y751000D01*
X911027Y752079D01*
X910611Y753085D01*
X909948Y753948D01*
X909085Y754611D01*
X908079Y755027D01*
X907000Y755169D01*
D02*
G37*
G36*
X897000D02*
X895921Y755027D01*
X894915Y754611D01*
X894052Y753948D01*
X893389Y753085D01*
X892973Y752079D01*
X892830Y751000D01*
X892973Y749921D01*
X893389Y748915D01*
X894052Y748052D01*
X894915Y747389D01*
X895921Y746973D01*
X897000Y746831D01*
X898079Y746973D01*
X899085Y747389D01*
X899948Y748052D01*
X900611Y748915D01*
X901027Y749921D01*
X901169Y751000D01*
X901027Y752079D01*
X900611Y753085D01*
X899948Y753948D01*
X899085Y754611D01*
X898079Y755027D01*
X897000Y755169D01*
D02*
G37*
G36*
X887000D02*
X885921Y755027D01*
X884915Y754611D01*
X884052Y753948D01*
X883389Y753085D01*
X882973Y752079D01*
X882831Y751000D01*
X882973Y749921D01*
X883389Y748915D01*
X884052Y748052D01*
X884915Y747389D01*
X885921Y746973D01*
X887000Y746831D01*
X888079Y746973D01*
X889085Y747389D01*
X889948Y748052D01*
X890611Y748915D01*
X891027Y749921D01*
X891169Y751000D01*
X891027Y752079D01*
X890611Y753085D01*
X889948Y753948D01*
X889085Y754611D01*
X888079Y755027D01*
X887000Y755169D01*
D02*
G37*
G36*
X639500Y745908D02*
X638578Y745725D01*
X637813Y745214D01*
X584500D01*
X583844Y745084D01*
X583288Y744712D01*
X580981Y742405D01*
X580078Y742225D01*
X579533Y741861D01*
X578889Y741924D01*
X578703Y742203D01*
X577922Y742725D01*
X577000Y742908D01*
X576078Y742725D01*
X575313Y742214D01*
X566687D01*
X565922Y742725D01*
X565000Y742908D01*
X564078Y742725D01*
X563297Y742203D01*
X562775Y741422D01*
X562592Y740500D01*
X562775Y739578D01*
X563297Y738797D01*
X564078Y738275D01*
X565000Y738092D01*
X565922Y738275D01*
X566687Y738786D01*
X575313D01*
X576078Y738275D01*
X577000Y738092D01*
X577922Y738275D01*
X578703Y738797D01*
X578963D01*
X579297Y738297D01*
X580078Y737775D01*
X581000Y737592D01*
X581922Y737775D01*
X582703Y738297D01*
X583225Y739078D01*
X583405Y739981D01*
X585210Y741786D01*
X637813D01*
X638578Y741275D01*
X639500Y741091D01*
X640422Y741275D01*
X641203Y741797D01*
X641725Y742578D01*
X641909Y743500D01*
X641725Y744422D01*
X641203Y745203D01*
X640422Y745725D01*
X639500Y745908D01*
D02*
G37*
G36*
X762528Y748527D02*
X753473D01*
Y739472D01*
X762528D01*
Y748527D01*
D02*
G37*
G36*
X692527D02*
X683472D01*
Y739472D01*
X692527D01*
Y748527D01*
D02*
G37*
G36*
X672528D02*
X663473D01*
Y739472D01*
X672528D01*
Y748527D01*
D02*
G37*
G36*
X748000Y748567D02*
X746818Y748411D01*
X745717Y747955D01*
X744771Y747229D01*
X744045Y746283D01*
X743589Y745182D01*
X743433Y744000D01*
X743589Y742818D01*
X744045Y741717D01*
X744771Y740771D01*
X745717Y740045D01*
X746818Y739589D01*
X748000Y739433D01*
X749182Y739589D01*
X750283Y740045D01*
X751229Y740771D01*
X751955Y741717D01*
X752411Y742818D01*
X752567Y744000D01*
X752411Y745182D01*
X751955Y746283D01*
X751229Y747229D01*
X750283Y747955D01*
X749182Y748411D01*
X748000Y748567D01*
D02*
G37*
G36*
X738000D02*
X736818Y748411D01*
X735717Y747955D01*
X734771Y747229D01*
X734045Y746283D01*
X733589Y745182D01*
X733433Y744000D01*
X733589Y742818D01*
X734045Y741717D01*
X734771Y740771D01*
X735717Y740045D01*
X736818Y739589D01*
X738000Y739433D01*
X739182Y739589D01*
X740283Y740045D01*
X741229Y740771D01*
X741955Y741717D01*
X742411Y742818D01*
X742567Y744000D01*
X742411Y745182D01*
X741955Y746283D01*
X741229Y747229D01*
X740283Y747955D01*
X739182Y748411D01*
X738000Y748567D01*
D02*
G37*
G36*
X728000D02*
X726818Y748411D01*
X725717Y747955D01*
X724771Y747229D01*
X724045Y746283D01*
X723589Y745182D01*
X723433Y744000D01*
X723589Y742818D01*
X724045Y741717D01*
X724771Y740771D01*
X725717Y740045D01*
X726818Y739589D01*
X728000Y739433D01*
X729182Y739589D01*
X730283Y740045D01*
X731229Y740771D01*
X731955Y741717D01*
X732411Y742818D01*
X732567Y744000D01*
X732411Y745182D01*
X731955Y746283D01*
X731229Y747229D01*
X730283Y747955D01*
X729182Y748411D01*
X728000Y748567D01*
D02*
G37*
G36*
X718000D02*
X716818Y748411D01*
X715717Y747955D01*
X714771Y747229D01*
X714045Y746283D01*
X713589Y745182D01*
X713433Y744000D01*
X713589Y742818D01*
X714045Y741717D01*
X714771Y740771D01*
X715717Y740045D01*
X716818Y739589D01*
X718000Y739433D01*
X719182Y739589D01*
X720283Y740045D01*
X721229Y740771D01*
X721955Y741717D01*
X722411Y742818D01*
X722567Y744000D01*
X722411Y745182D01*
X721955Y746283D01*
X721229Y747229D01*
X720283Y747955D01*
X719182Y748411D01*
X718000Y748567D01*
D02*
G37*
G36*
X708000D02*
X706818Y748411D01*
X705717Y747955D01*
X704771Y747229D01*
X704045Y746283D01*
X703589Y745182D01*
X703433Y744000D01*
X703589Y742818D01*
X704045Y741717D01*
X704771Y740771D01*
X705717Y740045D01*
X706818Y739589D01*
X708000Y739433D01*
X709182Y739589D01*
X710283Y740045D01*
X711229Y740771D01*
X711955Y741717D01*
X712411Y742818D01*
X712567Y744000D01*
X712411Y745182D01*
X711955Y746283D01*
X711229Y747229D01*
X710283Y747955D01*
X709182Y748411D01*
X708000Y748567D01*
D02*
G37*
G36*
X698000D02*
X696818Y748411D01*
X695717Y747955D01*
X694771Y747229D01*
X694045Y746283D01*
X693589Y745182D01*
X693433Y744000D01*
X693589Y742818D01*
X694045Y741717D01*
X694771Y740771D01*
X695717Y740045D01*
X696818Y739589D01*
X698000Y739433D01*
X699182Y739589D01*
X700283Y740045D01*
X701229Y740771D01*
X701955Y741717D01*
X702411Y742818D01*
X702567Y744000D01*
X702411Y745182D01*
X701955Y746283D01*
X701229Y747229D01*
X700283Y747955D01*
X699182Y748411D01*
X698000Y748567D01*
D02*
G37*
G36*
X678000D02*
X676818Y748411D01*
X675717Y747955D01*
X674771Y747229D01*
X674045Y746283D01*
X673589Y745182D01*
X673433Y744000D01*
X673589Y742818D01*
X674045Y741717D01*
X674771Y740771D01*
X675717Y740045D01*
X676818Y739589D01*
X678000Y739433D01*
X679182Y739589D01*
X680283Y740045D01*
X681229Y740771D01*
X681955Y741717D01*
X682411Y742818D01*
X682567Y744000D01*
X682411Y745182D01*
X681955Y746283D01*
X681229Y747229D01*
X680283Y747955D01*
X679182Y748411D01*
X678000Y748567D01*
D02*
G37*
G36*
X1091134Y745134D02*
X1082866D01*
Y736866D01*
X1091134D01*
Y745134D01*
D02*
G37*
G36*
X891134D02*
X882866D01*
Y736866D01*
X891134D01*
Y745134D01*
D02*
G37*
G36*
X1227000Y745169D02*
X1225921Y745027D01*
X1224915Y744611D01*
X1224052Y743948D01*
X1223389Y743085D01*
X1222973Y742079D01*
X1222830Y741000D01*
X1222973Y739921D01*
X1223389Y738915D01*
X1224052Y738052D01*
X1224915Y737389D01*
X1225921Y736973D01*
X1227000Y736831D01*
X1228079Y736973D01*
X1229085Y737389D01*
X1229948Y738052D01*
X1230611Y738915D01*
X1231027Y739921D01*
X1231170Y741000D01*
X1231027Y742079D01*
X1230611Y743085D01*
X1229948Y743948D01*
X1229085Y744611D01*
X1228079Y745027D01*
X1227000Y745169D01*
D02*
G37*
G36*
X1217000D02*
X1215921Y745027D01*
X1214915Y744611D01*
X1214052Y743948D01*
X1213389Y743085D01*
X1212973Y742079D01*
X1212831Y741000D01*
X1212973Y739921D01*
X1213389Y738915D01*
X1214052Y738052D01*
X1214915Y737389D01*
X1215921Y736973D01*
X1217000Y736831D01*
X1218079Y736973D01*
X1219085Y737389D01*
X1219948Y738052D01*
X1220611Y738915D01*
X1221027Y739921D01*
X1221169Y741000D01*
X1221027Y742079D01*
X1220611Y743085D01*
X1219948Y743948D01*
X1219085Y744611D01*
X1218079Y745027D01*
X1217000Y745169D01*
D02*
G37*
G36*
X1207000D02*
X1205921Y745027D01*
X1204915Y744611D01*
X1204052Y743948D01*
X1203389Y743085D01*
X1202973Y742079D01*
X1202831Y741000D01*
X1202973Y739921D01*
X1203389Y738915D01*
X1204052Y738052D01*
X1204915Y737389D01*
X1205921Y736973D01*
X1207000Y736831D01*
X1208079Y736973D01*
X1209085Y737389D01*
X1209948Y738052D01*
X1210611Y738915D01*
X1211027Y739921D01*
X1211170Y741000D01*
X1211027Y742079D01*
X1210611Y743085D01*
X1209948Y743948D01*
X1209085Y744611D01*
X1208079Y745027D01*
X1207000Y745169D01*
D02*
G37*
G36*
X1197000D02*
X1195921Y745027D01*
X1194915Y744611D01*
X1194052Y743948D01*
X1193389Y743085D01*
X1192973Y742079D01*
X1192830Y741000D01*
X1192973Y739921D01*
X1193389Y738915D01*
X1194052Y738052D01*
X1194915Y737389D01*
X1195921Y736973D01*
X1197000Y736831D01*
X1198079Y736973D01*
X1199085Y737389D01*
X1199948Y738052D01*
X1200611Y738915D01*
X1201027Y739921D01*
X1201169Y741000D01*
X1201027Y742079D01*
X1200611Y743085D01*
X1199948Y743948D01*
X1199085Y744611D01*
X1198079Y745027D01*
X1197000Y745169D01*
D02*
G37*
G36*
X1187000D02*
X1185921Y745027D01*
X1184915Y744611D01*
X1184052Y743948D01*
X1183389Y743085D01*
X1182973Y742079D01*
X1182831Y741000D01*
X1182973Y739921D01*
X1183389Y738915D01*
X1184052Y738052D01*
X1184915Y737389D01*
X1185921Y736973D01*
X1187000Y736831D01*
X1188079Y736973D01*
X1189085Y737389D01*
X1189948Y738052D01*
X1190611Y738915D01*
X1191027Y739921D01*
X1191169Y741000D01*
X1191027Y742079D01*
X1190611Y743085D01*
X1189948Y743948D01*
X1189085Y744611D01*
X1188079Y745027D01*
X1187000Y745169D01*
D02*
G37*
G36*
X1177000D02*
X1175921Y745027D01*
X1174915Y744611D01*
X1174052Y743948D01*
X1173389Y743085D01*
X1172973Y742079D01*
X1172830Y741000D01*
X1172973Y739921D01*
X1173389Y738915D01*
X1174052Y738052D01*
X1174915Y737389D01*
X1175921Y736973D01*
X1177000Y736831D01*
X1178079Y736973D01*
X1179085Y737389D01*
X1179948Y738052D01*
X1180611Y738915D01*
X1181027Y739921D01*
X1181170Y741000D01*
X1181027Y742079D01*
X1180611Y743085D01*
X1179948Y743948D01*
X1179085Y744611D01*
X1178079Y745027D01*
X1177000Y745169D01*
D02*
G37*
G36*
X1167000D02*
X1165921Y745027D01*
X1164915Y744611D01*
X1164052Y743948D01*
X1163389Y743085D01*
X1162973Y742079D01*
X1162831Y741000D01*
X1162973Y739921D01*
X1163389Y738915D01*
X1164052Y738052D01*
X1164915Y737389D01*
X1165921Y736973D01*
X1167000Y736831D01*
X1168079Y736973D01*
X1169085Y737389D01*
X1169948Y738052D01*
X1170611Y738915D01*
X1171027Y739921D01*
X1171169Y741000D01*
X1171027Y742079D01*
X1170611Y743085D01*
X1169948Y743948D01*
X1169085Y744611D01*
X1168079Y745027D01*
X1167000Y745169D01*
D02*
G37*
G36*
X1157000D02*
X1155921Y745027D01*
X1154915Y744611D01*
X1154052Y743948D01*
X1153389Y743085D01*
X1152973Y742079D01*
X1152831Y741000D01*
X1152973Y739921D01*
X1153389Y738915D01*
X1154052Y738052D01*
X1154915Y737389D01*
X1155921Y736973D01*
X1157000Y736831D01*
X1158079Y736973D01*
X1159085Y737389D01*
X1159948Y738052D01*
X1160611Y738915D01*
X1161027Y739921D01*
X1161170Y741000D01*
X1161027Y742079D01*
X1160611Y743085D01*
X1159948Y743948D01*
X1159085Y744611D01*
X1158079Y745027D01*
X1157000Y745169D01*
D02*
G37*
G36*
X1147000D02*
X1145921Y745027D01*
X1144915Y744611D01*
X1144052Y743948D01*
X1143389Y743085D01*
X1142973Y742079D01*
X1142830Y741000D01*
X1142973Y739921D01*
X1143389Y738915D01*
X1144052Y738052D01*
X1144915Y737389D01*
X1145921Y736973D01*
X1147000Y736831D01*
X1148079Y736973D01*
X1149085Y737389D01*
X1149948Y738052D01*
X1150611Y738915D01*
X1151027Y739921D01*
X1151169Y741000D01*
X1151027Y742079D01*
X1150611Y743085D01*
X1149948Y743948D01*
X1149085Y744611D01*
X1148079Y745027D01*
X1147000Y745169D01*
D02*
G37*
G36*
X1137000D02*
X1135921Y745027D01*
X1134915Y744611D01*
X1134052Y743948D01*
X1133389Y743085D01*
X1132973Y742079D01*
X1132831Y741000D01*
X1132973Y739921D01*
X1133389Y738915D01*
X1134052Y738052D01*
X1134915Y737389D01*
X1135921Y736973D01*
X1137000Y736831D01*
X1138079Y736973D01*
X1139085Y737389D01*
X1139948Y738052D01*
X1140611Y738915D01*
X1141027Y739921D01*
X1141169Y741000D01*
X1141027Y742079D01*
X1140611Y743085D01*
X1139948Y743948D01*
X1139085Y744611D01*
X1138079Y745027D01*
X1137000Y745169D01*
D02*
G37*
G36*
X1127000D02*
X1125921Y745027D01*
X1124915Y744611D01*
X1124052Y743948D01*
X1123389Y743085D01*
X1122973Y742079D01*
X1122830Y741000D01*
X1122973Y739921D01*
X1123389Y738915D01*
X1124052Y738052D01*
X1124915Y737389D01*
X1125921Y736973D01*
X1127000Y736831D01*
X1128079Y736973D01*
X1129085Y737389D01*
X1129948Y738052D01*
X1130611Y738915D01*
X1131027Y739921D01*
X1131170Y741000D01*
X1131027Y742079D01*
X1130611Y743085D01*
X1129948Y743948D01*
X1129085Y744611D01*
X1128079Y745027D01*
X1127000Y745169D01*
D02*
G37*
G36*
X1117000D02*
X1115921Y745027D01*
X1114915Y744611D01*
X1114052Y743948D01*
X1113389Y743085D01*
X1112973Y742079D01*
X1112831Y741000D01*
X1112973Y739921D01*
X1113389Y738915D01*
X1114052Y738052D01*
X1114915Y737389D01*
X1115921Y736973D01*
X1117000Y736831D01*
X1118079Y736973D01*
X1119085Y737389D01*
X1119948Y738052D01*
X1120611Y738915D01*
X1121027Y739921D01*
X1121169Y741000D01*
X1121027Y742079D01*
X1120611Y743085D01*
X1119948Y743948D01*
X1119085Y744611D01*
X1118079Y745027D01*
X1117000Y745169D01*
D02*
G37*
G36*
X1107000D02*
X1105921Y745027D01*
X1104915Y744611D01*
X1104052Y743948D01*
X1103389Y743085D01*
X1102973Y742079D01*
X1102831Y741000D01*
X1102973Y739921D01*
X1103389Y738915D01*
X1104052Y738052D01*
X1104915Y737389D01*
X1105921Y736973D01*
X1107000Y736831D01*
X1108079Y736973D01*
X1109085Y737389D01*
X1109948Y738052D01*
X1110611Y738915D01*
X1111027Y739921D01*
X1111170Y741000D01*
X1111027Y742079D01*
X1110611Y743085D01*
X1109948Y743948D01*
X1109085Y744611D01*
X1108079Y745027D01*
X1107000Y745169D01*
D02*
G37*
G36*
X1097000D02*
X1095921Y745027D01*
X1094915Y744611D01*
X1094052Y743948D01*
X1093389Y743085D01*
X1092973Y742079D01*
X1092830Y741000D01*
X1092973Y739921D01*
X1093389Y738915D01*
X1094052Y738052D01*
X1094915Y737389D01*
X1095921Y736973D01*
X1097000Y736831D01*
X1098079Y736973D01*
X1099085Y737389D01*
X1099948Y738052D01*
X1100611Y738915D01*
X1101027Y739921D01*
X1101169Y741000D01*
X1101027Y742079D01*
X1100611Y743085D01*
X1099948Y743948D01*
X1099085Y744611D01*
X1098079Y745027D01*
X1097000Y745169D01*
D02*
G37*
G36*
X1077000D02*
X1075921Y745027D01*
X1074915Y744611D01*
X1074052Y743948D01*
X1073389Y743085D01*
X1072973Y742079D01*
X1072830Y741000D01*
X1072973Y739921D01*
X1073389Y738915D01*
X1074052Y738052D01*
X1074915Y737389D01*
X1075921Y736973D01*
X1077000Y736831D01*
X1078079Y736973D01*
X1079085Y737389D01*
X1079948Y738052D01*
X1080611Y738915D01*
X1081027Y739921D01*
X1081170Y741000D01*
X1081027Y742079D01*
X1080611Y743085D01*
X1079948Y743948D01*
X1079085Y744611D01*
X1078079Y745027D01*
X1077000Y745169D01*
D02*
G37*
G36*
X1067000D02*
X1065921Y745027D01*
X1064915Y744611D01*
X1064052Y743948D01*
X1063389Y743085D01*
X1062973Y742079D01*
X1062831Y741000D01*
X1062973Y739921D01*
X1063389Y738915D01*
X1064052Y738052D01*
X1064915Y737389D01*
X1065921Y736973D01*
X1067000Y736831D01*
X1068079Y736973D01*
X1069085Y737389D01*
X1069948Y738052D01*
X1070611Y738915D01*
X1071027Y739921D01*
X1071169Y741000D01*
X1071027Y742079D01*
X1070611Y743085D01*
X1069948Y743948D01*
X1069085Y744611D01*
X1068079Y745027D01*
X1067000Y745169D01*
D02*
G37*
G36*
X1057000D02*
X1055921Y745027D01*
X1054915Y744611D01*
X1054052Y743948D01*
X1053389Y743085D01*
X1052973Y742079D01*
X1052831Y741000D01*
X1052973Y739921D01*
X1053389Y738915D01*
X1054052Y738052D01*
X1054915Y737389D01*
X1055921Y736973D01*
X1057000Y736831D01*
X1058079Y736973D01*
X1059085Y737389D01*
X1059948Y738052D01*
X1060611Y738915D01*
X1061027Y739921D01*
X1061170Y741000D01*
X1061027Y742079D01*
X1060611Y743085D01*
X1059948Y743948D01*
X1059085Y744611D01*
X1058079Y745027D01*
X1057000Y745169D01*
D02*
G37*
G36*
X1047000D02*
X1045921Y745027D01*
X1044915Y744611D01*
X1044052Y743948D01*
X1043389Y743085D01*
X1042973Y742079D01*
X1042830Y741000D01*
X1042973Y739921D01*
X1043389Y738915D01*
X1044052Y738052D01*
X1044915Y737389D01*
X1045921Y736973D01*
X1047000Y736831D01*
X1048079Y736973D01*
X1049085Y737389D01*
X1049948Y738052D01*
X1050611Y738915D01*
X1051027Y739921D01*
X1051169Y741000D01*
X1051027Y742079D01*
X1050611Y743085D01*
X1049948Y743948D01*
X1049085Y744611D01*
X1048079Y745027D01*
X1047000Y745169D01*
D02*
G37*
G36*
X1037000D02*
X1035921Y745027D01*
X1034915Y744611D01*
X1034052Y743948D01*
X1033389Y743085D01*
X1032973Y742079D01*
X1032831Y741000D01*
X1032973Y739921D01*
X1033389Y738915D01*
X1034052Y738052D01*
X1034915Y737389D01*
X1035921Y736973D01*
X1037000Y736831D01*
X1038079Y736973D01*
X1039085Y737389D01*
X1039948Y738052D01*
X1040611Y738915D01*
X1041027Y739921D01*
X1041169Y741000D01*
X1041027Y742079D01*
X1040611Y743085D01*
X1039948Y743948D01*
X1039085Y744611D01*
X1038079Y745027D01*
X1037000Y745169D01*
D02*
G37*
G36*
X1027000D02*
X1025921Y745027D01*
X1024915Y744611D01*
X1024052Y743948D01*
X1023389Y743085D01*
X1022973Y742079D01*
X1022830Y741000D01*
X1022973Y739921D01*
X1023389Y738915D01*
X1024052Y738052D01*
X1024915Y737389D01*
X1025921Y736973D01*
X1027000Y736831D01*
X1028079Y736973D01*
X1029085Y737389D01*
X1029948Y738052D01*
X1030611Y738915D01*
X1031027Y739921D01*
X1031170Y741000D01*
X1031027Y742079D01*
X1030611Y743085D01*
X1029948Y743948D01*
X1029085Y744611D01*
X1028079Y745027D01*
X1027000Y745169D01*
D02*
G37*
G36*
X1017000D02*
X1015921Y745027D01*
X1014915Y744611D01*
X1014052Y743948D01*
X1013389Y743085D01*
X1012973Y742079D01*
X1012831Y741000D01*
X1012973Y739921D01*
X1013389Y738915D01*
X1014052Y738052D01*
X1014915Y737389D01*
X1015921Y736973D01*
X1017000Y736831D01*
X1018079Y736973D01*
X1019085Y737389D01*
X1019948Y738052D01*
X1020611Y738915D01*
X1021027Y739921D01*
X1021169Y741000D01*
X1021027Y742079D01*
X1020611Y743085D01*
X1019948Y743948D01*
X1019085Y744611D01*
X1018079Y745027D01*
X1017000Y745169D01*
D02*
G37*
G36*
X1007000D02*
X1005921Y745027D01*
X1004915Y744611D01*
X1004052Y743948D01*
X1003389Y743085D01*
X1002973Y742079D01*
X1002831Y741000D01*
X1002973Y739921D01*
X1003389Y738915D01*
X1004052Y738052D01*
X1004915Y737389D01*
X1005921Y736973D01*
X1007000Y736831D01*
X1008079Y736973D01*
X1009085Y737389D01*
X1009948Y738052D01*
X1010611Y738915D01*
X1011027Y739921D01*
X1011170Y741000D01*
X1011027Y742079D01*
X1010611Y743085D01*
X1009948Y743948D01*
X1009085Y744611D01*
X1008079Y745027D01*
X1007000Y745169D01*
D02*
G37*
G36*
X997000D02*
X995921Y745027D01*
X994915Y744611D01*
X994052Y743948D01*
X993389Y743085D01*
X992973Y742079D01*
X992830Y741000D01*
X992973Y739921D01*
X993389Y738915D01*
X994052Y738052D01*
X994915Y737389D01*
X995921Y736973D01*
X997000Y736831D01*
X998079Y736973D01*
X999085Y737389D01*
X999948Y738052D01*
X1000611Y738915D01*
X1001027Y739921D01*
X1001169Y741000D01*
X1001027Y742079D01*
X1000611Y743085D01*
X999948Y743948D01*
X999085Y744611D01*
X998079Y745027D01*
X997000Y745169D01*
D02*
G37*
G36*
X987000D02*
X985921Y745027D01*
X984915Y744611D01*
X984052Y743948D01*
X983389Y743085D01*
X982973Y742079D01*
X982831Y741000D01*
X982973Y739921D01*
X983389Y738915D01*
X984052Y738052D01*
X984915Y737389D01*
X985921Y736973D01*
X987000Y736831D01*
X988079Y736973D01*
X989085Y737389D01*
X989948Y738052D01*
X990611Y738915D01*
X991027Y739921D01*
X991169Y741000D01*
X991027Y742079D01*
X990611Y743085D01*
X989948Y743948D01*
X989085Y744611D01*
X988079Y745027D01*
X987000Y745169D01*
D02*
G37*
G36*
X977000D02*
X975921Y745027D01*
X974915Y744611D01*
X974052Y743948D01*
X973389Y743085D01*
X972973Y742079D01*
X972830Y741000D01*
X972973Y739921D01*
X973389Y738915D01*
X974052Y738052D01*
X974915Y737389D01*
X975921Y736973D01*
X977000Y736831D01*
X978079Y736973D01*
X979085Y737389D01*
X979948Y738052D01*
X980611Y738915D01*
X981027Y739921D01*
X981170Y741000D01*
X981027Y742079D01*
X980611Y743085D01*
X979948Y743948D01*
X979085Y744611D01*
X978079Y745027D01*
X977000Y745169D01*
D02*
G37*
G36*
X967000D02*
X965921Y745027D01*
X964915Y744611D01*
X964052Y743948D01*
X963389Y743085D01*
X962973Y742079D01*
X962831Y741000D01*
X962973Y739921D01*
X963389Y738915D01*
X964052Y738052D01*
X964915Y737389D01*
X965921Y736973D01*
X967000Y736831D01*
X968079Y736973D01*
X969085Y737389D01*
X969948Y738052D01*
X970611Y738915D01*
X971027Y739921D01*
X971169Y741000D01*
X971027Y742079D01*
X970611Y743085D01*
X969948Y743948D01*
X969085Y744611D01*
X968079Y745027D01*
X967000Y745169D01*
D02*
G37*
G36*
X957000D02*
X955921Y745027D01*
X954915Y744611D01*
X954052Y743948D01*
X953389Y743085D01*
X952973Y742079D01*
X952831Y741000D01*
X952973Y739921D01*
X953389Y738915D01*
X954052Y738052D01*
X954915Y737389D01*
X955921Y736973D01*
X957000Y736831D01*
X958079Y736973D01*
X959085Y737389D01*
X959948Y738052D01*
X960611Y738915D01*
X961027Y739921D01*
X961170Y741000D01*
X961027Y742079D01*
X960611Y743085D01*
X959948Y743948D01*
X959085Y744611D01*
X958079Y745027D01*
X957000Y745169D01*
D02*
G37*
G36*
X947000D02*
X945921Y745027D01*
X944915Y744611D01*
X944052Y743948D01*
X943389Y743085D01*
X942973Y742079D01*
X942830Y741000D01*
X942973Y739921D01*
X943389Y738915D01*
X944052Y738052D01*
X944915Y737389D01*
X945921Y736973D01*
X947000Y736831D01*
X948079Y736973D01*
X949085Y737389D01*
X949948Y738052D01*
X950611Y738915D01*
X951027Y739921D01*
X951169Y741000D01*
X951027Y742079D01*
X950611Y743085D01*
X949948Y743948D01*
X949085Y744611D01*
X948079Y745027D01*
X947000Y745169D01*
D02*
G37*
G36*
X937000D02*
X935921Y745027D01*
X934915Y744611D01*
X934052Y743948D01*
X933389Y743085D01*
X932973Y742079D01*
X932831Y741000D01*
X932973Y739921D01*
X933389Y738915D01*
X934052Y738052D01*
X934915Y737389D01*
X935921Y736973D01*
X937000Y736831D01*
X938079Y736973D01*
X939085Y737389D01*
X939948Y738052D01*
X940611Y738915D01*
X941027Y739921D01*
X941169Y741000D01*
X941027Y742079D01*
X940611Y743085D01*
X939948Y743948D01*
X939085Y744611D01*
X938079Y745027D01*
X937000Y745169D01*
D02*
G37*
G36*
X927000D02*
X925921Y745027D01*
X924915Y744611D01*
X924052Y743948D01*
X923389Y743085D01*
X922973Y742079D01*
X922830Y741000D01*
X922973Y739921D01*
X923389Y738915D01*
X924052Y738052D01*
X924915Y737389D01*
X925921Y736973D01*
X927000Y736831D01*
X928079Y736973D01*
X929085Y737389D01*
X929948Y738052D01*
X930611Y738915D01*
X931027Y739921D01*
X931170Y741000D01*
X931027Y742079D01*
X930611Y743085D01*
X929948Y743948D01*
X929085Y744611D01*
X928079Y745027D01*
X927000Y745169D01*
D02*
G37*
G36*
X917000D02*
X915921Y745027D01*
X914915Y744611D01*
X914052Y743948D01*
X913389Y743085D01*
X912973Y742079D01*
X912831Y741000D01*
X912973Y739921D01*
X913389Y738915D01*
X914052Y738052D01*
X914915Y737389D01*
X915921Y736973D01*
X917000Y736831D01*
X918079Y736973D01*
X919085Y737389D01*
X919948Y738052D01*
X920611Y738915D01*
X921027Y739921D01*
X921169Y741000D01*
X921027Y742079D01*
X920611Y743085D01*
X919948Y743948D01*
X919085Y744611D01*
X918079Y745027D01*
X917000Y745169D01*
D02*
G37*
G36*
X907000D02*
X905921Y745027D01*
X904915Y744611D01*
X904052Y743948D01*
X903389Y743085D01*
X902973Y742079D01*
X902831Y741000D01*
X902973Y739921D01*
X903389Y738915D01*
X904052Y738052D01*
X904915Y737389D01*
X905921Y736973D01*
X907000Y736831D01*
X908079Y736973D01*
X909085Y737389D01*
X909948Y738052D01*
X910611Y738915D01*
X911027Y739921D01*
X911170Y741000D01*
X911027Y742079D01*
X910611Y743085D01*
X909948Y743948D01*
X909085Y744611D01*
X908079Y745027D01*
X907000Y745169D01*
D02*
G37*
G36*
X897000D02*
X895921Y745027D01*
X894915Y744611D01*
X894052Y743948D01*
X893389Y743085D01*
X892973Y742079D01*
X892830Y741000D01*
X892973Y739921D01*
X893389Y738915D01*
X894052Y738052D01*
X894915Y737389D01*
X895921Y736973D01*
X897000Y736831D01*
X898079Y736973D01*
X899085Y737389D01*
X899948Y738052D01*
X900611Y738915D01*
X901027Y739921D01*
X901169Y741000D01*
X901027Y742079D01*
X900611Y743085D01*
X899948Y743948D01*
X899085Y744611D01*
X898079Y745027D01*
X897000Y745169D01*
D02*
G37*
G36*
X637000Y734221D02*
X636024Y734093D01*
X635114Y733716D01*
X634333Y733116D01*
X633733Y732335D01*
X633356Y731425D01*
X633228Y730449D01*
X633356Y729472D01*
X633733Y728563D01*
X634333Y727781D01*
X635114Y727182D01*
X636024Y726805D01*
X637000Y726676D01*
X637976Y726805D01*
X638886Y727182D01*
X639668Y727781D01*
X640267Y728563D01*
X640644Y729472D01*
X640772Y730449D01*
X640644Y731425D01*
X640267Y732335D01*
X639668Y733116D01*
X638886Y733716D01*
X637976Y734093D01*
X637000Y734221D01*
D02*
G37*
G36*
X861000Y735337D02*
X859804Y735219D01*
X858653Y734870D01*
X857593Y734303D01*
X856664Y733541D01*
X855902Y732612D01*
X855335Y731551D01*
X854986Y730401D01*
X854868Y729205D01*
X854986Y728009D01*
X855335Y726858D01*
X855902Y725798D01*
X856664Y724869D01*
X857593Y724106D01*
X858653Y723540D01*
X859804Y723191D01*
X861000Y723073D01*
X862196Y723191D01*
X863347Y723540D01*
X864407Y724106D01*
X865336Y724869D01*
X866098Y725798D01*
X866665Y726858D01*
X867014Y728009D01*
X867132Y729205D01*
X867014Y730401D01*
X866665Y731551D01*
X866098Y732612D01*
X865336Y733541D01*
X864407Y734303D01*
X863347Y734870D01*
X862196Y735219D01*
X861000Y735337D01*
D02*
G37*
G36*
X637000Y715324D02*
X636024Y715195D01*
X635114Y714818D01*
X634333Y714219D01*
X633733Y713437D01*
X633356Y712528D01*
X633228Y711551D01*
X633356Y710575D01*
X633733Y709665D01*
X634333Y708884D01*
X635114Y708284D01*
X636024Y707907D01*
X637000Y707779D01*
X637976Y707907D01*
X638886Y708284D01*
X639668Y708884D01*
X640267Y709665D01*
X640644Y710575D01*
X640772Y711551D01*
X640644Y712528D01*
X640267Y713437D01*
X639668Y714219D01*
X638886Y714818D01*
X637976Y715195D01*
X637000Y715324D01*
D02*
G37*
G36*
X1265000Y715169D02*
X1263921Y715028D01*
X1262915Y714611D01*
X1262052Y713948D01*
X1261389Y713085D01*
X1260973Y712079D01*
X1260830Y711000D01*
X1260973Y709921D01*
X1261389Y708915D01*
X1262052Y708052D01*
X1262915Y707389D01*
X1263921Y706973D01*
X1265000Y706831D01*
X1266079Y706973D01*
X1267085Y707389D01*
X1267948Y708052D01*
X1268611Y708915D01*
X1269027Y709921D01*
X1269170Y711000D01*
X1269027Y712079D01*
X1268611Y713085D01*
X1267948Y713948D01*
X1267085Y714611D01*
X1266079Y715028D01*
X1265000Y715169D01*
D02*
G37*
G36*
X1255000D02*
X1253921Y715028D01*
X1252915Y714611D01*
X1252052Y713948D01*
X1251389Y713085D01*
X1250973Y712079D01*
X1250830Y711000D01*
X1250973Y709921D01*
X1251389Y708915D01*
X1252052Y708052D01*
X1252915Y707389D01*
X1253921Y706973D01*
X1255000Y706831D01*
X1256079Y706973D01*
X1257085Y707389D01*
X1257948Y708052D01*
X1258611Y708915D01*
X1259027Y709921D01*
X1259169Y711000D01*
X1259027Y712079D01*
X1258611Y713085D01*
X1257948Y713948D01*
X1257085Y714611D01*
X1256079Y715028D01*
X1255000Y715169D01*
D02*
G37*
G36*
X1265000Y705169D02*
X1263921Y705027D01*
X1262915Y704611D01*
X1262052Y703948D01*
X1261389Y703085D01*
X1260973Y702079D01*
X1260830Y701000D01*
X1260973Y699921D01*
X1261389Y698915D01*
X1262052Y698052D01*
X1262915Y697389D01*
X1263921Y696973D01*
X1265000Y696831D01*
X1266079Y696973D01*
X1267085Y697389D01*
X1267948Y698052D01*
X1268611Y698915D01*
X1269027Y699921D01*
X1269170Y701000D01*
X1269027Y702079D01*
X1268611Y703085D01*
X1267948Y703948D01*
X1267085Y704611D01*
X1266079Y705027D01*
X1265000Y705169D01*
D02*
G37*
G36*
X1255000D02*
X1253921Y705027D01*
X1252915Y704611D01*
X1252052Y703948D01*
X1251389Y703085D01*
X1250973Y702079D01*
X1250830Y701000D01*
X1250973Y699921D01*
X1251389Y698915D01*
X1252052Y698052D01*
X1252915Y697389D01*
X1253921Y696973D01*
X1255000Y696831D01*
X1256079Y696973D01*
X1257085Y697389D01*
X1257948Y698052D01*
X1258611Y698915D01*
X1259027Y699921D01*
X1259169Y701000D01*
X1259027Y702079D01*
X1258611Y703085D01*
X1257948Y703948D01*
X1257085Y704611D01*
X1256079Y705027D01*
X1255000Y705169D01*
D02*
G37*
G36*
X985819Y717895D02*
X982597D01*
X981941Y717765D01*
X981385Y717393D01*
X979288Y715297D01*
X978916Y714741D01*
X978786Y714084D01*
Y708831D01*
X941031Y671076D01*
X939129D01*
X938780Y671576D01*
X938908Y672224D01*
X938725Y673146D01*
X938203Y673927D01*
X938065Y674020D01*
X938119Y674100D01*
X938302Y675022D01*
X938119Y675943D01*
X937597Y676725D01*
X936815Y677247D01*
X935894Y677430D01*
X934972Y677247D01*
X934191Y676725D01*
X933669Y675943D01*
X933485Y675022D01*
X933529Y674800D01*
X930788Y672059D01*
X930416Y671503D01*
X930286Y670847D01*
Y644257D01*
X930416Y643601D01*
X930788Y643045D01*
X939045Y634788D01*
X939601Y634416D01*
X940257Y634286D01*
X995634D01*
X995775Y633578D01*
X996297Y632797D01*
X997078Y632275D01*
X998000Y632092D01*
X998922Y632275D01*
X999500Y632661D01*
X1000078Y632275D01*
X1001000Y632092D01*
X1001922Y632275D01*
X1002628Y632747D01*
X1003132Y632410D01*
X1004054Y632226D01*
X1004976Y632410D01*
X1005757Y632932D01*
X1006279Y633713D01*
X1006462Y634635D01*
X1006279Y635557D01*
X1005757Y636338D01*
X1005100Y636777D01*
X1005005Y636919D01*
X1003359Y638565D01*
X1003359Y638565D01*
X1001712Y640212D01*
X1001156Y640584D01*
X1000500Y640714D01*
X942210D01*
X936714Y646210D01*
Y654921D01*
X936979Y655187D01*
X937422Y655275D01*
X938203Y655797D01*
X938725Y656578D01*
X938908Y657500D01*
X938752Y658286D01*
X939037Y658786D01*
X939500D01*
X940156Y658916D01*
X940712Y659288D01*
X977210Y695786D01*
X989437D01*
X990202Y695275D01*
X991123Y695091D01*
X992045Y695275D01*
X992826Y695797D01*
X993349Y696578D01*
X993532Y697500D01*
X993349Y698422D01*
X992826Y699203D01*
X992045Y699725D01*
X991123Y699908D01*
X991071Y699898D01*
X990927Y700623D01*
X990405Y701404D01*
X989624Y701926D01*
X989725Y702078D01*
X989909Y703000D01*
X989725Y703922D01*
X989214Y704687D01*
Y714500D01*
X989084Y715156D01*
X988712Y715712D01*
X987031Y717393D01*
X986475Y717765D01*
X985819Y717895D01*
D02*
G37*
G36*
X1265000Y695169D02*
X1263921Y695027D01*
X1262915Y694611D01*
X1262052Y693948D01*
X1261389Y693085D01*
X1260973Y692079D01*
X1260830Y691000D01*
X1260973Y689921D01*
X1261389Y688915D01*
X1262052Y688052D01*
X1262915Y687389D01*
X1263921Y686973D01*
X1265000Y686831D01*
X1266079Y686973D01*
X1267085Y687389D01*
X1267948Y688052D01*
X1268611Y688915D01*
X1269027Y689921D01*
X1269170Y691000D01*
X1269027Y692079D01*
X1268611Y693085D01*
X1267948Y693948D01*
X1267085Y694611D01*
X1266079Y695027D01*
X1265000Y695169D01*
D02*
G37*
G36*
X1255000D02*
X1253921Y695027D01*
X1252915Y694611D01*
X1252052Y693948D01*
X1251389Y693085D01*
X1250973Y692079D01*
X1250830Y691000D01*
X1250973Y689921D01*
X1251389Y688915D01*
X1252052Y688052D01*
X1252915Y687389D01*
X1253921Y686973D01*
X1255000Y686831D01*
X1256079Y686973D01*
X1257085Y687389D01*
X1257948Y688052D01*
X1258611Y688915D01*
X1259027Y689921D01*
X1259169Y691000D01*
X1259027Y692079D01*
X1258611Y693085D01*
X1257948Y693948D01*
X1257085Y694611D01*
X1256079Y695027D01*
X1255000Y695169D01*
D02*
G37*
G36*
X810500Y704213D02*
X809539Y704086D01*
X808644Y703715D01*
X807875Y703125D01*
X807285Y702356D01*
X806914Y701461D01*
X806820Y700751D01*
X791749Y685680D01*
X791039Y685586D01*
X790144Y685215D01*
X789576Y684780D01*
X664651D01*
X660465Y688966D01*
X659890Y689407D01*
X659219Y689685D01*
X658500Y689780D01*
X623924D01*
X623356Y690215D01*
X622461Y690586D01*
X621500Y690713D01*
X620539Y690586D01*
X619644Y690215D01*
X618875Y689625D01*
X618285Y688856D01*
X617914Y687961D01*
X617787Y687000D01*
X617914Y686039D01*
X618285Y685144D01*
X618875Y684375D01*
X619644Y683785D01*
X620539Y683414D01*
X621500Y683287D01*
X622461Y683414D01*
X623356Y683785D01*
X623924Y684220D01*
X657349D01*
X661535Y680034D01*
X662110Y679593D01*
X662781Y679315D01*
X663500Y679220D01*
X789576D01*
X790144Y678785D01*
X791039Y678414D01*
X792000Y678287D01*
X792961Y678414D01*
X793856Y678785D01*
X794625Y679375D01*
X795215Y680144D01*
X795586Y681039D01*
X795680Y681749D01*
X810751Y696820D01*
X811461Y696914D01*
X812356Y697285D01*
X813125Y697875D01*
X813715Y698644D01*
X814086Y699539D01*
X814213Y700500D01*
X814086Y701461D01*
X813715Y702356D01*
X813125Y703125D01*
X812356Y703715D01*
X811461Y704086D01*
X810500Y704213D01*
D02*
G37*
G36*
X938500Y687909D02*
X937578Y687725D01*
X936797Y687203D01*
X936275Y686422D01*
X936158Y685831D01*
X933696Y683370D01*
X933500Y683408D01*
X932578Y683225D01*
X931797Y682703D01*
X931275Y681922D01*
X931091Y681000D01*
X931275Y680078D01*
X931797Y679297D01*
X932578Y678775D01*
X933500Y678591D01*
X934422Y678775D01*
X935203Y679297D01*
X935725Y680078D01*
X935843Y680669D01*
X938304Y683130D01*
X938500Y683091D01*
X939422Y683275D01*
X940203Y683797D01*
X940725Y684578D01*
X940909Y685500D01*
X940725Y686422D01*
X940203Y687203D01*
X939422Y687725D01*
X938500Y687909D01*
D02*
G37*
G36*
X1265000Y685170D02*
X1263921Y685028D01*
X1262915Y684611D01*
X1262052Y683948D01*
X1261389Y683085D01*
X1260973Y682079D01*
X1260830Y681000D01*
X1260973Y679921D01*
X1261389Y678915D01*
X1262052Y678052D01*
X1262915Y677389D01*
X1263921Y676972D01*
X1265000Y676830D01*
X1266079Y676972D01*
X1267085Y677389D01*
X1267948Y678052D01*
X1268611Y678915D01*
X1269027Y679921D01*
X1269170Y681000D01*
X1269027Y682079D01*
X1268611Y683085D01*
X1267948Y683948D01*
X1267085Y684611D01*
X1266079Y685028D01*
X1265000Y685170D01*
D02*
G37*
G36*
X1255000D02*
X1253921Y685028D01*
X1252915Y684611D01*
X1252052Y683948D01*
X1251389Y683085D01*
X1250973Y682079D01*
X1250830Y681000D01*
X1250973Y679921D01*
X1251389Y678915D01*
X1252052Y678052D01*
X1252915Y677389D01*
X1253921Y676972D01*
X1255000Y676830D01*
X1256079Y676972D01*
X1257085Y677389D01*
X1257948Y678052D01*
X1258611Y678915D01*
X1259027Y679921D01*
X1259169Y681000D01*
X1259027Y682079D01*
X1258611Y683085D01*
X1257948Y683948D01*
X1257085Y684611D01*
X1256079Y685028D01*
X1255000Y685170D01*
D02*
G37*
G36*
X645000Y683368D02*
X643869Y683219D01*
X642816Y682783D01*
X641911Y682089D01*
X641217Y681184D01*
X640781Y680130D01*
X640632Y679000D01*
X640781Y677870D01*
X641217Y676816D01*
X641911Y675911D01*
X642816Y675217D01*
X643869Y674781D01*
X645000Y674632D01*
X646131Y674781D01*
X647184Y675217D01*
X648089Y675911D01*
X648783Y676816D01*
X649219Y677870D01*
X649368Y679000D01*
X649219Y680130D01*
X648783Y681184D01*
X648089Y682089D01*
X647184Y682783D01*
X646131Y683219D01*
X645000Y683368D01*
D02*
G37*
G36*
X635000D02*
X633870Y683219D01*
X632816Y682783D01*
X631911Y682089D01*
X631217Y681184D01*
X630781Y680130D01*
X630632Y679000D01*
X630781Y677870D01*
X631217Y676816D01*
X631911Y675911D01*
X632816Y675217D01*
X633870Y674781D01*
X635000Y674632D01*
X636131Y674781D01*
X637184Y675217D01*
X638089Y675911D01*
X638783Y676816D01*
X639219Y677870D01*
X639368Y679000D01*
X639219Y680130D01*
X638783Y681184D01*
X638089Y682089D01*
X637184Y682783D01*
X636131Y683219D01*
X635000Y683368D01*
D02*
G37*
G36*
X1265000Y675170D02*
X1263921Y675028D01*
X1262915Y674611D01*
X1262052Y673948D01*
X1261389Y673085D01*
X1260973Y672079D01*
X1260830Y671000D01*
X1260973Y669921D01*
X1261389Y668915D01*
X1262052Y668052D01*
X1262915Y667389D01*
X1263921Y666972D01*
X1265000Y666830D01*
X1266079Y666972D01*
X1267085Y667389D01*
X1267948Y668052D01*
X1268611Y668915D01*
X1269027Y669921D01*
X1269170Y671000D01*
X1269027Y672079D01*
X1268611Y673085D01*
X1267948Y673948D01*
X1267085Y674611D01*
X1266079Y675028D01*
X1265000Y675170D01*
D02*
G37*
G36*
X1255000D02*
X1253921Y675028D01*
X1252915Y674611D01*
X1252052Y673948D01*
X1251389Y673085D01*
X1250973Y672079D01*
X1250830Y671000D01*
X1250973Y669921D01*
X1251389Y668915D01*
X1252052Y668052D01*
X1252915Y667389D01*
X1253921Y666972D01*
X1255000Y666830D01*
X1256079Y666972D01*
X1257085Y667389D01*
X1257948Y668052D01*
X1258611Y668915D01*
X1259027Y669921D01*
X1259169Y671000D01*
X1259027Y672079D01*
X1258611Y673085D01*
X1257948Y673948D01*
X1257085Y674611D01*
X1256079Y675028D01*
X1255000Y675170D01*
D02*
G37*
G36*
X639331Y673331D02*
X630669D01*
Y664669D01*
X639331D01*
Y673331D01*
D02*
G37*
G36*
X645000Y673368D02*
X643869Y673219D01*
X642816Y672783D01*
X641911Y672089D01*
X641217Y671184D01*
X640781Y670130D01*
X640632Y669000D01*
X640781Y667870D01*
X641217Y666816D01*
X641911Y665911D01*
X642816Y665217D01*
X643869Y664781D01*
X645000Y664632D01*
X646131Y664781D01*
X647184Y665217D01*
X648089Y665911D01*
X648783Y666816D01*
X649219Y667870D01*
X649368Y669000D01*
X649219Y670130D01*
X648783Y671184D01*
X648089Y672089D01*
X647184Y672783D01*
X646131Y673219D01*
X645000Y673368D01*
D02*
G37*
G36*
X657000Y668213D02*
X656039Y668086D01*
X655144Y667715D01*
X654375Y667125D01*
X653785Y666356D01*
X653414Y665461D01*
X653320Y664751D01*
X648349Y659780D01*
X621424D01*
X620856Y660215D01*
X619961Y660586D01*
X619000Y660713D01*
X618039Y660586D01*
X617144Y660215D01*
X616375Y659625D01*
X615785Y658856D01*
X615414Y657961D01*
X615287Y657000D01*
X615414Y656039D01*
X615785Y655144D01*
X616375Y654375D01*
X617144Y653785D01*
X618039Y653414D01*
X619000Y653287D01*
X619961Y653414D01*
X620856Y653785D01*
X621424Y654220D01*
X649500D01*
X650219Y654315D01*
X650890Y654593D01*
X651466Y655034D01*
X657251Y660820D01*
X657961Y660914D01*
X658856Y661285D01*
X659625Y661875D01*
X660215Y662644D01*
X660586Y663539D01*
X660713Y664500D01*
X660586Y665461D01*
X660215Y666356D01*
X659625Y667125D01*
X658856Y667715D01*
X657961Y668086D01*
X657000Y668213D01*
D02*
G37*
G36*
X1265000Y665169D02*
X1263921Y665028D01*
X1262915Y664611D01*
X1262052Y663948D01*
X1261389Y663085D01*
X1260973Y662079D01*
X1260830Y661000D01*
X1260973Y659921D01*
X1261389Y658915D01*
X1262052Y658052D01*
X1262915Y657389D01*
X1263921Y656973D01*
X1265000Y656831D01*
X1266079Y656973D01*
X1267085Y657389D01*
X1267948Y658052D01*
X1268611Y658915D01*
X1269027Y659921D01*
X1269170Y661000D01*
X1269027Y662079D01*
X1268611Y663085D01*
X1267948Y663948D01*
X1267085Y664611D01*
X1266079Y665028D01*
X1265000Y665169D01*
D02*
G37*
G36*
X1255000D02*
X1253921Y665028D01*
X1252915Y664611D01*
X1252052Y663948D01*
X1251389Y663085D01*
X1250973Y662079D01*
X1250830Y661000D01*
X1250973Y659921D01*
X1251389Y658915D01*
X1252052Y658052D01*
X1252915Y657389D01*
X1253921Y656973D01*
X1255000Y656831D01*
X1256079Y656973D01*
X1257085Y657389D01*
X1257948Y658052D01*
X1258611Y658915D01*
X1259027Y659921D01*
X1259169Y661000D01*
X1259027Y662079D01*
X1258611Y663085D01*
X1257948Y663948D01*
X1257085Y664611D01*
X1256079Y665028D01*
X1255000Y665169D01*
D02*
G37*
G36*
X769039Y664224D02*
X759591D01*
Y654776D01*
X769039D01*
Y664224D01*
D02*
G37*
G36*
X784000Y664265D02*
X782767Y664103D01*
X781617Y663627D01*
X780630Y662870D01*
X779873Y661883D01*
X779397Y660733D01*
X779235Y659500D01*
X779397Y658267D01*
X779873Y657117D01*
X780630Y656131D01*
X781617Y655373D01*
X782767Y654897D01*
X784000Y654735D01*
X785233Y654897D01*
X786383Y655373D01*
X787369Y656131D01*
X788127Y657117D01*
X788603Y658267D01*
X788765Y659500D01*
X788603Y660733D01*
X788127Y661883D01*
X787369Y662870D01*
X786383Y663627D01*
X785233Y664103D01*
X784000Y664265D01*
D02*
G37*
G36*
X1265000Y655169D02*
X1263921Y655027D01*
X1262915Y654611D01*
X1262052Y653948D01*
X1261389Y653085D01*
X1260973Y652079D01*
X1260830Y651000D01*
X1260973Y649921D01*
X1261389Y648915D01*
X1262052Y648052D01*
X1262915Y647389D01*
X1263921Y646973D01*
X1265000Y646831D01*
X1266079Y646973D01*
X1267085Y647389D01*
X1267948Y648052D01*
X1268611Y648915D01*
X1269027Y649921D01*
X1269170Y651000D01*
X1269027Y652079D01*
X1268611Y653085D01*
X1267948Y653948D01*
X1267085Y654611D01*
X1266079Y655027D01*
X1265000Y655169D01*
D02*
G37*
G36*
X1255000D02*
X1253921Y655027D01*
X1252915Y654611D01*
X1252052Y653948D01*
X1251389Y653085D01*
X1250973Y652079D01*
X1250830Y651000D01*
X1250973Y649921D01*
X1251389Y648915D01*
X1252052Y648052D01*
X1252915Y647389D01*
X1253921Y646973D01*
X1255000Y646831D01*
X1256079Y646973D01*
X1257085Y647389D01*
X1257948Y648052D01*
X1258611Y648915D01*
X1259027Y649921D01*
X1259169Y651000D01*
X1259027Y652079D01*
X1258611Y653085D01*
X1257948Y653948D01*
X1257085Y654611D01*
X1256079Y655027D01*
X1255000Y655169D01*
D02*
G37*
G36*
X1265000Y645169D02*
X1263921Y645027D01*
X1262915Y644611D01*
X1262052Y643948D01*
X1261389Y643085D01*
X1260973Y642079D01*
X1260830Y641000D01*
X1260973Y639921D01*
X1261389Y638915D01*
X1262052Y638052D01*
X1262915Y637389D01*
X1263921Y636973D01*
X1265000Y636831D01*
X1266079Y636973D01*
X1267085Y637389D01*
X1267948Y638052D01*
X1268611Y638915D01*
X1269027Y639921D01*
X1269170Y641000D01*
X1269027Y642079D01*
X1268611Y643085D01*
X1267948Y643948D01*
X1267085Y644611D01*
X1266079Y645027D01*
X1265000Y645169D01*
D02*
G37*
G36*
X1255000D02*
X1253921Y645027D01*
X1252915Y644611D01*
X1252052Y643948D01*
X1251389Y643085D01*
X1250973Y642079D01*
X1250830Y641000D01*
X1250973Y639921D01*
X1251389Y638915D01*
X1252052Y638052D01*
X1252915Y637389D01*
X1253921Y636973D01*
X1255000Y636831D01*
X1256079Y636973D01*
X1257085Y637389D01*
X1257948Y638052D01*
X1258611Y638915D01*
X1259027Y639921D01*
X1259169Y641000D01*
X1259027Y642079D01*
X1258611Y643085D01*
X1257948Y643948D01*
X1257085Y644611D01*
X1256079Y645027D01*
X1255000Y645169D01*
D02*
G37*
G36*
X1265000Y635170D02*
X1263921Y635028D01*
X1262915Y634611D01*
X1262052Y633948D01*
X1261389Y633085D01*
X1260973Y632079D01*
X1260830Y631000D01*
X1260973Y629921D01*
X1261389Y628915D01*
X1262052Y628052D01*
X1262915Y627389D01*
X1263921Y626972D01*
X1265000Y626830D01*
X1266079Y626972D01*
X1267085Y627389D01*
X1267948Y628052D01*
X1268611Y628915D01*
X1269027Y629921D01*
X1269170Y631000D01*
X1269027Y632079D01*
X1268611Y633085D01*
X1267948Y633948D01*
X1267085Y634611D01*
X1266079Y635028D01*
X1265000Y635170D01*
D02*
G37*
G36*
X1255000D02*
X1253921Y635028D01*
X1252915Y634611D01*
X1252052Y633948D01*
X1251389Y633085D01*
X1250973Y632079D01*
X1250830Y631000D01*
X1250973Y629921D01*
X1251389Y628915D01*
X1252052Y628052D01*
X1252915Y627389D01*
X1253921Y626972D01*
X1255000Y626830D01*
X1256079Y626972D01*
X1257085Y627389D01*
X1257948Y628052D01*
X1258611Y628915D01*
X1259027Y629921D01*
X1259169Y631000D01*
X1259027Y632079D01*
X1258611Y633085D01*
X1257948Y633948D01*
X1257085Y634611D01*
X1256079Y635028D01*
X1255000Y635170D01*
D02*
G37*
G36*
X1265000Y625170D02*
X1263921Y625028D01*
X1262915Y624611D01*
X1262052Y623948D01*
X1261389Y623085D01*
X1260973Y622079D01*
X1260830Y621000D01*
X1260973Y619921D01*
X1261389Y618915D01*
X1262052Y618052D01*
X1262915Y617389D01*
X1263921Y616972D01*
X1265000Y616830D01*
X1266079Y616972D01*
X1267085Y617389D01*
X1267948Y618052D01*
X1268611Y618915D01*
X1269027Y619921D01*
X1269170Y621000D01*
X1269027Y622079D01*
X1268611Y623085D01*
X1267948Y623948D01*
X1267085Y624611D01*
X1266079Y625028D01*
X1265000Y625170D01*
D02*
G37*
G36*
X1255000D02*
X1253921Y625028D01*
X1252915Y624611D01*
X1252052Y623948D01*
X1251389Y623085D01*
X1250973Y622079D01*
X1250830Y621000D01*
X1250973Y619921D01*
X1251389Y618915D01*
X1252052Y618052D01*
X1252915Y617389D01*
X1253921Y616972D01*
X1255000Y616830D01*
X1256079Y616972D01*
X1257085Y617389D01*
X1257948Y618052D01*
X1258611Y618915D01*
X1259027Y619921D01*
X1259169Y621000D01*
X1259027Y622079D01*
X1258611Y623085D01*
X1257948Y623948D01*
X1257085Y624611D01*
X1256079Y625028D01*
X1255000Y625170D01*
D02*
G37*
G36*
X534409Y682711D02*
X533198Y682592D01*
X532032Y682238D01*
X530959Y681664D01*
X530018Y680892D01*
X529245Y679951D01*
X528671Y678877D01*
X528318Y677712D01*
X528198Y676500D01*
Y670000D01*
Y663591D01*
X528318Y662379D01*
X528671Y661214D01*
X529245Y660140D01*
X530018Y659199D01*
X537289Y651927D01*
Y608211D01*
X511181D01*
Y609181D01*
X488819D01*
Y594819D01*
X511181D01*
Y595789D01*
X537289D01*
Y586500D01*
Y524211D01*
X516000D01*
X514788Y524092D01*
X513623Y523738D01*
X512549Y523164D01*
X512493Y523118D01*
X510882D01*
Y521507D01*
X510836Y521451D01*
X510262Y520377D01*
X509908Y519212D01*
X509789Y518000D01*
Y508000D01*
Y498000D01*
Y488000D01*
X509908Y486788D01*
X510262Y485623D01*
X510836Y484549D01*
X511608Y483608D01*
X512549Y482836D01*
X513623Y482262D01*
X514788Y481908D01*
X516000Y481789D01*
X517212Y481908D01*
X518377Y482262D01*
X519451Y482836D01*
X520392Y483608D01*
X521164Y484549D01*
X521738Y485623D01*
X522092Y486788D01*
X522211Y488000D01*
Y498000D01*
Y508000D01*
Y511789D01*
X537289D01*
Y461500D01*
Y388510D01*
X528990Y380211D01*
X516000D01*
X514788Y380092D01*
X513623Y379738D01*
X512549Y379164D01*
X512493Y379118D01*
X510882D01*
Y377507D01*
X510836Y377451D01*
X510262Y376377D01*
X509908Y375212D01*
X509789Y374000D01*
X509908Y372788D01*
X510262Y371623D01*
X510836Y370549D01*
X510882Y370493D01*
Y368882D01*
X512493D01*
X512549Y368836D01*
X512935Y368629D01*
X512976Y368131D01*
X512350Y367650D01*
X511529Y366581D01*
X511014Y365336D01*
X510838Y364000D01*
X511014Y362664D01*
X511529Y361419D01*
X512350Y360350D01*
X513419Y359529D01*
X514044Y359271D01*
Y358729D01*
X513419Y358471D01*
X512350Y357650D01*
X511529Y356581D01*
X511014Y355336D01*
X510838Y354000D01*
X511014Y352664D01*
X511529Y351419D01*
X512350Y350350D01*
X513419Y349529D01*
X514044Y349271D01*
Y348729D01*
X513419Y348471D01*
X512350Y347650D01*
X511529Y346581D01*
X511014Y345336D01*
X510838Y344000D01*
X511014Y342664D01*
X511529Y341419D01*
X512350Y340350D01*
X513419Y339529D01*
X514044Y339271D01*
Y338729D01*
X513419Y338471D01*
X512350Y337650D01*
X511529Y336581D01*
X511014Y335336D01*
X510838Y334000D01*
X511014Y332664D01*
X511529Y331419D01*
X512350Y330350D01*
X513419Y329529D01*
X514044Y329271D01*
Y328729D01*
X513419Y328471D01*
X512350Y327650D01*
X511529Y326581D01*
X511014Y325336D01*
X510838Y324000D01*
X511014Y322664D01*
X511529Y321419D01*
X512350Y320350D01*
X513419Y319529D01*
X514044Y319271D01*
Y318729D01*
X513419Y318471D01*
X512350Y317650D01*
X511529Y316581D01*
X511014Y315336D01*
X510838Y314000D01*
X511014Y312664D01*
X511529Y311419D01*
X512350Y310350D01*
X513419Y309529D01*
X514664Y309014D01*
X516000Y308838D01*
X517336Y309014D01*
X518581Y309529D01*
X519650Y310350D01*
X520471Y311419D01*
X520986Y312664D01*
X521162Y314000D01*
X520986Y315336D01*
X520471Y316581D01*
X519650Y317650D01*
X518581Y318471D01*
X517956Y318729D01*
Y319271D01*
X518581Y319529D01*
X519650Y320350D01*
X520471Y321419D01*
X520986Y322664D01*
X521162Y324000D01*
X520986Y325336D01*
X520471Y326581D01*
X519650Y327650D01*
X518581Y328471D01*
X517956Y328729D01*
Y329271D01*
X518581Y329529D01*
X519650Y330350D01*
X520471Y331419D01*
X520986Y332664D01*
X521162Y334000D01*
X520986Y335336D01*
X520471Y336581D01*
X519650Y337650D01*
X518581Y338471D01*
X517956Y338729D01*
Y339271D01*
X518581Y339529D01*
X519650Y340350D01*
X520471Y341419D01*
X520986Y342664D01*
X521162Y344000D01*
X520986Y345336D01*
X520471Y346581D01*
X519650Y347650D01*
X518581Y348471D01*
X517956Y348729D01*
Y349271D01*
X518581Y349529D01*
X519650Y350350D01*
X520471Y351419D01*
X520986Y352664D01*
X521162Y354000D01*
X520986Y355336D01*
X520471Y356581D01*
X519650Y357650D01*
X518581Y358471D01*
X517956Y358729D01*
Y359271D01*
X518581Y359529D01*
X519650Y360350D01*
X520471Y361419D01*
X520986Y362664D01*
X521162Y364000D01*
X520986Y365336D01*
X520471Y366581D01*
X519928Y367289D01*
X520174Y367789D01*
X531563D01*
X532774Y367908D01*
X533940Y368262D01*
X535013Y368836D01*
X535955Y369608D01*
X547892Y381545D01*
X547892Y381545D01*
X548664Y382487D01*
X549238Y383560D01*
X549592Y384725D01*
X549711Y385937D01*
X549711Y385937D01*
Y453796D01*
X571803Y453796D01*
X572264Y453887D01*
X572655Y454148D01*
X572916Y454539D01*
X573008Y455000D01*
Y466000D01*
X572916Y466461D01*
X572743Y466720D01*
X572909Y467155D01*
X572964Y467220D01*
X626349D01*
X636820Y456749D01*
X636914Y456039D01*
X637285Y455144D01*
X637875Y454375D01*
X638644Y453785D01*
X639539Y453414D01*
X640500Y453287D01*
X641461Y453414D01*
X642356Y453785D01*
X643125Y454375D01*
X643715Y455144D01*
X644086Y456039D01*
X644213Y457000D01*
X644086Y457961D01*
X643715Y458856D01*
X643125Y459625D01*
X642356Y460215D01*
X641461Y460586D01*
X640751Y460680D01*
X629465Y471966D01*
X628890Y472407D01*
X628219Y472685D01*
X627500Y472780D01*
X554424D01*
X553856Y473215D01*
X552961Y473586D01*
X552000Y473713D01*
X551039Y473586D01*
X550211Y473243D01*
X549711Y473436D01*
Y518500D01*
X549711Y518500D01*
X549711Y518500D01*
Y558064D01*
X550211Y558257D01*
X551039Y557914D01*
X552000Y557787D01*
X552961Y557914D01*
X553856Y558285D01*
X554099Y558470D01*
X587301D01*
X587375Y558375D01*
X588144Y557785D01*
X589039Y557414D01*
X590000Y557287D01*
X590961Y557414D01*
X591856Y557785D01*
X592625Y558375D01*
X593215Y559144D01*
X593586Y560039D01*
X593713Y561000D01*
X593586Y561961D01*
X593215Y562856D01*
X592625Y563625D01*
X591856Y564215D01*
X590961Y564586D01*
X590000Y564713D01*
X589039Y564586D01*
X588144Y564215D01*
X587901Y564030D01*
X554699D01*
X554625Y564125D01*
X553856Y564715D01*
X552961Y565086D01*
X552000Y565213D01*
X551039Y565086D01*
X550211Y564743D01*
X549711Y564936D01*
Y579296D01*
X637838Y579296D01*
Y576911D01*
X637389Y576690D01*
X637356Y576715D01*
X636461Y577086D01*
X635500Y577213D01*
X634539Y577086D01*
X633644Y576715D01*
X632875Y576125D01*
X632285Y575356D01*
X631914Y574461D01*
X631787Y573500D01*
X631914Y572539D01*
X632285Y571644D01*
X632720Y571076D01*
Y513506D01*
X632815Y512787D01*
X633093Y512116D01*
X633534Y511541D01*
X638073Y507002D01*
X638167Y506292D01*
X638538Y505397D01*
X639128Y504628D01*
X639897Y504038D01*
X640792Y503667D01*
X641753Y503540D01*
X642714Y503667D01*
X643610Y504038D01*
X644379Y504628D01*
X644969Y505397D01*
X645339Y506292D01*
X645466Y507253D01*
X645339Y508214D01*
X644969Y509109D01*
X644379Y509878D01*
X643610Y510468D01*
X642714Y510840D01*
X642004Y510933D01*
X638280Y514658D01*
Y561923D01*
X638780Y562093D01*
X639350Y561350D01*
X640419Y560529D01*
X641664Y560014D01*
X643000Y559838D01*
X644336Y560014D01*
X645581Y560529D01*
X646650Y561350D01*
X647471Y562419D01*
X647986Y563664D01*
X648162Y565000D01*
Y579296D01*
X658000D01*
X658461Y579387D01*
X658851Y579648D01*
X659113Y580039D01*
X659204Y580500D01*
Y591500D01*
X659113Y591961D01*
X658851Y592351D01*
X658461Y592613D01*
X658000Y592704D01*
X549711Y592704D01*
Y599918D01*
X550211Y600088D01*
X550375Y599875D01*
X551144Y599285D01*
X552039Y598914D01*
X553000Y598787D01*
X553961Y598914D01*
X554856Y599285D01*
X555424Y599720D01*
X563076D01*
X563644Y599285D01*
X564539Y598914D01*
X565500Y598787D01*
X566461Y598914D01*
X567356Y599285D01*
X568125Y599875D01*
X568715Y600644D01*
X569086Y601539D01*
X569213Y602500D01*
X569086Y603461D01*
X568715Y604356D01*
X568125Y605125D01*
X567356Y605715D01*
X566461Y606086D01*
X565500Y606213D01*
X564539Y606086D01*
X563644Y605715D01*
X563076Y605280D01*
X555424D01*
X554856Y605715D01*
X553961Y606086D01*
X553000Y606213D01*
X552039Y606086D01*
X551144Y605715D01*
X550375Y605125D01*
X550211Y604912D01*
X549711Y605082D01*
Y654500D01*
X549592Y655712D01*
X549238Y656877D01*
X548664Y657951D01*
X547892Y658892D01*
X540620Y666163D01*
Y670000D01*
Y676500D01*
X540501Y677712D01*
X540148Y678877D01*
X539574Y679951D01*
X538801Y680892D01*
X537860Y681664D01*
X536786Y682238D01*
X535621Y682592D01*
X534409Y682711D01*
D02*
G37*
G36*
X1265000Y615169D02*
X1263921Y615028D01*
X1262915Y614611D01*
X1262052Y613948D01*
X1261389Y613085D01*
X1260973Y612079D01*
X1260830Y611000D01*
X1260973Y609921D01*
X1261389Y608915D01*
X1262052Y608052D01*
X1262915Y607389D01*
X1263921Y606973D01*
X1265000Y606831D01*
X1266079Y606973D01*
X1267085Y607389D01*
X1267948Y608052D01*
X1268611Y608915D01*
X1269027Y609921D01*
X1269170Y611000D01*
X1269027Y612079D01*
X1268611Y613085D01*
X1267948Y613948D01*
X1267085Y614611D01*
X1266079Y615028D01*
X1265000Y615169D01*
D02*
G37*
G36*
X1255000D02*
X1253921Y615028D01*
X1252915Y614611D01*
X1252052Y613948D01*
X1251389Y613085D01*
X1250973Y612079D01*
X1250830Y611000D01*
X1250973Y609921D01*
X1251389Y608915D01*
X1252052Y608052D01*
X1252915Y607389D01*
X1253921Y606973D01*
X1255000Y606831D01*
X1256079Y606973D01*
X1257085Y607389D01*
X1257948Y608052D01*
X1258611Y608915D01*
X1259027Y609921D01*
X1259169Y611000D01*
X1259027Y612079D01*
X1258611Y613085D01*
X1257948Y613948D01*
X1257085Y614611D01*
X1256079Y615028D01*
X1255000Y615169D01*
D02*
G37*
G36*
X1265000Y605169D02*
X1263921Y605027D01*
X1262915Y604611D01*
X1262052Y603948D01*
X1261389Y603085D01*
X1260973Y602079D01*
X1260830Y601000D01*
X1260973Y599921D01*
X1261389Y598915D01*
X1262052Y598052D01*
X1262915Y597389D01*
X1263921Y596973D01*
X1265000Y596831D01*
X1266079Y596973D01*
X1267085Y597389D01*
X1267948Y598052D01*
X1268611Y598915D01*
X1269027Y599921D01*
X1269170Y601000D01*
X1269027Y602079D01*
X1268611Y603085D01*
X1267948Y603948D01*
X1267085Y604611D01*
X1266079Y605027D01*
X1265000Y605169D01*
D02*
G37*
G36*
X1255000D02*
X1253921Y605027D01*
X1252915Y604611D01*
X1252052Y603948D01*
X1251389Y603085D01*
X1250973Y602079D01*
X1250830Y601000D01*
X1250973Y599921D01*
X1251389Y598915D01*
X1252052Y598052D01*
X1252915Y597389D01*
X1253921Y596973D01*
X1255000Y596831D01*
X1256079Y596973D01*
X1257085Y597389D01*
X1257948Y598052D01*
X1258611Y598915D01*
X1259027Y599921D01*
X1259169Y601000D01*
X1259027Y602079D01*
X1258611Y603085D01*
X1257948Y603948D01*
X1257085Y604611D01*
X1256079Y605027D01*
X1255000Y605169D01*
D02*
G37*
G36*
X1265000Y595169D02*
X1263921Y595027D01*
X1262915Y594611D01*
X1262052Y593948D01*
X1261389Y593085D01*
X1260973Y592079D01*
X1260830Y591000D01*
X1260973Y589921D01*
X1261389Y588915D01*
X1262052Y588052D01*
X1262915Y587389D01*
X1263921Y586973D01*
X1265000Y586831D01*
X1266079Y586973D01*
X1267085Y587389D01*
X1267948Y588052D01*
X1268611Y588915D01*
X1269027Y589921D01*
X1269170Y591000D01*
X1269027Y592079D01*
X1268611Y593085D01*
X1267948Y593948D01*
X1267085Y594611D01*
X1266079Y595027D01*
X1265000Y595169D01*
D02*
G37*
G36*
X1255000D02*
X1253921Y595027D01*
X1252915Y594611D01*
X1252052Y593948D01*
X1251389Y593085D01*
X1250973Y592079D01*
X1250830Y591000D01*
X1250973Y589921D01*
X1251389Y588915D01*
X1252052Y588052D01*
X1252915Y587389D01*
X1253921Y586973D01*
X1255000Y586831D01*
X1256079Y586973D01*
X1257085Y587389D01*
X1257948Y588052D01*
X1258611Y588915D01*
X1259027Y589921D01*
X1259169Y591000D01*
X1259027Y592079D01*
X1258611Y593085D01*
X1257948Y593948D01*
X1257085Y594611D01*
X1256079Y595027D01*
X1255000Y595169D01*
D02*
G37*
G36*
X755000Y613780D02*
X754281Y613685D01*
X753610Y613407D01*
X753034Y612965D01*
X725534Y585465D01*
X725093Y584890D01*
X724815Y584219D01*
X724720Y583500D01*
X724815Y582781D01*
X725093Y582110D01*
X725534Y581534D01*
X726110Y581093D01*
X726781Y580815D01*
X727500Y580720D01*
X728219Y580815D01*
X728890Y581093D01*
X729465Y581534D01*
X756965Y609034D01*
X757407Y609610D01*
X757685Y610281D01*
X757780Y611000D01*
X757685Y611719D01*
X757407Y612390D01*
X756965Y612965D01*
X756390Y613407D01*
X755719Y613685D01*
X755000Y613780D01*
D02*
G37*
G36*
X1265000Y585170D02*
X1263921Y585028D01*
X1262915Y584611D01*
X1262052Y583948D01*
X1261389Y583085D01*
X1260973Y582079D01*
X1260830Y581000D01*
X1260973Y579921D01*
X1261389Y578915D01*
X1262052Y578052D01*
X1262915Y577389D01*
X1263921Y576972D01*
X1265000Y576830D01*
X1266079Y576972D01*
X1267085Y577389D01*
X1267948Y578052D01*
X1268611Y578915D01*
X1269027Y579921D01*
X1269170Y581000D01*
X1269027Y582079D01*
X1268611Y583085D01*
X1267948Y583948D01*
X1267085Y584611D01*
X1266079Y585028D01*
X1265000Y585170D01*
D02*
G37*
G36*
X1255000D02*
X1253921Y585028D01*
X1252915Y584611D01*
X1252052Y583948D01*
X1251389Y583085D01*
X1250973Y582079D01*
X1250830Y581000D01*
X1250973Y579921D01*
X1251389Y578915D01*
X1252052Y578052D01*
X1252915Y577389D01*
X1253921Y576972D01*
X1255000Y576830D01*
X1256079Y576972D01*
X1257085Y577389D01*
X1257948Y578052D01*
X1258611Y578915D01*
X1259027Y579921D01*
X1259169Y581000D01*
X1259027Y582079D01*
X1258611Y583085D01*
X1257948Y583948D01*
X1257085Y584611D01*
X1256079Y585028D01*
X1255000Y585170D01*
D02*
G37*
G36*
X1269134Y575134D02*
X1260866D01*
Y566866D01*
X1269134D01*
Y575134D01*
D02*
G37*
G36*
X1255000Y575170D02*
X1253921Y575028D01*
X1252915Y574611D01*
X1252052Y573948D01*
X1251389Y573085D01*
X1250973Y572079D01*
X1250830Y571000D01*
X1250973Y569921D01*
X1251389Y568915D01*
X1252052Y568052D01*
X1252915Y567389D01*
X1253921Y566972D01*
X1255000Y566830D01*
X1256079Y566972D01*
X1257085Y567389D01*
X1257948Y568052D01*
X1258611Y568915D01*
X1259027Y569921D01*
X1259169Y571000D01*
X1259027Y572079D01*
X1258611Y573085D01*
X1257948Y573948D01*
X1257085Y574611D01*
X1256079Y575028D01*
X1255000Y575170D01*
D02*
G37*
G36*
X1265000Y565169D02*
X1263921Y565028D01*
X1262915Y564611D01*
X1262052Y563948D01*
X1261389Y563085D01*
X1260973Y562079D01*
X1260830Y561000D01*
X1260973Y559921D01*
X1261389Y558915D01*
X1262052Y558052D01*
X1262915Y557389D01*
X1263921Y556973D01*
X1265000Y556831D01*
X1266079Y556973D01*
X1267085Y557389D01*
X1267948Y558052D01*
X1268611Y558915D01*
X1269027Y559921D01*
X1269170Y561000D01*
X1269027Y562079D01*
X1268611Y563085D01*
X1267948Y563948D01*
X1267085Y564611D01*
X1266079Y565028D01*
X1265000Y565169D01*
D02*
G37*
G36*
X1255000D02*
X1253921Y565028D01*
X1252915Y564611D01*
X1252052Y563948D01*
X1251389Y563085D01*
X1250973Y562079D01*
X1250830Y561000D01*
X1250973Y559921D01*
X1251389Y558915D01*
X1252052Y558052D01*
X1252915Y557389D01*
X1253921Y556973D01*
X1255000Y556831D01*
X1256079Y556973D01*
X1257085Y557389D01*
X1257948Y558052D01*
X1258611Y558915D01*
X1259027Y559921D01*
X1259169Y561000D01*
X1259027Y562079D01*
X1258611Y563085D01*
X1257948Y563948D01*
X1257085Y564611D01*
X1256079Y565028D01*
X1255000Y565169D01*
D02*
G37*
G36*
X1265000Y555169D02*
X1263921Y555027D01*
X1262915Y554611D01*
X1262052Y553948D01*
X1261389Y553085D01*
X1260973Y552079D01*
X1260830Y551000D01*
X1260973Y549921D01*
X1261389Y548915D01*
X1262052Y548052D01*
X1262915Y547389D01*
X1263921Y546973D01*
X1265000Y546831D01*
X1266079Y546973D01*
X1267085Y547389D01*
X1267948Y548052D01*
X1268611Y548915D01*
X1269027Y549921D01*
X1269170Y551000D01*
X1269027Y552079D01*
X1268611Y553085D01*
X1267948Y553948D01*
X1267085Y554611D01*
X1266079Y555027D01*
X1265000Y555169D01*
D02*
G37*
G36*
X1255000D02*
X1253921Y555027D01*
X1252915Y554611D01*
X1252052Y553948D01*
X1251389Y553085D01*
X1250973Y552079D01*
X1250830Y551000D01*
X1250973Y549921D01*
X1251389Y548915D01*
X1252052Y548052D01*
X1252915Y547389D01*
X1253921Y546973D01*
X1255000Y546831D01*
X1256079Y546973D01*
X1257085Y547389D01*
X1257948Y548052D01*
X1258611Y548915D01*
X1259027Y549921D01*
X1259169Y551000D01*
X1259027Y552079D01*
X1258611Y553085D01*
X1257948Y553948D01*
X1257085Y554611D01*
X1256079Y555027D01*
X1255000Y555169D01*
D02*
G37*
G36*
X1209500Y578408D02*
X1208578Y578225D01*
X1207797Y577703D01*
X1207275Y576922D01*
X1207092Y576000D01*
X1207275Y575078D01*
X1207786Y574313D01*
Y554210D01*
X1203981Y550405D01*
X1203078Y550225D01*
X1202297Y549703D01*
X1201775Y548922D01*
X1201591Y548000D01*
X1201775Y547078D01*
X1202297Y546297D01*
X1203078Y545775D01*
X1204000Y545591D01*
X1204922Y545775D01*
X1205537Y546186D01*
X1205797Y545797D01*
X1206578Y545275D01*
X1207500Y545091D01*
X1208422Y545275D01*
X1209203Y545797D01*
X1209725Y546578D01*
X1209905Y547481D01*
X1213212Y550788D01*
X1213584Y551344D01*
X1213714Y552000D01*
Y569313D01*
X1214225Y570078D01*
X1214408Y571000D01*
X1214225Y571922D01*
X1213703Y572703D01*
X1212922Y573225D01*
X1212000Y573409D01*
X1211600Y573329D01*
X1211214Y573646D01*
Y574313D01*
X1211725Y575078D01*
X1211909Y576000D01*
X1211725Y576922D01*
X1211203Y577703D01*
X1210422Y578225D01*
X1209500Y578408D01*
D02*
G37*
G36*
X818000Y551169D02*
X816921Y551027D01*
X815915Y550611D01*
X815052Y549948D01*
X814389Y549085D01*
X813972Y548079D01*
X813830Y547000D01*
X813972Y545921D01*
X814389Y544915D01*
X815052Y544052D01*
X815915Y543389D01*
X816921Y542973D01*
X818000Y542831D01*
X819079Y542973D01*
X820085Y543389D01*
X820948Y544052D01*
X821611Y544915D01*
X822027Y545921D01*
X822169Y547000D01*
X822027Y548079D01*
X821611Y549085D01*
X820948Y549948D01*
X820085Y550611D01*
X819079Y551027D01*
X818000Y551169D01*
D02*
G37*
G36*
X808000D02*
X806921Y551027D01*
X805915Y550611D01*
X805052Y549948D01*
X804389Y549085D01*
X803973Y548079D01*
X803831Y547000D01*
X803973Y545921D01*
X804389Y544915D01*
X805052Y544052D01*
X805915Y543389D01*
X806921Y542973D01*
X808000Y542831D01*
X809079Y542973D01*
X810085Y543389D01*
X810948Y544052D01*
X811611Y544915D01*
X812027Y545921D01*
X812169Y547000D01*
X812027Y548079D01*
X811611Y549085D01*
X810948Y549948D01*
X810085Y550611D01*
X809079Y551027D01*
X808000Y551169D01*
D02*
G37*
G36*
X1265000Y545169D02*
X1263921Y545027D01*
X1262915Y544611D01*
X1262052Y543948D01*
X1261389Y543085D01*
X1260973Y542079D01*
X1260830Y541000D01*
X1260973Y539921D01*
X1261389Y538915D01*
X1262052Y538052D01*
X1262915Y537389D01*
X1263921Y536973D01*
X1265000Y536831D01*
X1266079Y536973D01*
X1267085Y537389D01*
X1267948Y538052D01*
X1268611Y538915D01*
X1269027Y539921D01*
X1269170Y541000D01*
X1269027Y542079D01*
X1268611Y543085D01*
X1267948Y543948D01*
X1267085Y544611D01*
X1266079Y545027D01*
X1265000Y545169D01*
D02*
G37*
G36*
X1255000D02*
X1253921Y545027D01*
X1252915Y544611D01*
X1252052Y543948D01*
X1251389Y543085D01*
X1250973Y542079D01*
X1250830Y541000D01*
X1250973Y539921D01*
X1251389Y538915D01*
X1252052Y538052D01*
X1252915Y537389D01*
X1253921Y536973D01*
X1255000Y536831D01*
X1256079Y536973D01*
X1257085Y537389D01*
X1257948Y538052D01*
X1258611Y538915D01*
X1259027Y539921D01*
X1259169Y541000D01*
X1259027Y542079D01*
X1258611Y543085D01*
X1257948Y543948D01*
X1257085Y544611D01*
X1256079Y545027D01*
X1255000Y545169D01*
D02*
G37*
G36*
X798000Y615713D02*
X797039Y615586D01*
X796144Y615215D01*
X795375Y614625D01*
X794785Y613856D01*
X794414Y612961D01*
X794287Y612000D01*
X794414Y611039D01*
X794785Y610144D01*
X795220Y609576D01*
Y550078D01*
X795052Y549948D01*
X794389Y549085D01*
X793972Y548079D01*
X793830Y547000D01*
X793972Y545921D01*
X794389Y544915D01*
X795052Y544052D01*
X795059Y544046D01*
Y533808D01*
X795052Y533802D01*
X794462Y533034D01*
X794091Y532138D01*
X793964Y531177D01*
X794091Y530216D01*
X794462Y529321D01*
X795052Y528552D01*
X795821Y527962D01*
X796716Y527591D01*
X797677Y527464D01*
X798638Y527591D01*
X799534Y527962D01*
X800302Y528552D01*
X800893Y529321D01*
X801263Y530216D01*
X801390Y531177D01*
X801263Y532138D01*
X800893Y533034D01*
X800618Y533391D01*
Y543798D01*
X800948Y544052D01*
X801611Y544915D01*
X802028Y545921D01*
X802170Y547000D01*
X802028Y548079D01*
X801611Y549085D01*
X800948Y549948D01*
X800780Y550078D01*
Y609576D01*
X801215Y610144D01*
X801586Y611039D01*
X801713Y612000D01*
X801586Y612961D01*
X801215Y613856D01*
X800625Y614625D01*
X799856Y615215D01*
X798961Y615586D01*
X798000Y615713D01*
D02*
G37*
G36*
X1265000Y535170D02*
X1263921Y535028D01*
X1262915Y534611D01*
X1262052Y533948D01*
X1261389Y533085D01*
X1260973Y532079D01*
X1260830Y531000D01*
X1260973Y529921D01*
X1261389Y528915D01*
X1262052Y528052D01*
X1262915Y527389D01*
X1263921Y526972D01*
X1265000Y526830D01*
X1266079Y526972D01*
X1267085Y527389D01*
X1267948Y528052D01*
X1268611Y528915D01*
X1269027Y529921D01*
X1269170Y531000D01*
X1269027Y532079D01*
X1268611Y533085D01*
X1267948Y533948D01*
X1267085Y534611D01*
X1266079Y535028D01*
X1265000Y535170D01*
D02*
G37*
G36*
X1255000D02*
X1253921Y535028D01*
X1252915Y534611D01*
X1252052Y533948D01*
X1251389Y533085D01*
X1250973Y532079D01*
X1250830Y531000D01*
X1250973Y529921D01*
X1251389Y528915D01*
X1252052Y528052D01*
X1252915Y527389D01*
X1253921Y526972D01*
X1255000Y526830D01*
X1256079Y526972D01*
X1257085Y527389D01*
X1257948Y528052D01*
X1258611Y528915D01*
X1259027Y529921D01*
X1259169Y531000D01*
X1259027Y532079D01*
X1258611Y533085D01*
X1257948Y533948D01*
X1257085Y534611D01*
X1256079Y535028D01*
X1255000Y535170D01*
D02*
G37*
G36*
X1123000Y628280D02*
X936500D01*
X935781Y628185D01*
X935110Y627907D01*
X934534Y627465D01*
X928535Y621465D01*
X928093Y620890D01*
X927815Y620219D01*
X927720Y619500D01*
Y582500D01*
Y562000D01*
X927815Y561281D01*
X928093Y560610D01*
X928535Y560035D01*
X934534Y554035D01*
X935110Y553593D01*
X935781Y553315D01*
X936500Y553220D01*
X966349D01*
X968220Y551349D01*
Y533000D01*
Y488924D01*
X967785Y488356D01*
X967414Y487461D01*
X967287Y486500D01*
X967414Y485539D01*
X967785Y484644D01*
X968375Y483875D01*
X969144Y483285D01*
X970039Y482914D01*
X971000Y482787D01*
X971961Y482914D01*
X972856Y483285D01*
X973625Y483875D01*
X974215Y484644D01*
X974586Y485539D01*
X974713Y486500D01*
X974586Y487461D01*
X974215Y488356D01*
X973780Y488924D01*
Y530220D01*
X1006500D01*
X1007219Y530315D01*
X1007890Y530593D01*
X1008465Y531035D01*
X1008907Y531610D01*
X1009185Y532281D01*
X1009280Y533000D01*
X1009185Y533719D01*
X1008907Y534390D01*
X1008465Y534966D01*
X1007890Y535407D01*
X1007219Y535685D01*
X1006500Y535780D01*
X973780D01*
Y550220D01*
X1007000D01*
X1007719Y550315D01*
X1008390Y550593D01*
X1008965Y551034D01*
X1009407Y551610D01*
X1009685Y552281D01*
X1009780Y553000D01*
X1009685Y553719D01*
X1009407Y554390D01*
X1008965Y554965D01*
X1008390Y555407D01*
X1007719Y555685D01*
X1007000Y555780D01*
X971651D01*
X969466Y557966D01*
X968890Y558407D01*
X968219Y558685D01*
X967500Y558780D01*
X943972D01*
X943655Y559166D01*
X943700Y559389D01*
X944097Y559786D01*
X1007790D01*
X1021286Y546290D01*
Y519000D01*
X1021416Y518344D01*
X1021788Y517788D01*
X1022400Y517176D01*
X1022209Y516714D01*
X988000D01*
X987344Y516584D01*
X986788Y516212D01*
X982288Y511712D01*
X981916Y511156D01*
X981786Y510500D01*
Y474068D01*
X981286Y473821D01*
X980684Y474283D01*
X980214Y474477D01*
Y514790D01*
X983710Y518286D01*
X1013578D01*
X1013718Y518076D01*
X1014499Y517554D01*
X1015421Y517371D01*
X1016343Y517554D01*
X1017124Y518076D01*
X1017646Y518858D01*
X1017830Y519779D01*
X1017646Y520701D01*
X1017124Y521482D01*
X1016343Y522005D01*
X1015421Y522188D01*
X1014499Y522005D01*
X1014065Y521714D01*
X983000D01*
X982344Y521584D01*
X981788Y521212D01*
X977288Y516712D01*
X976916Y516156D01*
X976786Y515500D01*
Y474477D01*
X976316Y474283D01*
X975411Y473589D01*
X974717Y472684D01*
X974281Y471630D01*
X974132Y470500D01*
X974281Y469370D01*
X974717Y468316D01*
X975411Y467411D01*
X976316Y466717D01*
X977369Y466281D01*
X978500Y466132D01*
X979630Y466281D01*
X980684Y466717D01*
X981286Y467179D01*
X981786Y466932D01*
Y466210D01*
X980407Y464831D01*
X974169D01*
Y456169D01*
X982831D01*
Y462407D01*
X984712Y464288D01*
X985084Y464844D01*
X985214Y465500D01*
Y466932D01*
X985714Y467179D01*
X986316Y466717D01*
X987370Y466281D01*
X988500Y466132D01*
X989631Y466281D01*
X990684Y466717D01*
X991589Y467411D01*
X992283Y468316D01*
X992719Y469370D01*
X992868Y470500D01*
X992719Y471630D01*
X992283Y472684D01*
X991589Y473589D01*
X990684Y474283D01*
X989631Y474719D01*
X988500Y474868D01*
X987370Y474719D01*
X986316Y474283D01*
X985714Y473821D01*
X985214Y474068D01*
Y509790D01*
X988710Y513286D01*
X1022290D01*
X1028095Y507481D01*
X1028275Y506578D01*
X1028797Y505797D01*
X1029578Y505275D01*
X1030500Y505091D01*
X1031422Y505275D01*
X1032203Y505797D01*
X1032551Y506318D01*
X1033163Y506413D01*
X1034288Y505288D01*
X1034844Y504916D01*
X1035500Y504786D01*
X1060290D01*
X1071900Y493176D01*
X1071709Y492714D01*
X1018338D01*
X1018225Y493284D01*
X1017703Y494065D01*
X1016922Y494587D01*
X1016000Y494771D01*
X1015078Y494587D01*
X1014297Y494065D01*
X1013775Y493284D01*
X1013591Y492362D01*
X1013775Y491440D01*
X1014115Y490931D01*
X1013775Y490422D01*
X1013591Y489500D01*
X1013775Y488578D01*
X1014115Y488069D01*
X1013775Y487560D01*
X1013591Y486638D01*
X1013664Y486274D01*
X1013203Y486028D01*
X1011119Y488111D01*
X1010544Y488553D01*
X1009873Y488831D01*
X1009154Y488926D01*
X1004780D01*
Y499849D01*
X1008397Y503465D01*
X1008838Y504041D01*
X1009116Y504711D01*
X1009211Y505431D01*
X1009116Y506150D01*
X1008838Y506821D01*
X1008397Y507397D01*
X1007821Y507838D01*
X1007150Y508116D01*
X1006431Y508211D01*
X1005711Y508116D01*
X1005041Y507838D01*
X1004465Y507397D01*
X1000035Y502965D01*
X999593Y502390D01*
X999315Y501719D01*
X999220Y501000D01*
Y488924D01*
X998785Y488356D01*
X998414Y487461D01*
X998287Y486500D01*
X998414Y485539D01*
X998785Y484644D01*
X999375Y483875D01*
X1000144Y483285D01*
X1001039Y482914D01*
X1002000Y482787D01*
X1002961Y482914D01*
X1003856Y483285D01*
X1003963Y483366D01*
X1008003D01*
X1010834Y480535D01*
X1011410Y480093D01*
X1012080Y479815D01*
X1012800Y479720D01*
X1025837D01*
X1026154Y479334D01*
X1026088Y479000D01*
X1026271Y478078D01*
X1026793Y477297D01*
X1027574Y476775D01*
X1028496Y476591D01*
X1029418Y476775D01*
X1030183Y477286D01*
X1038813D01*
X1039578Y476775D01*
X1040500Y476591D01*
X1041422Y476775D01*
X1042203Y477297D01*
X1042725Y478078D01*
X1042908Y479000D01*
X1042842Y479334D01*
X1043159Y479720D01*
X1049349D01*
X1050035Y479035D01*
X1050610Y478593D01*
X1051281Y478315D01*
X1052000Y478220D01*
X1056853D01*
X1057500Y478091D01*
X1058148Y478220D01*
X1073874D01*
X1077659Y474435D01*
X1078440Y473913D01*
X1079362Y473729D01*
X1097686D01*
X1098607Y473913D01*
X1099389Y474435D01*
X1100324Y475370D01*
X1100786Y475179D01*
Y456757D01*
X1100916Y456101D01*
X1101288Y455545D01*
X1127786Y429047D01*
Y422984D01*
X1127916Y422328D01*
X1128288Y421772D01*
X1134093Y415967D01*
Y409687D01*
X1133582Y408922D01*
X1133398Y408000D01*
X1133582Y407078D01*
X1134103Y406297D01*
X1134885Y405775D01*
X1135807Y405591D01*
X1136728Y405775D01*
X1137251Y406124D01*
X1137774Y405775D01*
X1138695Y405591D01*
X1139617Y405775D01*
X1140140Y406124D01*
X1140663Y405775D01*
X1141584Y405591D01*
X1142506Y405775D01*
X1143029Y406124D01*
X1143552Y405775D01*
X1144473Y405591D01*
X1145395Y405775D01*
X1145918Y406124D01*
X1146441Y405775D01*
X1147362Y405591D01*
X1148284Y405775D01*
X1148807Y406124D01*
X1149329Y405775D01*
X1150251Y405591D01*
X1151173Y405775D01*
X1151695Y406124D01*
X1152218Y405775D01*
X1153140Y405591D01*
X1154062Y405775D01*
X1154584Y406124D01*
X1155107Y405775D01*
X1156029Y405591D01*
X1156950Y405775D01*
X1157473Y406124D01*
X1157996Y405775D01*
X1158918Y405591D01*
X1159839Y405775D01*
X1160362Y406124D01*
X1160885Y405775D01*
X1161807Y405591D01*
X1162728Y405775D01*
X1163251Y406124D01*
X1163774Y405775D01*
X1164695Y405591D01*
X1165617Y405775D01*
X1166140Y406124D01*
X1166663Y405775D01*
X1167584Y405591D01*
X1168506Y405775D01*
X1169029Y406124D01*
X1169551Y405775D01*
X1170473Y405591D01*
X1171395Y405775D01*
X1171918Y406124D01*
X1172440Y405775D01*
X1173362Y405591D01*
X1174284Y405775D01*
X1174806Y406124D01*
X1175329Y405775D01*
X1176251Y405591D01*
X1177173Y405775D01*
X1177695Y406124D01*
X1178218Y405775D01*
X1179140Y405591D01*
X1180062Y405775D01*
X1180584Y406124D01*
X1181107Y405775D01*
X1182029Y405591D01*
X1182950Y405775D01*
X1183473Y406124D01*
X1183996Y405775D01*
X1184918Y405591D01*
X1185839Y405775D01*
X1186357Y406121D01*
X1186875Y405775D01*
X1187797Y405591D01*
X1188718Y405775D01*
X1189228Y406115D01*
X1189737Y405775D01*
X1190659Y405591D01*
X1191580Y405775D01*
X1192090Y406115D01*
X1192599Y405775D01*
X1193521Y405591D01*
X1194443Y405775D01*
X1194952Y406115D01*
X1195461Y405775D01*
X1196383Y405591D01*
X1197305Y405775D01*
X1197815Y406115D01*
X1198324Y405775D01*
X1199246Y405591D01*
X1200168Y405775D01*
X1200692Y406125D01*
X1201216Y405775D01*
X1202138Y405591D01*
X1203059Y405775D01*
X1203569Y406115D01*
X1204078Y405775D01*
X1205000Y405591D01*
X1205922Y405775D01*
X1206703Y406297D01*
X1207225Y407078D01*
X1207409Y408000D01*
X1207225Y408922D01*
X1206703Y409703D01*
X1205922Y410225D01*
X1205297Y410349D01*
X1169936Y445710D01*
Y477391D01*
X1183893Y491348D01*
X1184265Y491904D01*
X1184395Y492560D01*
Y516440D01*
X1184265Y517096D01*
X1183893Y517652D01*
X1170833Y530712D01*
X1170277Y531084D01*
X1169621Y531214D01*
X1140180D01*
X1137609Y533785D01*
X1137677Y534425D01*
X1137965Y534646D01*
X1138407Y535222D01*
X1138685Y535892D01*
X1138780Y536612D01*
Y542500D01*
Y554500D01*
Y575402D01*
Y612500D01*
X1138685Y613219D01*
X1138407Y613890D01*
X1137965Y614466D01*
X1124965Y627465D01*
X1124390Y627907D01*
X1123719Y628185D01*
X1123000Y628280D01*
D02*
G37*
G36*
X1265000Y525170D02*
X1263921Y525028D01*
X1262915Y524611D01*
X1262052Y523948D01*
X1261389Y523085D01*
X1260973Y522079D01*
X1260830Y521000D01*
X1260973Y519921D01*
X1261389Y518915D01*
X1262052Y518052D01*
X1262915Y517389D01*
X1263921Y516972D01*
X1265000Y516830D01*
X1266079Y516972D01*
X1267085Y517389D01*
X1267948Y518052D01*
X1268611Y518915D01*
X1269027Y519921D01*
X1269170Y521000D01*
X1269027Y522079D01*
X1268611Y523085D01*
X1267948Y523948D01*
X1267085Y524611D01*
X1266079Y525028D01*
X1265000Y525170D01*
D02*
G37*
G36*
X1255000D02*
X1253921Y525028D01*
X1252915Y524611D01*
X1252052Y523948D01*
X1251389Y523085D01*
X1250973Y522079D01*
X1250830Y521000D01*
X1250973Y519921D01*
X1251389Y518915D01*
X1252052Y518052D01*
X1252915Y517389D01*
X1253921Y516972D01*
X1255000Y516830D01*
X1256079Y516972D01*
X1257085Y517389D01*
X1257948Y518052D01*
X1258611Y518915D01*
X1259027Y519921D01*
X1259169Y521000D01*
X1259027Y522079D01*
X1258611Y523085D01*
X1257948Y523948D01*
X1257085Y524611D01*
X1256079Y525028D01*
X1255000Y525170D01*
D02*
G37*
G36*
X1265000Y515169D02*
X1263921Y515028D01*
X1262915Y514611D01*
X1262052Y513948D01*
X1261389Y513085D01*
X1260973Y512079D01*
X1260830Y511000D01*
X1260973Y509921D01*
X1261389Y508915D01*
X1262052Y508052D01*
X1262915Y507389D01*
X1263921Y506973D01*
X1265000Y506831D01*
X1266079Y506973D01*
X1267085Y507389D01*
X1267948Y508052D01*
X1268611Y508915D01*
X1269027Y509921D01*
X1269170Y511000D01*
X1269027Y512079D01*
X1268611Y513085D01*
X1267948Y513948D01*
X1267085Y514611D01*
X1266079Y515028D01*
X1265000Y515169D01*
D02*
G37*
G36*
X1255000D02*
X1253921Y515028D01*
X1252915Y514611D01*
X1252052Y513948D01*
X1251389Y513085D01*
X1250973Y512079D01*
X1250830Y511000D01*
X1250973Y509921D01*
X1251389Y508915D01*
X1252052Y508052D01*
X1252915Y507389D01*
X1253921Y506973D01*
X1255000Y506831D01*
X1256079Y506973D01*
X1257085Y507389D01*
X1257948Y508052D01*
X1258611Y508915D01*
X1259027Y509921D01*
X1259169Y511000D01*
X1259027Y512079D01*
X1258611Y513085D01*
X1257948Y513948D01*
X1257085Y514611D01*
X1256079Y515028D01*
X1255000Y515169D01*
D02*
G37*
G36*
X1265000Y505169D02*
X1263921Y505027D01*
X1262915Y504611D01*
X1262052Y503948D01*
X1261389Y503085D01*
X1260973Y502079D01*
X1260830Y501000D01*
X1260973Y499921D01*
X1261389Y498915D01*
X1262052Y498052D01*
X1262915Y497389D01*
X1263921Y496973D01*
X1265000Y496831D01*
X1266079Y496973D01*
X1267085Y497389D01*
X1267948Y498052D01*
X1268611Y498915D01*
X1269027Y499921D01*
X1269170Y501000D01*
X1269027Y502079D01*
X1268611Y503085D01*
X1267948Y503948D01*
X1267085Y504611D01*
X1266079Y505027D01*
X1265000Y505169D01*
D02*
G37*
G36*
X1255000D02*
X1253921Y505027D01*
X1252915Y504611D01*
X1252052Y503948D01*
X1251389Y503085D01*
X1250973Y502079D01*
X1250830Y501000D01*
X1250973Y499921D01*
X1251389Y498915D01*
X1252052Y498052D01*
X1252915Y497389D01*
X1253921Y496973D01*
X1255000Y496831D01*
X1256079Y496973D01*
X1257085Y497389D01*
X1257948Y498052D01*
X1258611Y498915D01*
X1259027Y499921D01*
X1259169Y501000D01*
X1259027Y502079D01*
X1258611Y503085D01*
X1257948Y503948D01*
X1257085Y504611D01*
X1256079Y505027D01*
X1255000Y505169D01*
D02*
G37*
G36*
X1265000Y495169D02*
X1263921Y495027D01*
X1262915Y494611D01*
X1262052Y493948D01*
X1261389Y493085D01*
X1260973Y492079D01*
X1260830Y491000D01*
X1260973Y489921D01*
X1261389Y488915D01*
X1262052Y488052D01*
X1262915Y487389D01*
X1263921Y486973D01*
X1265000Y486831D01*
X1266079Y486973D01*
X1267085Y487389D01*
X1267948Y488052D01*
X1268611Y488915D01*
X1269027Y489921D01*
X1269170Y491000D01*
X1269027Y492079D01*
X1268611Y493085D01*
X1267948Y493948D01*
X1267085Y494611D01*
X1266079Y495027D01*
X1265000Y495169D01*
D02*
G37*
G36*
X1255000D02*
X1253921Y495027D01*
X1252915Y494611D01*
X1252052Y493948D01*
X1251389Y493085D01*
X1250973Y492079D01*
X1250830Y491000D01*
X1250973Y489921D01*
X1251389Y488915D01*
X1252052Y488052D01*
X1252915Y487389D01*
X1253921Y486973D01*
X1255000Y486831D01*
X1256079Y486973D01*
X1257085Y487389D01*
X1257948Y488052D01*
X1258611Y488915D01*
X1259027Y489921D01*
X1259169Y491000D01*
X1259027Y492079D01*
X1258611Y493085D01*
X1257948Y493948D01*
X1257085Y494611D01*
X1256079Y495027D01*
X1255000Y495169D01*
D02*
G37*
G36*
X1199500Y497590D02*
X1198578Y497406D01*
X1197797Y496884D01*
X1197275Y496103D01*
X1197091Y495181D01*
X1197275Y494259D01*
X1197797Y493478D01*
X1198578Y492956D01*
X1199481Y492776D01*
X1205469Y486788D01*
X1206025Y486416D01*
X1206681Y486286D01*
X1220313D01*
X1221078Y485775D01*
X1222000Y485592D01*
X1222922Y485775D01*
X1223703Y486297D01*
X1224225Y487078D01*
X1224409Y488000D01*
X1224225Y488922D01*
X1223703Y489703D01*
X1222922Y490225D01*
X1222000Y490409D01*
X1221078Y490225D01*
X1220313Y489714D01*
X1207391D01*
X1201905Y495200D01*
X1201725Y496103D01*
X1201203Y496884D01*
X1200422Y497406D01*
X1199500Y497590D01*
D02*
G37*
G36*
X1265000Y485170D02*
X1263921Y485028D01*
X1262915Y484611D01*
X1262052Y483948D01*
X1261389Y483085D01*
X1260973Y482079D01*
X1260830Y481000D01*
X1260973Y479921D01*
X1261389Y478915D01*
X1262052Y478052D01*
X1262915Y477389D01*
X1263921Y476972D01*
X1265000Y476830D01*
X1266079Y476972D01*
X1267085Y477389D01*
X1267948Y478052D01*
X1268611Y478915D01*
X1269027Y479921D01*
X1269170Y481000D01*
X1269027Y482079D01*
X1268611Y483085D01*
X1267948Y483948D01*
X1267085Y484611D01*
X1266079Y485028D01*
X1265000Y485170D01*
D02*
G37*
G36*
X1255000D02*
X1253921Y485028D01*
X1252915Y484611D01*
X1252052Y483948D01*
X1251389Y483085D01*
X1250973Y482079D01*
X1250830Y481000D01*
X1250973Y479921D01*
X1251389Y478915D01*
X1252052Y478052D01*
X1252915Y477389D01*
X1253921Y476972D01*
X1255000Y476830D01*
X1256079Y476972D01*
X1257085Y477389D01*
X1257948Y478052D01*
X1258611Y478915D01*
X1259027Y479921D01*
X1259169Y481000D01*
X1259027Y482079D01*
X1258611Y483085D01*
X1257948Y483948D01*
X1257085Y484611D01*
X1256079Y485028D01*
X1255000Y485170D01*
D02*
G37*
G36*
X1265000Y475170D02*
X1263921Y475028D01*
X1262915Y474611D01*
X1262052Y473948D01*
X1261389Y473085D01*
X1260973Y472079D01*
X1260830Y471000D01*
X1260973Y469921D01*
X1261389Y468915D01*
X1262052Y468052D01*
X1262915Y467389D01*
X1263921Y466972D01*
X1265000Y466830D01*
X1266079Y466972D01*
X1267085Y467389D01*
X1267948Y468052D01*
X1268611Y468915D01*
X1269027Y469921D01*
X1269170Y471000D01*
X1269027Y472079D01*
X1268611Y473085D01*
X1267948Y473948D01*
X1267085Y474611D01*
X1266079Y475028D01*
X1265000Y475170D01*
D02*
G37*
G36*
X1255000D02*
X1253921Y475028D01*
X1252915Y474611D01*
X1252052Y473948D01*
X1251389Y473085D01*
X1250973Y472079D01*
X1250830Y471000D01*
X1250973Y469921D01*
X1251389Y468915D01*
X1252052Y468052D01*
X1252915Y467389D01*
X1253921Y466972D01*
X1255000Y466830D01*
X1256079Y466972D01*
X1257085Y467389D01*
X1257948Y468052D01*
X1258611Y468915D01*
X1259027Y469921D01*
X1259169Y471000D01*
X1259027Y472079D01*
X1258611Y473085D01*
X1257948Y473948D01*
X1257085Y474611D01*
X1256079Y475028D01*
X1255000Y475170D01*
D02*
G37*
G36*
X1265000Y465169D02*
X1263921Y465028D01*
X1262915Y464611D01*
X1262052Y463948D01*
X1261389Y463085D01*
X1260973Y462079D01*
X1260830Y461000D01*
X1260973Y459921D01*
X1261389Y458915D01*
X1262052Y458052D01*
X1262915Y457389D01*
X1263921Y456973D01*
X1265000Y456831D01*
X1266079Y456973D01*
X1267085Y457389D01*
X1267948Y458052D01*
X1268611Y458915D01*
X1269027Y459921D01*
X1269170Y461000D01*
X1269027Y462079D01*
X1268611Y463085D01*
X1267948Y463948D01*
X1267085Y464611D01*
X1266079Y465028D01*
X1265000Y465169D01*
D02*
G37*
G36*
X1255000D02*
X1253921Y465028D01*
X1252915Y464611D01*
X1252052Y463948D01*
X1251389Y463085D01*
X1250973Y462079D01*
X1250830Y461000D01*
X1250973Y459921D01*
X1251389Y458915D01*
X1252052Y458052D01*
X1252915Y457389D01*
X1253921Y456973D01*
X1255000Y456831D01*
X1256079Y456973D01*
X1257085Y457389D01*
X1257948Y458052D01*
X1258611Y458915D01*
X1259027Y459921D01*
X1259169Y461000D01*
X1259027Y462079D01*
X1258611Y463085D01*
X1257948Y463948D01*
X1257085Y464611D01*
X1256079Y465028D01*
X1255000Y465169D01*
D02*
G37*
G36*
X988500Y464868D02*
X987370Y464719D01*
X986316Y464283D01*
X985411Y463589D01*
X984717Y462684D01*
X984281Y461630D01*
X984132Y460500D01*
X984281Y459370D01*
X984717Y458316D01*
X985411Y457411D01*
X986316Y456717D01*
X987370Y456281D01*
X988500Y456132D01*
X989631Y456281D01*
X990684Y456717D01*
X991589Y457411D01*
X992283Y458316D01*
X992719Y459370D01*
X992868Y460500D01*
X992719Y461630D01*
X992283Y462684D01*
X991589Y463589D01*
X990684Y464283D01*
X989631Y464719D01*
X988500Y464868D01*
D02*
G37*
G36*
X1265000Y455169D02*
X1263921Y455027D01*
X1262915Y454611D01*
X1262052Y453948D01*
X1261389Y453085D01*
X1260973Y452079D01*
X1260830Y451000D01*
X1260973Y449921D01*
X1261389Y448915D01*
X1262052Y448052D01*
X1262915Y447389D01*
X1263921Y446973D01*
X1265000Y446831D01*
X1266079Y446973D01*
X1267085Y447389D01*
X1267948Y448052D01*
X1268611Y448915D01*
X1269027Y449921D01*
X1269170Y451000D01*
X1269027Y452079D01*
X1268611Y453085D01*
X1267948Y453948D01*
X1267085Y454611D01*
X1266079Y455027D01*
X1265000Y455169D01*
D02*
G37*
G36*
X1255000D02*
X1253921Y455027D01*
X1252915Y454611D01*
X1252052Y453948D01*
X1251389Y453085D01*
X1250973Y452079D01*
X1250830Y451000D01*
X1250973Y449921D01*
X1251389Y448915D01*
X1252052Y448052D01*
X1252915Y447389D01*
X1253921Y446973D01*
X1255000Y446831D01*
X1256079Y446973D01*
X1257085Y447389D01*
X1257948Y448052D01*
X1258611Y448915D01*
X1259027Y449921D01*
X1259169Y451000D01*
X1259027Y452079D01*
X1258611Y453085D01*
X1257948Y453948D01*
X1257085Y454611D01*
X1256079Y455027D01*
X1255000Y455169D01*
D02*
G37*
G36*
X1265000Y445169D02*
X1263921Y445027D01*
X1262915Y444611D01*
X1262052Y443948D01*
X1261389Y443085D01*
X1260973Y442079D01*
X1260830Y441000D01*
X1260973Y439921D01*
X1261389Y438915D01*
X1262052Y438052D01*
X1262915Y437389D01*
X1263921Y436973D01*
X1265000Y436831D01*
X1266079Y436973D01*
X1267085Y437389D01*
X1267948Y438052D01*
X1268611Y438915D01*
X1269027Y439921D01*
X1269170Y441000D01*
X1269027Y442079D01*
X1268611Y443085D01*
X1267948Y443948D01*
X1267085Y444611D01*
X1266079Y445027D01*
X1265000Y445169D01*
D02*
G37*
G36*
X1255000D02*
X1253921Y445027D01*
X1252915Y444611D01*
X1252052Y443948D01*
X1251389Y443085D01*
X1250973Y442079D01*
X1250830Y441000D01*
X1250973Y439921D01*
X1251389Y438915D01*
X1252052Y438052D01*
X1252915Y437389D01*
X1253921Y436973D01*
X1255000Y436831D01*
X1256079Y436973D01*
X1257085Y437389D01*
X1257948Y438052D01*
X1258611Y438915D01*
X1259027Y439921D01*
X1259169Y441000D01*
X1259027Y442079D01*
X1258611Y443085D01*
X1257948Y443948D01*
X1257085Y444611D01*
X1256079Y445027D01*
X1255000Y445169D01*
D02*
G37*
G36*
X521118Y475118D02*
X510882D01*
Y464882D01*
X513169D01*
X513303Y464382D01*
X512350Y463650D01*
X511529Y462581D01*
X511014Y461336D01*
X510838Y460000D01*
X511014Y458664D01*
X511529Y457419D01*
X512350Y456350D01*
X513419Y455529D01*
X514044Y455271D01*
Y454729D01*
X513419Y454471D01*
X512350Y453650D01*
X511529Y452581D01*
X511014Y451336D01*
X510838Y450000D01*
X511014Y448664D01*
X511529Y447419D01*
X512350Y446350D01*
X513419Y445529D01*
X514044Y445271D01*
Y444729D01*
X513419Y444471D01*
X512350Y443650D01*
X511529Y442581D01*
X511014Y441336D01*
X510838Y440000D01*
X511014Y438664D01*
X511529Y437419D01*
X512350Y436350D01*
X513419Y435529D01*
X514664Y435014D01*
X516000Y434838D01*
X517336Y435014D01*
X518581Y435529D01*
X519650Y436350D01*
X520471Y437419D01*
X520986Y438664D01*
X521162Y440000D01*
X520986Y441336D01*
X520471Y442581D01*
X519650Y443650D01*
X518581Y444471D01*
X517956Y444729D01*
Y445271D01*
X518581Y445529D01*
X519650Y446350D01*
X520471Y447419D01*
X520986Y448664D01*
X521162Y450000D01*
X520986Y451336D01*
X520471Y452581D01*
X519650Y453650D01*
X518581Y454471D01*
X517956Y454729D01*
Y455271D01*
X518581Y455529D01*
X519650Y456350D01*
X520471Y457419D01*
X520986Y458664D01*
X521162Y460000D01*
X520986Y461336D01*
X520471Y462581D01*
X519650Y463650D01*
X518697Y464382D01*
X518831Y464882D01*
X521118D01*
Y475118D01*
D02*
G37*
G36*
X1265000Y435170D02*
X1263921Y435028D01*
X1262915Y434611D01*
X1262052Y433948D01*
X1261389Y433085D01*
X1260973Y432079D01*
X1260830Y431000D01*
X1260973Y429921D01*
X1261389Y428915D01*
X1262052Y428052D01*
X1262915Y427389D01*
X1263921Y426972D01*
X1265000Y426830D01*
X1266079Y426972D01*
X1267085Y427389D01*
X1267948Y428052D01*
X1268611Y428915D01*
X1269027Y429921D01*
X1269170Y431000D01*
X1269027Y432079D01*
X1268611Y433085D01*
X1267948Y433948D01*
X1267085Y434611D01*
X1266079Y435028D01*
X1265000Y435170D01*
D02*
G37*
G36*
X1255000D02*
X1253921Y435028D01*
X1252915Y434611D01*
X1252052Y433948D01*
X1251389Y433085D01*
X1250973Y432079D01*
X1250830Y431000D01*
X1250973Y429921D01*
X1251389Y428915D01*
X1252052Y428052D01*
X1252915Y427389D01*
X1253921Y426972D01*
X1255000Y426830D01*
X1256079Y426972D01*
X1257085Y427389D01*
X1257948Y428052D01*
X1258611Y428915D01*
X1259027Y429921D01*
X1259169Y431000D01*
X1259027Y432079D01*
X1258611Y433085D01*
X1257948Y433948D01*
X1257085Y434611D01*
X1256079Y435028D01*
X1255000Y435170D01*
D02*
G37*
G36*
X945527Y434527D02*
X936473D01*
Y425472D01*
X945527D01*
Y434527D01*
D02*
G37*
G36*
X931000Y434567D02*
X929818Y434411D01*
X928717Y433955D01*
X927771Y433229D01*
X927045Y432283D01*
X926589Y431182D01*
X926433Y430000D01*
X926589Y428818D01*
X927045Y427717D01*
X927771Y426771D01*
X928717Y426045D01*
X929818Y425589D01*
X931000Y425433D01*
X932182Y425589D01*
X933283Y426045D01*
X934229Y426771D01*
X934955Y427717D01*
X935411Y428818D01*
X935567Y430000D01*
X935411Y431182D01*
X934955Y432283D01*
X934229Y433229D01*
X933283Y433955D01*
X932182Y434411D01*
X931000Y434567D01*
D02*
G37*
G36*
X1265000Y425170D02*
X1263921Y425028D01*
X1262915Y424611D01*
X1262052Y423948D01*
X1261389Y423085D01*
X1260973Y422079D01*
X1260830Y421000D01*
X1260973Y419921D01*
X1261389Y418915D01*
X1262052Y418052D01*
X1262915Y417389D01*
X1263921Y416972D01*
X1265000Y416830D01*
X1266079Y416972D01*
X1267085Y417389D01*
X1267948Y418052D01*
X1268611Y418915D01*
X1269027Y419921D01*
X1269170Y421000D01*
X1269027Y422079D01*
X1268611Y423085D01*
X1267948Y423948D01*
X1267085Y424611D01*
X1266079Y425028D01*
X1265000Y425170D01*
D02*
G37*
G36*
X1255000D02*
X1253921Y425028D01*
X1252915Y424611D01*
X1252052Y423948D01*
X1251389Y423085D01*
X1250973Y422079D01*
X1250830Y421000D01*
X1250973Y419921D01*
X1251389Y418915D01*
X1252052Y418052D01*
X1252915Y417389D01*
X1253921Y416972D01*
X1255000Y416830D01*
X1256079Y416972D01*
X1257085Y417389D01*
X1257948Y418052D01*
X1258611Y418915D01*
X1259027Y419921D01*
X1259169Y421000D01*
X1259027Y422079D01*
X1258611Y423085D01*
X1257948Y423948D01*
X1257085Y424611D01*
X1256079Y425028D01*
X1255000Y425170D01*
D02*
G37*
G36*
X1247500Y423409D02*
X1246578Y423225D01*
X1245797Y422703D01*
X1245275Y421922D01*
X1245095Y421019D01*
X1236790Y412714D01*
X1223687D01*
X1222922Y413225D01*
X1222000Y413409D01*
X1221078Y413225D01*
X1220297Y412703D01*
X1219775Y411922D01*
X1219592Y411000D01*
X1219775Y410078D01*
X1220297Y409297D01*
X1221078Y408775D01*
X1222000Y408592D01*
X1222922Y408775D01*
X1223687Y409286D01*
X1237500D01*
X1238156Y409416D01*
X1238712Y409788D01*
X1247519Y418595D01*
X1248422Y418775D01*
X1249203Y419297D01*
X1249725Y420078D01*
X1249909Y421000D01*
X1249725Y421922D01*
X1249203Y422703D01*
X1248422Y423225D01*
X1247500Y423409D01*
D02*
G37*
G36*
X1265000Y415169D02*
X1263921Y415028D01*
X1262915Y414611D01*
X1262052Y413948D01*
X1261389Y413085D01*
X1260973Y412079D01*
X1260830Y411000D01*
X1260973Y409921D01*
X1261389Y408915D01*
X1262052Y408052D01*
X1262915Y407389D01*
X1263921Y406973D01*
X1265000Y406831D01*
X1266079Y406973D01*
X1267085Y407389D01*
X1267948Y408052D01*
X1268611Y408915D01*
X1269027Y409921D01*
X1269170Y411000D01*
X1269027Y412079D01*
X1268611Y413085D01*
X1267948Y413948D01*
X1267085Y414611D01*
X1266079Y415028D01*
X1265000Y415169D01*
D02*
G37*
G36*
X1255000D02*
X1253921Y415028D01*
X1252915Y414611D01*
X1252052Y413948D01*
X1251389Y413085D01*
X1250973Y412079D01*
X1250830Y411000D01*
X1250973Y409921D01*
X1251389Y408915D01*
X1252052Y408052D01*
X1252915Y407389D01*
X1253921Y406973D01*
X1255000Y406831D01*
X1256079Y406973D01*
X1257085Y407389D01*
X1257948Y408052D01*
X1258611Y408915D01*
X1259027Y409921D01*
X1259169Y411000D01*
X1259027Y412079D01*
X1258611Y413085D01*
X1257948Y413948D01*
X1257085Y414611D01*
X1256079Y415028D01*
X1255000Y415169D01*
D02*
G37*
G36*
X1265000Y405169D02*
X1263921Y405027D01*
X1262915Y404611D01*
X1262052Y403948D01*
X1261389Y403085D01*
X1260973Y402079D01*
X1260830Y401000D01*
X1260973Y399921D01*
X1261389Y398915D01*
X1262052Y398052D01*
X1262915Y397389D01*
X1263921Y396973D01*
X1265000Y396831D01*
X1266079Y396973D01*
X1267085Y397389D01*
X1267948Y398052D01*
X1268611Y398915D01*
X1269027Y399921D01*
X1269170Y401000D01*
X1269027Y402079D01*
X1268611Y403085D01*
X1267948Y403948D01*
X1267085Y404611D01*
X1266079Y405027D01*
X1265000Y405169D01*
D02*
G37*
G36*
X1255000D02*
X1253921Y405027D01*
X1252915Y404611D01*
X1252052Y403948D01*
X1251389Y403085D01*
X1250973Y402079D01*
X1250830Y401000D01*
X1250973Y399921D01*
X1251389Y398915D01*
X1252052Y398052D01*
X1252915Y397389D01*
X1253921Y396973D01*
X1255000Y396831D01*
X1256079Y396973D01*
X1257085Y397389D01*
X1257948Y398052D01*
X1258611Y398915D01*
X1259027Y399921D01*
X1259169Y401000D01*
X1259027Y402079D01*
X1258611Y403085D01*
X1257948Y403948D01*
X1257085Y404611D01*
X1256079Y405027D01*
X1255000Y405169D01*
D02*
G37*
G36*
X521118Y427118D02*
X510882D01*
Y416882D01*
X513169D01*
X513303Y416382D01*
X512350Y415650D01*
X511529Y414581D01*
X511014Y413336D01*
X510838Y412000D01*
X511014Y410664D01*
X511529Y409419D01*
X512350Y408350D01*
X513419Y407529D01*
X514044Y407271D01*
Y406729D01*
X513419Y406471D01*
X512350Y405650D01*
X511529Y404581D01*
X511014Y403336D01*
X510838Y402000D01*
X511014Y400664D01*
X511529Y399419D01*
X512350Y398350D01*
X513419Y397529D01*
X514044Y397271D01*
Y396729D01*
X513419Y396471D01*
X512350Y395650D01*
X511529Y394581D01*
X511014Y393336D01*
X510838Y392000D01*
X511014Y390664D01*
X511529Y389419D01*
X512350Y388350D01*
X513419Y387529D01*
X514664Y387014D01*
X516000Y386838D01*
X517336Y387014D01*
X518581Y387529D01*
X519650Y388350D01*
X520471Y389419D01*
X520986Y390664D01*
X521162Y392000D01*
X520986Y393336D01*
X520471Y394581D01*
X519650Y395650D01*
X518581Y396471D01*
X517956Y396729D01*
Y397271D01*
X518581Y397529D01*
X519650Y398350D01*
X520471Y399419D01*
X520986Y400664D01*
X521162Y402000D01*
X520986Y403336D01*
X520471Y404581D01*
X519650Y405650D01*
X518581Y406471D01*
X517956Y406729D01*
Y407271D01*
X518581Y407529D01*
X519650Y408350D01*
X520471Y409419D01*
X520986Y410664D01*
X521162Y412000D01*
X520986Y413336D01*
X520471Y414581D01*
X519650Y415650D01*
X518697Y416382D01*
X518831Y416882D01*
X521118D01*
Y427118D01*
D02*
G37*
G36*
X1265000Y395169D02*
X1263921Y395027D01*
X1262915Y394611D01*
X1262052Y393948D01*
X1261389Y393085D01*
X1260973Y392079D01*
X1260830Y391000D01*
X1260973Y389921D01*
X1261389Y388915D01*
X1262052Y388052D01*
X1262915Y387389D01*
X1263921Y386973D01*
X1265000Y386830D01*
X1266079Y386973D01*
X1267085Y387389D01*
X1267948Y388052D01*
X1268611Y388915D01*
X1269027Y389921D01*
X1269170Y391000D01*
X1269027Y392079D01*
X1268611Y393085D01*
X1267948Y393948D01*
X1267085Y394611D01*
X1266079Y395027D01*
X1265000Y395169D01*
D02*
G37*
G36*
X1255000D02*
X1253921Y395027D01*
X1252915Y394611D01*
X1252052Y393948D01*
X1251389Y393085D01*
X1250973Y392079D01*
X1250830Y391000D01*
X1250973Y389921D01*
X1251389Y388915D01*
X1252052Y388052D01*
X1252915Y387389D01*
X1253921Y386973D01*
X1255000Y386830D01*
X1256079Y386973D01*
X1257085Y387389D01*
X1257948Y388052D01*
X1258611Y388915D01*
X1259027Y389921D01*
X1259169Y391000D01*
X1259027Y392079D01*
X1258611Y393085D01*
X1257948Y393948D01*
X1257085Y394611D01*
X1256079Y395027D01*
X1255000Y395169D01*
D02*
G37*
G36*
X1265000Y385170D02*
X1263921Y385027D01*
X1262915Y384611D01*
X1262052Y383948D01*
X1261389Y383085D01*
X1260973Y382079D01*
X1260830Y381000D01*
X1260973Y379921D01*
X1261389Y378915D01*
X1262052Y378052D01*
X1262915Y377389D01*
X1263921Y376973D01*
X1265000Y376831D01*
X1266079Y376973D01*
X1267085Y377389D01*
X1267948Y378052D01*
X1268611Y378915D01*
X1269027Y379921D01*
X1269170Y381000D01*
X1269027Y382079D01*
X1268611Y383085D01*
X1267948Y383948D01*
X1267085Y384611D01*
X1266079Y385027D01*
X1265000Y385170D01*
D02*
G37*
G36*
X1255000D02*
X1253921Y385027D01*
X1252915Y384611D01*
X1252052Y383948D01*
X1251389Y383085D01*
X1250973Y382079D01*
X1250830Y381000D01*
X1250973Y379921D01*
X1251389Y378915D01*
X1252052Y378052D01*
X1252915Y377389D01*
X1253921Y376973D01*
X1255000Y376831D01*
X1256079Y376973D01*
X1257085Y377389D01*
X1257948Y378052D01*
X1258611Y378915D01*
X1259027Y379921D01*
X1259169Y381000D01*
X1259027Y382079D01*
X1258611Y383085D01*
X1257948Y383948D01*
X1257085Y384611D01*
X1256079Y385027D01*
X1255000Y385170D01*
D02*
G37*
G36*
X1020500Y458408D02*
X1019578Y458225D01*
X1018797Y457703D01*
X1018275Y456922D01*
X1018091Y456000D01*
X1018275Y455078D01*
X1018797Y454297D01*
X1019578Y453775D01*
X1020500Y453591D01*
X1021422Y453775D01*
X1022187Y454286D01*
X1057290D01*
X1057604Y453786D01*
X1057460Y453063D01*
X1057644Y452141D01*
X1058014Y451587D01*
Y448272D01*
X1058144Y447616D01*
X1058516Y447060D01*
X1059286Y446290D01*
Y426757D01*
X1059416Y426101D01*
X1059788Y425545D01*
X1101602Y383731D01*
X1101602Y383731D01*
X1115408Y369926D01*
X1115964Y369554D01*
X1116620Y369424D01*
X1122813D01*
X1123578Y368913D01*
X1124500Y368729D01*
X1125422Y368913D01*
X1126203Y369435D01*
X1126725Y370216D01*
X1126908Y371138D01*
X1126725Y372059D01*
X1126385Y372569D01*
X1126725Y373078D01*
X1126908Y374000D01*
X1126725Y374922D01*
X1126368Y375457D01*
X1126725Y375992D01*
X1126908Y376913D01*
X1126725Y377835D01*
X1126385Y378344D01*
X1126725Y378854D01*
X1126908Y379776D01*
X1126725Y380697D01*
X1126385Y381207D01*
X1126725Y381716D01*
X1126908Y382638D01*
X1126725Y383559D01*
X1126385Y384069D01*
X1126725Y384578D01*
X1126908Y385500D01*
X1126725Y386422D01*
X1126203Y387203D01*
X1125422Y387725D01*
X1124500Y387909D01*
X1123578Y387725D01*
X1122813Y387214D01*
X1113574D01*
X1070214Y430574D01*
Y445793D01*
X1072291Y447870D01*
X1072662Y448426D01*
X1072793Y449082D01*
Y449154D01*
X1073042Y449321D01*
X1073564Y450102D01*
X1073748Y451023D01*
X1073715Y451186D01*
X1074139Y451619D01*
X1074922Y451775D01*
X1075703Y452297D01*
X1076225Y453078D01*
X1076408Y454000D01*
X1076225Y454922D01*
X1075703Y455703D01*
X1074922Y456225D01*
X1074019Y456405D01*
X1073212Y457212D01*
X1072656Y457584D01*
X1072000Y457714D01*
X1022187D01*
X1021422Y458225D01*
X1020500Y458408D01*
D02*
G37*
G36*
X1255000Y356567D02*
X1253818Y356411D01*
X1252717Y355955D01*
X1251771Y355229D01*
X1251045Y354283D01*
X1250589Y353182D01*
X1250433Y352000D01*
X1250589Y350818D01*
X1251045Y349717D01*
X1251771Y348771D01*
X1252717Y348045D01*
X1253818Y347589D01*
X1255000Y347433D01*
X1256182Y347589D01*
X1257283Y348045D01*
X1258229Y348771D01*
X1258955Y349717D01*
X1259411Y350818D01*
X1259567Y352000D01*
X1259411Y353182D01*
X1258955Y354283D01*
X1258229Y355229D01*
X1257283Y355955D01*
X1256182Y356411D01*
X1255000Y356567D01*
D02*
G37*
G36*
Y346567D02*
X1253818Y346411D01*
X1252717Y345955D01*
X1251771Y345229D01*
X1251045Y344283D01*
X1250589Y343182D01*
X1250433Y342000D01*
X1250589Y340818D01*
X1251045Y339717D01*
X1251771Y338771D01*
X1252717Y338045D01*
X1253818Y337589D01*
X1255000Y337433D01*
X1256182Y337589D01*
X1257283Y338045D01*
X1258229Y338771D01*
X1258955Y339717D01*
X1259411Y340818D01*
X1259567Y342000D01*
X1259411Y343182D01*
X1258955Y344283D01*
X1258229Y345229D01*
X1257283Y345955D01*
X1256182Y346411D01*
X1255000Y346567D01*
D02*
G37*
G36*
X1123000Y337408D02*
X1122078Y337225D01*
X1121313Y336714D01*
X1109181D01*
X1108766Y336631D01*
X1108525Y336584D01*
X1108525Y336584D01*
X1108525Y336584D01*
X1108268Y336411D01*
X1107969Y336212D01*
X1106481Y334724D01*
X1105578Y334544D01*
X1104797Y334022D01*
X1104275Y333241D01*
X1104091Y332319D01*
X1104275Y331397D01*
X1104797Y330616D01*
X1105578Y330094D01*
X1106500Y329910D01*
X1107422Y330094D01*
X1108203Y330616D01*
X1108725Y331397D01*
X1108905Y332299D01*
X1109891Y333286D01*
X1121313D01*
X1122078Y332775D01*
X1123000Y332592D01*
X1123922Y332775D01*
X1124703Y333297D01*
X1125225Y334078D01*
X1125408Y335000D01*
X1125225Y335922D01*
X1124703Y336703D01*
X1123922Y337225D01*
X1123000Y337408D01*
D02*
G37*
G36*
X1255000Y336567D02*
X1253818Y336411D01*
X1252717Y335955D01*
X1251771Y335229D01*
X1251045Y334283D01*
X1250589Y333182D01*
X1250433Y332000D01*
X1250589Y330818D01*
X1251045Y329717D01*
X1251771Y328771D01*
X1252717Y328045D01*
X1253818Y327589D01*
X1255000Y327433D01*
X1256182Y327589D01*
X1257283Y328045D01*
X1258229Y328771D01*
X1258955Y329717D01*
X1259411Y330818D01*
X1259567Y332000D01*
X1259411Y333182D01*
X1258955Y334283D01*
X1258229Y335229D01*
X1257283Y335955D01*
X1256182Y336411D01*
X1255000Y336567D01*
D02*
G37*
G36*
X899500Y332213D02*
X898539Y332086D01*
X897644Y331715D01*
X896875Y331125D01*
X896285Y330356D01*
X895914Y329461D01*
X895787Y328500D01*
X895914Y327539D01*
X896192Y326866D01*
X887976Y318650D01*
X887500Y318713D01*
X886539Y318586D01*
X885644Y318215D01*
X884875Y317625D01*
X884285Y316856D01*
X883914Y315961D01*
X883787Y315000D01*
X883914Y314039D01*
X884285Y313144D01*
X884875Y312375D01*
X885644Y311785D01*
X886539Y311414D01*
X887500Y311287D01*
X888461Y311414D01*
X889356Y311785D01*
X890125Y312375D01*
X890715Y313144D01*
X891086Y314039D01*
X891213Y315000D01*
X891086Y315961D01*
X890808Y316634D01*
X899024Y324850D01*
X899500Y324787D01*
X900461Y324914D01*
X901356Y325285D01*
X902125Y325875D01*
X902715Y326644D01*
X903086Y327539D01*
X903213Y328500D01*
X903086Y329461D01*
X902715Y330356D01*
X902125Y331125D01*
X901356Y331715D01*
X900461Y332086D01*
X899500Y332213D01*
D02*
G37*
G36*
X1028000Y350713D02*
X1027039Y350586D01*
X1026144Y350215D01*
X1025375Y349625D01*
X1024785Y348856D01*
X1024414Y347961D01*
X1024287Y347000D01*
X1024414Y346039D01*
X1024785Y345144D01*
X1025375Y344375D01*
X1026144Y343785D01*
X1027039Y343414D01*
X1028000Y343287D01*
X1028961Y343414D01*
X1029856Y343785D01*
X1030424Y344220D01*
X1049486D01*
X1070872Y322835D01*
X1063074Y315036D01*
X1058590D01*
X1058356Y315215D01*
X1057461Y315586D01*
X1056500Y315713D01*
X1055539Y315586D01*
X1054644Y315215D01*
X1053875Y314625D01*
X1053285Y313856D01*
X1052914Y312961D01*
X1052787Y312000D01*
X1052914Y311039D01*
X1053285Y310144D01*
X1053875Y309375D01*
X1054644Y308785D01*
X1055539Y308414D01*
X1056500Y308287D01*
X1057461Y308414D01*
X1058356Y308785D01*
X1059125Y309375D01*
X1059204Y309477D01*
X1064225D01*
X1064944Y309572D01*
X1065615Y309849D01*
X1066191Y310291D01*
X1075054Y319155D01*
X1075764Y319248D01*
X1076660Y319619D01*
X1077009Y319888D01*
X1169865D01*
X1169875Y319875D01*
X1170644Y319285D01*
X1171539Y318914D01*
X1172500Y318787D01*
X1173461Y318914D01*
X1174356Y319285D01*
X1175125Y319875D01*
X1175715Y320644D01*
X1176086Y321539D01*
X1176213Y322500D01*
X1176086Y323461D01*
X1175715Y324356D01*
X1175125Y325125D01*
X1174356Y325715D01*
X1173461Y326086D01*
X1172500Y326213D01*
X1171539Y326086D01*
X1170644Y325715D01*
X1170294Y325447D01*
X1077439D01*
X1077429Y325460D01*
X1076660Y326050D01*
X1075764Y326421D01*
X1075054Y326514D01*
X1052603Y348966D01*
X1052028Y349407D01*
X1051357Y349685D01*
X1050638Y349780D01*
X1030424D01*
X1029856Y350215D01*
X1028961Y350586D01*
X1028000Y350713D01*
D02*
G37*
G36*
X1259527Y326528D02*
X1250473D01*
Y324780D01*
X1239000D01*
X1238281Y324685D01*
X1237610Y324407D01*
X1237035Y323966D01*
X1219349Y306280D01*
X1005651D01*
X999180Y312751D01*
X999086Y313461D01*
X998715Y314356D01*
X998125Y315125D01*
X997356Y315715D01*
X996461Y316086D01*
X995500Y316213D01*
X994539Y316086D01*
X993644Y315715D01*
X992875Y315125D01*
X992631Y314807D01*
X992108Y314947D01*
X992086Y315111D01*
X991715Y316006D01*
X991125Y316775D01*
X990356Y317365D01*
X989461Y317736D01*
X988500Y317863D01*
X987539Y317736D01*
X986644Y317365D01*
X985875Y316775D01*
X985285Y316006D01*
X984914Y315111D01*
X984787Y314150D01*
X984914Y313189D01*
X985285Y312293D01*
X985720Y311725D01*
Y309000D01*
X985815Y308281D01*
X986093Y307610D01*
X986535Y307034D01*
X999535Y294035D01*
X1000110Y293593D01*
X1000781Y293315D01*
X1001500Y293220D01*
X1225500D01*
X1226219Y293315D01*
X1226890Y293593D01*
X1227466Y294035D01*
X1242151Y308720D01*
X1251837D01*
X1252717Y308045D01*
X1253818Y307589D01*
X1255000Y307433D01*
X1256182Y307589D01*
X1257283Y308045D01*
X1258229Y308771D01*
X1258955Y309717D01*
X1259411Y310818D01*
X1259567Y312000D01*
X1259411Y313182D01*
X1258955Y314283D01*
X1258229Y315229D01*
X1257283Y315955D01*
X1256182Y316411D01*
X1255000Y316567D01*
X1253818Y316411D01*
X1252717Y315955D01*
X1251771Y315229D01*
X1251045Y314283D01*
X1251044Y314280D01*
X1241000D01*
X1240281Y314185D01*
X1239610Y313907D01*
X1239034Y313465D01*
X1224349Y298780D01*
X1002651D01*
X991280Y310151D01*
Y311349D01*
X991425Y311461D01*
X991484Y311471D01*
X992018Y311288D01*
X992285Y310644D01*
X992875Y309875D01*
X993644Y309285D01*
X994539Y308914D01*
X995249Y308820D01*
X1002534Y301535D01*
X1003110Y301093D01*
X1003781Y300815D01*
X1004500Y300720D01*
X1220500D01*
X1221219Y300815D01*
X1221890Y301093D01*
X1222466Y301535D01*
X1240151Y319220D01*
X1250473D01*
Y317472D01*
X1259527D01*
Y326528D01*
D02*
G37*
G36*
X1255000Y306567D02*
X1253818Y306411D01*
X1252717Y305955D01*
X1251771Y305229D01*
X1251045Y304283D01*
X1250589Y303182D01*
X1250433Y302000D01*
X1250589Y300818D01*
X1251045Y299717D01*
X1251771Y298771D01*
X1252717Y298045D01*
X1253818Y297589D01*
X1255000Y297433D01*
X1256182Y297589D01*
X1257283Y298045D01*
X1258229Y298771D01*
X1258955Y299717D01*
X1259411Y300818D01*
X1259567Y302000D01*
X1259411Y303182D01*
X1258955Y304283D01*
X1258229Y305229D01*
X1257283Y305955D01*
X1256182Y306411D01*
X1255000Y306567D01*
D02*
G37*
G36*
X586381Y318309D02*
X585420Y318183D01*
X584524Y317812D01*
X583755Y317222D01*
X583166Y316453D01*
X582795Y315557D01*
X582723Y315012D01*
X570412Y302701D01*
X569539Y302586D01*
X568644Y302215D01*
X567875Y301625D01*
X567285Y300856D01*
X566914Y299961D01*
X566787Y299000D01*
X566914Y298039D01*
X567285Y297144D01*
X567875Y296375D01*
X568644Y295785D01*
X569539Y295414D01*
X570500Y295287D01*
X571461Y295414D01*
X572356Y295785D01*
X573125Y296375D01*
X573715Y297144D01*
X574086Y298039D01*
X574158Y298585D01*
X586468Y310895D01*
X587342Y311010D01*
X588237Y311381D01*
X589006Y311971D01*
X589596Y312740D01*
X589967Y313635D01*
X590094Y314596D01*
X589967Y315557D01*
X589596Y316453D01*
X589006Y317222D01*
X588237Y317812D01*
X587342Y318183D01*
X586381Y318309D01*
D02*
G37*
G36*
X1255000Y296567D02*
X1253818Y296411D01*
X1252717Y295955D01*
X1251771Y295229D01*
X1251045Y294283D01*
X1250589Y293182D01*
X1250433Y292000D01*
X1250589Y290818D01*
X1251045Y289717D01*
X1251771Y288771D01*
X1252717Y288045D01*
X1253818Y287589D01*
X1255000Y287433D01*
X1256182Y287589D01*
X1257283Y288045D01*
X1258229Y288771D01*
X1258955Y289717D01*
X1259411Y290818D01*
X1259567Y292000D01*
X1259411Y293182D01*
X1258955Y294283D01*
X1258229Y295229D01*
X1257283Y295955D01*
X1256182Y296411D01*
X1255000Y296567D01*
D02*
G37*
G36*
X941000Y323213D02*
X940039Y323086D01*
X939144Y322715D01*
X938375Y322125D01*
X937785Y321356D01*
X937414Y320461D01*
X937287Y319500D01*
X937414Y318539D01*
X937785Y317644D01*
X938375Y316875D01*
X939144Y316285D01*
X939286Y316226D01*
Y288210D01*
X931255Y280179D01*
X931000Y280213D01*
X930039Y280086D01*
X929144Y279715D01*
X928375Y279125D01*
X927785Y278356D01*
X927414Y277461D01*
X927287Y276500D01*
X927414Y275539D01*
X927785Y274644D01*
X928375Y273875D01*
X929144Y273285D01*
X930039Y272914D01*
X931000Y272787D01*
X931961Y272914D01*
X932856Y273285D01*
X933625Y273875D01*
X934215Y274644D01*
X934586Y275539D01*
X934713Y276500D01*
X934586Y277461D01*
X934235Y278310D01*
X942212Y286288D01*
X942584Y286844D01*
X942714Y287500D01*
Y316226D01*
X942856Y316285D01*
X943625Y316875D01*
X944215Y317644D01*
X944586Y318539D01*
X944713Y319500D01*
X944586Y320461D01*
X944215Y321356D01*
X943625Y322125D01*
X942856Y322715D01*
X941961Y323086D01*
X941000Y323213D01*
D02*
G37*
G36*
X1111500Y285909D02*
X1110578Y285725D01*
X1109797Y285203D01*
X1109275Y284422D01*
X1109091Y283500D01*
X1109275Y282578D01*
X1109797Y281797D01*
X1110578Y281275D01*
X1111500Y281091D01*
X1112422Y281275D01*
X1113112Y281736D01*
X1113840D01*
X1114095Y281481D01*
X1114275Y280578D01*
X1114797Y279797D01*
X1115578Y279275D01*
X1116500Y279092D01*
X1117422Y279275D01*
X1118203Y279797D01*
X1118725Y280578D01*
X1118909Y281500D01*
X1118725Y282422D01*
X1118203Y283203D01*
X1117422Y283725D01*
X1116519Y283905D01*
X1115762Y284662D01*
X1115206Y285034D01*
X1114550Y285164D01*
X1113229D01*
X1113203Y285203D01*
X1112422Y285725D01*
X1111500Y285909D01*
D02*
G37*
G36*
X516000Y299162D02*
X514664Y298986D01*
X513419Y298471D01*
X512350Y297650D01*
X511529Y296581D01*
X511014Y295336D01*
X510838Y294000D01*
X511014Y292664D01*
X511529Y291419D01*
X512350Y290350D01*
X513419Y289529D01*
X514044Y289271D01*
Y288729D01*
X513419Y288471D01*
X512350Y287650D01*
X511529Y286581D01*
X511014Y285336D01*
X510838Y284000D01*
X511014Y282664D01*
X511529Y281419D01*
X512350Y280350D01*
X513419Y279529D01*
X514664Y279014D01*
X516000Y278838D01*
X517336Y279014D01*
X518581Y279529D01*
X519650Y280350D01*
X520471Y281419D01*
X520986Y282664D01*
X521162Y284000D01*
X520986Y285336D01*
X520471Y286581D01*
X519650Y287650D01*
X518581Y288471D01*
X517956Y288729D01*
Y289271D01*
X518581Y289529D01*
X519650Y290350D01*
X520471Y291419D01*
X520986Y292664D01*
X521162Y294000D01*
X520986Y295336D01*
X520471Y296581D01*
X519650Y297650D01*
X518581Y298471D01*
X517336Y298986D01*
X516000Y299162D01*
D02*
G37*
G36*
X1259527Y286528D02*
X1250473D01*
Y277472D01*
X1259527D01*
Y286528D01*
D02*
G37*
G36*
X1211000Y257162D02*
X1209664Y256986D01*
X1208419Y256471D01*
X1207350Y255650D01*
X1206529Y254581D01*
X1206271Y253957D01*
X1205729D01*
X1205471Y254581D01*
X1204650Y255650D01*
X1203581Y256471D01*
X1202336Y256986D01*
X1201000Y257162D01*
X1199664Y256986D01*
X1198419Y256471D01*
X1197350Y255650D01*
X1196618Y254697D01*
X1196118Y254831D01*
Y257118D01*
X1185882D01*
Y246882D01*
X1196118D01*
Y249169D01*
X1196618Y249303D01*
X1197350Y248350D01*
X1198419Y247529D01*
X1199664Y247014D01*
X1201000Y246838D01*
X1202336Y247014D01*
X1203581Y247529D01*
X1204650Y248350D01*
X1205471Y249419D01*
X1205729Y250044D01*
X1206271D01*
X1206529Y249419D01*
X1207350Y248350D01*
X1208419Y247529D01*
X1209664Y247014D01*
X1211000Y246838D01*
X1212336Y247014D01*
X1213581Y247529D01*
X1214650Y248350D01*
X1215471Y249419D01*
X1215986Y250664D01*
X1216162Y252000D01*
X1215986Y253336D01*
X1215471Y254581D01*
X1214650Y255650D01*
X1213581Y256471D01*
X1212336Y256986D01*
X1211000Y257162D01*
D02*
G37*
G36*
X1163000D02*
X1161664Y256986D01*
X1160419Y256471D01*
X1159350Y255650D01*
X1158529Y254581D01*
X1158271Y253957D01*
X1157729D01*
X1157471Y254581D01*
X1156650Y255650D01*
X1155581Y256471D01*
X1154336Y256986D01*
X1153000Y257162D01*
X1151664Y256986D01*
X1150419Y256471D01*
X1149350Y255650D01*
X1148618Y254697D01*
X1148118Y254831D01*
Y257118D01*
X1137882D01*
Y246882D01*
X1148118D01*
Y249169D01*
X1148618Y249303D01*
X1149350Y248350D01*
X1150419Y247529D01*
X1151664Y247014D01*
X1153000Y246838D01*
X1154336Y247014D01*
X1155581Y247529D01*
X1156650Y248350D01*
X1157471Y249419D01*
X1157729Y250044D01*
X1158271D01*
X1158529Y249419D01*
X1159350Y248350D01*
X1160419Y247529D01*
X1161664Y247014D01*
X1163000Y246838D01*
X1164336Y247014D01*
X1165581Y247529D01*
X1166650Y248350D01*
X1167471Y249419D01*
X1167986Y250664D01*
X1168162Y252000D01*
X1167986Y253336D01*
X1167471Y254581D01*
X1166650Y255650D01*
X1165581Y256471D01*
X1164336Y256986D01*
X1163000Y257162D01*
D02*
G37*
G36*
X1115000D02*
X1113664Y256986D01*
X1112419Y256471D01*
X1111350Y255650D01*
X1110529Y254581D01*
X1110271Y253957D01*
X1109729D01*
X1109471Y254581D01*
X1108650Y255650D01*
X1107581Y256471D01*
X1106336Y256986D01*
X1105000Y257162D01*
X1103664Y256986D01*
X1102419Y256471D01*
X1101350Y255650D01*
X1100618Y254697D01*
X1100118Y254831D01*
Y257118D01*
X1089882D01*
Y246882D01*
X1100118D01*
Y249169D01*
X1100618Y249303D01*
X1101350Y248350D01*
X1102419Y247529D01*
X1103664Y247014D01*
X1105000Y246838D01*
X1106336Y247014D01*
X1107581Y247529D01*
X1108650Y248350D01*
X1109471Y249419D01*
X1109729Y250044D01*
X1110271D01*
X1110529Y249419D01*
X1111350Y248350D01*
X1112419Y247529D01*
X1113664Y247014D01*
X1115000Y246838D01*
X1116336Y247014D01*
X1117581Y247529D01*
X1118650Y248350D01*
X1119471Y249419D01*
X1119986Y250664D01*
X1120162Y252000D01*
X1119986Y253336D01*
X1119471Y254581D01*
X1118650Y255650D01*
X1117581Y256471D01*
X1116336Y256986D01*
X1115000Y257162D01*
D02*
G37*
G36*
X1067000D02*
X1065664Y256986D01*
X1064419Y256471D01*
X1063350Y255650D01*
X1062529Y254581D01*
X1062271Y253957D01*
X1061729D01*
X1061471Y254581D01*
X1060650Y255650D01*
X1059581Y256471D01*
X1058336Y256986D01*
X1057000Y257162D01*
X1055664Y256986D01*
X1054419Y256471D01*
X1053350Y255650D01*
X1052618Y254697D01*
X1052118Y254831D01*
Y257118D01*
X1041882D01*
Y246882D01*
X1052118D01*
Y249169D01*
X1052618Y249303D01*
X1053350Y248350D01*
X1054419Y247529D01*
X1055664Y247014D01*
X1057000Y246838D01*
X1058336Y247014D01*
X1059581Y247529D01*
X1060650Y248350D01*
X1061471Y249419D01*
X1061729Y250044D01*
X1062271D01*
X1062529Y249419D01*
X1063350Y248350D01*
X1064419Y247529D01*
X1065664Y247014D01*
X1067000Y246838D01*
X1068336Y247014D01*
X1069581Y247529D01*
X1070650Y248350D01*
X1071471Y249419D01*
X1071986Y250664D01*
X1072162Y252000D01*
X1071986Y253336D01*
X1071471Y254581D01*
X1070650Y255650D01*
X1069581Y256471D01*
X1068336Y256986D01*
X1067000Y257162D01*
D02*
G37*
G36*
X1009000D02*
X1007664Y256986D01*
X1006419Y256471D01*
X1005350Y255650D01*
X1004529Y254581D01*
X1004271Y253957D01*
X1003729D01*
X1003471Y254581D01*
X1002650Y255650D01*
X1001581Y256471D01*
X1000336Y256986D01*
X999000Y257162D01*
X997664Y256986D01*
X996419Y256471D01*
X995350Y255650D01*
X994529Y254581D01*
X994271Y253957D01*
X993729D01*
X993471Y254581D01*
X992650Y255650D01*
X991581Y256471D01*
X990336Y256986D01*
X989000Y257162D01*
X987664Y256986D01*
X986419Y256471D01*
X985350Y255650D01*
X984618Y254697D01*
X984118Y254831D01*
Y257118D01*
X973882D01*
Y246882D01*
X984118D01*
Y249169D01*
X984618Y249303D01*
X985350Y248350D01*
X986419Y247529D01*
X987664Y247014D01*
X989000Y246838D01*
X990336Y247014D01*
X991581Y247529D01*
X992650Y248350D01*
X993471Y249419D01*
X993729Y250044D01*
X994271D01*
X994529Y249419D01*
X995350Y248350D01*
X996419Y247529D01*
X997664Y247014D01*
X999000Y246838D01*
X1000336Y247014D01*
X1001581Y247529D01*
X1002650Y248350D01*
X1003471Y249419D01*
X1003729Y250044D01*
X1004271D01*
X1004529Y249419D01*
X1005350Y248350D01*
X1006419Y247529D01*
X1007664Y247014D01*
X1009000Y246838D01*
X1010336Y247014D01*
X1011581Y247529D01*
X1012650Y248350D01*
X1013471Y249419D01*
X1013986Y250664D01*
X1014162Y252000D01*
X1013986Y253336D01*
X1013471Y254581D01*
X1012650Y255650D01*
X1011581Y256471D01*
X1010336Y256986D01*
X1009000Y257162D01*
D02*
G37*
G36*
X951000D02*
X949664Y256986D01*
X948419Y256471D01*
X947350Y255650D01*
X946529Y254581D01*
X946271Y253957D01*
X945729D01*
X945471Y254581D01*
X944650Y255650D01*
X943581Y256471D01*
X942336Y256986D01*
X941000Y257162D01*
X939664Y256986D01*
X938419Y256471D01*
X937350Y255650D01*
X936618Y254697D01*
X936118Y254831D01*
Y257118D01*
X925882D01*
Y246882D01*
X936118D01*
Y249169D01*
X936618Y249303D01*
X937350Y248350D01*
X938419Y247529D01*
X939664Y247014D01*
X941000Y246838D01*
X942336Y247014D01*
X943581Y247529D01*
X944650Y248350D01*
X945471Y249419D01*
X945729Y250044D01*
X946271D01*
X946529Y249419D01*
X947350Y248350D01*
X948419Y247529D01*
X949664Y247014D01*
X951000Y246838D01*
X952336Y247014D01*
X953581Y247529D01*
X954650Y248350D01*
X955471Y249419D01*
X955986Y250664D01*
X956162Y252000D01*
X955986Y253336D01*
X955471Y254581D01*
X954650Y255650D01*
X953581Y256471D01*
X952336Y256986D01*
X951000Y257162D01*
D02*
G37*
G36*
X903000D02*
X901664Y256986D01*
X900419Y256471D01*
X899350Y255650D01*
X898529Y254581D01*
X898271Y253957D01*
X897729D01*
X897471Y254581D01*
X896650Y255650D01*
X895581Y256471D01*
X894336Y256986D01*
X893000Y257162D01*
X891664Y256986D01*
X890419Y256471D01*
X889350Y255650D01*
X888618Y254697D01*
X888118Y254831D01*
Y257118D01*
X877882D01*
Y246882D01*
X888118D01*
Y249169D01*
X888618Y249303D01*
X889350Y248350D01*
X890419Y247529D01*
X891664Y247014D01*
X893000Y246838D01*
X894336Y247014D01*
X895581Y247529D01*
X896650Y248350D01*
X897471Y249419D01*
X897729Y250044D01*
X898271D01*
X898529Y249419D01*
X899350Y248350D01*
X900419Y247529D01*
X901664Y247014D01*
X903000Y246838D01*
X904336Y247014D01*
X905581Y247529D01*
X906650Y248350D01*
X907471Y249419D01*
X907986Y250664D01*
X908162Y252000D01*
X907986Y253336D01*
X907471Y254581D01*
X906650Y255650D01*
X905581Y256471D01*
X904336Y256986D01*
X903000Y257162D01*
D02*
G37*
G36*
X855000D02*
X853664Y256986D01*
X852419Y256471D01*
X851350Y255650D01*
X850529Y254581D01*
X850271Y253957D01*
X849729D01*
X849471Y254581D01*
X848650Y255650D01*
X847581Y256471D01*
X846336Y256986D01*
X845000Y257162D01*
X843664Y256986D01*
X842419Y256471D01*
X841350Y255650D01*
X840618Y254697D01*
X840118Y254831D01*
Y257118D01*
X829882D01*
Y246882D01*
X840118D01*
Y249169D01*
X840618Y249303D01*
X841350Y248350D01*
X842419Y247529D01*
X843664Y247014D01*
X845000Y246838D01*
X846336Y247014D01*
X847581Y247529D01*
X848650Y248350D01*
X849471Y249419D01*
X849729Y250044D01*
X850271D01*
X850529Y249419D01*
X851350Y248350D01*
X852419Y247529D01*
X853664Y247014D01*
X855000Y246838D01*
X856336Y247014D01*
X857581Y247529D01*
X858650Y248350D01*
X859471Y249419D01*
X859986Y250664D01*
X860162Y252000D01*
X859986Y253336D01*
X859471Y254581D01*
X858650Y255650D01*
X857581Y256471D01*
X856336Y256986D01*
X855000Y257162D01*
D02*
G37*
G36*
X807000D02*
X805664Y256986D01*
X804419Y256471D01*
X803350Y255650D01*
X802529Y254581D01*
X802271Y253957D01*
X801729D01*
X801471Y254581D01*
X800650Y255650D01*
X799581Y256471D01*
X798336Y256986D01*
X797000Y257162D01*
X795664Y256986D01*
X794419Y256471D01*
X793350Y255650D01*
X792618Y254697D01*
X792118Y254831D01*
Y257118D01*
X781882D01*
Y246882D01*
X792118D01*
Y249169D01*
X792618Y249303D01*
X793350Y248350D01*
X794419Y247529D01*
X795664Y247014D01*
X797000Y246838D01*
X798336Y247014D01*
X799581Y247529D01*
X800650Y248350D01*
X801471Y249419D01*
X801729Y250044D01*
X802271D01*
X802529Y249419D01*
X803350Y248350D01*
X804419Y247529D01*
X805664Y247014D01*
X807000Y246838D01*
X808336Y247014D01*
X809581Y247529D01*
X810650Y248350D01*
X811471Y249419D01*
X811986Y250664D01*
X812162Y252000D01*
X811986Y253336D01*
X811471Y254581D01*
X810650Y255650D01*
X809581Y256471D01*
X808336Y256986D01*
X807000Y257162D01*
D02*
G37*
G36*
X759000D02*
X757664Y256986D01*
X756419Y256471D01*
X755350Y255650D01*
X754529Y254581D01*
X754271Y253957D01*
X753729D01*
X753471Y254581D01*
X752650Y255650D01*
X751581Y256471D01*
X750336Y256986D01*
X749000Y257162D01*
X747664Y256986D01*
X746419Y256471D01*
X745350Y255650D01*
X744618Y254697D01*
X744118Y254831D01*
Y257118D01*
X733882D01*
Y246882D01*
X744118D01*
Y249169D01*
X744618Y249303D01*
X745350Y248350D01*
X746419Y247529D01*
X747664Y247014D01*
X749000Y246838D01*
X750336Y247014D01*
X751581Y247529D01*
X752650Y248350D01*
X753471Y249419D01*
X753729Y250044D01*
X754271D01*
X754529Y249419D01*
X755350Y248350D01*
X756419Y247529D01*
X757664Y247014D01*
X759000Y246838D01*
X760336Y247014D01*
X761581Y247529D01*
X762650Y248350D01*
X763471Y249419D01*
X763986Y250664D01*
X764162Y252000D01*
X763986Y253336D01*
X763471Y254581D01*
X762650Y255650D01*
X761581Y256471D01*
X760336Y256986D01*
X759000Y257162D01*
D02*
G37*
G36*
X711000D02*
X709664Y256986D01*
X708419Y256471D01*
X707350Y255650D01*
X706529Y254581D01*
X706271Y253957D01*
X705729D01*
X705471Y254581D01*
X704650Y255650D01*
X703581Y256471D01*
X702336Y256986D01*
X701000Y257162D01*
X699664Y256986D01*
X698419Y256471D01*
X697350Y255650D01*
X696618Y254697D01*
X696118Y254831D01*
Y257118D01*
X685882D01*
Y246882D01*
X696118D01*
Y249169D01*
X696618Y249303D01*
X697350Y248350D01*
X698419Y247529D01*
X699664Y247014D01*
X701000Y246838D01*
X702336Y247014D01*
X703581Y247529D01*
X704650Y248350D01*
X705471Y249419D01*
X705729Y250044D01*
X706271D01*
X706529Y249419D01*
X707350Y248350D01*
X708419Y247529D01*
X709664Y247014D01*
X711000Y246838D01*
X712336Y247014D01*
X713581Y247529D01*
X714650Y248350D01*
X715471Y249419D01*
X715986Y250664D01*
X716162Y252000D01*
X715986Y253336D01*
X715471Y254581D01*
X714650Y255650D01*
X713581Y256471D01*
X712336Y256986D01*
X711000Y257162D01*
D02*
G37*
G36*
X663000D02*
X661664Y256986D01*
X660419Y256471D01*
X659350Y255650D01*
X658529Y254581D01*
X658271Y253957D01*
X657729D01*
X657471Y254581D01*
X656650Y255650D01*
X655581Y256471D01*
X654336Y256986D01*
X653000Y257162D01*
X651664Y256986D01*
X650419Y256471D01*
X649350Y255650D01*
X648618Y254697D01*
X648118Y254831D01*
Y257118D01*
X637882D01*
Y246882D01*
X648118D01*
Y249169D01*
X648618Y249303D01*
X649350Y248350D01*
X650419Y247529D01*
X651664Y247014D01*
X653000Y246838D01*
X654336Y247014D01*
X655581Y247529D01*
X656650Y248350D01*
X657471Y249419D01*
X657729Y250044D01*
X658271D01*
X658529Y249419D01*
X659350Y248350D01*
X660419Y247529D01*
X661664Y247014D01*
X663000Y246838D01*
X664336Y247014D01*
X665581Y247529D01*
X666650Y248350D01*
X667471Y249419D01*
X667986Y250664D01*
X668162Y252000D01*
X667986Y253336D01*
X667471Y254581D01*
X666650Y255650D01*
X665581Y256471D01*
X664336Y256986D01*
X663000Y257162D01*
D02*
G37*
G36*
X615000D02*
X613664Y256986D01*
X612419Y256471D01*
X611350Y255650D01*
X610529Y254581D01*
X610271Y253957D01*
X609729D01*
X609471Y254581D01*
X608650Y255650D01*
X607581Y256471D01*
X606336Y256986D01*
X605000Y257162D01*
X603664Y256986D01*
X602419Y256471D01*
X601350Y255650D01*
X600618Y254697D01*
X600118Y254831D01*
Y257118D01*
X589882D01*
Y246882D01*
X600118D01*
Y249169D01*
X600618Y249303D01*
X601350Y248350D01*
X602419Y247529D01*
X603664Y247014D01*
X605000Y246838D01*
X606336Y247014D01*
X607581Y247529D01*
X608650Y248350D01*
X609471Y249419D01*
X609729Y250044D01*
X610271D01*
X610529Y249419D01*
X611350Y248350D01*
X612419Y247529D01*
X613664Y247014D01*
X615000Y246838D01*
X616336Y247014D01*
X617581Y247529D01*
X618650Y248350D01*
X619471Y249419D01*
X619986Y250664D01*
X620162Y252000D01*
X619986Y253336D01*
X619471Y254581D01*
X618650Y255650D01*
X617581Y256471D01*
X616336Y256986D01*
X615000Y257162D01*
D02*
G37*
G36*
X567000D02*
X565664Y256986D01*
X564419Y256471D01*
X563350Y255650D01*
X562529Y254581D01*
X562271Y253957D01*
X561729D01*
X561471Y254581D01*
X560650Y255650D01*
X559581Y256471D01*
X558336Y256986D01*
X557000Y257162D01*
X555664Y256986D01*
X554419Y256471D01*
X553350Y255650D01*
X552618Y254697D01*
X552118Y254831D01*
Y257118D01*
X541882D01*
Y246882D01*
X552118D01*
Y249169D01*
X552618Y249303D01*
X553350Y248350D01*
X554419Y247529D01*
X555664Y247014D01*
X557000Y246838D01*
X558336Y247014D01*
X559581Y247529D01*
X560650Y248350D01*
X561471Y249419D01*
X561729Y250044D01*
X562271D01*
X562529Y249419D01*
X563350Y248350D01*
X564419Y247529D01*
X565664Y247014D01*
X567000Y246838D01*
X568336Y247014D01*
X569581Y247529D01*
X570650Y248350D01*
X571471Y249419D01*
X571986Y250664D01*
X572162Y252000D01*
X571986Y253336D01*
X571471Y254581D01*
X570650Y255650D01*
X569581Y256471D01*
X568336Y256986D01*
X567000Y257162D01*
D02*
G37*
%LPD*%
G36*
X658000Y591500D02*
Y580500D01*
X546000Y580500D01*
Y591500D01*
X658000Y591500D01*
D02*
G37*
G36*
X571803Y466000D02*
Y455000D01*
X544803Y455000D01*
Y466000D01*
X571803Y466000D01*
D02*
G37*
G36*
X1065078Y622225D02*
X1064297Y621703D01*
X1063775Y620922D01*
X1063595Y620019D01*
X1058377Y614801D01*
X1030595D01*
X1030269Y615301D01*
X1030408Y616000D01*
X1030225Y616922D01*
X1029703Y617703D01*
X1028922Y618225D01*
X1028000Y618408D01*
X1027078Y618225D01*
X1026313Y617714D01*
X953000D01*
X952344Y617584D01*
X951788Y617212D01*
X951290Y616714D01*
X948210D01*
X943128Y621796D01*
X942572Y622167D01*
X942305Y622220D01*
X942354Y622720D01*
X1065005D01*
X1065078Y622225D01*
D02*
G37*
G36*
X1133220Y611349D02*
Y575402D01*
Y554500D01*
Y544507D01*
X1114019D01*
X1113422Y544906D01*
X1112500Y545090D01*
X1111578Y544906D01*
X1110797Y544384D01*
X1110275Y543603D01*
X1110091Y542681D01*
X1110108Y542600D01*
X1109790Y542214D01*
X1105210D01*
X1104214Y543210D01*
Y554040D01*
X1105212Y555038D01*
X1105584Y555594D01*
X1105714Y556250D01*
Y567313D01*
X1106225Y568078D01*
X1106409Y569000D01*
X1106500Y569092D01*
X1107422Y569275D01*
X1108203Y569797D01*
X1108725Y570578D01*
X1108908Y571500D01*
X1108725Y572422D01*
X1108203Y573203D01*
X1107422Y573725D01*
X1106500Y573909D01*
X1105578Y573725D01*
X1104813Y573214D01*
X1075710D01*
X1058712Y590212D01*
X1058156Y590584D01*
X1057500Y590714D01*
X1047710D01*
X1030405Y608019D01*
X1030225Y608922D01*
X1029703Y609703D01*
X1028922Y610225D01*
X1028000Y610408D01*
X1027078Y610225D01*
X1026297Y609703D01*
X1025775Y608922D01*
X1025631Y608198D01*
X1025574Y607989D01*
X1025139Y607714D01*
X1008773D01*
X1007770Y608717D01*
X1007610Y609519D01*
X1007088Y610301D01*
X1006307Y610823D01*
X1006058Y610873D01*
X1006107Y611373D01*
X1059087D01*
X1059743Y611503D01*
X1060299Y611875D01*
X1066019Y617595D01*
X1066922Y617775D01*
X1067703Y618297D01*
X1068225Y619078D01*
X1068408Y620000D01*
X1068225Y620922D01*
X1067703Y621703D01*
X1066922Y622225D01*
X1066995Y622720D01*
X1074720D01*
Y611651D01*
X1072849Y609780D01*
X1066000D01*
X1065281Y609685D01*
X1065128Y609622D01*
X1040000D01*
X1039280Y609527D01*
X1038610Y609249D01*
X1038034Y608808D01*
X1037592Y608232D01*
X1037315Y607562D01*
X1037220Y606842D01*
X1037315Y606123D01*
X1037592Y605452D01*
X1038034Y604877D01*
X1038610Y604435D01*
X1039280Y604157D01*
X1040000Y604063D01*
X1065842D01*
X1066562Y604157D01*
X1066714Y604220D01*
X1074000D01*
X1074719Y604315D01*
X1075390Y604593D01*
X1075965Y605034D01*
X1079465Y608534D01*
X1079907Y609110D01*
X1080185Y609781D01*
X1080280Y610500D01*
Y622720D01*
X1084984D01*
Y607236D01*
X1085079Y606517D01*
X1085356Y605847D01*
X1085798Y605271D01*
X1086374Y604829D01*
X1087044Y604551D01*
X1087764Y604457D01*
X1088483Y604551D01*
X1089153Y604829D01*
X1089729Y605271D01*
X1090171Y605847D01*
X1090449Y606517D01*
X1090543Y607236D01*
Y622720D01*
X1109220D01*
Y607500D01*
X1109315Y606781D01*
X1109593Y606110D01*
X1110034Y605535D01*
X1110610Y605093D01*
X1111281Y604815D01*
X1112000Y604720D01*
X1112719Y604815D01*
X1113390Y605093D01*
X1113966Y605535D01*
X1114407Y606110D01*
X1114685Y606781D01*
X1114780Y607500D01*
Y622720D01*
X1121849D01*
X1133220Y611349D01*
D02*
G37*
G36*
X1030622Y579176D02*
X1030431Y578714D01*
X1009400D01*
X1009122Y579130D01*
X1009185Y579281D01*
X1009280Y580000D01*
X1009185Y580719D01*
X1008907Y581390D01*
X1008465Y581965D01*
X1007890Y582407D01*
X1007219Y582685D01*
X1006500Y582780D01*
X945075D01*
X943478Y584376D01*
X943398Y584533D01*
X943463Y585039D01*
X943710Y585286D01*
X1024512D01*
X1030622Y579176D01*
D02*
G37*
G36*
X1073788Y570288D02*
X1074344Y569916D01*
X1075000Y569786D01*
X1101354D01*
X1101671Y569399D01*
X1101591Y569000D01*
X1101717Y568372D01*
X1101310Y567943D01*
X1101000Y568005D01*
X1100078Y567821D01*
X1099297Y567299D01*
X1098775Y566518D01*
X1098615Y565713D01*
X1098061Y565824D01*
X1097139Y565640D01*
X1096358Y565118D01*
X1095836Y564337D01*
X1095730Y563806D01*
X1095638Y563714D01*
X1070210D01*
X1067212Y566712D01*
X1067212Y566712D01*
X1062186Y571738D01*
X1062328Y572303D01*
X1062460Y572342D01*
X1062891Y572055D01*
X1063812Y571871D01*
X1064734Y572055D01*
X1065515Y572577D01*
X1066037Y573358D01*
X1066221Y574280D01*
X1066037Y575202D01*
X1065515Y575983D01*
X1064734Y576505D01*
X1064691Y576513D01*
X1064806Y577091D01*
X1064623Y578013D01*
X1064101Y578794D01*
X1063319Y579316D01*
X1062417Y579496D01*
X1055200Y586712D01*
X1055090Y586786D01*
X1055241Y587286D01*
X1056790D01*
X1073788Y570288D01*
D02*
G37*
G36*
X1095583Y551654D02*
X1095708Y551023D01*
X1096230Y550241D01*
X1096213Y549716D01*
X1095935Y549464D01*
X1094994D01*
X1094338Y549334D01*
X1093782Y548962D01*
X1092534Y547714D01*
X1063622D01*
X1063431Y548176D01*
X1065530Y550275D01*
X1065902Y550831D01*
X1065952Y551083D01*
X1066282Y551303D01*
X1066804Y552085D01*
X1066987Y553007D01*
X1066909Y553400D01*
X1067226Y553786D01*
X1093451D01*
X1095583Y551654D01*
D02*
G37*
G36*
X1041969Y541107D02*
X1042525Y540735D01*
X1043181Y540605D01*
X1050632D01*
X1051397Y540094D01*
X1052319Y539910D01*
X1053241Y540094D01*
X1054022Y540616D01*
X1054544Y541397D01*
X1054727Y542319D01*
X1054711Y542400D01*
X1055029Y542786D01*
X1095813D01*
X1096578Y542275D01*
X1097500Y542092D01*
X1098422Y542275D01*
X1098786Y542518D01*
X1099286Y542251D01*
Y541500D01*
X1099416Y540844D01*
X1099788Y540288D01*
X1100400Y539676D01*
X1100209Y539214D01*
X1085625D01*
X1084969Y539084D01*
X1084413Y538712D01*
X1079915Y534214D01*
X1046685D01*
X1046537Y534185D01*
X1046241Y534383D01*
X1045319Y534566D01*
X1044397Y534383D01*
X1043616Y533860D01*
X1043094Y533079D01*
X1042910Y532158D01*
X1043094Y531236D01*
X1043616Y530454D01*
X1044397Y529932D01*
X1045148Y529783D01*
X1045092Y529500D01*
X1045275Y528578D01*
X1045797Y527797D01*
X1045918Y527716D01*
X1046026Y527043D01*
X1045732Y526603D01*
X1045548Y525681D01*
X1045564Y525600D01*
X1045247Y525214D01*
X1035747D01*
X1035091Y525084D01*
X1034535Y524712D01*
X1033984Y524161D01*
X1033689Y524219D01*
X1032768Y524036D01*
X1031986Y523514D01*
X1031464Y522732D01*
X1031281Y521811D01*
X1031464Y520889D01*
X1031986Y520108D01*
X1032768Y519586D01*
X1033689Y519402D01*
X1034611Y519586D01*
X1034935Y519802D01*
X1035060Y519616D01*
X1035841Y519094D01*
X1036763Y518910D01*
X1037684Y519094D01*
X1038449Y519605D01*
X1038842D01*
X1039212Y519105D01*
X1039091Y518500D01*
X1039275Y517578D01*
X1039797Y516797D01*
X1040578Y516275D01*
X1041500Y516091D01*
X1042422Y516275D01*
X1043187Y516786D01*
X1045290D01*
X1045788Y516288D01*
X1046344Y515916D01*
X1047000Y515786D01*
X1055500D01*
X1056156Y515916D01*
X1056712Y516288D01*
X1057710Y517286D01*
X1096561D01*
X1096653Y516823D01*
X1096766Y516655D01*
X1096530Y516214D01*
X1089496D01*
X1088840Y516084D01*
X1088284Y515712D01*
X1076344Y503772D01*
X1075442Y503593D01*
X1074660Y503070D01*
X1074366Y502629D01*
X1073722Y502566D01*
X1064076Y512212D01*
X1063520Y512584D01*
X1062864Y512714D01*
X1038074D01*
X1029214Y521574D01*
Y532290D01*
X1031519Y534595D01*
X1032422Y534775D01*
X1033203Y535297D01*
X1033725Y536078D01*
X1033908Y537000D01*
X1033725Y537922D01*
X1033203Y538703D01*
X1032422Y539225D01*
X1031500Y539408D01*
X1030578Y539225D01*
X1029797Y538703D01*
X1029275Y537922D01*
X1029095Y537019D01*
X1028176Y536100D01*
X1027714Y536291D01*
Y544751D01*
X1028214Y545018D01*
X1028578Y544775D01*
X1029500Y544592D01*
X1030422Y544775D01*
X1031187Y545286D01*
X1037790D01*
X1041969Y541107D01*
D02*
G37*
G36*
X1158884Y515286D02*
X1158578Y515225D01*
X1157797Y514703D01*
X1157275Y513922D01*
X1157092Y513000D01*
X1157275Y512078D01*
X1157786Y511313D01*
Y501089D01*
X1148742Y492045D01*
X1148277Y492287D01*
X1148115Y493103D01*
X1147593Y493884D01*
X1146811Y494406D01*
X1145890Y494590D01*
X1144968Y494406D01*
X1144187Y493884D01*
X1143665Y493103D01*
X1143654Y493049D01*
X1143452Y493090D01*
X1143100Y493020D01*
X1142714Y493337D01*
Y501500D01*
X1142584Y502156D01*
X1142212Y502712D01*
X1135899Y509025D01*
X1136106Y509525D01*
X1138000D01*
X1138922Y509708D01*
X1139703Y510230D01*
X1140225Y511011D01*
X1140409Y511933D01*
X1140225Y512855D01*
X1139703Y513636D01*
X1138922Y514158D01*
X1138000Y514342D01*
X1136425D01*
X1135442Y515324D01*
X1135634Y515786D01*
X1158835D01*
X1158884Y515286D01*
D02*
G37*
G36*
X1121286Y493169D02*
Y480937D01*
X1120494Y480780D01*
X1119713Y480258D01*
X1119191Y479476D01*
X1119075Y478894D01*
X1119000Y478908D01*
X1118078Y478725D01*
X1117297Y478203D01*
X1116775Y477422D01*
X1116591Y476500D01*
X1116775Y475578D01*
X1117297Y474797D01*
X1117757Y474489D01*
Y473888D01*
X1117757Y473888D01*
X1117235Y473106D01*
X1117052Y472185D01*
X1117235Y471263D01*
X1117757Y470482D01*
X1118284Y470130D01*
X1118296Y469537D01*
X1117797Y469203D01*
X1117275Y468422D01*
X1117091Y467500D01*
X1117275Y466578D01*
X1117797Y465797D01*
X1117885Y465738D01*
Y465238D01*
X1117692Y465109D01*
X1117170Y464327D01*
X1116986Y463406D01*
X1117170Y462484D01*
X1117692Y461702D01*
X1118473Y461180D01*
X1119395Y460997D01*
X1120317Y461180D01*
X1120681Y461424D01*
X1125123D01*
X1125779Y461554D01*
X1126335Y461926D01*
X1132824Y468415D01*
X1133286Y468223D01*
Y433291D01*
X1132824Y433100D01*
X1111280Y454644D01*
X1111443Y455188D01*
X1112138Y455652D01*
X1112660Y456434D01*
X1112844Y457355D01*
X1112660Y458277D01*
X1112149Y459042D01*
Y473906D01*
X1113019Y474777D01*
X1113922Y474956D01*
X1114703Y475478D01*
X1115225Y476260D01*
X1115409Y477181D01*
X1115225Y478103D01*
X1114703Y478884D01*
X1113922Y479406D01*
X1113000Y479590D01*
X1112078Y479406D01*
X1111297Y478884D01*
X1110775Y478103D01*
X1110595Y477201D01*
X1109223Y475828D01*
X1109055Y475576D01*
X1108851Y475272D01*
X1108851Y475272D01*
X1108851Y475272D01*
X1108804Y475031D01*
X1108721Y474616D01*
Y459042D01*
X1108268Y458363D01*
X1107724Y458200D01*
X1107214Y458710D01*
Y481854D01*
X1107600Y482171D01*
X1108000Y482092D01*
X1108922Y482275D01*
X1109703Y482797D01*
X1110225Y483578D01*
X1110408Y484500D01*
X1110225Y485422D01*
X1109714Y486187D01*
Y495500D01*
X1109584Y496156D01*
X1109212Y496712D01*
X1105518Y500406D01*
X1104962Y500778D01*
X1104306Y500908D01*
X1099088D01*
X1098324Y501419D01*
X1097839Y501516D01*
X1097722Y501786D01*
X1098042Y502286D01*
X1112169D01*
X1121286Y493169D01*
D02*
G37*
D10*
X1128471Y540500D02*
X1139471Y529500D01*
X1102500Y542500D02*
X1104500Y540500D01*
X1128471D01*
X1034058Y521811D02*
X1035747Y523500D01*
X1119000D01*
X1141000Y501500D01*
X1064320Y449062D02*
Y452881D01*
X1064000Y448743D02*
X1064320Y449062D01*
X1064000Y428000D02*
Y448743D01*
X1064231Y452970D02*
X1064320Y452881D01*
X1064000Y428000D02*
X1115087Y376913D01*
X1065500Y428621D02*
Y448121D01*
X1066229Y448850D01*
X1066240Y450578D02*
X1066501Y450839D01*
X1066229Y449604D02*
X1066240Y449615D01*
X1065500Y428621D02*
X1114121Y380000D01*
X1066229Y448850D02*
Y449604D01*
X1066240Y449615D02*
Y450578D01*
X1094994Y547750D02*
X1097750D01*
X1044382Y546000D02*
X1093244D01*
X1094994Y547750D01*
X887500Y315750D02*
X899500Y327750D01*
X887500Y315000D02*
Y315750D01*
X899500Y327750D02*
Y328500D01*
X931000Y276500D02*
Y277500D01*
X941000Y287500D02*
Y319500D01*
X931000Y277500D02*
X941000Y287500D01*
X1046068Y557472D02*
X1049472Y554068D01*
X1043367Y557472D02*
X1046068D01*
X1049472Y551367D02*
Y554068D01*
Y551367D02*
X1052367Y548472D01*
X1031339Y569500D02*
X1043367Y557472D01*
X940481Y571028D02*
X1031972D01*
X1044000Y559000D01*
X941500Y569500D02*
X1031339D01*
X941295Y559408D02*
X943387Y561500D01*
X1008500D01*
X941879Y577000D02*
X1032173D01*
X940131Y578748D02*
X941879Y577000D01*
X939836Y578748D02*
X940131D01*
X1102500Y456757D02*
Y486257D01*
Y456757D02*
X1129500Y429757D01*
X1094757Y494000D02*
X1102500Y486257D01*
X1095379Y495500D02*
X1104000Y486879D01*
Y457379D02*
X1131000Y430379D01*
X1104000Y457379D02*
Y486879D01*
X1105500Y458000D02*
X1132500Y431000D01*
X1096000Y497000D02*
X1105500Y487500D01*
Y458000D02*
Y487500D01*
X1112500Y542681D02*
X1112681Y542500D01*
X1118379Y522000D02*
X1139500Y500879D01*
X1050234Y522000D02*
X1118379D01*
X1056379Y520500D02*
X1102166D01*
X1106597Y516070D01*
X1055560Y519681D02*
X1056379Y520500D01*
X1098867Y517745D02*
X1098878D01*
X1097612Y519000D02*
X1098867Y517745D01*
X1057000Y519000D02*
X1097612D01*
X1117895Y520362D02*
X1138000Y500257D01*
X1110477Y520362D02*
X1117895D01*
X1108296Y518181D02*
X1110477Y520362D01*
X1111889Y518319D02*
X1117817D01*
X1111751Y518181D02*
X1111889Y518319D01*
X1049553Y521319D02*
X1050234Y522000D01*
X1032173Y577000D02*
X1045863Y563310D01*
X1031552Y575500D02*
X1042741Y564311D01*
X939881Y575500D02*
X1031552D01*
X939819Y575438D02*
X939881Y575500D01*
X1025706Y588638D02*
X1057500Y556844D01*
X939819Y588638D02*
X1025706D01*
X1008500Y561500D02*
X1023000Y547000D01*
X1020500Y456000D02*
X1072000D01*
X1074000Y454000D01*
X581000Y740000D02*
X584500Y743500D01*
X639500D01*
X1075000Y571500D02*
X1106500D01*
X1057500Y589000D02*
X1075000Y571500D01*
X1028000Y608000D02*
X1047000Y589000D01*
X1057500D01*
X952000Y615000D02*
X953000Y616000D01*
X1028000D01*
X947500Y615000D02*
X952000D01*
X941916Y620583D02*
X947500Y615000D01*
X938638Y620583D02*
X941916D01*
X1083888Y492500D02*
X1089520Y486869D01*
X1075000Y492500D02*
X1083888D01*
X1089314Y481500D02*
X1095631D01*
X1096174Y482042D01*
X1096542D01*
X1095416Y479261D02*
X1096239D01*
X1096500Y479000D01*
X1088692Y480000D02*
X1094677D01*
X1095416Y479261D01*
X1080692Y488000D02*
X1088692Y480000D01*
X1017585Y488000D02*
X1080692D01*
X1016000Y486638D02*
X1016222D01*
X1017585Y488000D01*
X1016222Y492362D02*
X1017585Y491000D01*
X1016000Y492362D02*
X1016222D01*
X1017585Y491000D02*
X1081935D01*
X1089616Y483319D01*
X1089520Y486500D02*
Y486869D01*
X1089616Y483319D02*
X1094635D01*
X1081314Y489500D02*
X1089314Y481500D01*
X1016000Y489500D02*
X1081314D01*
X1094635Y483319D02*
X1097000Y485684D01*
X1076864Y497000D02*
X1096000D01*
X1062864Y511000D02*
X1076864Y497000D01*
X1076243Y495500D02*
X1095379D01*
X1061621Y508000D02*
X1075621Y494000D01*
X1094757D01*
X1061000Y506500D02*
X1075000Y492500D01*
X1062243Y509500D02*
X1076243Y495500D01*
X1036763Y521319D02*
X1049553D01*
X1051000Y519681D02*
X1055560D01*
X1033689Y521811D02*
X1034058D01*
X1055500Y517500D02*
X1057000Y519000D01*
X1047000Y517500D02*
X1055500D01*
X1046000Y518500D02*
X1047000Y517500D01*
X1041500Y518500D02*
X1046000D01*
X988000Y515000D02*
X1023000D01*
X1030500Y507500D01*
X983500Y465500D02*
Y510500D01*
X988000Y515000D01*
X978500Y460500D02*
X983500Y465500D01*
X1015201Y520000D02*
X1015421Y519779D01*
X983000Y520000D02*
X1015201D01*
X978500Y470500D02*
Y515500D01*
X983000Y520000D01*
X940658Y617688D02*
X940819Y617849D01*
X937000Y609000D02*
Y615500D01*
X939188Y617688D02*
X940658D01*
X937000Y615500D02*
X939188Y617688D01*
X937000Y609000D02*
X939500Y606500D01*
X942000D01*
X1028500Y613087D02*
X1030000D01*
X940000D02*
X1028500D01*
X1023000Y519000D02*
X1035500Y506500D01*
X1023000Y519000D02*
Y547000D01*
X1037364Y511000D02*
X1062864D01*
X1036743Y509500D02*
X1062243D01*
X1026000Y520243D02*
X1036743Y509500D01*
X1027500Y520864D02*
Y533000D01*
X1036121Y508000D02*
X1061621D01*
X1024500Y519621D02*
Y552500D01*
X1026000Y520243D02*
Y550000D01*
X1035500Y506500D02*
X1061000D01*
X1027500Y520864D02*
X1037364Y511000D01*
X1024500Y519621D02*
X1036121Y508000D01*
X1027500Y533000D02*
X1031500Y537000D01*
X1024500Y552500D02*
X1025500Y553500D01*
X1031500D01*
X1034000Y551000D01*
X1026000Y550000D02*
X1027189Y551189D01*
X1028017D01*
X1030109Y550891D02*
X1030370Y550630D01*
X1028017Y551189D02*
X1028315Y550891D01*
X1030109D01*
X1029500Y547000D02*
X1038500D01*
X939825Y600500D02*
X1022500D01*
X941862Y596175D02*
X943296D01*
X940084Y591500D02*
X942465Y593880D01*
X939819Y603357D02*
X939994Y603181D01*
X939819Y597500D02*
X939994Y597675D01*
X940187Y594500D02*
X941862Y596175D01*
X939819Y594500D02*
X940187D01*
X939819Y591500D02*
X940084D01*
X939819Y585776D02*
X940079Y586036D01*
X939994Y603181D02*
X942500D01*
X943000Y587000D02*
X1025222D01*
X942500Y603181D02*
X943000Y602681D01*
X939819Y600494D02*
X939825Y600500D01*
X943000Y602681D02*
X998500D01*
X940079Y586036D02*
X942036D01*
X939994Y597675D02*
X942675D01*
X942036Y586036D02*
X943000Y587000D01*
X942675Y597675D02*
X944000Y599000D01*
X939869Y561638D02*
X941231Y563000D01*
X1025261D01*
X939500Y561638D02*
X939869D01*
X939452Y568671D02*
X939713Y568932D01*
X940932D01*
X941500Y569500D01*
X932000Y670847D02*
X935894Y674741D01*
Y675022D01*
X1001000Y634500D02*
Y635500D01*
X996500Y636000D02*
X998000Y634500D01*
X999000Y637500D02*
X1001000Y635500D01*
X940257Y636000D02*
X996500D01*
X1053988Y585500D02*
X1062397Y577091D01*
X1050575Y585500D02*
X1053988D01*
X1051805Y582861D02*
X1060386Y574280D01*
X1051724Y582861D02*
X1051805D01*
X1008063Y606000D02*
X1025500D01*
X1066000Y565500D01*
Y565500D02*
Y565500D01*
X1024669Y604500D02*
X1046669Y582500D01*
X1046669D01*
X1053032Y573053D02*
Y574016D01*
Y573053D02*
X1053292Y572792D01*
X1046048Y581000D02*
X1046048D01*
X1005562Y603000D02*
X1024048D01*
X1066000Y565500D02*
X1069500Y562000D01*
X1006847Y604500D02*
X1024669D01*
X1055473Y571395D02*
X1056000Y570869D01*
Y570500D02*
Y570869D01*
X1055473Y571395D02*
Y573696D01*
X1046048Y581000D02*
X1053032Y574016D01*
X1024048Y603000D02*
X1046048Y581000D01*
X1046669Y582500D02*
X1055473Y573696D01*
X1060386Y574280D02*
X1063812D01*
X1064318Y552746D02*
X1064579Y553007D01*
X1061303Y548472D02*
X1064318Y551487D01*
Y552746D01*
X1052367Y548472D02*
X1061303D01*
X1060500Y550000D02*
X1061581Y551081D01*
Y552948D01*
X1053000Y550000D02*
X1060500D01*
X1051000Y552000D02*
X1053000Y550000D01*
X1051000Y552000D02*
Y554661D01*
X1046661Y559000D02*
X1051000Y554661D01*
X1044000Y559000D02*
X1046661D01*
X1029955Y566597D02*
X1043976Y552575D01*
X1045425D01*
X1031098Y562369D02*
X1043439Y550028D01*
X1025882Y564500D02*
X1044382Y546000D01*
X1043439Y550028D02*
X1044120D01*
X939500Y564500D02*
X1025882D01*
X1044120Y550028D02*
X1044381Y549767D01*
X1025261Y563000D02*
X1043761Y544500D01*
X1097500D01*
X1045425Y552575D02*
X1045685Y552315D01*
X939867Y571642D02*
X940481Y571028D01*
X939499Y571642D02*
X939867D01*
X1129500Y422984D02*
Y429757D01*
X1135807Y408000D02*
Y416677D01*
X1129500Y422984D02*
X1135807Y416677D01*
X1131000Y423605D02*
Y430379D01*
Y423605D02*
X1138695Y415910D01*
Y408000D02*
Y415910D01*
X1132500Y424227D02*
Y431000D01*
X1141584Y408000D02*
Y415142D01*
X1132500Y424227D02*
X1141584Y415142D01*
X1082489Y528000D02*
X1087489Y533000D01*
X1050819Y525681D02*
X1053138Y528000D01*
X1082489D01*
X1047957Y525903D02*
X1051553Y529500D01*
X1081867D02*
X1086867Y534500D01*
X1051553Y529500D02*
X1081867D01*
X1081246Y531000D02*
X1086246Y536000D01*
X1049000Y531000D02*
X1081246D01*
X1047500Y529500D02*
X1049000Y531000D01*
X1080625Y532500D02*
X1085625Y537500D01*
X1046685Y532500D02*
X1080625D01*
X1104000Y556250D02*
Y569000D01*
X1102500Y554750D02*
X1104000Y556250D01*
X1102500Y542500D02*
Y554750D01*
X1182681Y492560D02*
Y516440D01*
X1169621Y529500D02*
X1182681Y516440D01*
X1168222Y478101D02*
X1182681Y492560D01*
X1139471Y529500D02*
X1169621D01*
X1168222Y445000D02*
Y478101D01*
X1205000Y408000D02*
Y408222D01*
X1168222Y445000D02*
X1205000Y408222D01*
X1127849Y539000D02*
X1138849Y528000D01*
X1169000D01*
X1103500Y539000D02*
X1127849D01*
X1138228Y526500D02*
X1167813D01*
X1127228Y537500D02*
X1138228Y526500D01*
X1085625Y537500D02*
X1127228D01*
X1126607Y536000D02*
X1137607Y525000D01*
X1167191D01*
X1086246Y536000D02*
X1126607D01*
X1136985Y523500D02*
X1166570D01*
X1125985Y534500D02*
X1136985Y523500D01*
X1086867Y534500D02*
X1125985D01*
X1136364Y522000D02*
X1165948D01*
X1087489Y533000D02*
X1125364D01*
X1136364Y522000D01*
X1124743Y531500D02*
X1135743Y520500D01*
X1165327D01*
X1091779Y531500D02*
X1124743D01*
X1135121Y519000D02*
X1164706D01*
X1124121Y530000D02*
X1135121Y519000D01*
X1094476Y530000D02*
X1124121D01*
X1096061Y528500D02*
X1123500D01*
X1134500Y517500D02*
X1164085D01*
X1123500Y528500D02*
X1134500Y517500D01*
X1101000Y541500D02*
Y565596D01*
Y541500D02*
X1103500Y539000D01*
X1169000Y528000D02*
X1181181Y515819D01*
Y493912D02*
Y515819D01*
X1181000Y493731D02*
X1181181Y493912D01*
X1181000Y493000D02*
Y493731D01*
X1166722Y478722D02*
X1181000Y493000D01*
X1166722Y443608D02*
Y478722D01*
X1202138Y408000D02*
Y408193D01*
X1166722Y443608D02*
X1202138Y408193D01*
X1178739Y494555D02*
X1179000Y494816D01*
X1177526Y494555D02*
X1178739D01*
X1165222Y482252D02*
X1177526Y494555D01*
X1165222Y442245D02*
Y482252D01*
X1178523Y497674D02*
X1178844D01*
X1163722Y482873D02*
X1178523Y497674D01*
X1199246Y408000D02*
Y408221D01*
X1165222Y442245D02*
X1199246Y408221D01*
X1206681Y488000D02*
X1222000D01*
X1199500Y495181D02*
X1206681Y488000D01*
X1163722Y440883D02*
X1196383Y408222D01*
Y408000D02*
Y408222D01*
X1163722Y440883D02*
Y482873D01*
X1045319Y532158D02*
X1045580Y532418D01*
X1046603D01*
X1046685Y532500D01*
X1176681Y497953D02*
Y517631D01*
X1167813Y526500D02*
X1176681Y517631D01*
X1162222Y483494D02*
X1176681Y497953D01*
X1162222Y439521D02*
Y483494D01*
Y439521D02*
X1193521Y408222D01*
Y408000D02*
Y408222D01*
X1042741Y563348D02*
Y564311D01*
Y563348D02*
X1043002Y563087D01*
X1175181Y498574D02*
Y517010D01*
X1160722Y484116D02*
X1175181Y498574D01*
X1167191Y525000D02*
X1175181Y517010D01*
X1160722Y438159D02*
Y484116D01*
Y438159D02*
X1190659Y408222D01*
Y408000D02*
Y408222D01*
X1093561Y526000D02*
X1096061Y528500D01*
X1092657Y528181D02*
X1094476Y530000D01*
X1090534Y530623D02*
X1090902D01*
X1091779Y531500D01*
X1090000Y526000D02*
X1093561D01*
X1047957Y525681D02*
Y525903D01*
X1166570Y523500D02*
X1173681Y516389D01*
Y499196D02*
Y516389D01*
X1159000Y484515D02*
X1173681Y499196D01*
X1157500Y485136D02*
X1172181Y499817D01*
X1165948Y522000D02*
X1172181Y515767D01*
Y499817D02*
Y515767D01*
X1170681Y500438D02*
Y515146D01*
X1165327Y520500D02*
X1170681Y515146D01*
X1156000Y485757D02*
X1170681Y500438D01*
X1169181Y501060D02*
Y514525D01*
X1164706Y519000D02*
X1169181Y514525D01*
X1167681Y501681D02*
Y513903D01*
X1164085Y517500D02*
X1167681Y513903D01*
X1187797Y408000D02*
Y408206D01*
X1159000Y437002D02*
X1187797Y408206D01*
X1159000Y437002D02*
Y484515D01*
X1157500Y435613D02*
Y485136D01*
Y435613D02*
X1184918Y408195D01*
Y408000D02*
Y408195D01*
X1156000Y434224D02*
Y485757D01*
X1182029Y408000D02*
Y408196D01*
X1156000Y434224D02*
X1182029Y408196D01*
X1154500Y486379D02*
X1169181Y501060D01*
X1154500Y433500D02*
Y486379D01*
X1153000Y432500D02*
Y487000D01*
X1154051Y488051D02*
Y488051D01*
X1167681Y501681D01*
X1153000Y487000D02*
X1154051Y488051D01*
X1152000Y488589D02*
Y488593D01*
X1151500Y488089D02*
X1152000Y488589D01*
X1151500Y431500D02*
Y488089D01*
X1152000Y488593D02*
X1165500Y502093D01*
X1150000Y488710D02*
X1150500Y489210D01*
X1150000Y430000D02*
Y488710D01*
X1150500Y489214D02*
X1162500Y501214D01*
X1150500Y489210D02*
Y489214D01*
X1149000Y489879D02*
X1159500Y500379D01*
X1149000Y489831D02*
Y489879D01*
X1148500Y428500D02*
Y489331D01*
X1149000Y489831D01*
X1154500Y433500D02*
X1178879Y409121D01*
Y408261D02*
Y409121D01*
X1175990Y408261D02*
Y409510D01*
X1153000Y432500D02*
X1175990Y409510D01*
Y408261D02*
X1176251Y408000D01*
X1173285Y408077D02*
Y409715D01*
X1151500Y431500D02*
X1173285Y409715D01*
Y408077D02*
X1173362Y408000D01*
X1150000Y430000D02*
X1170341Y409659D01*
Y408132D02*
X1170473Y408000D01*
X1170341Y408132D02*
Y409659D01*
X1148500Y428500D02*
X1167396Y409604D01*
Y408188D02*
X1167584Y408000D01*
X1167396Y408188D02*
Y409604D01*
X1146319Y428181D02*
Y466500D01*
Y428181D02*
X1164695Y409805D01*
Y408000D02*
Y409805D01*
X1178879Y408261D02*
X1179140Y408000D01*
X1165500Y502093D02*
Y513000D01*
X1162500Y501214D02*
Y513000D01*
X1207500Y547500D02*
X1212000Y552000D01*
Y571000D01*
X1204000Y548000D02*
X1209500Y553500D01*
Y576000D01*
X1159500Y500379D02*
Y513000D01*
X1145890Y488890D02*
Y492181D01*
X1144000Y487000D02*
X1145890Y488890D01*
X1144000Y428228D02*
Y487000D01*
X1161547Y408260D02*
Y410681D01*
X1144000Y428228D02*
X1161547Y410681D01*
Y408260D02*
X1161807Y408000D01*
X1142500Y489729D02*
X1143452Y490681D01*
X1142500Y427607D02*
Y489729D01*
Y427607D02*
X1159000Y411107D01*
X1158918Y408000D02*
X1159000Y408082D01*
Y411107D01*
X1106931Y516070D02*
X1107000Y516000D01*
X1117864D01*
X1106597Y516070D02*
X1106931D01*
X1117817Y518319D02*
X1136500Y499636D01*
X1139500Y426364D02*
Y500879D01*
X1138000Y425743D02*
Y500257D01*
X1136500Y425121D02*
Y499636D01*
X1141000Y426985D02*
Y501500D01*
Y426985D02*
X1156029Y411957D01*
X1139500Y426364D02*
X1153140Y412724D01*
X1156029Y408000D02*
Y411957D01*
X1153140Y408000D02*
Y412724D01*
X1150251Y408000D02*
Y413492D01*
X1138000Y425743D02*
X1150251Y413492D01*
X1147362Y408000D02*
Y414259D01*
X1136500Y425121D02*
X1147362Y414259D01*
X1135000Y424500D02*
Y498864D01*
X1144473Y408000D02*
Y415027D01*
X1135000Y424500D02*
X1144473Y415027D01*
X1117864Y516000D02*
X1135000Y498864D01*
X1043181Y542319D02*
X1052319D01*
X1038500Y547000D02*
X1043181Y542319D01*
X1088000Y499493D02*
X1088210Y499283D01*
X1092841Y499353D02*
Y502841D01*
X1097763Y563415D02*
X1098061D01*
X1081500Y501000D02*
X1092000Y511500D01*
X1076363Y501367D02*
X1089496Y514500D01*
X1097402Y499194D02*
X1104306D01*
X1045863Y563149D02*
Y563310D01*
X1097761Y554807D02*
X1097939D01*
X1119460Y463470D02*
X1119785Y463145D01*
X1119460Y463470D02*
X1119785Y463145D01*
X1119709Y467709D02*
X1119917Y467500D01*
X1119709Y467709D02*
X1119917Y467500D01*
X1095568Y557000D02*
X1097761Y554807D01*
X1104306Y499194D02*
X1108000Y495500D01*
X1069500Y562000D02*
X1096348D01*
X1088000Y499493D02*
Y503000D01*
X1096348Y562000D02*
X1097763Y563415D01*
X1089496Y514500D02*
X1117228D01*
X1097616Y557668D02*
X1097984D01*
X1097618Y560554D02*
X1097986D01*
X1096784Y558500D02*
X1097616Y557668D01*
X1062379Y558500D02*
X1096784D01*
X1061757Y557000D02*
X1095568D01*
X1094161Y555500D02*
X1095758Y553903D01*
X1061136Y555500D02*
X1094161D01*
X1005465Y608598D02*
X1008063Y606000D01*
X1005385Y608598D02*
X1005465D01*
X1005239Y605739D02*
X1005608D01*
X1006847Y604500D01*
X1005371Y602810D02*
X1005562Y603000D01*
X1002147Y637353D02*
Y637353D01*
X1003793Y634896D02*
X1004054Y634635D01*
X1003793Y634896D02*
Y635707D01*
X1002147Y637353D02*
X1003793Y635707D01*
X1000500Y639000D02*
X1002147Y637353D01*
X941500Y639000D02*
X1000500D01*
X1030000Y613087D02*
X1059087D01*
X940879Y637500D02*
X999000D01*
X933500Y644879D02*
X940879Y637500D01*
X932000Y644257D02*
X940257Y636000D01*
X935000Y645500D02*
X941500Y639000D01*
X935000Y645500D02*
Y655631D01*
X936500Y657131D02*
Y657500D01*
X935000Y655631D02*
X936500Y657131D01*
X932000Y644257D02*
Y670847D01*
X933500Y644879D02*
Y669447D01*
X936278Y672224D02*
X936500D01*
X933500Y669447D02*
X936278Y672224D01*
X1028496Y479000D02*
X1040500D01*
X1054500Y553541D02*
Y557722D01*
X1025222Y587000D02*
X1054500Y557722D01*
X1057500Y553500D02*
Y556844D01*
X1095758Y553903D02*
Y553903D01*
Y553903D02*
X1097716Y551944D01*
X1020636Y596000D02*
X1061136Y555500D01*
X1097716Y551944D02*
X1097933D01*
X1021257Y597500D02*
X1061757Y557000D01*
X1021879Y599000D02*
X1062379Y558500D01*
X1097064Y560000D02*
X1097618Y560554D01*
X1063000Y560000D02*
X1097064D01*
X1022500Y600500D02*
X1063000Y560000D01*
X944621Y597500D02*
X1021257D01*
X945243Y596000D02*
X1020636D01*
X944000Y599000D02*
X1021879D01*
X943123Y593880D02*
X945243Y596000D01*
X942465Y593880D02*
X943123D01*
X943296Y596175D02*
X944621Y597500D01*
X1059087Y613087D02*
X1066000Y620000D01*
X941000Y666500D02*
X983500Y709000D01*
Y714000D01*
X987500Y703000D02*
Y714500D01*
X985819Y716181D02*
X987500Y714500D01*
X982597Y716181D02*
X985819D01*
X941741Y669362D02*
X980500Y708121D01*
Y714084D02*
X982597Y716181D01*
X980500Y708121D02*
Y714084D01*
X936500Y669362D02*
X941741D01*
X936500Y666500D02*
X941000D01*
X940379Y663500D02*
X976580Y699701D01*
X988701D01*
X939500Y660500D02*
X976500Y697500D01*
X991123D01*
X936500Y663500D02*
X940379D01*
X936500Y660500D02*
X939500D01*
X933750Y681000D02*
X938250Y685500D01*
X938500D01*
X933500Y681000D02*
X933750D01*
X1115087Y376913D02*
X1124500D01*
X1115879Y374000D02*
X1124500D01*
X1103436Y386443D02*
X1115879Y374000D01*
X1102814Y384943D02*
X1116620Y371138D01*
X1124500D01*
X1059728Y448272D02*
X1061000Y447000D01*
X1059728Y448272D02*
Y452922D01*
X1059869Y453063D01*
X1102814Y384943D02*
X1102814D01*
X1061000Y426757D02*
X1102814Y384943D01*
X1061000Y426757D02*
Y447000D01*
X1068500Y446503D02*
X1071079Y449082D01*
Y450763D02*
X1071339Y451023D01*
X1071079Y449082D02*
Y450763D01*
X1068500Y429864D02*
Y446503D01*
Y429864D02*
X1112864Y385500D01*
X1124500D01*
X1069000Y449500D02*
Y453000D01*
X1067000Y447500D02*
X1069000Y449500D01*
X1067000Y429243D02*
Y447500D01*
Y429243D02*
X1113605Y382638D01*
X1124500D01*
X1062500Y427379D02*
Y450205D01*
Y427379D02*
X1103436Y386443D01*
X1103436D01*
X1061961Y450744D02*
X1062500Y450205D01*
X1124276Y380000D02*
X1124500Y379776D01*
X1114121Y380000D02*
X1124276D01*
X1237500Y411000D02*
X1247500Y421000D01*
X1222000Y411000D02*
X1237500D01*
X1026500Y751000D02*
X1027000D01*
X1006770Y740770D02*
X1007000Y741000D01*
X565000Y740500D02*
X577000D01*
X1119460Y463470D02*
X1119785Y463145D01*
X1119709Y467709D02*
X1119917Y467500D01*
X1106500Y332319D02*
X1109181Y335000D01*
X1123000D01*
X1114550Y283450D02*
X1116500Y281500D01*
X1111500Y283500D02*
X1111550Y283450D01*
X1114550D01*
X1079319Y501903D02*
X1090415Y513000D01*
X1079319Y501204D02*
Y501903D01*
X1090415Y513000D02*
X1116607D01*
X1078843Y499937D02*
X1079103Y500198D01*
Y500988D02*
X1079319Y501204D01*
X1079103Y500198D02*
Y500988D01*
X1121500Y474192D02*
X1121692Y474000D01*
X1125000D02*
X1126000Y475000D01*
Y495121D01*
X1121692Y474000D02*
X1125000D01*
X1119127Y476373D02*
X1123873D01*
X1124500Y477000D01*
Y494500D01*
X1119633Y472011D02*
X1125511D01*
X1127500Y474000D01*
Y495743D01*
X1123000Y480139D02*
Y493879D01*
X1112879Y504000D02*
X1123000Y493879D01*
X1121416Y478555D02*
X1123000Y480139D01*
X1113500Y505500D02*
X1124500Y494500D01*
X1117228Y514500D02*
X1125114Y506614D01*
X1125129D02*
X1133500Y498243D01*
X1125114Y506614D02*
X1125129D01*
X1120620Y463138D02*
X1125123D01*
X1133500Y471515D02*
Y498243D01*
X1119785Y463145D02*
X1120613D01*
X1120620Y463138D01*
X1125123D02*
X1133500Y471515D01*
X1119395Y463406D02*
X1119460Y463470D01*
X1116607Y513000D02*
X1125303Y504303D01*
X1125318D01*
X1132000Y497621D01*
X1121524Y465319D02*
X1125183D01*
X1132000Y472136D01*
Y497621D01*
X1092000Y511500D02*
X1115985D01*
X1124985Y502500D02*
X1125000D01*
X1115985Y511500D02*
X1124985Y502500D01*
X1125000D02*
X1130500Y497000D01*
Y472757D02*
Y497000D01*
X1119917Y467500D02*
X1125243D01*
X1119500D02*
X1119709Y467709D01*
X1125243Y467500D02*
X1130500Y472757D01*
X1085819Y500855D02*
X1086080Y501116D01*
Y503201D01*
X1092879Y510000D01*
X1115364D01*
X1129000Y473379D02*
Y496364D01*
X1115364Y510000D02*
X1129000Y496364D01*
X1125451Y469830D02*
X1129000Y473379D01*
X1121500Y469830D02*
X1125451D01*
X1114743Y508500D02*
X1127500Y495743D01*
X1119460Y472185D02*
X1119633Y472011D01*
X1119000Y476500D02*
X1119127Y476373D01*
X1114121Y507000D02*
X1126000Y495121D01*
X1110435Y474616D02*
X1113000Y477181D01*
X1110435Y457355D02*
Y474616D01*
X1093500Y508500D02*
X1114743D01*
X1088000Y503000D02*
X1093500Y508500D01*
X1096121Y504000D02*
X1112879D01*
X1095181Y503060D02*
X1096121Y504000D01*
X1095181Y501000D02*
Y503060D01*
X1092841Y502841D02*
X1095500Y505500D01*
X1094879Y507000D02*
X1114121D01*
X1090500Y502621D02*
X1094879Y507000D01*
X1090500Y501000D02*
Y502621D01*
X1108000Y484500D02*
Y495500D01*
X1095500Y505500D02*
X1113500D01*
D17*
X1099362Y477814D02*
Y480186D01*
X1079362Y476138D02*
X1097686D01*
X1074500Y481000D02*
X1079362Y476138D01*
X1097686D02*
X1099362Y477814D01*
X1099319Y480229D02*
X1099362Y480186D01*
X1099319Y480229D02*
Y480500D01*
X1135427Y511933D02*
X1138000D01*
X1121360Y526000D02*
X1135427Y511933D01*
X1112500Y526000D02*
X1121360D01*
D26*
X648000Y764000D02*
D03*
X620000D02*
D03*
D27*
X643669Y753500D02*
D03*
X624272D02*
D03*
X1074803Y322835D02*
D03*
X643000Y565000D02*
D03*
X619000Y657000D02*
D03*
X657000Y664500D02*
D03*
X887500Y315000D02*
D03*
X899500Y328500D02*
D03*
X931000Y276500D02*
D03*
X941000Y319500D02*
D03*
X988500Y314150D02*
D03*
X995500Y312500D02*
D03*
X797677Y531177D02*
D03*
X590000Y561000D02*
D03*
X552000Y561500D02*
D03*
X565500Y602500D02*
D03*
X553000D02*
D03*
X640500Y457000D02*
D03*
X552000Y470000D02*
D03*
X641753Y507253D02*
D03*
X635500Y573500D02*
D03*
X971000Y486500D02*
D03*
X1002000D02*
D03*
X586381Y314596D02*
D03*
X570500Y299000D02*
D03*
X1172500Y322500D02*
D03*
X621500Y687000D02*
D03*
X792000Y682000D02*
D03*
X810500Y700500D02*
D03*
X798000Y612000D02*
D03*
X1056500Y312000D02*
D03*
X1028000Y347000D02*
D03*
D157*
X1052000Y481000D02*
X1057500D01*
X1074500D01*
X1056757Y312257D02*
X1064225D01*
X1028000Y347000D02*
X1050638D01*
X1172333Y322667D02*
X1172500Y322500D01*
X1056500Y312000D02*
X1056757Y312257D01*
X1064225D02*
X1074803Y322835D01*
X1074971Y322667D02*
X1172333D01*
X1074803Y322835D02*
X1074971Y322667D01*
X1050638Y347000D02*
X1074803Y322835D01*
X619000Y657000D02*
X649500D01*
X657000Y664500D01*
X1001500Y296000D02*
X1225500D01*
X1241000Y311500D01*
X1256000D01*
X988500Y309000D02*
X1001500Y296000D01*
X988500Y309000D02*
Y314150D01*
X995500Y312500D02*
X1004500Y303500D01*
X797838Y546839D02*
X798000Y547000D01*
X797677Y531177D02*
X797838Y531339D01*
Y546839D01*
X798000Y547000D02*
Y612000D01*
X1004500Y303500D02*
X1220500D01*
X1239000Y322000D01*
X1255000D01*
X552000Y561500D02*
X552250Y561250D01*
X589750D01*
X590000Y561000D01*
X553000Y602500D02*
X565500D01*
X627500Y470000D02*
X640500Y457000D01*
X552000Y470000D02*
X627500D01*
X635500Y513506D02*
X641753Y507253D01*
X635500Y513506D02*
Y573500D01*
X727500Y583500D02*
X755000Y611000D01*
X930500Y562000D02*
Y582500D01*
X936500Y556000D02*
X967500D01*
X930500Y562000D02*
X936500Y556000D01*
X930500Y582500D02*
X941424D01*
X930500D02*
Y619500D01*
X936500Y625500D01*
X1078500D01*
X971000Y486500D02*
Y533000D01*
X1006500D01*
X1136000Y575402D02*
Y612500D01*
Y554500D02*
Y575402D01*
X971000Y533000D02*
Y552500D01*
X971500Y553000D01*
X1007000D01*
X967500Y556000D02*
X971000Y552500D01*
X941424Y582500D02*
X943923Y580000D01*
X1006500D01*
X1050500Y482500D02*
X1052000Y481000D01*
X1009154Y486146D02*
X1012800Y482500D01*
X1050500D01*
X1002000Y486500D02*
X1002354Y486146D01*
X1009154D01*
X1136000Y542500D02*
Y554500D01*
Y536612D02*
Y542500D01*
X1111000Y625500D02*
X1123000D01*
X1087500D02*
X1111000D01*
X1112000Y624500D01*
Y607500D02*
Y624500D01*
X1078500Y625500D02*
X1087500D01*
X1087764Y625236D01*
Y607236D02*
Y625236D01*
X1077500Y610500D02*
Y624500D01*
X1078500Y625500D01*
X1074000Y607000D02*
X1077500Y610500D01*
X1066000Y607000D02*
X1074000D01*
X1065842Y606842D02*
X1066000Y607000D01*
X1040000Y606842D02*
X1065842D01*
X1123000Y625500D02*
X1136000Y612500D01*
X1002000Y486500D02*
Y501000D01*
X1006431Y505431D01*
X586239Y314596D02*
X586381D01*
X570500Y299000D02*
X570642D01*
X586239Y314596D01*
X621500Y687000D02*
X658500D01*
X663500Y682000D01*
X792000D01*
X810500Y700500D01*
D158*
X1143000Y252000D02*
D03*
X643000D02*
D03*
X1191000D02*
D03*
X547000D02*
D03*
X787000D02*
D03*
X595000D02*
D03*
X691000D02*
D03*
X739000D02*
D03*
X835000D02*
D03*
X883000D02*
D03*
X1047000D02*
D03*
X1095000D02*
D03*
X979000D02*
D03*
X931000D02*
D03*
D159*
X516000Y294000D02*
D03*
Y324000D02*
D03*
Y364000D02*
D03*
Y354000D02*
D03*
Y344000D02*
D03*
Y334000D02*
D03*
Y314000D02*
D03*
Y304000D02*
D03*
Y284000D02*
D03*
X1221000Y252000D02*
D03*
X1173000D02*
D03*
X1125000D02*
D03*
X1029000D02*
D03*
X1077000D02*
D03*
X1019000D02*
D03*
X913000D02*
D03*
X961000D02*
D03*
X865000D02*
D03*
X817000D02*
D03*
X721000D02*
D03*
X769000D02*
D03*
X673000D02*
D03*
X516000Y556000D02*
D03*
Y536000D02*
D03*
Y546000D02*
D03*
X625000Y252000D02*
D03*
X577000D02*
D03*
X663000D02*
D03*
X759000D02*
D03*
X1163000D02*
D03*
X1153000D02*
D03*
X797000D02*
D03*
X807000D02*
D03*
X749000D02*
D03*
X653000D02*
D03*
X893000D02*
D03*
X903000D02*
D03*
X1211000D02*
D03*
X1201000D02*
D03*
X845000D02*
D03*
X855000D02*
D03*
X1105000D02*
D03*
X1115000D02*
D03*
X1057000D02*
D03*
X1067000D02*
D03*
X989000D02*
D03*
X999000D02*
D03*
X1009000D02*
D03*
X516000Y412000D02*
D03*
Y402000D02*
D03*
Y392000D02*
D03*
Y460000D02*
D03*
Y450000D02*
D03*
Y440000D02*
D03*
Y508000D02*
D03*
Y498000D02*
D03*
Y488000D02*
D03*
X605000Y252000D02*
D03*
X615000D02*
D03*
X557000D02*
D03*
X567000D02*
D03*
X701000D02*
D03*
X711000D02*
D03*
X941000D02*
D03*
X951000D02*
D03*
D160*
X500000Y602000D02*
D03*
D161*
Y622000D02*
D03*
D162*
X534409Y670000D02*
D03*
X510000D02*
D03*
D163*
X523780Y651496D02*
D03*
D164*
X637000Y730449D02*
D03*
Y711551D02*
D03*
D165*
X784000Y659500D02*
D03*
D166*
X764315D02*
D03*
D167*
X516000Y374000D02*
D03*
Y566000D02*
D03*
Y422000D02*
D03*
Y470000D02*
D03*
Y518000D02*
D03*
D168*
X507874Y748032D02*
D03*
X1263780D02*
D03*
Y244094D02*
D03*
X507874D02*
D03*
D169*
X1255000Y381000D02*
D03*
Y411000D02*
D03*
Y371000D02*
D03*
X1265000Y381000D02*
D03*
X798000Y547000D02*
D03*
X1255000Y481000D02*
D03*
X1265000Y401000D02*
D03*
Y411000D02*
D03*
X1255000Y501000D02*
D03*
X1265000Y431000D02*
D03*
Y441000D02*
D03*
Y451000D02*
D03*
Y461000D02*
D03*
Y471000D02*
D03*
Y481000D02*
D03*
X1255000Y491000D02*
D03*
X1265000Y521000D02*
D03*
X1255000Y531000D02*
D03*
Y541000D02*
D03*
X1265000Y551000D02*
D03*
Y561000D02*
D03*
Y391000D02*
D03*
X1255000Y401000D02*
D03*
Y421000D02*
D03*
Y431000D02*
D03*
Y441000D02*
D03*
Y451000D02*
D03*
Y461000D02*
D03*
Y471000D02*
D03*
Y521000D02*
D03*
X1265000Y531000D02*
D03*
X1255000Y551000D02*
D03*
Y561000D02*
D03*
X1265000Y511000D02*
D03*
Y421000D02*
D03*
Y491000D02*
D03*
Y541000D02*
D03*
X1255000Y391000D02*
D03*
X1265000Y501000D02*
D03*
X1255000Y511000D02*
D03*
X1265000Y601000D02*
D03*
Y621000D02*
D03*
X1255000Y711000D02*
D03*
Y571000D02*
D03*
X1265000Y641000D02*
D03*
Y661000D02*
D03*
X1255000Y611000D02*
D03*
Y671000D02*
D03*
Y681000D02*
D03*
X818000Y547000D02*
D03*
X1265000Y701000D02*
D03*
Y711000D02*
D03*
X1255000Y631000D02*
D03*
Y651000D02*
D03*
X1265000Y611000D02*
D03*
Y631000D02*
D03*
Y681000D02*
D03*
X808000Y547000D02*
D03*
X1255000Y691000D02*
D03*
Y701000D02*
D03*
X1265000Y591000D02*
D03*
Y651000D02*
D03*
Y671000D02*
D03*
X1255000Y581000D02*
D03*
Y591000D02*
D03*
Y601000D02*
D03*
Y621000D02*
D03*
X1265000Y691000D02*
D03*
Y581000D02*
D03*
X1255000Y641000D02*
D03*
Y661000D02*
D03*
X1077000Y751000D02*
D03*
Y741000D02*
D03*
X1067000Y751000D02*
D03*
Y741000D02*
D03*
X1057000Y751000D02*
D03*
Y741000D02*
D03*
X1047000Y751000D02*
D03*
Y741000D02*
D03*
X1037000Y751000D02*
D03*
Y741000D02*
D03*
X1027000Y751000D02*
D03*
Y741000D02*
D03*
X1017000Y751000D02*
D03*
Y741000D02*
D03*
X1007000Y751000D02*
D03*
Y741000D02*
D03*
X997000Y751000D02*
D03*
Y741000D02*
D03*
X987000Y751000D02*
D03*
Y741000D02*
D03*
X977000Y751000D02*
D03*
Y741000D02*
D03*
X967000Y751000D02*
D03*
Y741000D02*
D03*
X957000Y751000D02*
D03*
Y741000D02*
D03*
X947000Y751000D02*
D03*
Y741000D02*
D03*
X937000Y751000D02*
D03*
Y741000D02*
D03*
X927000Y751000D02*
D03*
Y741000D02*
D03*
X917000Y751000D02*
D03*
Y741000D02*
D03*
X907000Y751000D02*
D03*
Y741000D02*
D03*
X897000Y751000D02*
D03*
Y741000D02*
D03*
X887000Y751000D02*
D03*
X1227000D02*
D03*
Y741000D02*
D03*
X1217000Y751000D02*
D03*
Y741000D02*
D03*
X1207000Y751000D02*
D03*
Y741000D02*
D03*
X1197000Y751000D02*
D03*
Y741000D02*
D03*
X1187000Y751000D02*
D03*
Y741000D02*
D03*
X1177000Y751000D02*
D03*
Y741000D02*
D03*
X1167000Y751000D02*
D03*
Y741000D02*
D03*
X1157000Y751000D02*
D03*
Y741000D02*
D03*
X1147000Y751000D02*
D03*
Y741000D02*
D03*
X1137000Y751000D02*
D03*
Y741000D02*
D03*
X1127000Y751000D02*
D03*
Y741000D02*
D03*
X1117000Y751000D02*
D03*
Y741000D02*
D03*
X1107000Y751000D02*
D03*
Y741000D02*
D03*
X1097000Y751000D02*
D03*
Y741000D02*
D03*
X1087000Y751000D02*
D03*
D170*
X861000Y754795D02*
D03*
Y729205D02*
D03*
D171*
X1265000Y371000D02*
D03*
Y571000D02*
D03*
D172*
Y342000D02*
D03*
Y352000D02*
D03*
Y332000D02*
D03*
Y312000D02*
D03*
Y292000D02*
D03*
Y302000D02*
D03*
X758000Y764000D02*
D03*
X748000D02*
D03*
X738000D02*
D03*
X708000D02*
D03*
X698000D02*
D03*
X718000D02*
D03*
X678000D02*
D03*
Y744000D02*
D03*
X698000D02*
D03*
X718000D02*
D03*
X708000D02*
D03*
X748000D02*
D03*
X728000D02*
D03*
X738000D02*
D03*
X931000Y430000D02*
D03*
X1255000Y332000D02*
D03*
Y342000D02*
D03*
Y352000D02*
D03*
Y292000D02*
D03*
Y302000D02*
D03*
Y312000D02*
D03*
X738000Y754000D02*
D03*
X748000D02*
D03*
X758000D02*
D03*
X678000D02*
D03*
X698000D02*
D03*
X708000D02*
D03*
X718000D02*
D03*
D173*
X1265000Y322000D02*
D03*
Y282000D02*
D03*
X1255000Y322000D02*
D03*
Y282000D02*
D03*
D174*
X728000Y764000D02*
D03*
X668000D02*
D03*
X688000D02*
D03*
X668000Y744000D02*
D03*
X688000D02*
D03*
X758000D02*
D03*
X941000Y430000D02*
D03*
X728000Y754000D02*
D03*
X668000D02*
D03*
X688000D02*
D03*
D175*
X587008Y765332D02*
D03*
X552992D02*
D03*
D176*
X587008Y748875D02*
D03*
X552992D02*
D03*
D177*
X788000Y547000D02*
D03*
X887000Y741000D02*
D03*
X1087000D02*
D03*
D178*
X978500Y460500D02*
D03*
X635000Y669000D02*
D03*
D179*
X988500Y470500D02*
D03*
Y460500D02*
D03*
X978500Y470500D02*
D03*
X645000Y679000D02*
D03*
Y669000D02*
D03*
X635000Y679000D02*
D03*
D180*
X581378Y750962D02*
D03*
X558622D02*
D03*
D181*
X1218504Y312992D02*
D03*
X1224031Y314694D02*
D03*
X575351Y596412D02*
D03*
X1059055Y501968D02*
D03*
X1049213D02*
D03*
X1074803Y507874D02*
D03*
X1076772Y513779D02*
D03*
X1066929D02*
D03*
X1072835Y539370D02*
D03*
X1064961D02*
D03*
X1078740Y551181D02*
D03*
X1070866D02*
D03*
X1078740Y566929D02*
D03*
X1068898Y568898D02*
D03*
X1080709Y582677D02*
D03*
X1072835D02*
D03*
X1023622Y620079D02*
D03*
X1017717D02*
D03*
X1011811D02*
D03*
X1005906D02*
D03*
X1129921Y598425D02*
D03*
Y604331D02*
D03*
X1127953Y610236D02*
D03*
X1124016Y616142D02*
D03*
X903543Y614173D02*
D03*
X885827D02*
D03*
X870079D02*
D03*
X856299D02*
D03*
X842520D02*
D03*
X824803D02*
D03*
X809055D02*
D03*
X919291Y687008D02*
D03*
X911417Y696850D02*
D03*
X903543Y704724D02*
D03*
X885827D02*
D03*
X866142D02*
D03*
X844488D02*
D03*
X917323Y663386D02*
D03*
X905512Y675197D02*
D03*
X891732Y685039D02*
D03*
X874016D02*
D03*
X856299D02*
D03*
X840551D02*
D03*
X824803D02*
D03*
X809055D02*
D03*
X655512Y314961D02*
D03*
X683071D02*
D03*
X716535D02*
D03*
X750000D02*
D03*
X781496D02*
D03*
X812992D02*
D03*
X844488D02*
D03*
X574803Y464567D02*
D03*
X533465Y590551D02*
D03*
X529528D02*
D03*
X525591D02*
D03*
X521654D02*
D03*
X517717D02*
D03*
X533465Y594488D02*
D03*
X529528D02*
D03*
X525591D02*
D03*
X521654D02*
D03*
X517717D02*
D03*
X533465Y614173D02*
D03*
X529528D02*
D03*
X525591D02*
D03*
X521654D02*
D03*
X517717D02*
D03*
X533465Y610236D02*
D03*
X529528D02*
D03*
X525591D02*
D03*
X521654D02*
D03*
X517717D02*
D03*
X976378Y348425D02*
D03*
X972441Y352362D02*
D03*
X968504Y356299D02*
D03*
X964567Y360236D02*
D03*
X984252Y362205D02*
D03*
X980315Y366142D02*
D03*
X976378Y370079D02*
D03*
X972441Y374016D02*
D03*
X1103431Y501516D02*
D03*
X1112205Y500000D02*
D03*
X1127953Y440945D02*
D03*
Y448819D02*
D03*
X1122047D02*
D03*
X1127953Y456693D02*
D03*
X1122047D02*
D03*
X616142Y464567D02*
D03*
X608268D02*
D03*
X647638Y627953D02*
D03*
X681102Y543307D02*
D03*
X663386Y541339D02*
D03*
X649606D02*
D03*
X653543Y527559D02*
D03*
Y523622D02*
D03*
X671260Y529528D02*
D03*
X667323D02*
D03*
X671260Y480315D02*
D03*
X667323D02*
D03*
X954724Y460630D02*
D03*
Y470472D02*
D03*
X958661Y482283D02*
D03*
X946850D02*
D03*
X1112205Y440945D02*
D03*
X1106299D02*
D03*
X1086614Y450787D02*
D03*
X1080709D02*
D03*
X1220472Y291339D02*
D03*
X1214567D02*
D03*
X1208661D02*
D03*
X1202756D02*
D03*
X1196850D02*
D03*
X1190945D02*
D03*
X1185039D02*
D03*
X1212598Y311024D02*
D03*
X1206693D02*
D03*
X1200787D02*
D03*
X1194882D02*
D03*
X1188976D02*
D03*
X1183071D02*
D03*
X1005906Y320866D02*
D03*
X1009842Y324803D02*
D03*
X1013780Y328740D02*
D03*
X1017717Y332677D02*
D03*
X1021653Y336614D02*
D03*
X1114173Y389764D02*
D03*
X1110236Y393701D02*
D03*
X1106299Y397638D02*
D03*
X1102362Y401575D02*
D03*
X1098425Y405512D02*
D03*
X1094488Y409449D02*
D03*
X1096457Y385827D02*
D03*
X1092520Y389764D02*
D03*
X1088583Y393701D02*
D03*
X1084646Y397638D02*
D03*
X1080709Y401575D02*
D03*
X1076772Y405512D02*
D03*
X905512Y423228D02*
D03*
Y427165D02*
D03*
Y431102D02*
D03*
Y435039D02*
D03*
Y438976D02*
D03*
Y442913D02*
D03*
X881890Y427165D02*
D03*
Y431102D02*
D03*
Y435039D02*
D03*
Y438976D02*
D03*
Y442913D02*
D03*
Y446850D02*
D03*
X897638Y385827D02*
D03*
Y391732D02*
D03*
Y397638D02*
D03*
X881890Y385827D02*
D03*
Y391732D02*
D03*
Y397638D02*
D03*
X629921Y539370D02*
D03*
Y543307D02*
D03*
Y549213D02*
D03*
Y553150D02*
D03*
Y557087D02*
D03*
X641732Y553150D02*
D03*
Y549213D02*
D03*
Y543307D02*
D03*
Y539370D02*
D03*
Y557087D02*
D03*
X535433Y639764D02*
D03*
Y635827D02*
D03*
Y631890D02*
D03*
Y627953D02*
D03*
Y624016D02*
D03*
Y620079D02*
D03*
X531496D02*
D03*
Y624016D02*
D03*
Y627953D02*
D03*
Y631890D02*
D03*
Y635827D02*
D03*
Y639764D02*
D03*
Y643701D02*
D03*
X535433D02*
D03*
X555118Y639764D02*
D03*
Y635827D02*
D03*
Y631890D02*
D03*
Y627953D02*
D03*
Y624016D02*
D03*
Y620079D02*
D03*
X551181D02*
D03*
Y624016D02*
D03*
Y627953D02*
D03*
Y631890D02*
D03*
Y635827D02*
D03*
Y639764D02*
D03*
X555118Y643701D02*
D03*
X551181D02*
D03*
X1050983Y460432D02*
D03*
X1037204Y446653D02*
D03*
X1057087Y466535D02*
D03*
X1086614Y472441D02*
D03*
X1080709Y466535D02*
D03*
X1151575Y498032D02*
D03*
X1149606Y505905D02*
D03*
Y509842D02*
D03*
X1147638Y498032D02*
D03*
X1187008Y507874D02*
D03*
X1183071Y521654D02*
D03*
X1179134Y525591D02*
D03*
X1230315Y547244D02*
D03*
X1222441D02*
D03*
X1216535D02*
D03*
X1208661Y541339D02*
D03*
X1200787D02*
D03*
X1192913D02*
D03*
X1214567Y647638D02*
D03*
X1230315Y683071D02*
D03*
Y663386D02*
D03*
X1161417Y594488D02*
D03*
X1153543D02*
D03*
X1147638D02*
D03*
X1141732D02*
D03*
X1143701Y649606D02*
D03*
X1137795Y643701D02*
D03*
X1131890Y637795D02*
D03*
X1125984Y631890D02*
D03*
X1187008Y692913D02*
D03*
X1192913Y698819D02*
D03*
X1198819Y704724D02*
D03*
X1204724Y710630D02*
D03*
X1210630Y716535D02*
D03*
X1053150Y657480D02*
D03*
X1045276Y649606D02*
D03*
X1039370Y643701D02*
D03*
X1033465Y637795D02*
D03*
X1027559Y631890D02*
D03*
X1051181D02*
D03*
X1082677Y667323D02*
D03*
Y675197D02*
D03*
Y683071D02*
D03*
Y688976D02*
D03*
Y696850D02*
D03*
Y702756D02*
D03*
Y708661D02*
D03*
Y714567D02*
D03*
X1057087Y665354D02*
D03*
Y673228D02*
D03*
Y681102D02*
D03*
Y688976D02*
D03*
Y696850D02*
D03*
Y702756D02*
D03*
Y708661D02*
D03*
Y714567D02*
D03*
X606299Y287402D02*
D03*
X600394D02*
D03*
X594488D02*
D03*
X588583D02*
D03*
X582677D02*
D03*
X624016Y314961D02*
D03*
X618110D02*
D03*
X612205D02*
D03*
X606299D02*
D03*
X600394D02*
D03*
X594488D02*
D03*
X975149Y515337D02*
D03*
X975123Y521664D02*
D03*
X952756Y531496D02*
D03*
Y535433D02*
D03*
Y539370D02*
D03*
Y543307D02*
D03*
X940945Y531496D02*
D03*
Y537402D02*
D03*
Y543307D02*
D03*
Y549213D02*
D03*
X952756Y454724D02*
D03*
X946850D02*
D03*
X940945D02*
D03*
X960630Y435039D02*
D03*
X954724D02*
D03*
X948819D02*
D03*
X935039Y458661D02*
D03*
X933071Y442913D02*
D03*
X937008Y438976D02*
D03*
X925197D02*
D03*
Y450787D02*
D03*
X911417D02*
D03*
X907480Y454724D02*
D03*
X915354Y480315D02*
D03*
X919291Y484252D02*
D03*
X923228Y488189D02*
D03*
X931102Y462598D02*
D03*
X927165Y466535D02*
D03*
X923228Y470472D02*
D03*
X927165Y474409D02*
D03*
X931102Y478346D02*
D03*
X935039Y505905D02*
D03*
Y509842D02*
D03*
Y513779D02*
D03*
Y517717D02*
D03*
X925197Y501968D02*
D03*
Y505905D02*
D03*
Y509842D02*
D03*
Y513779D02*
D03*
X893701D02*
D03*
X889764Y517717D02*
D03*
X885827Y521654D02*
D03*
X881890Y525591D02*
D03*
Y501968D02*
D03*
X877953Y505905D02*
D03*
X874016Y509842D02*
D03*
X870079Y513779D02*
D03*
X551181Y667323D02*
D03*
Y673228D02*
D03*
Y679134D02*
D03*
Y685039D02*
D03*
Y690945D02*
D03*
Y696850D02*
D03*
X566929Y679134D02*
D03*
X570866Y669291D02*
D03*
X582677Y681102D02*
D03*
X592520D02*
D03*
X602362D02*
D03*
X616142D02*
D03*
X624016Y673228D02*
D03*
X614173Y665354D02*
D03*
X606299D02*
D03*
X596457D02*
D03*
X586614D02*
D03*
X592520Y364173D02*
D03*
Y368110D02*
D03*
Y372047D02*
D03*
Y375984D02*
D03*
Y379921D02*
D03*
X580709D02*
D03*
Y375984D02*
D03*
Y372047D02*
D03*
Y364173D02*
D03*
Y368110D02*
D03*
X625984Y423228D02*
D03*
X622047Y419291D02*
D03*
X618110Y415354D02*
D03*
X614173Y411417D02*
D03*
X602362Y415354D02*
D03*
X606299Y419291D02*
D03*
X610236Y423228D02*
D03*
X614173Y427165D02*
D03*
X551181Y403543D02*
D03*
Y407480D02*
D03*
Y411417D02*
D03*
Y415354D02*
D03*
Y419291D02*
D03*
X535433Y403543D02*
D03*
Y407480D02*
D03*
Y411417D02*
D03*
Y415354D02*
D03*
Y419291D02*
D03*
X728346Y509842D02*
D03*
X722441Y503937D02*
D03*
X716535Y498032D02*
D03*
X718504Y523622D02*
D03*
X712598Y517717D02*
D03*
X706693Y511811D02*
D03*
X663386Y498032D02*
D03*
X641732D02*
D03*
X657480Y482283D02*
D03*
X647638D02*
D03*
X657480Y440945D02*
D03*
X647638D02*
D03*
X620079Y433071D02*
D03*
X572835Y429134D02*
D03*
Y435039D02*
D03*
X564961Y429134D02*
D03*
Y435039D02*
D03*
X622047Y437008D02*
D03*
X616142Y482283D02*
D03*
Y492126D02*
D03*
Y503937D02*
D03*
Y517717D02*
D03*
X606299Y537402D02*
D03*
X616142Y527559D02*
D03*
X624016Y511811D02*
D03*
Y523622D02*
D03*
X622047Y535433D02*
D03*
X614173Y543307D02*
D03*
X602362Y549213D02*
D03*
X590551D02*
D03*
X574803Y622047D02*
D03*
X578740Y633858D02*
D03*
X586614Y635827D02*
D03*
X598425D02*
D03*
X610236D02*
D03*
X622047D02*
D03*
X635827D02*
D03*
X643701D02*
D03*
X667323Y643701D02*
D03*
X655512D02*
D03*
X641732D02*
D03*
X627953D02*
D03*
X616142D02*
D03*
X604331D02*
D03*
X592520D02*
D03*
X580709D02*
D03*
X570866Y635827D02*
D03*
X681102Y606299D02*
D03*
Y612205D02*
D03*
X791339Y555118D02*
D03*
X812992D02*
D03*
X803150D02*
D03*
X822835D02*
D03*
X925197Y551181D02*
D03*
Y545276D02*
D03*
Y559055D02*
D03*
Y572835D02*
D03*
Y580709D02*
D03*
Y588583D02*
D03*
X816987Y572971D02*
D03*
X817036Y580270D02*
D03*
X817134Y588303D02*
D03*
X780042Y572731D02*
D03*
X779804Y588381D02*
D03*
X779963Y580239D02*
D03*
X732283Y576772D02*
D03*
X722441Y586614D02*
D03*
X751968Y588583D02*
D03*
X734252Y602362D02*
D03*
X728346Y596457D02*
D03*
X740158Y584646D02*
D03*
X683071Y635827D02*
D03*
X679134Y639764D02*
D03*
X675197Y643701D02*
D03*
X690945Y645669D02*
D03*
X687008Y649606D02*
D03*
X683071Y653543D02*
D03*
X702756Y641732D02*
D03*
Y647638D02*
D03*
Y653543D02*
D03*
X724409Y641732D02*
D03*
Y647638D02*
D03*
Y653543D02*
D03*
X803150Y624016D02*
D03*
Y629921D02*
D03*
Y637795D02*
D03*
X793307Y624016D02*
D03*
Y629921D02*
D03*
Y637795D02*
D03*
X781496Y624016D02*
D03*
X612205Y692913D02*
D03*
X586614Y740158D02*
D03*
X557087D02*
D03*
X574803Y718504D02*
D03*
X564961D02*
D03*
X728346Y545276D02*
D03*
X777559D02*
D03*
X771654D02*
D03*
X765748D02*
D03*
X759842D02*
D03*
X753937D02*
D03*
X748032D02*
D03*
X742126D02*
D03*
X736221D02*
D03*
X722441D02*
D03*
X716535D02*
D03*
X710630D02*
D03*
X704724D02*
D03*
X698819D02*
D03*
X1001968Y645669D02*
D03*
Y651575D02*
D03*
Y657480D02*
D03*
Y663386D02*
D03*
Y669291D02*
D03*
Y675197D02*
D03*
Y681102D02*
D03*
X923228Y612205D02*
D03*
Y618110D02*
D03*
Y624016D02*
D03*
Y631890D02*
D03*
Y637795D02*
D03*
Y643701D02*
D03*
Y649606D02*
D03*
X842520Y751968D02*
D03*
X769685D02*
D03*
X838583Y708661D02*
D03*
X779528D02*
D03*
X818898Y700787D02*
D03*
Y704724D02*
D03*
X753937Y694882D02*
D03*
X746063D02*
D03*
X738189D02*
D03*
X730315D02*
D03*
X722441D02*
D03*
X706693D02*
D03*
X698819D02*
D03*
X690945D02*
D03*
X683071D02*
D03*
X673228D02*
D03*
X669291Y700787D02*
D03*
Y720472D02*
D03*
X659449D02*
D03*
Y700787D02*
D03*
X669291Y704724D02*
D03*
Y716535D02*
D03*
X659449D02*
D03*
Y704724D02*
D03*
X614173Y696850D02*
D03*
X620079D02*
D03*
X702756Y572835D02*
D03*
X696850D02*
D03*
X690945D02*
D03*
X702756Y582677D02*
D03*
X696850D02*
D03*
X690945D02*
D03*
X683071Y584646D02*
D03*
Y590551D02*
D03*
X679134Y584646D02*
D03*
Y590551D02*
D03*
X659449Y606299D02*
D03*
X671260D02*
D03*
Y610236D02*
D03*
X659449D02*
D03*
X639764Y598425D02*
D03*
X633858D02*
D03*
X629921Y594488D02*
D03*
X625984D02*
D03*
X622047D02*
D03*
X618110D02*
D03*
X614173D02*
D03*
X610236D02*
D03*
X606299D02*
D03*
X572835Y596457D02*
D03*
X614173Y476378D02*
D03*
X610236D02*
D03*
X606299D02*
D03*
X590551Y446850D02*
D03*
X586614D02*
D03*
X590551Y452756D02*
D03*
X586614D02*
D03*
X566929Y474409D02*
D03*
Y478346D02*
D03*
Y482283D02*
D03*
Y486221D02*
D03*
Y492126D02*
D03*
Y521654D02*
D03*
Y525591D02*
D03*
Y529528D02*
D03*
Y533465D02*
D03*
Y537402D02*
D03*
X546335Y346539D02*
D03*
X546473Y360631D02*
D03*
X545276Y375984D02*
D03*
X541573Y315429D02*
D03*
X541495Y322055D02*
D03*
X541339Y328740D02*
D03*
X881890Y332677D02*
D03*
Y328740D02*
D03*
X913386Y318898D02*
D03*
X901575Y322835D02*
D03*
X881890Y316929D02*
D03*
Y320866D02*
D03*
X909449Y318898D02*
D03*
X905512D02*
D03*
X903543Y320866D02*
D03*
X881890Y324803D02*
D03*
X935039Y318898D02*
D03*
X946850Y338583D02*
D03*
X937008D02*
D03*
X927165D02*
D03*
X917323D02*
D03*
X907480D02*
D03*
X1177165Y332677D02*
D03*
Y336614D02*
D03*
Y340551D02*
D03*
X1159449Y332677D02*
D03*
Y336614D02*
D03*
Y340551D02*
D03*
X1194882Y498032D02*
D03*
X1190945D02*
D03*
X1187008D02*
D03*
X1190945Y464567D02*
D03*
X1187008D02*
D03*
X1183071D02*
D03*
X1216535Y440945D02*
D03*
X1212598D02*
D03*
X1208661D02*
D03*
X1216535Y407480D02*
D03*
X1212598D02*
D03*
X1208661D02*
D03*
X1216535Y375984D02*
D03*
Y387795D02*
D03*
X1212598Y375984D02*
D03*
Y387795D02*
D03*
X1208661Y375984D02*
D03*
Y387795D02*
D03*
X1167323Y279528D02*
D03*
X1173228Y287402D02*
D03*
X1159449Y285433D02*
D03*
X1057087Y287402D02*
D03*
X1068898D02*
D03*
X1086614Y277559D02*
D03*
X1078740Y273622D02*
D03*
X1100228Y289673D02*
D03*
X1098425Y309055D02*
D03*
X1118110Y314961D02*
D03*
X1114173Y332677D02*
D03*
X1098683Y331833D02*
D03*
X1088583Y316929D02*
D03*
X1210630Y275590D02*
D03*
X1200787D02*
D03*
X1161417D02*
D03*
X1153543D02*
D03*
X1129921Y259842D02*
D03*
X1094488D02*
D03*
X1074803Y275590D02*
D03*
X1051181D02*
D03*
X1005906Y269685D02*
D03*
X999385Y274797D02*
D03*
X990158Y275590D02*
D03*
X956693Y261811D02*
D03*
X948819D02*
D03*
X903543Y275590D02*
D03*
X893701D02*
D03*
X854331D02*
D03*
X844488D02*
D03*
X807087D02*
D03*
X797244D02*
D03*
X759842D02*
D03*
X748032D02*
D03*
X710630D02*
D03*
X700787D02*
D03*
X663386D02*
D03*
X653543D02*
D03*
X614173D02*
D03*
X604331D02*
D03*
X566929D02*
D03*
X557087D02*
D03*
X638000Y764000D02*
D03*
X630000D02*
D03*
X649500Y583500D02*
D03*
X652500D02*
D03*
X655500D02*
D03*
Y586500D02*
D03*
X652500D02*
D03*
X649500D02*
D03*
X655500Y589500D02*
D03*
X652500D02*
D03*
X649500D02*
D03*
X569000Y458500D02*
D03*
X566000D02*
D03*
X563000D02*
D03*
X569000Y461500D02*
D03*
X566000D02*
D03*
X563000D02*
D03*
X569000Y464500D02*
D03*
X566000D02*
D03*
X563000D02*
D03*
X727500Y583500D02*
D03*
X755000Y611000D02*
D03*
X996889Y536857D02*
D03*
X941295Y559408D02*
D03*
X939836Y578748D02*
D03*
X997000Y583500D02*
D03*
X1099319Y480500D02*
D03*
X1074500Y481000D02*
D03*
X1057500Y480500D02*
D03*
X1112500Y542681D02*
D03*
Y526000D02*
D03*
X1098878Y517745D02*
D03*
X1108296Y518181D02*
D03*
X1111751D02*
D03*
X1135865Y575402D02*
D03*
X1136000Y554500D02*
D03*
X1006500Y580000D02*
D03*
X997000Y557000D02*
D03*
X1007000Y553000D02*
D03*
X1006500Y533000D02*
D03*
X1006431Y505431D02*
D03*
X1020500Y456000D02*
D03*
X1074000Y454000D02*
D03*
X581000Y740000D02*
D03*
X639500Y743500D02*
D03*
X1106500Y571500D02*
D03*
X1028000Y608000D02*
D03*
Y616000D02*
D03*
X938638Y620583D02*
D03*
X1089520Y486500D02*
D03*
X1096542Y482042D02*
D03*
X1096500Y479000D02*
D03*
X1016000Y489500D02*
D03*
Y492362D02*
D03*
X1097000Y485684D02*
D03*
X1051000Y519681D02*
D03*
X1041500Y518500D02*
D03*
X1030500Y507500D02*
D03*
X1015421Y519779D02*
D03*
X940819Y617849D02*
D03*
X940000Y613087D02*
D03*
X1036763Y521319D02*
D03*
X1029500Y547000D02*
D03*
X939819Y591500D02*
D03*
Y585776D02*
D03*
Y588638D02*
D03*
Y600494D02*
D03*
Y603357D02*
D03*
Y597500D02*
D03*
Y594500D02*
D03*
Y575438D02*
D03*
X939500Y561638D02*
D03*
X939452Y568671D02*
D03*
X942000Y606500D02*
D03*
X935894Y675022D02*
D03*
X998000Y634500D02*
D03*
X1001000D02*
D03*
X1050575Y585500D02*
D03*
X1051724Y582861D02*
D03*
X1063812Y574280D02*
D03*
X1062397Y577091D02*
D03*
X1064579Y553007D02*
D03*
X1061581Y552948D02*
D03*
X1031098Y562369D02*
D03*
X1029955Y566597D02*
D03*
X1045685Y552315D02*
D03*
X1044381Y549767D02*
D03*
X939499Y571642D02*
D03*
X1034000Y551000D02*
D03*
X1030370Y550630D02*
D03*
X1031500Y537000D02*
D03*
X1104000Y569000D02*
D03*
X1149500Y533500D02*
D03*
X1101000Y565596D02*
D03*
X1178844Y497674D02*
D03*
X1179000Y494816D02*
D03*
X1199500Y495181D02*
D03*
X1222000Y488000D02*
D03*
X1045319Y532158D02*
D03*
X1047500Y529500D02*
D03*
X1090534Y530623D02*
D03*
X1092657Y528181D02*
D03*
X1090000Y526000D02*
D03*
X1047957Y525681D02*
D03*
X1136000Y536209D02*
D03*
X1050819Y525681D02*
D03*
X1146319Y466500D02*
D03*
X1165500Y513000D02*
D03*
X1212000Y571000D02*
D03*
X1207500Y547500D02*
D03*
X1162500Y513000D02*
D03*
X1209500Y576000D02*
D03*
X1204000Y548000D02*
D03*
X1159500Y513000D02*
D03*
X1145890Y492181D02*
D03*
X1143452Y490681D02*
D03*
X1033689Y521811D02*
D03*
X1138000Y511933D02*
D03*
X1052319Y542319D02*
D03*
X1088210Y499283D02*
D03*
X1092841Y499353D02*
D03*
X1098061Y563415D02*
D03*
X1081500Y501000D02*
D03*
X1076363Y501367D02*
D03*
X1097402Y499194D02*
D03*
X1045863Y563149D02*
D03*
X1097939Y554807D02*
D03*
X1097984Y557668D02*
D03*
X1097986Y560554D02*
D03*
X1056000Y570500D02*
D03*
X1053292Y572792D02*
D03*
X1005385Y608598D02*
D03*
X1005239Y605739D02*
D03*
X1005371Y602810D02*
D03*
X1004054Y634635D02*
D03*
X1097500Y544500D02*
D03*
X1097750Y547750D02*
D03*
X1040500Y479000D02*
D03*
X1028496D02*
D03*
X1057500Y553500D02*
D03*
X1054500Y553541D02*
D03*
X1043002Y563087D02*
D03*
X1097933Y551944D02*
D03*
X998500Y602681D02*
D03*
X1066000Y620000D02*
D03*
X987500Y703000D02*
D03*
X988701Y699701D02*
D03*
X983500Y714000D02*
D03*
X991123Y697500D02*
D03*
X938500Y685500D02*
D03*
X933500Y681000D02*
D03*
X1059869Y453063D02*
D03*
X1071339Y451023D02*
D03*
X1069000Y453000D02*
D03*
X1066501Y450839D02*
D03*
X1061961Y450744D02*
D03*
X1064231Y452970D02*
D03*
X1247500Y421000D02*
D03*
X1222000Y411000D02*
D03*
X1187797Y408000D02*
D03*
X1196383D02*
D03*
X1193521D02*
D03*
X1179140D02*
D03*
X1147362D02*
D03*
X1135807D02*
D03*
X1199246D02*
D03*
X1153140D02*
D03*
X1202138D02*
D03*
X1161807D02*
D03*
X1141584D02*
D03*
X1164695D02*
D03*
X1158918D02*
D03*
X1184918D02*
D03*
X1205000D02*
D03*
X1176251D02*
D03*
X1182029D02*
D03*
X1173362D02*
D03*
X1144473D02*
D03*
X1167584D02*
D03*
X1156029D02*
D03*
X1170473D02*
D03*
X1138695D02*
D03*
X1150251D02*
D03*
X1190659D02*
D03*
X1124500Y371138D02*
D03*
Y374000D02*
D03*
Y376913D02*
D03*
Y379776D02*
D03*
Y382638D02*
D03*
Y385500D02*
D03*
X1145411Y551071D02*
D03*
X1149059Y577000D02*
D03*
X1112000Y607500D02*
D03*
X1116000Y615500D02*
D03*
X1070000Y616000D02*
D03*
X1092000Y615500D02*
D03*
X1087764Y607236D02*
D03*
X1066000Y607000D02*
D03*
X1041414Y617974D02*
D03*
X1040000Y606842D02*
D03*
X577000Y740500D02*
D03*
X565000D02*
D03*
X936500Y672224D02*
D03*
Y666500D02*
D03*
Y660500D02*
D03*
Y663500D02*
D03*
Y657500D02*
D03*
Y669362D02*
D03*
X1016000Y486638D02*
D03*
X939500Y564500D02*
D03*
X1123000Y335000D02*
D03*
X1106500Y332319D02*
D03*
X1116500Y281500D02*
D03*
X1111500Y283500D02*
D03*
X1119395Y463406D02*
D03*
X1078843Y499937D02*
D03*
X1121524Y465319D02*
D03*
X1119500Y467500D02*
D03*
X1085819Y500855D02*
D03*
X1121500Y469830D02*
D03*
X1121416Y478555D02*
D03*
X1119460Y472185D02*
D03*
X1121500Y474192D02*
D03*
X1119000Y476500D02*
D03*
X1110435Y457355D02*
D03*
X1095181Y501000D02*
D03*
X1090500D02*
D03*
X1113000Y477181D02*
D03*
X1108000Y484500D02*
D03*
D182*
X643000Y565000D02*
Y586500D01*
X543500D02*
X643000D01*
X649500D01*
X563000Y461500D02*
X566000D01*
X543500D02*
X563000D01*
X649500Y586500D02*
X652500D01*
D183*
X543500Y461500D02*
Y518500D01*
Y385937D02*
Y461500D01*
Y586500D02*
Y602000D01*
Y518500D02*
Y586500D01*
X531563Y374000D02*
X543500Y385937D01*
X516000Y374000D02*
X531563D01*
X543500Y602000D02*
Y654500D01*
X500000Y602000D02*
X543500D01*
X543000Y518000D02*
X543500Y518500D01*
X516000Y518000D02*
X543000D01*
X516000Y508000D02*
Y518000D01*
Y498000D02*
Y508000D01*
Y488000D02*
Y498000D01*
X534409Y670000D02*
Y676500D01*
Y663591D02*
Y670000D01*
Y663591D02*
X543500Y654500D01*
D184*
X1112681Y542500D02*
X1136000D01*
M02*
