G04*
G04 #@! TF.GenerationSoftware,Altium Limited,Altium Designer,21.0.3 (12)*
G04*
G04 Layer_Color=16711935*
%FSLAX25Y25*%
%MOIN*%
G70*
G04*
G04 #@! TF.SameCoordinates,090C1E97-9EAB-41C8-8700-309E0BB34FF0*
G04*
G04*
G04 #@! TF.FilePolarity,Negative*
G04*
G01*
G75*
%ADD132R,0.08674X0.08674*%
%ADD133C,0.08674*%
%ADD134R,0.20800X0.12800*%
%ADD135O,0.20800X0.12800*%
%ADD136R,0.08674X0.16548*%
%ADD137R,0.16548X0.08674*%
%ADD138C,0.05918*%
%ADD139C,0.07887*%
%ADD140R,0.07887X0.07887*%
%ADD141R,0.08674X0.08674*%
%ADD142C,0.48044*%
%ADD143C,0.06706*%
%ADD144C,0.10642*%
%ADD145R,0.06706X0.06706*%
%ADD146C,0.07493*%
%ADD147R,0.07493X0.07493*%
%ADD148R,0.07493X0.07493*%
%ADD149O,0.05918X0.07690*%
%ADD150C,0.05800*%
%ADD151O,0.05524X0.07887*%
%ADD152O,0.05524X0.08674*%
%ADD153R,0.06706X0.06706*%
%ADD154R,0.07099X0.07099*%
%ADD155C,0.07099*%
%ADD156C,0.03753*%
D132*
X1143000Y252000D02*
D03*
X643000D02*
D03*
X1191000D02*
D03*
X547000D02*
D03*
X787000D02*
D03*
X595000D02*
D03*
X691000D02*
D03*
X739000D02*
D03*
X835000D02*
D03*
X883000D02*
D03*
X1047000D02*
D03*
X1095000D02*
D03*
X979000D02*
D03*
X931000D02*
D03*
D133*
X516000Y294000D02*
D03*
Y324000D02*
D03*
Y364000D02*
D03*
Y354000D02*
D03*
Y344000D02*
D03*
Y334000D02*
D03*
Y314000D02*
D03*
Y304000D02*
D03*
Y284000D02*
D03*
X1221000Y252000D02*
D03*
X1173000D02*
D03*
X1125000D02*
D03*
X1029000D02*
D03*
X1077000D02*
D03*
X1019000D02*
D03*
X913000D02*
D03*
X961000D02*
D03*
X865000D02*
D03*
X817000D02*
D03*
X721000D02*
D03*
X769000D02*
D03*
X673000D02*
D03*
X516000Y556000D02*
D03*
Y536000D02*
D03*
Y546000D02*
D03*
X625000Y252000D02*
D03*
X577000D02*
D03*
X663000D02*
D03*
X759000D02*
D03*
X1163000D02*
D03*
X1153000D02*
D03*
X797000D02*
D03*
X807000D02*
D03*
X749000D02*
D03*
X653000D02*
D03*
X893000D02*
D03*
X903000D02*
D03*
X1211000D02*
D03*
X1201000D02*
D03*
X845000D02*
D03*
X855000D02*
D03*
X1105000D02*
D03*
X1115000D02*
D03*
X1057000D02*
D03*
X1067000D02*
D03*
X989000D02*
D03*
X999000D02*
D03*
X1009000D02*
D03*
X516000Y412000D02*
D03*
Y402000D02*
D03*
Y392000D02*
D03*
Y460000D02*
D03*
Y450000D02*
D03*
Y440000D02*
D03*
Y508000D02*
D03*
Y498000D02*
D03*
Y488000D02*
D03*
X605000Y252000D02*
D03*
X615000D02*
D03*
X557000D02*
D03*
X567000D02*
D03*
X701000D02*
D03*
X711000D02*
D03*
X941000D02*
D03*
X951000D02*
D03*
D134*
X500000Y602000D02*
D03*
D135*
Y622000D02*
D03*
D136*
X534409Y670000D02*
D03*
X510000D02*
D03*
D137*
X523780Y651496D02*
D03*
D138*
X637000Y730449D02*
D03*
Y711551D02*
D03*
D139*
X784000Y659500D02*
D03*
D140*
X764315D02*
D03*
D141*
X516000Y374000D02*
D03*
Y566000D02*
D03*
Y422000D02*
D03*
Y470000D02*
D03*
Y518000D02*
D03*
D142*
X507874Y748032D02*
D03*
X1263780D02*
D03*
Y244094D02*
D03*
X507874D02*
D03*
D143*
X1255000Y381000D02*
D03*
Y411000D02*
D03*
Y371000D02*
D03*
X1265000Y381000D02*
D03*
X798000Y547000D02*
D03*
X1255000Y481000D02*
D03*
X1265000Y401000D02*
D03*
Y411000D02*
D03*
X1255000Y501000D02*
D03*
X1265000Y431000D02*
D03*
Y441000D02*
D03*
Y451000D02*
D03*
Y461000D02*
D03*
Y471000D02*
D03*
Y481000D02*
D03*
X1255000Y491000D02*
D03*
X1265000Y521000D02*
D03*
X1255000Y531000D02*
D03*
Y541000D02*
D03*
X1265000Y551000D02*
D03*
Y561000D02*
D03*
Y391000D02*
D03*
X1255000Y401000D02*
D03*
Y421000D02*
D03*
Y431000D02*
D03*
Y441000D02*
D03*
Y451000D02*
D03*
Y461000D02*
D03*
Y471000D02*
D03*
Y521000D02*
D03*
X1265000Y531000D02*
D03*
X1255000Y551000D02*
D03*
Y561000D02*
D03*
X1265000Y511000D02*
D03*
Y421000D02*
D03*
Y491000D02*
D03*
Y541000D02*
D03*
X1255000Y391000D02*
D03*
X1265000Y501000D02*
D03*
X1255000Y511000D02*
D03*
X1265000Y601000D02*
D03*
Y621000D02*
D03*
X1255000Y711000D02*
D03*
Y571000D02*
D03*
X1265000Y641000D02*
D03*
Y661000D02*
D03*
X1255000Y611000D02*
D03*
Y671000D02*
D03*
Y681000D02*
D03*
X818000Y547000D02*
D03*
X1265000Y701000D02*
D03*
Y711000D02*
D03*
X1255000Y631000D02*
D03*
Y651000D02*
D03*
X1265000Y611000D02*
D03*
Y631000D02*
D03*
Y681000D02*
D03*
X808000Y547000D02*
D03*
X1255000Y691000D02*
D03*
Y701000D02*
D03*
X1265000Y591000D02*
D03*
Y651000D02*
D03*
Y671000D02*
D03*
X1255000Y581000D02*
D03*
Y591000D02*
D03*
Y601000D02*
D03*
Y621000D02*
D03*
X1265000Y691000D02*
D03*
Y581000D02*
D03*
X1255000Y641000D02*
D03*
Y661000D02*
D03*
X1077000Y751000D02*
D03*
Y741000D02*
D03*
X1067000Y751000D02*
D03*
Y741000D02*
D03*
X1057000Y751000D02*
D03*
Y741000D02*
D03*
X1047000Y751000D02*
D03*
Y741000D02*
D03*
X1037000Y751000D02*
D03*
Y741000D02*
D03*
X1027000Y751000D02*
D03*
Y741000D02*
D03*
X1017000Y751000D02*
D03*
Y741000D02*
D03*
X1007000Y751000D02*
D03*
Y741000D02*
D03*
X997000Y751000D02*
D03*
Y741000D02*
D03*
X987000Y751000D02*
D03*
Y741000D02*
D03*
X977000Y751000D02*
D03*
Y741000D02*
D03*
X967000Y751000D02*
D03*
Y741000D02*
D03*
X957000Y751000D02*
D03*
Y741000D02*
D03*
X947000Y751000D02*
D03*
Y741000D02*
D03*
X937000Y751000D02*
D03*
Y741000D02*
D03*
X927000Y751000D02*
D03*
Y741000D02*
D03*
X917000Y751000D02*
D03*
Y741000D02*
D03*
X907000Y751000D02*
D03*
Y741000D02*
D03*
X897000Y751000D02*
D03*
Y741000D02*
D03*
X887000Y751000D02*
D03*
X1227000D02*
D03*
Y741000D02*
D03*
X1217000Y751000D02*
D03*
Y741000D02*
D03*
X1207000Y751000D02*
D03*
Y741000D02*
D03*
X1197000Y751000D02*
D03*
Y741000D02*
D03*
X1187000Y751000D02*
D03*
Y741000D02*
D03*
X1177000Y751000D02*
D03*
Y741000D02*
D03*
X1167000Y751000D02*
D03*
Y741000D02*
D03*
X1157000Y751000D02*
D03*
Y741000D02*
D03*
X1147000Y751000D02*
D03*
Y741000D02*
D03*
X1137000Y751000D02*
D03*
Y741000D02*
D03*
X1127000Y751000D02*
D03*
Y741000D02*
D03*
X1117000Y751000D02*
D03*
Y741000D02*
D03*
X1107000Y751000D02*
D03*
Y741000D02*
D03*
X1097000Y751000D02*
D03*
Y741000D02*
D03*
X1087000Y751000D02*
D03*
D144*
X861000Y754795D02*
D03*
Y729205D02*
D03*
D145*
X1265000Y371000D02*
D03*
Y571000D02*
D03*
D146*
Y342000D02*
D03*
Y352000D02*
D03*
Y332000D02*
D03*
Y312000D02*
D03*
Y292000D02*
D03*
Y302000D02*
D03*
X758000Y764000D02*
D03*
X748000D02*
D03*
X738000D02*
D03*
X708000D02*
D03*
X698000D02*
D03*
X718000D02*
D03*
X678000D02*
D03*
Y744000D02*
D03*
X698000D02*
D03*
X718000D02*
D03*
X708000D02*
D03*
X748000D02*
D03*
X728000D02*
D03*
X738000D02*
D03*
X931000Y430000D02*
D03*
X1255000Y332000D02*
D03*
Y342000D02*
D03*
Y352000D02*
D03*
Y292000D02*
D03*
Y302000D02*
D03*
Y312000D02*
D03*
X738000Y754000D02*
D03*
X748000D02*
D03*
X758000D02*
D03*
X678000D02*
D03*
X698000D02*
D03*
X708000D02*
D03*
X718000D02*
D03*
D147*
X1265000Y322000D02*
D03*
Y282000D02*
D03*
X1255000Y322000D02*
D03*
Y282000D02*
D03*
D148*
X728000Y764000D02*
D03*
X668000D02*
D03*
X688000D02*
D03*
X668000Y744000D02*
D03*
X688000D02*
D03*
X758000D02*
D03*
X941000Y430000D02*
D03*
X728000Y754000D02*
D03*
X668000D02*
D03*
X688000D02*
D03*
D149*
X648000Y764000D02*
D03*
X620000D02*
D03*
D150*
X643669Y753500D02*
D03*
X624272D02*
D03*
D151*
X587008Y765332D02*
D03*
X552992D02*
D03*
D152*
X587008Y748875D02*
D03*
X552992D02*
D03*
D153*
X788000Y547000D02*
D03*
X887000Y741000D02*
D03*
X1087000D02*
D03*
D154*
X978500Y460500D02*
D03*
X635000Y669000D02*
D03*
D155*
X988500Y470500D02*
D03*
Y460500D02*
D03*
X978500Y470500D02*
D03*
X645000Y679000D02*
D03*
Y669000D02*
D03*
X635000Y679000D02*
D03*
D156*
X581378Y750962D02*
D03*
X558622D02*
D03*
M02*
