M48
;Layer_Color=9474304
;FILE_FORMAT=2:5
INCH,LZ
;TYPE=PLATED
T1F00S00C0.01181
T2F00S00C0.02362
T4F00S00C0.02799
T6F00S00C0.03346
T7F00S00C0.03543
T8F00S00C0.04331
T9F00S00C0.04724
T10F00S00C0.05000
T11F00S00C0.20472
;TYPE=NON_PLATED
T12F00S00C0.02953
%
T01
X1094488Y0259842
X1129921
X11165Y02815
X11115Y02835
X1100228Y0289673
X1098425Y0309055
X1159449Y0285433
X1161417Y027559
X1153543
X1167323Y0279528
X1173228Y0287402
X1185039Y0291339
X1190945
X119685
X1202756
X1208661
X1214567
X1220472
X121063Y027559
X1200787
Y0311024
X1206693
X1212598
X1194882
X1188976
X1183071
X1086614Y0277559
X107874Y0273622
X1074803Y027559
X1068898Y0287402
X1057087
X1051181Y027559
X1005906Y0269685
X0999385Y0274797
X0990158Y027559
X0956693Y0261811
X0948819
X0903543Y027559
X0893701
X0854331
X0844488
X0807087
X0797244
X0759842
X0748032
X071063
X0700787
X0663386
X0653543
X0614173
X0604331
X0606299Y0287402
X0600394
X0594488
X0588583
X0582677
X0566929Y027559
X0557087
X0541573Y0315429
X0541495Y0322055
X0541339Y032874
X0546335Y0346539
X0546473Y0360631
X0545276Y0375984
X0551181Y0403543
Y040748
Y0411417
Y0415354
Y0419291
X0535433
Y0415354
Y0411417
Y040748
Y0403543
X0564961Y0429134
Y0435039
X0572835
Y0429134
X0586614Y044685
X0590551
Y0452756
X0586614
X0569Y04585
X0566
X0563
Y04615
X0566
X0569
Y04645
X0566
X0563
X0574803Y0464567
X0608268
X0616142
X0622047Y0437008
X0620079Y0433071
X0614173Y0427165
X0610236Y0423228
X0606299Y0419291
X0602362Y0415354
X061811
X0622047Y0419291
X0614173Y0411417
X059252Y0379921
Y0375984
Y0372047
Y036811
Y0364173
X0580709
Y036811
Y0372047
Y0375984
Y0379921
X0594488Y0314961
X0600394
X0606299
X0612205
X061811
X0624016
X0655512
X0683071
X0716535
X075
X065748Y0440945
X0647638
X0625984Y0423228
X088189Y0427165
Y0431102
Y0435039
Y0438976
Y0442913
Y044685
X0905512Y0442913
Y0438976
Y0435039
Y0431102
Y0427165
Y0423228
X0897638Y0397638
Y0391732
Y0385827
X088189
Y0391732
Y0397638
Y0332677
Y032874
Y0324803
Y0320866
Y0316929
X0901575Y0322835
X0903543Y0320866
X0905512Y0318898
X0909449
X0913386
X0935039
X0937008Y0338583
X0927165
X0917323
X090748
X0844488Y0314961
X0812992
X0781496
X0911417Y0450787
X090748Y0454724
X0925197Y0450787
Y0438976
X0937008
X0933071Y0442913
X0935039Y0458661
X0931102Y0462598
X0927165Y0466535
X0940945Y0454724
X094685
X0952756
X0954724Y046063
Y0435039
X096063
X0948819
X0972441Y0374016
X0976378Y0370079
X0980315Y0366142
X0984252Y0362205
X0976378Y0348425
X0972441Y0352362
X0968504Y0356299
X0964567Y0360236
X094685Y0338583
X1005906Y0320866
X1009842Y0324803
X101378Y032874
X1017717Y0332677
X1021653Y0336614
X1088583Y0316929
X109252Y0389764
X1088583Y0393701
X1084646Y0397638
X1080709Y0401575
X1076772Y0405512
X1080709Y0450787
X1086614
X1071339Y0451023
X1069Y0453
X1066501Y0450839
X1064231Y045297
X1059869Y0453063
X1061961Y0450744
X1074Y0454
X1080709Y0466535
X1057087
X1050983Y0460432
X1037204Y0446653
X10205Y0456
X1110435Y0457355
X1122047Y0456693
X1127953
Y0448819
X1122047
X1127953Y0440945
X1112205
X1106299
X1119395Y0463406
X1121524Y0465319
X11195Y04675
X1146319Y04665
X1183071Y0464567
X1187008
X1190945
X1208661Y0440945
X1212598
X1216535
Y040748
X1212598
X1208661
X1205Y0408
X1202138
X1199246
X1196383
X1193521
X1190659
X1187797
X1184918
X1182029
X117914
X1176251
X1173362
X1170473
X1167584
X1164695
X1161807
X1158918
X1156029
X115314
X1150251
X1147362
X1144473
X1141584
X1138695
X1135807
X11245Y03855
Y0382638
Y0379776
Y0376913
Y0374
Y0371138
X1114173Y0389764
X1110236Y0393701
X1106299Y0397638
X1102362Y0401575
X1098425Y0405512
X1094488Y0409449
X1096457Y0385827
X1098683Y0331833
X11065Y0332319
X1114173Y0332677
X1123Y0335
X111811Y0314961
X1159449Y0332677
Y0336614
Y0340551
X1177165
Y0336614
Y0332677
X1218504Y0312992
X1224031Y0314694
X1216535Y0375984
X1212598
X1208661
Y0387795
X1212598
X1216535
X1222Y0411
X12475Y0421
X1222Y0488
X11995Y0495181
X1194882Y0498032
X1190945
X1187008
X1178844Y0497674
X1179Y0494816
X1187008Y0507874
X1183071Y0521654
X1179134Y0525591
X11655Y0513
X11625
X11595
X1149606Y0509842
Y0505905
X1151575Y0498032
X1147638
X114589Y0492181
X1143452Y0490681
X1138Y0511933
X1136Y0536209
X11495Y05335
X1145411Y0551071
X1136Y05545
X1135865Y0575402
X1149059Y0577
X1147638Y0594488
X1153543
X1161417
X1141732
X1129921Y0598425
Y0604331
X1127953Y0610236
X1124016Y0616142
X1116Y06155
X1112Y06075
X11065Y05715
X1104Y0569
X1101Y0565596
X1098061Y0563415
X1097986Y0560554
X1097984Y0557668
X1097939Y0554807
X1097933Y0551944
X109775Y054775
X10975Y05445
X11125Y0542681
Y0526
X1111751Y0518181
X1108296
X1098878Y0517745
X1097402Y0499194
X1095181Y0501
X1103431Y0501516
X1112205Y05
X1108Y04845
X1097Y0485684
X1096542Y0482042
X10965Y0479
X1099319Y04805
X1113Y0477181
X1119Y04765
X1121416Y0478555
X11215Y0474192
X111946Y0472185
X11215Y046983
X1192913Y0541339
X1200787
X1208661
X12075Y05475
X1204Y0548
X1216535Y0547244
X1222441
X1230315
X1212Y0571
X12095Y0576
X1080709Y0582677
X1072835
X1062397Y0577091
X1063812Y057428
X1068898Y0568898
X107874Y0566929
Y0551181
X1070866
X1064579Y0553007
X1061581Y0552948
X10575Y05535
X10545Y0553541
X1045685Y0552315
X1044381Y0549767
X1034Y0551
X103037Y055063
X10295Y0547
X10315Y0537
X1033689Y0521811
X1036763Y0521319
X10415Y05185
X1051Y0519681
X1050819Y0525681
X1047957
X10475Y05295
X1045319Y0532158
X1052319Y0542319
X1064961Y053937
X1072835
X1090534Y0530623
X1092657Y0528181
X109Y0526
X1076772Y0513779
X1074803Y0507874
X1076363Y0501367
X1078843Y0499937
X10815Y0501
X1085819Y0500855
X108821Y0499283
X10905Y0501
X1092841Y0499353
X108952Y04865
X1086614Y0472441
X10745Y0481
X10575Y04805
X10405Y0479
X1028496
X1016Y0486638
Y04895
Y0492362
X1006431Y0505431
X1015421Y0519779
X10065Y0533
X0996889Y0536857
X0997Y0557
X1007Y0553
X10065Y058
X0997Y05835
X09985Y0602681
X1005371Y060281
X1005239Y0605739
X1005385Y0608598
X1005906Y0620079
X1011811
X1017717
X1023622
X1028Y0616
Y0608
X104Y0606842
X1041414Y0617974
X1066Y062
X107Y0616
X1066Y0607
X1087764Y0607236
X1092Y06155
X1050575Y05855
X1051724Y0582861
X1053292Y0572792
X1056Y05705
X1045863Y0563149
X1043002Y0563087
X1031098Y0562369
X1029955Y0566597
X10305Y05075
X1049213Y0501968
X1059055
X1066929Y0513779
X0975149Y0515337
X0975123Y0521664
X0952756Y0531496
Y0535433
Y053937
Y0543307
X0940945
Y0549213
X0941295Y0559408
X09395Y0561638
Y05645
X0939452Y0568671
X0939499Y0571642
X0939819Y0575438
X0939836Y0578748
X0939819Y0585776
Y0588638
Y05915
Y05945
Y05975
Y0600494
Y0603357
X0942Y06065
X094Y0613087
X0940819Y0617849
X0938638Y0620583
X0940945Y0537402
Y0531496
X094685Y0482283
X0958661
X0954724Y0470472
X0923228
X0927165Y0474409
X0931102Y0478346
X0915354Y0480315
X0919291Y0484252
X0923228Y0488189
X0925197Y0501968
Y0505905
Y0509842
Y0513779
X0935039
Y0509842
Y0505905
Y0517717
X0925197Y0545276
Y0551181
Y0559055
Y0572835
Y0580709
Y0588583
X0923228Y0612205
Y061811
Y0624016
X0903543Y0614173
X0885827
X0870079
X0856299
X084252
X0824803
X0809055
X080315Y0624016
X0793307
X0781496
X0817134Y0588303
X0817036Y058027
X0816987Y0572971
X0812992Y0555118
X080315
X0791339
X0822835
X088189Y0525591
X0885827Y0521654
X0889764Y0517717
X0893701Y0513779
X0877953Y0505905
X088189Y0501968
X0874016Y0509842
X0870079Y0513779
X0777559Y0545276
X0771654
X0765748
X0759842
X0753937
X0748032
X0742126
X0736221
X0728346
X0722441
X0716535
X071063
X0704724
X0698819
X0681102Y0543307
X0663386Y0541339
X0649606
X0641732Y053937
Y0543307
Y0549213
Y055315
Y0557087
X0629921
Y055315
Y0549213
Y0543307
Y053937
X0653543Y0527559
Y0523622
X0667323Y0529528
X067126
X0663386Y0498032
X0667323Y0480315
X067126
X065748Y0482283
X0647638
X0641732Y0498032
X0716535
X0722441Y0503937
X0728346Y0509842
X0718504Y0523622
X0712598Y0517717
X0706693Y0511811
X0702756Y0572835
X069685
X0690945
Y0582677
X069685
X0702756
X0683071Y0584646
X0679134
Y0590551
X0683071
X0681102Y0606299
Y0612205
X067126Y0610236
Y0606299
X0659449
Y0610236
X06555Y05895
Y05865
Y05835
X06525
X06495
Y05865
X06525
Y05895
X06495
X0639764Y0598425
X0633858
X0629921Y0594488
X0625984
X0722441Y0586614
X07275Y05835
X0732283Y0576772
X0740158Y0584646
X0751968Y0588583
X0755Y0611
X0734252Y0602362
X0728346Y0596457
X0779804Y0588381
X0779963Y0580239
X0780042Y0572731
X0622047Y0594488
X061811
X0614173
X0610236
X0606299
X0575351Y0596412
X0572835Y0596457
X0574803Y0622047
X0555118Y0620079
Y0624016
X0551181
Y0620079
X0535433
Y0624016
X0531496
Y0620079
X0529528Y0614173
X0533465
Y0610236
X0529528
X0525591
Y0614173
X0521654
X0517717
Y0610236
X0521654
Y0594488
X0517717
Y0590551
X0521654
X0525591
X0529528
X0533465
Y0594488
X0529528
X0525591
X0566929Y0537402
Y0533465
Y0529528
Y0525591
Y0521654
Y0492126
Y0486221
Y0482283
Y0478346
Y0474409
X0606299Y0476378
X0610236
X0614173
X0616142Y0482283
Y0492126
Y0503937
Y0517717
Y0527559
X0624016Y0523622
Y0511811
X0622047Y0535433
X0614173Y0543307
X0606299Y0537402
X0602362Y0549213
X0590551
X0586614Y0635827
X057874Y0633858
X0570866Y0635827
X0555118
Y0639764
X0551181
Y0635827
Y063189
Y0627953
X0555118
Y063189
Y0643701
X0551181
X0535433
Y0639764
Y0635827
Y063189
Y0627953
X0531496
Y063189
Y0635827
Y0639764
Y0643701
X0551181Y0667323
Y0673228
Y0679134
Y0685039
Y0690945
Y069685
X0566929Y0679134
X0570866Y0669291
X0586614Y0665354
X0596457
X0606299
X0614173
X0616142Y0681102
X0602362
X059252
X0582677
X0580709Y0643701
X059252
X0604331
X0616142
X0610236Y0635827
X0598425
X0622047
X0624016Y0673228
X0620079Y069685
X0614173
X0612205Y0692913
X0574803Y0718504
X0564961
X0565Y07405
X0557087Y0740158
X0577Y07405
X0581Y074
X0586614Y0740158
X06395Y07435
X0638Y0764
X063
X0659449Y0720472
Y0716535
X0669291
Y0720472
Y0704724
Y0700787
X0673228Y0694882
X0683071
X0690945
X0698819
X0706693
X0722441
X0730315
X0738189
X0746063
X0753937
X0779528Y0708661
X0769685Y0751968
X0724409Y0653543
Y0647638
Y0641732
X0702756
Y0647638
Y0653543
X0683071
X0687008Y0649606
X0690945Y0645669
X0683071Y0635827
X0679134Y0639764
X0675197Y0643701
X0667323
X0655512
X0641732
X0643701Y0635827
X0635827
X0627953Y0643701
X0647638Y0627953
X0659449Y0700787
Y0704724
X0818898
Y0700787
X0824803Y0685039
X0840551
X0856299
X0874016
X0891732
X0905512Y0675197
X0917323Y0663386
X09365Y06635
Y06665
Y0669362
Y0672224
X0935894Y0675022
X09335Y0681
X0919291Y0687008
X0911417Y069685
X0903543Y0704724
X0885827
X0866142
X0844488
X0838583Y0708661
X084252Y0751968
X0809055Y0685039
X080315Y0637795
Y0629921
X0793307
Y0637795
X0923228
Y0643701
Y0649606
Y063189
X09365Y06575
Y06605
X09385Y06855
X0988701Y0699701
X09875Y0703
X0991123Y06975
X09835Y0714
X1001968Y0681102
Y0675197
Y0669291
Y0663386
Y065748
Y0651575
Y0645669
X1001Y06345
X0998
X1004054Y0634635
X1027559Y063189
X1033465Y0637795
X103937Y0643701
X1045276Y0649606
X105315Y065748
X1057087Y0665354
Y0673228
Y0681102
Y0688976
Y069685
Y0702756
Y0708661
Y0714567
X1082677
Y0708661
Y0702756
Y069685
Y0688976
Y0683071
Y0675197
Y0667323
X1051181Y063189
X1125984
X113189Y0637795
X1137795Y0643701
X1143701Y0649606
X1214567Y0647638
X1230315Y0663386
Y0683071
X1192913Y0698819
X1198819Y0704724
X1204724Y071063
X121063Y0716535
X1187008Y0692913
T02
X0637Y0711551
Y0730449
T04
X10565Y0312
X0931Y02765
X05705Y0299
X0586381Y0314596
X06405Y0457
X08995Y03285
X08875Y0315
X0941Y03195
X09885Y031415
X09955Y03125
X1028Y0347
X1074803Y0322835
X11725Y03225
X1002Y04865
X0971
X0797677Y0531177
X0798Y0612
X06355Y05735
X0643Y0565
X0641753Y0507253
X059Y0561
X0552Y05615
X0553Y06025
X05655
X0552Y047
X0619Y0657
X06215Y0687
X0657Y06645
X0792Y0682
X08105Y07005
T06
X0624272Y07535
X0643669
T07
X1255Y0282
X1265
Y0292
Y0302
Y0312
X1255
Y0302
Y0292
X0931Y043
X0941
X09785Y04605
X09885
X1255Y0461
X1265
Y0451
Y0441
Y0431
X1255
Y0421
Y0411
X1265
Y0401
Y0391
Y0381
X1255
Y0371
X1265
Y0352
Y0342
Y0332
Y0322
X1255
Y0332
Y0342
Y0352
Y0391
Y0401
X1265Y0421
X1255Y0441
Y0451
Y0471
Y0481
X1265
Y0471
Y0491
X1255
Y0501
X1265
Y0511
Y0521
X1255
Y0531
Y0541
Y0551
X1265
Y0561
X1255
Y0571
X1265
Y0581
Y0591
Y0601
Y0611
Y0621
X1255
Y0611
Y0601
Y0591
Y0581
X1265Y0541
Y0531
X1255Y0511
X09885Y04705
X09785
X0818Y0547
X0808
X0798
X0788
X0764315Y06595
X0758Y0744
X0748
X0738
X0728
X0718
X0708
X0698
X0688
X0678
X0668
Y0754
Y0764
X0678
X0688
X0698
X0708
X0718
X0728
X0738
X0748
X0758
Y0754
X0748
X0738
X0728
X0718
X0708
X0698
X0688
X0678
X0645Y0679
Y0669
X0635
Y0679
X0784Y06595
X0887Y0741
X0897
X0907
X0917
X0927
X0937
Y0751
X0927
X0917
X0907
X0897
X0887
X0947
X0957
X0967
X0977
X0987
X0997
X1007
X1017
X1027
X1037
X1047
X1057
X1067
X1077
Y0741
X1067
X1057
X1047
X1037
X1027
X1017
X1007
X0997
X0987
X0977
X0967
X0957
X0947
X1087
Y0751
X1097
X1107
X1117
X1127
X1137
X1147
X1157
X1167
X1177
X1187
X1197
X1207
X1217
X1227
Y0741
X1217
X1207
X1197
X1187
X1177
X1167
X1157
X1147
X1137
X1127
X1117
X1107
X1097
X1255Y0711
X1265
Y0701
X1255
Y0691
Y0681
Y0671
X1265
Y0661
Y0651
Y0641
Y0631
X1255
Y0641
Y0651
Y0661
X1265Y0681
Y0691
T08
X1095Y0252
X1105
X1115
X1125
X1143
X1153
X1163
X1173
X1191
X1201
X1211
X1221
X1077
X1067
X1057
X1047
X1029
X1019
X1009
X0999
X0989
X0979
X0961
X0951
X0941
X0931
X0913
X0903
X0893
X0883
X0865
X0855
X0845
X0835
X0817
X0807
X0797
X0787
X0769
X0759
X0749
X0739
X0721
X0711
X0701
X0691
X0673
X0663
X0653
X0643
X0625
X0615
X0605
X0595
X0577
X0567
X0557
X0547
X0516Y0284
Y0294
Y0304
Y0314
Y0324
Y0334
Y0344
Y0354
Y0364
Y0374
Y0392
Y0402
Y0412
Y0422
Y044
Y045
Y046
Y047
Y0488
Y0498
Y0508
Y0518
Y0536
Y0546
Y0556
Y0566
T09
X0861Y0729205
Y0754795
T10
X05Y0602
Y0622
T11
X126378Y0244094
X0507874
Y0748032
X126378
T12
X0558622Y0750962
X0581378
M30
