G04*
G04 #@! TF.GenerationSoftware,Altium Limited,Altium Designer,21.0.3 (12)*
G04*
G04 Layer_Physical_Order=1*
G04 Layer_Color=255*
%FSLAX25Y25*%
%MOIN*%
G70*
G04*
G04 #@! TF.SameCoordinates,1AB0012E-6492-40AC-AB66-57420BB0589C*
G04*
G04*
G04 #@! TF.FilePolarity,Positive*
G04*
G01*
G75*
G04:AMPARAMS|DCode=16|XSize=31.5mil|YSize=27.56mil|CornerRadius=0mil|HoleSize=0mil|Usage=FLASHONLY|Rotation=180.000|XOffset=0mil|YOffset=0mil|HoleType=Round|Shape=Octagon|*
%AMOCTAGOND16*
4,1,8,-0.01575,0.00689,-0.01575,-0.00689,-0.00886,-0.01378,0.00886,-0.01378,0.01575,-0.00689,0.01575,0.00689,0.00886,0.01378,-0.00886,0.01378,-0.01575,0.00689,0.0*
%
%ADD16OCTAGOND16*%

%ADD17R,0.03150X0.02756*%
%ADD18R,0.03000X0.03000*%
%ADD19R,0.03200X0.03700*%
G04:AMPARAMS|DCode=20|XSize=37mil|YSize=32mil|CornerRadius=8mil|HoleSize=0mil|Usage=FLASHONLY|Rotation=270.000|XOffset=0mil|YOffset=0mil|HoleType=Round|Shape=RoundedRectangle|*
%AMROUNDEDRECTD20*
21,1,0.03700,0.01600,0,0,270.0*
21,1,0.02100,0.03200,0,0,270.0*
1,1,0.01600,-0.00800,-0.01050*
1,1,0.01600,-0.00800,0.01050*
1,1,0.01600,0.00800,0.01050*
1,1,0.01600,0.00800,-0.01050*
%
%ADD20ROUNDEDRECTD20*%
%ADD21R,0.06693X0.06693*%
%ADD33C,0.01500*%
%ADD34C,0.06693*%
%ADD35R,0.07874X0.07874*%
%ADD36C,0.07874*%
%ADD37R,0.06693X0.06693*%
%ADD38C,0.31496*%
%ADD39C,0.05000*%
D16*
X95807Y186000D02*
D03*
Y193000D02*
D03*
X97307Y290500D02*
D03*
Y300000D02*
D03*
X94153Y79500D02*
D03*
X94000Y86000D02*
D03*
D17*
X102500Y186000D02*
D03*
Y193000D02*
D03*
X104000Y290500D02*
D03*
Y300000D02*
D03*
X100847Y79500D02*
D03*
X100693Y86000D02*
D03*
D18*
X244118Y48500D02*
D03*
X239000D02*
D03*
D19*
X131500Y106500D02*
D03*
X138500D02*
D03*
X129500Y213500D02*
D03*
X136500D02*
D03*
X174500Y310000D02*
D03*
X181500D02*
D03*
D20*
X116000Y106500D02*
D03*
X122213D02*
D03*
X113500Y213500D02*
D03*
X119713D02*
D03*
X158000Y310000D02*
D03*
X164213D02*
D03*
D21*
X296000Y172000D02*
D03*
Y182000D02*
D03*
Y192000D02*
D03*
Y202000D02*
D03*
X230500Y183000D02*
D03*
Y173000D02*
D03*
Y193000D02*
D03*
Y203000D02*
D03*
X340500Y309500D02*
D03*
X199000Y202500D02*
D03*
X329500Y202500D02*
D03*
X119500Y280000D02*
D03*
X113500Y73500D02*
D03*
D33*
Y93500D02*
X127500Y79500D01*
X148000D02*
X172000Y55500D01*
X127500Y79500D02*
X148000D01*
X172000Y55500D02*
X251000D01*
X99504Y196500D02*
X121000D01*
X125000Y192500D02*
X199000D01*
X121000Y196500D02*
X125000Y192500D01*
X199000D02*
X230000D01*
X142000Y310000D02*
X150000Y302000D01*
X157154Y308931D02*
X158000Y309777D01*
X150000Y302000D02*
X156931Y308931D01*
X150000Y302000D02*
X150000D01*
X150000D02*
X155500Y296500D01*
X158000Y309777D02*
Y310000D01*
X156931Y308931D02*
X157154D01*
X119500Y310000D02*
X142000D01*
X155500Y296500D02*
X204500D01*
X231500Y34350D02*
X242000D01*
X228500Y37350D02*
X231500Y34350D01*
X242000D02*
X246650Y39000D01*
X113500Y205750D02*
X145250D01*
X102250D02*
X113500D01*
Y206000D02*
Y213500D01*
X113250Y205750D02*
X113500Y206000D01*
X94000Y197500D02*
X102250Y205750D01*
X145250D02*
X145500Y205500D01*
Y177500D02*
X150500Y172500D01*
X199000D01*
X138500Y106500D02*
X143000D01*
X181500Y310000D02*
X187000D01*
X136500Y213500D02*
X141500D01*
X100770Y82750D02*
Y85923D01*
Y79577D02*
Y82750D01*
X112750D02*
X113500Y83500D01*
X100770Y82750D02*
X112750D01*
X100693Y86000D02*
X100770Y85923D01*
Y79577D02*
X100847Y79500D01*
X104000Y300000D02*
X119500D01*
X104000Y280000D02*
X109500D01*
X102500D02*
X104000D01*
Y290500D01*
X102500Y189500D02*
Y193000D01*
Y186000D02*
Y189500D01*
X117500D01*
X63000Y194500D02*
X64122Y193378D01*
X95429D01*
X95807Y193000D01*
X96004D01*
X99504Y196500D01*
X96500Y73000D02*
X102500Y67000D01*
X79500Y73000D02*
X96500D01*
X102500Y67000D02*
X124500D01*
X73300Y66800D02*
X79500Y73000D01*
X94153Y79500D02*
X100154Y73500D01*
X113500D01*
X94153Y79500D02*
Y79500D01*
X124500Y67000D02*
X128500Y71000D01*
X142500D01*
X75500Y179000D02*
X108000D01*
X115000Y172000D01*
X142500Y71000D02*
X167500Y46000D01*
X226500D01*
X171000Y51500D02*
X241118D01*
X146000Y76500D02*
X171000Y51500D01*
X120500Y76500D02*
X146000D01*
X113500Y83500D02*
X120500Y76500D01*
X228500Y37350D02*
Y44000D01*
X226500Y46000D02*
X228500Y44000D01*
X246650Y39000D02*
X247000D01*
Y40405D01*
X244118Y43287D02*
Y48500D01*
Y43287D02*
X247000Y40405D01*
X237000Y39000D02*
Y46500D01*
X239000Y48500D01*
X169000D02*
X239000D01*
X144499Y73001D02*
X144499D01*
X169000Y48500D01*
X144000Y73500D02*
X144499Y73001D01*
X113500Y73500D02*
X144000D01*
X241118Y51500D02*
X244118Y48500D01*
X257000Y39000D02*
Y49500D01*
X251000Y55500D02*
X257000Y49500D01*
X122213Y106500D02*
X131500D01*
X113500Y103723D02*
X116000Y106223D01*
Y106500D01*
X113500Y93500D02*
Y103723D01*
X63400Y66800D02*
X73300D01*
X93297Y91500D02*
X95297Y93500D01*
X113500D01*
X76500Y91500D02*
X93297D01*
X71200Y96800D02*
X76500Y91500D01*
X63400Y96800D02*
X71200D01*
X94000Y86000D02*
X94077Y85923D01*
Y79577D02*
X94153Y79500D01*
X94077Y79577D02*
Y85923D01*
X77877Y76800D02*
X80577Y79500D01*
X94153D01*
X63400Y76800D02*
X77877D01*
X63400Y86800D02*
X63822Y86378D01*
X93622D01*
X94000Y86000D01*
X75500Y197500D02*
X94000D01*
X199000Y182500D02*
X199000Y182500D01*
X99504Y182500D02*
X199000D01*
X96004Y186000D02*
X99504Y182500D01*
X95807Y186000D02*
X96004D01*
X296500Y172500D02*
X329500D01*
X296000Y172000D02*
X296500Y172500D01*
X296000Y182000D02*
X296500Y182500D01*
X329500D01*
X296500Y192500D02*
X329500D01*
X296000Y192000D02*
X296500Y192500D01*
X329000Y202000D02*
X329500Y202500D01*
X296000Y202000D02*
X329000D01*
X230000Y172500D02*
X230500Y173000D01*
X199000Y172500D02*
X230000D01*
X199500Y203000D02*
X230500D01*
X199000Y202500D02*
X199500Y203000D01*
X199000Y182500D02*
X230000D01*
X230500Y183000D01*
X230000Y192500D02*
X230500Y193000D01*
X119713Y213500D02*
X129500D01*
X63000Y174500D02*
X71000D01*
X75500Y179000D01*
X68500Y204500D02*
X75500Y197500D01*
X63000Y204500D02*
X68500D01*
X64122Y185622D02*
X95429D01*
X63000Y184500D02*
X64122Y185622D01*
X95429D02*
X95807Y186000D01*
X137500Y280000D02*
X146500Y289000D01*
X119500Y280000D02*
X137500D01*
X146500Y289000D02*
Y293750D01*
X204500Y296500D02*
X217000Y284000D01*
Y276000D02*
Y284000D01*
X164213Y310000D02*
X174500D01*
X98000Y284500D02*
X102500Y280000D01*
X70000Y280000D02*
X74500Y284500D01*
X98000D01*
X63000Y280000D02*
X70000D01*
X106500Y310000D02*
X119500D01*
X100500Y304000D02*
X106500Y310000D01*
X69000Y304000D02*
X100500D01*
X63000Y310000D02*
X69000Y304000D01*
X97307Y295250D02*
X114250D01*
X119500Y290000D01*
X97307Y295250D02*
Y300000D01*
Y290500D02*
Y295250D01*
X63000Y300000D02*
X97307D01*
X63000Y290000D02*
X63250Y290250D01*
X97057D01*
X97307Y290500D01*
D34*
X340500Y299500D02*
D03*
Y289500D02*
D03*
Y279500D02*
D03*
X199000Y192500D02*
D03*
Y182500D02*
D03*
Y172500D02*
D03*
X329500Y192500D02*
D03*
Y182500D02*
D03*
Y172500D02*
D03*
X247000Y39000D02*
D03*
X257000D02*
D03*
X119500Y290000D02*
D03*
Y300000D02*
D03*
Y310000D02*
D03*
X113500Y83500D02*
D03*
Y93500D02*
D03*
D35*
X63000Y310000D02*
D03*
Y204500D02*
D03*
X63400Y96800D02*
D03*
D36*
X63000Y300000D02*
D03*
Y290000D02*
D03*
Y280000D02*
D03*
Y194500D02*
D03*
Y184500D02*
D03*
Y174500D02*
D03*
X63400Y86800D02*
D03*
Y76800D02*
D03*
Y66800D02*
D03*
D37*
X237000Y39000D02*
D03*
D38*
X86907Y325907D02*
D03*
Y262915D02*
D03*
X401868D02*
D03*
Y325907D02*
D03*
Y219608D02*
D03*
Y156616D02*
D03*
X86907D02*
D03*
Y219608D02*
D03*
Y113309D02*
D03*
Y50317D02*
D03*
X401868D02*
D03*
Y113309D02*
D03*
D39*
X145500Y205500D02*
D03*
Y177500D02*
D03*
X143000Y106500D02*
D03*
X115000Y172000D02*
D03*
X187000Y310000D02*
D03*
X141500Y213500D02*
D03*
X117500Y189500D02*
D03*
X124500Y67000D02*
D03*
X146500Y293750D02*
D03*
X217000Y276000D02*
D03*
X109500Y280000D02*
D03*
M02*
