G04*
G04 #@! TF.GenerationSoftware,Altium Limited,Altium Designer,21.0.3 (12)*
G04*
G04 Layer_Physical_Order=2*
G04 Layer_Color=16711680*
%FSLAX25Y25*%
%MOIN*%
G70*
G04*
G04 #@! TF.SameCoordinates,1AB0012E-6492-40AC-AB66-57420BB0589C*
G04*
G04*
G04 #@! TF.FilePolarity,Positive*
G04*
G01*
G75*
%ADD21R,0.06693X0.06693*%
%ADD33C,0.01500*%
%ADD34C,0.06693*%
%ADD35R,0.07874X0.07874*%
%ADD36C,0.07874*%
%ADD37R,0.06693X0.06693*%
%ADD38C,0.31496*%
%ADD39C,0.05000*%
G36*
X353417Y113000D02*
Y50181D01*
X353064Y49827D01*
X112221Y50008D01*
X112221Y69653D01*
X117347D01*
Y77346D01*
X112221D01*
Y78816D01*
X112721Y79219D01*
X113000Y79182D01*
Y83500D01*
Y87818D01*
X112721Y87781D01*
X112221Y88184D01*
Y89378D01*
X112721Y89723D01*
X113500Y89620D01*
X114504Y89753D01*
X115440Y90140D01*
X116243Y90757D01*
X116860Y91560D01*
X117247Y92496D01*
X117380Y93500D01*
X117247Y94504D01*
X116860Y95440D01*
X116243Y96243D01*
X115440Y96860D01*
X114504Y97247D01*
X113500Y97380D01*
X112721Y97277D01*
X112221Y97622D01*
X112221Y113000D01*
X353417Y113000D01*
D02*
G37*
G36*
X221749Y326000D02*
X222160Y325500D01*
X222061Y324500D01*
X222194Y323146D01*
X222589Y321845D01*
X223231Y320645D01*
X224093Y319593D01*
X225145Y318730D01*
X226345Y318089D01*
X227646Y317694D01*
X229000Y317561D01*
X230354Y317694D01*
X231655Y318089D01*
X232855Y318730D01*
X233907Y319593D01*
X234770Y320645D01*
X235411Y321845D01*
X235806Y323146D01*
X235939Y324500D01*
X235840Y325500D01*
X236251Y326000D01*
X306898Y326000D01*
X306984Y325812D01*
X307071Y325500D01*
X306050Y323834D01*
X305278Y321971D01*
X304808Y320010D01*
X304649Y318000D01*
X304808Y315990D01*
X305278Y314029D01*
X306050Y312166D01*
X307104Y310447D01*
X308413Y308913D01*
X309947Y307604D01*
X311666Y306550D01*
X313529Y305778D01*
X315490Y305308D01*
X317500Y305149D01*
X319510Y305308D01*
X321471Y305778D01*
X323334Y306550D01*
X325053Y307604D01*
X326587Y308913D01*
X327896Y310447D01*
X328950Y312166D01*
X329722Y314029D01*
X330192Y315990D01*
X330351Y318000D01*
X330192Y320010D01*
X329722Y321971D01*
X328950Y323834D01*
X327929Y325500D01*
X328015Y325812D01*
X328102Y326000D01*
X329749D01*
X330160Y325500D01*
X330061Y324500D01*
X330194Y323146D01*
X330589Y321845D01*
X331230Y320645D01*
X332093Y319593D01*
X333145Y318730D01*
X334345Y318089D01*
X335646Y317694D01*
X337000Y317561D01*
X338354Y317694D01*
X339655Y318089D01*
X340855Y318730D01*
X341907Y319593D01*
X342770Y320645D01*
X343411Y321845D01*
X343806Y323146D01*
X343939Y324500D01*
X343840Y325500D01*
X344251Y326000D01*
X353417D01*
Y263180D01*
X353064Y262827D01*
X344090Y262834D01*
X343939Y263000D01*
X343806Y264354D01*
X343411Y265655D01*
X342770Y266855D01*
X341907Y267907D01*
X340855Y268770D01*
X339655Y269411D01*
X338354Y269806D01*
X337000Y269939D01*
X335646Y269806D01*
X334345Y269411D01*
X333145Y268770D01*
X332093Y267907D01*
X331230Y266855D01*
X330589Y265655D01*
X330194Y264354D01*
X330061Y263000D01*
X329920Y262844D01*
X236016Y262915D01*
X235939Y263000D01*
X235806Y264354D01*
X235411Y265655D01*
X234770Y266855D01*
X233907Y267907D01*
X232855Y268770D01*
X231655Y269411D01*
X230354Y269806D01*
X229000Y269939D01*
X227646Y269806D01*
X226345Y269411D01*
X225145Y268770D01*
X224093Y267907D01*
X223231Y266855D01*
X222589Y265655D01*
X222194Y264354D01*
X222061Y263000D01*
X221993Y262925D01*
X112221Y263008D01*
X112221Y277796D01*
X112557Y278235D01*
X112910Y279086D01*
X113030Y280000D01*
X112910Y280914D01*
X112557Y281765D01*
X112221Y282204D01*
X112221Y326000D01*
X221749Y326000D01*
D02*
G37*
G36*
X353417Y219500D02*
Y156681D01*
X353064Y156327D01*
X112221Y156508D01*
X112221Y169091D01*
X112721Y169337D01*
X113235Y168943D01*
X114086Y168590D01*
X114500Y168536D01*
Y172000D01*
Y175464D01*
X114086Y175410D01*
X113235Y175057D01*
X112721Y174663D01*
X112221Y174909D01*
X112221Y219500D01*
X353417Y219500D01*
D02*
G37*
%LPC*%
G36*
X143500Y109964D02*
Y107000D01*
X146464D01*
X146410Y107414D01*
X146057Y108265D01*
X145496Y108996D01*
X144765Y109557D01*
X143914Y109910D01*
X143500Y109964D01*
D02*
G37*
G36*
X142500D02*
X142086Y109910D01*
X141235Y109557D01*
X140504Y108996D01*
X139943Y108265D01*
X139590Y107414D01*
X139536Y107000D01*
X142500D01*
Y109964D01*
D02*
G37*
G36*
X146464Y106000D02*
X143500D01*
Y103036D01*
X143914Y103090D01*
X144765Y103443D01*
X145496Y104004D01*
X146057Y104735D01*
X146410Y105586D01*
X146464Y106000D01*
D02*
G37*
G36*
X142500D02*
X139536D01*
X139590Y105586D01*
X139943Y104735D01*
X140504Y104004D01*
X141235Y103443D01*
X142086Y103090D01*
X142500Y103036D01*
Y106000D01*
D02*
G37*
G36*
X320281Y101849D02*
X318927Y101716D01*
X317625Y101321D01*
X316426Y100680D01*
X315374Y99817D01*
X314511Y98765D01*
X313870Y97566D01*
X313475Y96264D01*
X313342Y94910D01*
X313475Y93556D01*
X313870Y92255D01*
X314511Y91055D01*
X315374Y90004D01*
X316426Y89141D01*
X317625Y88499D01*
X318927Y88105D01*
X320281Y87971D01*
X321635Y88105D01*
X322936Y88499D01*
X324136Y89141D01*
X325187Y90004D01*
X326050Y91055D01*
X326692Y92255D01*
X327086Y93556D01*
X327220Y94910D01*
X327086Y96264D01*
X326692Y97566D01*
X326050Y98765D01*
X325187Y99817D01*
X324136Y100680D01*
X322936Y101321D01*
X321635Y101716D01*
X320281Y101849D01*
D02*
G37*
G36*
X172781D02*
X171427Y101716D01*
X170125Y101321D01*
X168926Y100680D01*
X167874Y99817D01*
X167011Y98765D01*
X166370Y97566D01*
X165975Y96264D01*
X165842Y94910D01*
X165975Y93556D01*
X166370Y92255D01*
X167011Y91055D01*
X167874Y90004D01*
X168926Y89141D01*
X170125Y88499D01*
X171427Y88105D01*
X172781Y87971D01*
X174135Y88105D01*
X175436Y88499D01*
X176636Y89141D01*
X177688Y90004D01*
X178550Y91055D01*
X179192Y92255D01*
X179587Y93556D01*
X179720Y94910D01*
X179587Y96264D01*
X179192Y97566D01*
X178550Y98765D01*
X177688Y99817D01*
X176636Y100680D01*
X175436Y101321D01*
X174135Y101716D01*
X172781Y101849D01*
D02*
G37*
G36*
X114000Y87818D02*
Y84000D01*
X117818D01*
X117735Y84635D01*
X117297Y85692D01*
X116600Y86600D01*
X115692Y87297D01*
X114635Y87735D01*
X114000Y87818D01*
D02*
G37*
G36*
X117818Y83000D02*
X114000D01*
Y79182D01*
X114635Y79265D01*
X115692Y79703D01*
X116600Y80400D01*
X117297Y81308D01*
X117735Y82365D01*
X117818Y83000D01*
D02*
G37*
G36*
X125000Y70464D02*
Y67500D01*
X127964D01*
X127910Y67914D01*
X127557Y68765D01*
X126996Y69496D01*
X126265Y70057D01*
X125414Y70410D01*
X125000Y70464D01*
D02*
G37*
G36*
X124000D02*
X123586Y70410D01*
X122735Y70057D01*
X122004Y69496D01*
X121443Y68765D01*
X121090Y67914D01*
X121036Y67500D01*
X124000D01*
Y70464D01*
D02*
G37*
G36*
X127964Y66500D02*
X125000D01*
Y63536D01*
X125414Y63590D01*
X126265Y63943D01*
X126996Y64504D01*
X127557Y65235D01*
X127910Y66086D01*
X127964Y66500D01*
D02*
G37*
G36*
X124000D02*
X121036D01*
X121090Y66086D01*
X121443Y65235D01*
X122004Y64504D01*
X122735Y63943D01*
X123586Y63590D01*
X124000Y63536D01*
Y66500D01*
D02*
G37*
G36*
X187500Y313464D02*
Y310500D01*
X190464D01*
X190410Y310914D01*
X190057Y311765D01*
X189496Y312496D01*
X188765Y313057D01*
X187914Y313410D01*
X187500Y313464D01*
D02*
G37*
G36*
X186500D02*
X186086Y313410D01*
X185235Y313057D01*
X184504Y312496D01*
X183943Y311765D01*
X183590Y310914D01*
X183536Y310500D01*
X186500D01*
Y313464D01*
D02*
G37*
G36*
X190464Y309500D02*
X187500D01*
Y306536D01*
X187914Y306590D01*
X188765Y306943D01*
X189496Y307504D01*
X190057Y308235D01*
X190410Y309086D01*
X190464Y309500D01*
D02*
G37*
G36*
X186500D02*
X183536D01*
X183590Y309086D01*
X183943Y308235D01*
X184504Y307504D01*
X185235Y306943D01*
X186086Y306590D01*
X186500Y306536D01*
Y309500D01*
D02*
G37*
G36*
X119500Y313880D02*
X118496Y313747D01*
X117560Y313360D01*
X116757Y312743D01*
X116140Y311940D01*
X115753Y311004D01*
X115620Y310000D01*
X115753Y308996D01*
X116140Y308060D01*
X116757Y307257D01*
X117560Y306640D01*
X118496Y306253D01*
X119500Y306120D01*
X120504Y306253D01*
X121440Y306640D01*
X122243Y307257D01*
X122860Y308060D01*
X123247Y308996D01*
X123380Y310000D01*
X123247Y311004D01*
X122860Y311940D01*
X122243Y312743D01*
X121440Y313360D01*
X120504Y313747D01*
X119500Y313880D01*
D02*
G37*
G36*
X120000Y304318D02*
Y300500D01*
X123818D01*
X123735Y301135D01*
X123297Y302192D01*
X122600Y303100D01*
X121692Y303797D01*
X120635Y304235D01*
X120000Y304318D01*
D02*
G37*
G36*
X119000D02*
X118365Y304235D01*
X117308Y303797D01*
X116400Y303100D01*
X115703Y302192D01*
X115265Y301135D01*
X115182Y300500D01*
X119000D01*
Y304318D01*
D02*
G37*
G36*
X123818Y299500D02*
X120000D01*
Y295682D01*
X120635Y295765D01*
X121692Y296203D01*
X122600Y296900D01*
X123297Y297808D01*
X123735Y298865D01*
X123818Y299500D01*
D02*
G37*
G36*
X119000D02*
X115182D01*
X115265Y298865D01*
X115703Y297808D01*
X116400Y296900D01*
X117308Y296203D01*
X118365Y295765D01*
X119000Y295682D01*
Y299500D01*
D02*
G37*
G36*
X344346Y313347D02*
X336653D01*
Y307456D01*
X324058Y294860D01*
X149287D01*
X149120Y295263D01*
X148640Y295890D01*
X148013Y296371D01*
X147283Y296673D01*
X146500Y296776D01*
X145717Y296673D01*
X144987Y296371D01*
X144360Y295890D01*
X143879Y295263D01*
X143577Y294533D01*
X143474Y293750D01*
X143577Y292967D01*
X143879Y292237D01*
X144234Y291775D01*
X144018Y291274D01*
X123135D01*
X122860Y291940D01*
X122243Y292743D01*
X121440Y293360D01*
X120504Y293747D01*
X119500Y293880D01*
X118496Y293747D01*
X117560Y293360D01*
X116757Y292743D01*
X116140Y291940D01*
X115753Y291004D01*
X115620Y290000D01*
X115753Y288996D01*
X116140Y288060D01*
X116757Y287257D01*
X117560Y286640D01*
X118496Y286253D01*
X119500Y286120D01*
X120504Y286253D01*
X121440Y286640D01*
X122243Y287257D01*
X122860Y288060D01*
X123135Y288725D01*
X331000D01*
X331488Y288823D01*
X331901Y289099D01*
X338830Y296028D01*
X339496Y295753D01*
X340500Y295620D01*
X341504Y295753D01*
X342440Y296140D01*
X343243Y296757D01*
X343860Y297560D01*
X344247Y298496D01*
X344380Y299500D01*
X344247Y300504D01*
X343860Y301440D01*
X343243Y302243D01*
X342440Y302860D01*
X341504Y303247D01*
X340500Y303380D01*
X339496Y303247D01*
X338560Y302860D01*
X337757Y302243D01*
X337140Y301440D01*
X336753Y300504D01*
X336620Y299500D01*
X336753Y298496D01*
X337028Y297831D01*
X330472Y291274D01*
X148982D01*
X148766Y291775D01*
X149120Y292237D01*
X149151Y292311D01*
X324586D01*
X325074Y292408D01*
X325487Y292685D01*
X338456Y305654D01*
X344346D01*
Y313347D01*
D02*
G37*
G36*
X341000Y293818D02*
Y290000D01*
X344818D01*
X344735Y290635D01*
X344297Y291692D01*
X343600Y292600D01*
X342692Y293297D01*
X341635Y293735D01*
X341000Y293818D01*
D02*
G37*
G36*
X340000D02*
X339365Y293735D01*
X338308Y293297D01*
X337400Y292600D01*
X336703Y291692D01*
X336265Y290635D01*
X336182Y290000D01*
X340000D01*
Y293818D01*
D02*
G37*
G36*
X344818Y289000D02*
X341000D01*
Y285182D01*
X341635Y285265D01*
X342692Y285703D01*
X343600Y286400D01*
X344297Y287308D01*
X344735Y288365D01*
X344818Y289000D01*
D02*
G37*
G36*
X340000D02*
X336182D01*
X336265Y288365D01*
X336703Y287308D01*
X337400Y286400D01*
X338308Y285703D01*
X339365Y285265D01*
X340000Y285182D01*
Y289000D01*
D02*
G37*
G36*
X340500Y283380D02*
X339496Y283247D01*
X338560Y282860D01*
X337757Y282243D01*
X337140Y281440D01*
X336865Y280774D01*
X220500D01*
X220012Y280678D01*
X219599Y280401D01*
X218022Y278824D01*
X217783Y278923D01*
X217000Y279026D01*
X216217Y278923D01*
X215487Y278621D01*
X214860Y278140D01*
X214380Y277513D01*
X214077Y276783D01*
X213974Y276000D01*
X214077Y275217D01*
X214380Y274487D01*
X214860Y273860D01*
X215487Y273379D01*
X216217Y273077D01*
X217000Y272974D01*
X217783Y273077D01*
X218513Y273379D01*
X219140Y273860D01*
X219620Y274487D01*
X219923Y275217D01*
X220026Y276000D01*
X219923Y276783D01*
X219824Y277022D01*
X221028Y278225D01*
X336865D01*
X337140Y277560D01*
X337757Y276757D01*
X338560Y276140D01*
X339496Y275753D01*
X340500Y275620D01*
X341504Y275753D01*
X342440Y276140D01*
X343243Y276757D01*
X343860Y277560D01*
X344247Y278496D01*
X344380Y279500D01*
X344247Y280504D01*
X343860Y281440D01*
X343243Y282243D01*
X342440Y282860D01*
X341504Y283247D01*
X340500Y283380D01*
D02*
G37*
G36*
X123346Y283846D02*
X115654D01*
Y276153D01*
X123346D01*
Y283846D01*
D02*
G37*
G36*
X142000Y216964D02*
Y214000D01*
X144964D01*
X144910Y214414D01*
X144557Y215265D01*
X143996Y215996D01*
X143265Y216557D01*
X142414Y216910D01*
X142000Y216964D01*
D02*
G37*
G36*
X141000D02*
X140586Y216910D01*
X139735Y216557D01*
X139004Y215996D01*
X138443Y215265D01*
X138090Y214414D01*
X138036Y214000D01*
X141000D01*
Y216964D01*
D02*
G37*
G36*
X144964Y213000D02*
X142000D01*
Y210036D01*
X142414Y210090D01*
X143265Y210443D01*
X143996Y211004D01*
X144557Y211735D01*
X144910Y212586D01*
X144964Y213000D01*
D02*
G37*
G36*
X141000D02*
X138036D01*
X138090Y212586D01*
X138443Y211735D01*
X139004Y211004D01*
X139735Y210443D01*
X140586Y210090D01*
X141000Y210036D01*
Y213000D01*
D02*
G37*
G36*
X203346Y206846D02*
X199500D01*
Y203000D01*
X203346D01*
Y206846D01*
D02*
G37*
G36*
X198500D02*
X194653D01*
Y203000D01*
X198500D01*
Y206846D01*
D02*
G37*
G36*
X333347Y206347D02*
X325654D01*
Y198653D01*
X333347D01*
Y206347D01*
D02*
G37*
G36*
X203346Y202000D02*
X199500D01*
Y198153D01*
X203346D01*
Y202000D01*
D02*
G37*
G36*
X198500D02*
X194653D01*
Y198153D01*
X198500D01*
Y202000D01*
D02*
G37*
G36*
X118000Y192964D02*
Y190000D01*
X120964D01*
X120910Y190414D01*
X120557Y191265D01*
X119996Y191996D01*
X119265Y192557D01*
X118414Y192910D01*
X118000Y192964D01*
D02*
G37*
G36*
X117000D02*
X116586Y192910D01*
X115735Y192557D01*
X115004Y191996D01*
X114443Y191265D01*
X114090Y190414D01*
X114036Y190000D01*
X117000D01*
Y192964D01*
D02*
G37*
G36*
X329500Y196380D02*
X328496Y196247D01*
X327560Y195860D01*
X326757Y195243D01*
X326140Y194440D01*
X325753Y193504D01*
X325620Y192500D01*
X325753Y191496D01*
X326140Y190560D01*
X326757Y189757D01*
X327560Y189140D01*
X328496Y188753D01*
X329500Y188620D01*
X330504Y188753D01*
X331440Y189140D01*
X332243Y189757D01*
X332860Y190560D01*
X333247Y191496D01*
X333380Y192500D01*
X333247Y193504D01*
X332860Y194440D01*
X332243Y195243D01*
X331440Y195860D01*
X330504Y196247D01*
X329500Y196380D01*
D02*
G37*
G36*
X199000Y196380D02*
X197996Y196247D01*
X197060Y195860D01*
X196257Y195243D01*
X195640Y194440D01*
X195253Y193504D01*
X195120Y192500D01*
X195253Y191496D01*
X195640Y190560D01*
X196257Y189757D01*
X197060Y189140D01*
X197996Y188752D01*
X199000Y188620D01*
X200004Y188752D01*
X200940Y189140D01*
X201743Y189757D01*
X202360Y190560D01*
X202747Y191496D01*
X202880Y192500D01*
X202747Y193504D01*
X202360Y194440D01*
X201743Y195243D01*
X200940Y195860D01*
X200004Y196247D01*
X199000Y196380D01*
D02*
G37*
G36*
X120964Y189000D02*
X118000D01*
Y186036D01*
X118414Y186090D01*
X119265Y186443D01*
X119996Y187004D01*
X120557Y187735D01*
X120910Y188586D01*
X120964Y189000D01*
D02*
G37*
G36*
X117000D02*
X114036D01*
X114090Y188586D01*
X114443Y187735D01*
X115004Y187004D01*
X115735Y186443D01*
X116586Y186090D01*
X117000Y186036D01*
Y189000D01*
D02*
G37*
G36*
X329500Y186380D02*
X328496Y186247D01*
X327560Y185860D01*
X326757Y185243D01*
X326140Y184440D01*
X325753Y183504D01*
X325620Y182500D01*
X325753Y181496D01*
X326140Y180560D01*
X326757Y179757D01*
X327560Y179140D01*
X328496Y178753D01*
X329500Y178620D01*
X330504Y178753D01*
X331440Y179140D01*
X332243Y179757D01*
X332860Y180560D01*
X333247Y181496D01*
X333380Y182500D01*
X333247Y183504D01*
X332860Y184440D01*
X332243Y185243D01*
X331440Y185860D01*
X330504Y186247D01*
X329500Y186380D01*
D02*
G37*
G36*
X199000D02*
X197996Y186247D01*
X197060Y185860D01*
X196257Y185243D01*
X195640Y184440D01*
X195253Y183504D01*
X195120Y182500D01*
X195253Y181496D01*
X195640Y180560D01*
X196257Y179757D01*
X197060Y179140D01*
X197996Y178753D01*
X199000Y178620D01*
X200004Y178753D01*
X200940Y179140D01*
X201743Y179757D01*
X202360Y180560D01*
X202747Y181496D01*
X202880Y182500D01*
X202747Y183504D01*
X202360Y184440D01*
X201743Y185243D01*
X200940Y185860D01*
X200004Y186247D01*
X199000Y186380D01*
D02*
G37*
G36*
X145500Y208526D02*
X144717Y208423D01*
X143987Y208120D01*
X143360Y207640D01*
X142879Y207013D01*
X142577Y206283D01*
X142474Y205500D01*
X142577Y204717D01*
X142879Y203987D01*
X143360Y203360D01*
X143987Y202880D01*
X144226Y202781D01*
Y180219D01*
X143987Y180121D01*
X143360Y179640D01*
X142879Y179013D01*
X142577Y178283D01*
X142474Y177500D01*
X142577Y176717D01*
X142879Y175987D01*
X143360Y175360D01*
X143987Y174880D01*
X144717Y174577D01*
X145500Y174474D01*
X146283Y174577D01*
X147013Y174880D01*
X147640Y175360D01*
X148120Y175987D01*
X148423Y176717D01*
X148526Y177500D01*
X148423Y178283D01*
X148120Y179013D01*
X147640Y179640D01*
X147013Y180121D01*
X146774Y180219D01*
Y202781D01*
X147013Y202880D01*
X147640Y203360D01*
X148120Y203987D01*
X148423Y204717D01*
X148526Y205500D01*
X148423Y206283D01*
X148120Y207013D01*
X147640Y207640D01*
X147013Y208120D01*
X146283Y208423D01*
X145500Y208526D01*
D02*
G37*
G36*
X330000Y176818D02*
Y173000D01*
X333818D01*
X333735Y173635D01*
X333297Y174692D01*
X332600Y175600D01*
X331692Y176297D01*
X330635Y176735D01*
X330000Y176818D01*
D02*
G37*
G36*
X329000D02*
X328365Y176735D01*
X327308Y176297D01*
X326400Y175600D01*
X325703Y174692D01*
X325265Y173635D01*
X325182Y173000D01*
X329000D01*
Y176818D01*
D02*
G37*
G36*
X115500Y175464D02*
Y172500D01*
X118464D01*
X118410Y172914D01*
X118057Y173765D01*
X117496Y174496D01*
X116765Y175057D01*
X115914Y175410D01*
X115500Y175464D01*
D02*
G37*
G36*
X199000Y176380D02*
X197996Y176247D01*
X197060Y175860D01*
X196257Y175243D01*
X195640Y174440D01*
X195253Y173504D01*
X195120Y172500D01*
X195253Y171496D01*
X195640Y170560D01*
X196257Y169757D01*
X197060Y169140D01*
X197996Y168753D01*
X199000Y168620D01*
X200004Y168753D01*
X200940Y169140D01*
X201743Y169757D01*
X202360Y170560D01*
X202747Y171496D01*
X202880Y172500D01*
X202747Y173504D01*
X202360Y174440D01*
X201743Y175243D01*
X200940Y175860D01*
X200004Y176247D01*
X199000Y176380D01*
D02*
G37*
G36*
X118464Y171500D02*
X115500D01*
Y168536D01*
X115914Y168590D01*
X116765Y168943D01*
X117496Y169504D01*
X118057Y170235D01*
X118410Y171086D01*
X118464Y171500D01*
D02*
G37*
G36*
X333818Y172000D02*
X330000D01*
Y168182D01*
X330635Y168265D01*
X331692Y168703D01*
X332600Y169400D01*
X333297Y170308D01*
X333735Y171365D01*
X333818Y172000D01*
D02*
G37*
G36*
X329000D02*
X325182D01*
X325265Y171365D01*
X325703Y170308D01*
X326400Y169400D01*
X327308Y168703D01*
X328365Y168265D01*
X329000Y168182D01*
Y172000D01*
D02*
G37*
%LPD*%
D21*
X340500Y309500D02*
D03*
X199000Y202500D02*
D03*
X329500Y202500D02*
D03*
X119500Y280000D02*
D03*
X113500Y73500D02*
D03*
D33*
X145500Y177500D02*
Y205500D01*
X324586Y293586D02*
X340500Y309500D01*
X146664Y293586D02*
X324586D01*
X109500Y280000D02*
Y290000D01*
X119500Y300000D01*
X146500Y293750D02*
X146664Y293586D01*
X331000Y290000D02*
X340500Y299500D01*
X119500Y290000D02*
X331000D01*
X220500Y279500D02*
X340500D01*
X217000Y276000D02*
X220500Y279500D01*
D34*
X340500Y299500D02*
D03*
Y289500D02*
D03*
Y279500D02*
D03*
X199000Y192500D02*
D03*
Y182500D02*
D03*
Y172500D02*
D03*
X329500Y192500D02*
D03*
Y182500D02*
D03*
Y172500D02*
D03*
X247000Y39000D02*
D03*
X257000D02*
D03*
X119500Y290000D02*
D03*
Y300000D02*
D03*
Y310000D02*
D03*
X113500Y83500D02*
D03*
Y93500D02*
D03*
D35*
X63000Y310000D02*
D03*
Y204500D02*
D03*
X63400Y96800D02*
D03*
D36*
X63000Y300000D02*
D03*
Y290000D02*
D03*
Y280000D02*
D03*
Y194500D02*
D03*
Y184500D02*
D03*
Y174500D02*
D03*
X63400Y86800D02*
D03*
Y76800D02*
D03*
Y66800D02*
D03*
D37*
X237000Y39000D02*
D03*
D38*
X86907Y325907D02*
D03*
Y262915D02*
D03*
X401868D02*
D03*
Y325907D02*
D03*
Y219608D02*
D03*
Y156616D02*
D03*
X86907D02*
D03*
Y219608D02*
D03*
Y113309D02*
D03*
Y50317D02*
D03*
X401868D02*
D03*
Y113309D02*
D03*
D39*
X145500Y205500D02*
D03*
Y177500D02*
D03*
X143000Y106500D02*
D03*
X115000Y172000D02*
D03*
X187000Y310000D02*
D03*
X141500Y213500D02*
D03*
X117500Y189500D02*
D03*
X124500Y67000D02*
D03*
X146500Y293750D02*
D03*
X217000Y276000D02*
D03*
X109500Y280000D02*
D03*
M02*
