M48
;Layer_Color=9474304
;FILE_FORMAT=2:5
INCH,LZ
;TYPE=PLATED
T1F00S00C0.02800
T2F00S00C0.03543
T3F00S00C0.04331
T4F00S00C0.20472
%
T01
X01245Y0067
X0143Y01065
X0217Y0276
X0187Y031
X01465Y029375
X01095Y028
X01415Y02135
X01455Y02055
Y01775
X0115Y0172
X01175Y01895
T02
X01135Y00735
Y00835
Y00935
X0237Y0039
X0247
X0257
X03295Y01725
Y01825
Y01925
Y02025
X03405Y02795
Y02895
Y02995
Y03095
X0199Y02025
Y01925
Y01825
Y01725
X01195Y028
Y029
Y03
Y031
T03
X00634Y00668
Y00768
Y00868
Y00968
X0063Y01745
Y01845
Y01945
Y02045
Y028
Y029
Y03
Y031
T04
X0086907Y0050317
Y0113309
X0401868
Y0050317
Y0156616
Y0219608
Y0262915
X0086907
Y0219608
Y0156616
Y0325907
X0401868
M30
