G04*
G04 #@! TF.GenerationSoftware,Altium Limited,Altium Designer,21.0.3 (12)*
G04*
G04 Layer_Color=8388736*
%FSLAX25Y25*%
%MOIN*%
G70*
G04*
G04 #@! TF.SameCoordinates,1AB0012E-6492-40AC-AB66-57420BB0589C*
G04*
G04*
G04 #@! TF.FilePolarity,Negative*
G04*
G01*
G75*
G04:AMPARAMS|DCode=22|XSize=39.5mil|YSize=35.56mil|CornerRadius=0mil|HoleSize=0mil|Usage=FLASHONLY|Rotation=180.000|XOffset=0mil|YOffset=0mil|HoleType=Round|Shape=Octagon|*
%AMOCTAGOND22*
4,1,8,-0.01975,0.00889,-0.01975,-0.00889,-0.01086,-0.01778,0.01086,-0.01778,0.01975,-0.00889,0.01975,0.00889,0.01086,0.01778,-0.01086,0.01778,-0.01975,0.00889,0.0*
%
%ADD22OCTAGOND22*%

%ADD23R,0.03950X0.03556*%
%ADD24R,0.03800X0.03800*%
%ADD25R,0.04000X0.04500*%
G04:AMPARAMS|DCode=26|XSize=45mil|YSize=40mil|CornerRadius=12mil|HoleSize=0mil|Usage=FLASHONLY|Rotation=270.000|XOffset=0mil|YOffset=0mil|HoleType=Round|Shape=RoundedRectangle|*
%AMROUNDEDRECTD26*
21,1,0.04500,0.01600,0,0,270.0*
21,1,0.02100,0.04000,0,0,270.0*
1,1,0.02400,-0.00800,-0.01050*
1,1,0.02400,-0.00800,0.01050*
1,1,0.02400,0.00800,0.01050*
1,1,0.02400,0.00800,-0.01050*
%
%ADD26ROUNDEDRECTD26*%
%ADD27R,0.07493X0.07493*%
%ADD28C,0.07493*%
%ADD29R,0.08674X0.08674*%
%ADD30C,0.08674*%
%ADD31R,0.07493X0.07493*%
%ADD32C,0.32296*%
D22*
X95807Y186000D02*
D03*
Y193000D02*
D03*
X97307Y290500D02*
D03*
Y300000D02*
D03*
X94153Y79500D02*
D03*
X94000Y86000D02*
D03*
D23*
X102500Y186000D02*
D03*
Y193000D02*
D03*
X104000Y290500D02*
D03*
Y300000D02*
D03*
X100847Y79500D02*
D03*
X100693Y86000D02*
D03*
D24*
X244118Y48500D02*
D03*
X239000D02*
D03*
D25*
X131500Y106500D02*
D03*
X138500D02*
D03*
X129500Y213500D02*
D03*
X136500D02*
D03*
X174500Y310000D02*
D03*
X181500D02*
D03*
D26*
X116000Y106500D02*
D03*
X122213D02*
D03*
X113500Y213500D02*
D03*
X119713D02*
D03*
X158000Y310000D02*
D03*
X164213D02*
D03*
D27*
X296000Y172000D02*
D03*
Y182000D02*
D03*
Y192000D02*
D03*
Y202000D02*
D03*
X230500Y183000D02*
D03*
Y173000D02*
D03*
Y193000D02*
D03*
Y203000D02*
D03*
X340500Y309500D02*
D03*
X199000Y202500D02*
D03*
X329500Y202500D02*
D03*
X119500Y280000D02*
D03*
X113500Y73500D02*
D03*
D28*
X340500Y299500D02*
D03*
Y289500D02*
D03*
Y279500D02*
D03*
X199000Y192500D02*
D03*
Y182500D02*
D03*
Y172500D02*
D03*
X329500Y192500D02*
D03*
Y182500D02*
D03*
Y172500D02*
D03*
X247000Y39000D02*
D03*
X257000D02*
D03*
X119500Y290000D02*
D03*
Y300000D02*
D03*
Y310000D02*
D03*
X113500Y83500D02*
D03*
Y93500D02*
D03*
D29*
X63000Y310000D02*
D03*
Y204500D02*
D03*
X63400Y96800D02*
D03*
D30*
X63000Y300000D02*
D03*
Y290000D02*
D03*
Y280000D02*
D03*
Y194500D02*
D03*
Y184500D02*
D03*
Y174500D02*
D03*
X63400Y86800D02*
D03*
Y76800D02*
D03*
Y66800D02*
D03*
D31*
X237000Y39000D02*
D03*
D32*
X86907Y325907D02*
D03*
Y262915D02*
D03*
X401868D02*
D03*
Y325907D02*
D03*
Y219608D02*
D03*
Y156616D02*
D03*
X86907D02*
D03*
Y219608D02*
D03*
Y113309D02*
D03*
Y50317D02*
D03*
X401868D02*
D03*
Y113309D02*
D03*
M02*
