G04*
G04 #@! TF.GenerationSoftware,Altium Limited,Altium Designer,21.0.3 (12)*
G04*
G04 Layer_Color=16711935*
%FSLAX25Y25*%
%MOIN*%
G70*
G04*
G04 #@! TF.SameCoordinates,1AB0012E-6492-40AC-AB66-57420BB0589C*
G04*
G04*
G04 #@! TF.FilePolarity,Negative*
G04*
G01*
G75*
%ADD27R,0.07493X0.07493*%
%ADD28C,0.07493*%
%ADD29R,0.08674X0.08674*%
%ADD30C,0.08674*%
%ADD31R,0.07493X0.07493*%
%ADD32C,0.32296*%
D27*
X340500Y309500D02*
D03*
X199000Y202500D02*
D03*
X329500Y202500D02*
D03*
X119500Y280000D02*
D03*
X113500Y73500D02*
D03*
D28*
X340500Y299500D02*
D03*
Y289500D02*
D03*
Y279500D02*
D03*
X199000Y192500D02*
D03*
Y182500D02*
D03*
Y172500D02*
D03*
X329500Y192500D02*
D03*
Y182500D02*
D03*
Y172500D02*
D03*
X247000Y39000D02*
D03*
X257000D02*
D03*
X119500Y290000D02*
D03*
Y300000D02*
D03*
Y310000D02*
D03*
X113500Y83500D02*
D03*
Y93500D02*
D03*
D29*
X63000Y310000D02*
D03*
Y204500D02*
D03*
X63400Y96800D02*
D03*
D30*
X63000Y300000D02*
D03*
Y290000D02*
D03*
Y280000D02*
D03*
Y194500D02*
D03*
Y184500D02*
D03*
Y174500D02*
D03*
X63400Y86800D02*
D03*
Y76800D02*
D03*
Y66800D02*
D03*
D31*
X237000Y39000D02*
D03*
D32*
X86907Y325907D02*
D03*
Y262915D02*
D03*
X401868D02*
D03*
Y325907D02*
D03*
Y219608D02*
D03*
Y156616D02*
D03*
X86907D02*
D03*
Y219608D02*
D03*
Y113309D02*
D03*
Y50317D02*
D03*
X401868D02*
D03*
Y113309D02*
D03*
M02*
