G04*
G04 #@! TF.GenerationSoftware,Altium Limited,Altium Designer,21.0.3 (12)*
G04*
G04 Layer_Color=16711935*
%FSLAX25Y25*%
%MOIN*%
G70*
G04*
G04 #@! TF.SameCoordinates,1AB0012E-6492-40AC-AB66-57420BB0589C*
G04*
G04*
G04 #@! TF.FilePolarity,Positive*
G04*
G01*
G75*
%ADD14C,0.01000*%
D14*
X326186Y94910D02*
G03*
X326186Y94910I-5906J0D01*
G01*
X178686D02*
G03*
X178686Y94910I-5906J0D01*
G01*
X329311Y318000D02*
G03*
X329311Y318000I-11811J0D01*
G01*
X234906Y263000D02*
G03*
X234906Y263000I-5906J0D01*
G01*
Y324500D02*
G03*
X234906Y324500I-5906J0D01*
G01*
X342905D02*
G03*
X342905Y324500I-5906J0D01*
G01*
Y263000D02*
G03*
X342905Y263000I-5906J0D01*
G01*
X27852Y48348D02*
G03*
X43600Y32600I15748J0D01*
G01*
Y343624D02*
G03*
X27852Y327876I0J-15748D01*
G01*
X403836Y32600D02*
G03*
X419584Y48348I0J15748D01*
G01*
X419584Y327876D02*
G03*
X403836Y343624I-15748J0D01*
G01*
X403836Y245198D02*
G03*
X419584Y260946I0J15748D01*
G01*
X419584Y223545D02*
G03*
X403836Y239293I-15748J0D01*
G01*
X403836Y138899D02*
G03*
X419584Y154647I0J15748D01*
G01*
X419584Y115277D02*
G03*
X403836Y131025I-15748J0D01*
G01*
X27852Y260946D02*
G03*
X43600Y245198I15748J0D01*
G01*
X27852Y154647D02*
G03*
X43600Y138899I15748J0D01*
G01*
Y131025D02*
G03*
X27852Y115277I0J-15748D01*
G01*
X43600Y239293D02*
G03*
X27852Y223545I0J-15748D01*
G01*
X161852Y242088D02*
G03*
X161852Y242088I-6299J0D01*
G01*
X178852D02*
G03*
X178852Y242088I-6299J0D01*
G01*
X195852D02*
G03*
X195852Y242088I-6299J0D01*
G01*
X212852D02*
G03*
X212852Y242088I-6299J0D01*
G01*
X229852D02*
G03*
X229852Y242088I-6299J0D01*
G01*
X246852D02*
G03*
X246852Y242088I-6299J0D01*
G01*
X263852D02*
G03*
X263852Y242088I-6299J0D01*
G01*
X280852D02*
G03*
X280852Y242088I-6299J0D01*
G01*
X297852D02*
G03*
X297852Y242088I-6299J0D01*
G01*
Y135088D02*
G03*
X297852Y135088I-6299J0D01*
G01*
X280852D02*
G03*
X280852Y135088I-6299J0D01*
G01*
X263852D02*
G03*
X263852Y135088I-6299J0D01*
G01*
X246852D02*
G03*
X246852Y135088I-6299J0D01*
G01*
X229852D02*
G03*
X229852Y135088I-6299J0D01*
G01*
X212852D02*
G03*
X212852Y135088I-6299J0D01*
G01*
X195852D02*
G03*
X195852Y135088I-6299J0D01*
G01*
X178852D02*
G03*
X178852Y135088I-6299J0D01*
G01*
X161852D02*
G03*
X161852Y135088I-6299J0D01*
G01*
X43600Y343624D02*
X403836D01*
X43600Y32600D02*
X403836D01*
X419584Y48348D02*
Y52285D01*
X43600Y245198D02*
X145962D01*
X43600Y239293D02*
X145962D01*
X43600Y138899D02*
X145962D01*
X43600Y131025D02*
X145962D01*
Y239293D02*
Y245198D01*
Y131025D02*
Y138899D01*
X301474Y131025D02*
Y138899D01*
X403836Y138899D01*
X301474Y131025D02*
X403836D01*
X27852Y260946D02*
Y327876D01*
Y154647D02*
Y223545D01*
Y48348D02*
Y115277D01*
X419584Y52285D02*
Y115277D01*
Y52285D02*
X419584Y52285D01*
X419584Y154647D02*
Y223545D01*
X419584Y223545D02*
X419584Y223545D01*
Y260946D02*
Y327876D01*
X419584Y327876D02*
X419584Y327876D01*
X301474Y245198D02*
X403836D01*
X301474Y239293D02*
X403836D01*
X301474D02*
Y245198D01*
M02*
