G04*
G04 #@! TF.GenerationSoftware,Altium Limited,Altium Designer,21.0.3 (12)*
G04*
G04 Layer_Physical_Order=1*
G04 Layer_Color=255*
%FSLAX25Y25*%
%MOIN*%
G70*
G04*
G04 #@! TF.SameCoordinates,439F85FB-2BEC-417C-9B7D-EA87D0E056F6*
G04*
G04*
G04 #@! TF.FilePolarity,Positive*
G04*
G01*
G75*
%ADD12C,0.01000*%
%ADD17R,0.04000X0.03150*%
G04:AMPARAMS|DCode=18|XSize=37mil|YSize=32mil|CornerRadius=8mil|HoleSize=0mil|Usage=FLASHONLY|Rotation=270.000|XOffset=0mil|YOffset=0mil|HoleType=Round|Shape=RoundedRectangle|*
%AMROUNDEDRECTD18*
21,1,0.03700,0.01600,0,0,270.0*
21,1,0.02100,0.03200,0,0,270.0*
1,1,0.01600,-0.00800,-0.01050*
1,1,0.01600,-0.00800,0.01050*
1,1,0.01600,0.00800,0.01050*
1,1,0.01600,0.00800,-0.01050*
%
%ADD18ROUNDEDRECTD18*%
%ADD19R,0.03200X0.03700*%
%ADD20R,0.03000X0.03000*%
%ADD21R,0.03150X0.02756*%
G04:AMPARAMS|DCode=22|XSize=31.5mil|YSize=27.56mil|CornerRadius=0mil|HoleSize=0mil|Usage=FLASHONLY|Rotation=180.000|XOffset=0mil|YOffset=0mil|HoleType=Round|Shape=Octagon|*
%AMOCTAGOND22*
4,1,8,-0.01575,0.00689,-0.01575,-0.00689,-0.00886,-0.01378,0.00886,-0.01378,0.01575,-0.00689,0.01575,0.00689,0.00886,0.01378,-0.00886,0.01378,-0.01575,0.00689,0.0*
%
%ADD22OCTAGOND22*%

%ADD23R,0.02165X0.00984*%
%ADD24R,0.03000X0.03500*%
%ADD25R,0.05512X0.02362*%
%ADD26R,0.03000X0.04000*%
%ADD27R,0.03150X0.04000*%
%ADD28O,0.07480X0.01400*%
%ADD29R,0.07480X0.01400*%
%ADD30R,0.04000X0.03000*%
%ADD31R,0.05000X0.02000*%
%ADD53C,0.02362*%
%ADD54C,0.01181*%
%ADD55C,0.06693*%
%ADD56R,0.06693X0.06693*%
%ADD57C,0.05512*%
%ADD58C,0.31496*%
%ADD59R,0.07874X0.07874*%
%ADD60C,0.07874*%
%ADD61C,0.02362*%
%ADD62C,0.05000*%
D12*
X240500Y286000D02*
X244500D01*
X294000Y405559D02*
X300803D01*
X288647D02*
X294000D01*
X336964Y410500D02*
X337000Y410536D01*
X332500Y410500D02*
X336964D01*
X343240Y301740D02*
X353480Y291500D01*
X397075D01*
X401575Y296000D02*
X402000D01*
X397075Y291500D02*
X401575Y296000D01*
X231000Y181500D02*
X235000D01*
X249000Y209000D02*
X254500D01*
X249000Y200000D02*
X254000D01*
X248000Y190000D02*
X254000D01*
X401000Y303000D02*
X404319D01*
X353000Y307000D02*
X364980D01*
X366012Y308032D01*
X366587D01*
X238000Y317500D02*
X241000D01*
X237846Y327500D02*
X241000D01*
X346000Y428500D02*
Y433000D01*
X246000Y392000D02*
X250500D01*
X262000Y420236D02*
X262118Y420118D01*
X265382D01*
X265500Y420000D01*
X262118Y412118D02*
X264882D01*
X262000Y412236D02*
X262118Y412118D01*
X264882D02*
X265000Y412000D01*
X275000Y397000D02*
X275369D01*
X275884Y397516D02*
X279803D01*
X275369Y397000D02*
X275884Y397516D01*
X275853Y404516D02*
X279803D01*
X275369Y405000D02*
X275853Y404516D01*
X275000Y405000D02*
X275369D01*
X276369Y418000D02*
X276884Y418516D01*
X276000Y418000D02*
X276369D01*
X276884Y418516D02*
X280803D01*
X296526Y400441D02*
X300803D01*
X294173Y398088D02*
X294173D01*
X296526Y400441D01*
X242307Y200000D02*
Y203000D01*
X262213Y201000D02*
Y206213D01*
Y201000D02*
X262425D01*
X262000D02*
X262213D01*
Y206213D02*
X264500Y208500D01*
X263500Y202075D02*
Y202500D01*
X262425Y201000D02*
X263500Y202075D01*
X264500Y208500D02*
X394500Y208500D01*
X261575Y201000D02*
X262000D01*
X394500Y208500D02*
X403000Y200000D01*
X269300Y189700D02*
X269500Y189500D01*
X269300Y189700D02*
Y201000D01*
X178000Y203000D02*
Y207500D01*
X175028Y210472D02*
X178000Y207500D01*
Y203000D02*
X203000D01*
X141732Y210472D02*
X175028D01*
X203000Y203000D02*
X242000D01*
X142260Y201000D02*
X176000D01*
X178000Y203000D01*
X141732Y200472D02*
X142260Y201000D01*
X210500Y309500D02*
Y322000D01*
X192032Y307000D02*
X208000D01*
X210500Y309500D01*
X203000Y322000D02*
X210500D01*
X189032Y310000D02*
X192032Y307000D01*
X231307Y317500D02*
X231504D01*
X231110D02*
X231307D01*
X144961Y310000D02*
X186643D01*
X189032Y310000D01*
X141732Y306772D02*
X144961Y310000D01*
X189000Y312000D02*
X203000D01*
X189000Y312000D02*
Y322500D01*
Y312000D02*
X189000Y312000D01*
X146504D02*
X189000D01*
X141732Y316772D02*
X146504Y312000D01*
X235500Y323000D02*
X388925D01*
X231153Y327346D02*
X235500Y323000D01*
X388925D02*
X393925Y318000D01*
X235504Y321500D02*
X382000D01*
X231504Y317500D02*
X235504Y321500D01*
X382000D02*
X383500Y320000D01*
X210500Y322000D02*
X226610D01*
X231110Y317500D01*
X260500Y202075D02*
Y202414D01*
X242307Y203000D02*
X259914D01*
X260500Y202075D02*
X261575Y201000D01*
X259914Y203000D02*
X260500Y202414D01*
X242000Y203000D02*
X242307D01*
Y203307D02*
Y209000D01*
X242000Y203000D02*
X242307Y203307D01*
X394275Y296000D02*
X394700D01*
X388500D02*
X394275D01*
X386500Y298000D02*
X388500Y296000D01*
X393925Y318000D02*
X394350D01*
X231153Y327346D02*
Y327500D01*
X227369Y310500D02*
X227869Y310000D01*
X227000Y310500D02*
X227369D01*
X227869Y310000D02*
X353000D01*
X194000Y327500D02*
X231153D01*
X189000Y322500D02*
X194000Y327500D01*
X401650Y310000D02*
Y318000D01*
X406500Y300500D02*
Y305575D01*
X401650Y310000D02*
X402075D01*
X406500Y305575D01*
X402000Y296000D02*
X402425D01*
X403500Y297075D01*
Y297500D01*
X406500Y300500D01*
X395882Y303000D02*
Y308893D01*
X394775Y310000D02*
X395882Y308893D01*
X394350Y310000D02*
X394775D01*
X382243Y308032D02*
X387500Y302775D01*
X377413Y308032D02*
X382243D01*
X387500Y302775D02*
Y302775D01*
Y302775D02*
X394275Y296000D01*
X377413Y310000D02*
X394350D01*
X387893Y311968D02*
X393925Y318000D01*
X377413Y311968D02*
X387893D01*
X353000Y310000D02*
X366587D01*
X366012Y311968D02*
X366587D01*
X353000Y313000D02*
X364980D01*
X366012Y311968D01*
X215500Y426500D02*
X307500D01*
X203000Y432000D02*
X210000D01*
X215500Y426500D01*
X307500D02*
X310500Y423500D01*
X255504Y420236D02*
X259768Y424500D01*
X306500D01*
X308500Y422500D01*
X272500D02*
X291500D01*
X266000Y416000D02*
X272500Y422500D01*
X291500D02*
X295645Y418355D01*
X206846Y439153D02*
X217500Y428500D01*
X309500D02*
X322128Y415872D01*
X217500Y428500D02*
X309500D01*
X295645Y418355D02*
X300803D01*
X308500Y418000D02*
Y422500D01*
X310500Y415500D02*
Y423500D01*
X300803Y413236D02*
X308236D01*
X310500Y415500D01*
X325923Y415872D02*
X326000Y415795D01*
X322128Y415872D02*
X325923D01*
X205847Y439153D02*
X206846D01*
X203000Y442000D02*
X205847Y439153D01*
X259267Y416000D02*
X266000D01*
X255504Y412236D02*
X259267Y416000D01*
X255307Y412236D02*
X255504D01*
X306296Y415796D02*
X308500Y418000D01*
X300803Y415796D02*
X306296D01*
X255307Y420236D02*
X255504D01*
X290516Y397516D02*
X296000Y403000D01*
X300803D01*
X287104Y397516D02*
X290516D01*
X286996Y411516D02*
X287104D01*
X285922Y412591D02*
Y418516D01*
Y412591D02*
X286996Y411516D01*
X287529D02*
X289249Y413236D01*
X287104Y411516D02*
X287529D01*
X289249Y413236D02*
X300803D01*
X285603Y405516D02*
Y406141D01*
X286603Y404516D02*
X287104D01*
X279803Y411516D02*
X280229D01*
X285603Y406141D01*
Y405516D02*
X286603Y404516D01*
X287603D02*
X288647Y405559D01*
X287104Y404516D02*
X287603D01*
X367000Y393000D02*
Y399000D01*
X363000Y389000D02*
X367000Y393000D01*
X338000Y389000D02*
X363000D01*
X329118Y397882D02*
X338000Y389000D01*
X326000Y397882D02*
X329118D01*
X334236Y403236D02*
X337000D01*
X331441Y400441D02*
X334236Y403236D01*
X326000Y400441D02*
X331441D01*
D17*
X269300Y201000D02*
D03*
X262000D02*
D03*
X262200Y189500D02*
D03*
X269500D02*
D03*
X402000Y296000D02*
D03*
X394700D02*
D03*
X401650Y310000D02*
D03*
X394350D02*
D03*
X401650Y318000D02*
D03*
X394350D02*
D03*
X279803Y411516D02*
D03*
X287104D02*
D03*
D18*
X208394Y181500D02*
D03*
X214606D02*
D03*
X218000Y286000D02*
D03*
X224213D02*
D03*
X223287Y392000D02*
D03*
X229500D02*
D03*
D19*
X224000Y181500D02*
D03*
X231000D02*
D03*
X233500Y286000D02*
D03*
X240500D02*
D03*
X239000Y392000D02*
D03*
X246000D02*
D03*
D20*
X242882Y190000D02*
D03*
X248000D02*
D03*
X395882Y303000D02*
D03*
X401000D02*
D03*
X285922Y418516D02*
D03*
X280803D02*
D03*
D21*
X249000Y200000D02*
D03*
Y209000D02*
D03*
X238000Y317500D02*
D03*
X237846Y327500D02*
D03*
X262000Y412236D02*
D03*
Y420236D02*
D03*
D22*
X242307Y200000D02*
D03*
Y209000D02*
D03*
X231307Y317500D02*
D03*
X231153Y327500D02*
D03*
X255307Y412236D02*
D03*
X255307Y420236D02*
D03*
D23*
X366587Y311968D02*
D03*
Y310000D02*
D03*
Y308032D02*
D03*
X377413D02*
D03*
Y310000D02*
D03*
Y311968D02*
D03*
D24*
X278000Y294840D02*
D03*
Y301740D02*
D03*
X270000D02*
D03*
Y294840D02*
D03*
X240260Y301740D02*
D03*
Y294840D02*
D03*
X232260D02*
D03*
Y301740D02*
D03*
X298603Y432497D02*
D03*
Y439397D02*
D03*
X288603Y439497D02*
D03*
Y432597D02*
D03*
X258603Y439497D02*
D03*
Y432597D02*
D03*
X250000Y432336D02*
D03*
Y439236D02*
D03*
D25*
X260000Y294260D02*
D03*
Y301740D02*
D03*
X250103Y298001D02*
D03*
X278500Y432256D02*
D03*
Y439736D02*
D03*
X268603Y435997D02*
D03*
D26*
X346000Y440300D02*
D03*
Y433000D02*
D03*
D27*
X346000Y410536D02*
D03*
Y403236D02*
D03*
X337000Y410536D02*
D03*
Y403236D02*
D03*
D28*
X326000Y405559D02*
D03*
Y397882D02*
D03*
Y400441D02*
D03*
X326000Y403000D02*
D03*
X326000Y420914D02*
D03*
Y418355D02*
D03*
Y408118D02*
D03*
Y415795D02*
D03*
X300803Y397882D02*
D03*
Y400441D02*
D03*
Y413236D02*
D03*
Y415796D02*
D03*
Y418355D02*
D03*
Y408118D02*
D03*
Y405559D02*
D03*
Y403000D02*
D03*
Y410677D02*
D03*
X326000D02*
D03*
Y413236D02*
D03*
D29*
X300803Y420914D02*
D03*
D30*
X287104Y397516D02*
D03*
X279803D02*
D03*
X287104Y404516D02*
D03*
X279803D02*
D03*
D31*
X353000Y313000D02*
D03*
Y307000D02*
D03*
Y310000D02*
D03*
D53*
X270000Y301740D02*
X276450D01*
X246500Y294000D02*
X269160D01*
X270000Y294840D02*
X278000D01*
X240260D02*
X245660D01*
X232260D02*
X240260D01*
X269681Y294271D02*
X270000Y294590D01*
Y294840D01*
X269431Y294271D02*
X269681D01*
X269160Y294000D02*
X269431Y294271D01*
X245660Y294840D02*
X246500Y294000D01*
X278500Y432256D02*
X298362D01*
X298603Y432497D01*
X250130Y432467D02*
X258473D01*
X258603Y432597D01*
X250000Y432336D02*
X250130Y432467D01*
X237500Y185000D02*
X241500Y181000D01*
X229500Y193000D02*
X237500Y185000D01*
X237882D01*
X242882Y190000D01*
X214606Y181500D02*
X224000D01*
X207725Y182169D02*
X207975D01*
X203000Y186894D02*
Y193000D01*
Y186894D02*
X207725Y182169D01*
X207975D02*
X208394Y181750D01*
Y181500D02*
Y181750D01*
X203000Y193000D02*
X229500D01*
X241500Y181000D02*
X261500D01*
X224213Y286000D02*
X233500D01*
X218000D02*
Y286250D01*
X212250Y292000D02*
X218000Y286250D01*
X211000Y292000D02*
X212250D01*
X229500Y392000D02*
X239000D01*
X203000Y392000D02*
X223287D01*
X223287Y392000D01*
X261500Y181000D02*
X394000D01*
X262200Y181700D02*
Y189500D01*
X261500Y181000D02*
X262200Y181700D01*
X203000Y213000D02*
X210000Y220000D01*
X403000D01*
X394000Y181000D02*
X403000Y190000D01*
X192500Y197500D02*
X194000Y199000D01*
X149972Y190472D02*
X157000Y197500D01*
X192500D01*
X141732Y190472D02*
X149972D01*
X155000Y214000D02*
X182000D01*
X187500Y208500D01*
X141732Y220472D02*
X148528D01*
X155000Y214000D01*
X202490Y402510D02*
X203000Y402000D01*
X189000Y412000D02*
X198490Y402510D01*
X154500Y412000D02*
X189000D01*
X198490Y402510D02*
X202490D01*
X141732Y433228D02*
X144488Y430473D01*
X152500Y423000D02*
X179000D01*
X145027Y430473D02*
X152500Y423000D01*
X144488Y430473D02*
X145027D01*
X146658Y404157D02*
X154500Y412000D01*
X142661Y404157D02*
X146658D01*
X141732Y403228D02*
X142661Y404157D01*
X179000Y423000D02*
X188000Y432000D01*
X199451Y419000D02*
X202451Y422000D01*
X141732Y423228D02*
X145961Y419000D01*
X202451Y422000D02*
X246000D01*
X145961Y419000D02*
X199451D01*
X143224Y413228D02*
X145495Y415500D01*
X198328D01*
X141732Y413228D02*
X143224D01*
X198328Y415500D02*
X201828Y412000D01*
X203000D01*
X182500Y317000D02*
X182750Y317250D01*
X154500Y317000D02*
X182500D01*
X141732Y326772D02*
X144315Y324189D01*
X147311D02*
X154500Y317000D01*
X144315Y324189D02*
X147311D01*
X142390Y297429D02*
X146929D01*
X155500Y306000D01*
X189947D01*
X141732Y296772D02*
X142390Y297429D01*
X193947Y302000D02*
X203000D01*
X189947Y306000D02*
X193947Y302000D01*
X260000Y301740D02*
X270000D01*
X248528Y298001D02*
Y298515D01*
Y298001D02*
X250103D01*
X240260Y301740D02*
X245303D01*
X248528Y298515D01*
X232260Y301740D02*
X240260D01*
X220740D02*
X232260D01*
X211000Y292000D02*
X220740Y301740D01*
X203000Y292000D02*
X211000D01*
X222000Y433000D02*
X228236Y439236D01*
X250000D01*
X250130Y439367D01*
X339500Y438916D02*
X340884Y440300D01*
X346000D01*
X278500Y439736D02*
X298284D01*
X346000Y440300D02*
X346150Y440150D01*
X339019Y439397D02*
X339500Y438916D01*
X298603Y439397D02*
X339019D01*
X339500Y427000D02*
Y438916D01*
X346000Y410536D02*
Y420500D01*
X339500Y427000D02*
X346000Y420500D01*
X346394Y401106D02*
X348500Y399000D01*
X346394Y401106D02*
Y402843D01*
X346000Y403236D02*
X346394Y402843D01*
X348500Y399000D02*
X367000D01*
X258603Y439497D02*
X258921Y439179D01*
X261821D02*
X265003Y435997D01*
X258921Y439179D02*
X261821D01*
X265003Y435997D02*
X268603D01*
X337000Y410536D02*
X346000D01*
X337000Y397000D02*
X341000Y393000D01*
X337000Y397000D02*
Y403236D01*
X341000Y393000D02*
X358000D01*
X346150Y440150D02*
X362850D01*
X363000Y440000D01*
X298284Y439736D02*
X298603Y439418D01*
Y439397D02*
Y439418D01*
X258473Y439367D02*
X258603Y439497D01*
X250130Y439367D02*
X258473D01*
X203000Y412000D02*
X203118Y412118D01*
X255189D01*
X255307Y412236D01*
X250189Y420040D02*
X255110D01*
X248000Y420000D02*
X250149D01*
X255110Y420040D02*
X255307Y420236D01*
X250149Y420000D02*
X250189Y420040D01*
X246000Y422000D02*
X248000Y420000D01*
D54*
X278000Y301740D02*
X343240D01*
X276450D02*
X278000D01*
X347726Y313274D02*
X352726D01*
X353000Y313000D01*
X347500Y313500D02*
X347726Y313274D01*
X343240Y301740D02*
X346000Y304500D01*
D55*
X203000Y392000D02*
D03*
Y402000D02*
D03*
Y412000D02*
D03*
Y422000D02*
D03*
Y432000D02*
D03*
Y213000D02*
D03*
Y203000D02*
D03*
X403000Y220000D02*
D03*
Y210000D02*
D03*
Y200000D02*
D03*
X203000Y302000D02*
D03*
Y312000D02*
D03*
Y322000D02*
D03*
Y332000D02*
D03*
D56*
Y442000D02*
D03*
Y193000D02*
D03*
X403000Y190000D02*
D03*
X203000Y292000D02*
D03*
D57*
X399416Y411537D02*
D03*
X399528Y425567D02*
D03*
X385386D02*
D03*
Y411425D02*
D03*
D58*
X480315Y236221D02*
D03*
Y173228D02*
D03*
X165354D02*
D03*
Y236221D02*
D03*
Y342520D02*
D03*
Y279528D02*
D03*
X480315D02*
D03*
Y342520D02*
D03*
Y448819D02*
D03*
Y385827D02*
D03*
X165354D02*
D03*
Y448819D02*
D03*
D59*
X141732Y433228D02*
D03*
Y326772D02*
D03*
Y220472D02*
D03*
D60*
Y423228D02*
D03*
Y413228D02*
D03*
Y403228D02*
D03*
Y316772D02*
D03*
Y306772D02*
D03*
Y296772D02*
D03*
Y210472D02*
D03*
Y200472D02*
D03*
Y190472D02*
D03*
D61*
X244500Y286000D02*
D03*
X332500Y410500D02*
D03*
X294000Y405559D02*
D03*
X235000Y181500D02*
D03*
X254500Y209000D02*
D03*
X254000Y200000D02*
D03*
Y190000D02*
D03*
X360500Y307000D02*
D03*
X404319Y303000D02*
D03*
X347500Y313500D02*
D03*
X346000Y304500D02*
D03*
X274000Y294840D02*
D03*
X249500Y294000D02*
D03*
X236260Y294840D02*
D03*
X241000Y317500D02*
D03*
Y327500D02*
D03*
X346000Y428500D02*
D03*
X250500Y392000D02*
D03*
X265500Y420000D02*
D03*
X265000Y412000D02*
D03*
X275000Y397000D02*
D03*
Y405000D02*
D03*
X276000Y418000D02*
D03*
X294173Y398088D02*
D03*
X294000Y432000D02*
D03*
X284000D02*
D03*
X254301Y432467D02*
D03*
X194000Y199000D02*
D03*
X187500Y208500D02*
D03*
X182750Y317250D02*
D03*
X386500Y298000D02*
D03*
X383500Y320000D02*
D03*
X227000Y310500D02*
D03*
X358000Y393000D02*
D03*
X367000Y399000D02*
D03*
X363000Y440000D02*
D03*
D62*
X222000Y433000D02*
D03*
X188000Y432000D02*
D03*
M02*
