G04*
G04 #@! TF.GenerationSoftware,Altium Limited,Altium Designer,21.0.3 (12)*
G04*
G04 Layer_Physical_Order=2*
G04 Layer_Color=16711680*
%FSLAX25Y25*%
%MOIN*%
G70*
G04*
G04 #@! TF.SameCoordinates,439F85FB-2BEC-417C-9B7D-EA87D0E056F6*
G04*
G04*
G04 #@! TF.FilePolarity,Positive*
G04*
G01*
G75*
%ADD12C,0.01000*%
%ADD53C,0.02362*%
%ADD54C,0.01181*%
%ADD55C,0.06693*%
%ADD56R,0.06693X0.06693*%
%ADD57C,0.05512*%
%ADD58C,0.31496*%
%ADD59R,0.07874X0.07874*%
%ADD60C,0.07874*%
%ADD61C,0.02362*%
%ADD62C,0.05000*%
G36*
X426236Y236221D02*
X426236Y173228D01*
X185039Y173228D01*
Y236048D01*
X185393Y236401D01*
X426236Y236221D01*
D02*
G37*
G36*
X425197Y448819D02*
X425197Y385827D01*
X184000Y385827D01*
Y448646D01*
X184354Y449000D01*
X425197Y448819D01*
D02*
G37*
G36*
X426236Y342520D02*
X426236Y279527D01*
X185039Y279528D01*
Y315536D01*
X186040D01*
X187786Y313790D01*
Y296384D01*
X187916Y295728D01*
X188288Y295172D01*
X192672Y290788D01*
X193228Y290416D01*
X193884Y290286D01*
X199153D01*
Y288154D01*
X206846D01*
Y295847D01*
X199153D01*
Y293714D01*
X194594D01*
X191214Y297094D01*
Y314500D01*
X191084Y315156D01*
X190712Y315712D01*
X187962Y318462D01*
X187406Y318834D01*
X186750Y318964D01*
X185039D01*
Y342347D01*
X185393Y342701D01*
X426236Y342520D01*
D02*
G37*
%LPC*%
G36*
X403500Y224318D02*
Y220500D01*
X407318D01*
X407235Y221135D01*
X406797Y222192D01*
X406100Y223100D01*
X405192Y223797D01*
X404135Y224235D01*
X403500Y224318D01*
D02*
G37*
G36*
X402500D02*
X401865Y224235D01*
X400808Y223797D01*
X399900Y223100D01*
X399203Y222192D01*
X398765Y221135D01*
X398682Y220500D01*
X402500D01*
Y224318D01*
D02*
G37*
G36*
X407318Y219500D02*
X403500D01*
Y215682D01*
X404135Y215765D01*
X405192Y216203D01*
X406100Y216900D01*
X406797Y217808D01*
X407235Y218865D01*
X407318Y219500D01*
D02*
G37*
G36*
X402500D02*
X398682D01*
X398765Y218865D01*
X399203Y217808D01*
X399900Y216900D01*
X400808Y216203D01*
X401865Y215765D01*
X402500Y215682D01*
Y219500D01*
D02*
G37*
G36*
X203500Y217318D02*
Y213500D01*
X207318D01*
X207235Y214135D01*
X206797Y215192D01*
X206100Y216100D01*
X205192Y216797D01*
X204135Y217235D01*
X203500Y217318D01*
D02*
G37*
G36*
X202500D02*
X201865Y217235D01*
X200808Y216797D01*
X199900Y216100D01*
X199203Y215192D01*
X198765Y214135D01*
X198682Y213500D01*
X202500D01*
Y217318D01*
D02*
G37*
G36*
X255000Y211124D02*
Y209500D01*
X256624D01*
X256555Y209851D01*
X256072Y210573D01*
X255351Y211055D01*
X255000Y211124D01*
D02*
G37*
G36*
X254000D02*
X253649Y211055D01*
X252927Y210573D01*
X252445Y209851D01*
X252376Y209500D01*
X254000D01*
Y211124D01*
D02*
G37*
G36*
X207318Y212500D02*
X203500D01*
Y208682D01*
X204135Y208765D01*
X205192Y209203D01*
X206100Y209900D01*
X206797Y210808D01*
X207235Y211865D01*
X207318Y212500D01*
D02*
G37*
G36*
X202500D02*
X198682D01*
X198765Y211865D01*
X199203Y210808D01*
X199900Y209900D01*
X200808Y209203D01*
X201865Y208765D01*
X202500Y208682D01*
Y212500D01*
D02*
G37*
G36*
X256624Y208500D02*
X255000D01*
Y206876D01*
X255351Y206945D01*
X256072Y207428D01*
X256555Y208149D01*
X256624Y208500D01*
D02*
G37*
G36*
X254000D02*
X252376D01*
X252445Y208149D01*
X252927Y207428D01*
X253649Y206945D01*
X254000Y206876D01*
Y208500D01*
D02*
G37*
G36*
X403000Y213880D02*
X401996Y213747D01*
X401060Y213360D01*
X400257Y212743D01*
X399640Y211940D01*
X399253Y211004D01*
X399120Y210000D01*
X399253Y208996D01*
X399640Y208060D01*
X400257Y207257D01*
X401060Y206640D01*
X401996Y206253D01*
X403000Y206120D01*
X404004Y206253D01*
X404940Y206640D01*
X405743Y207257D01*
X406360Y208060D01*
X406747Y208996D01*
X406880Y210000D01*
X406747Y211004D01*
X406360Y211940D01*
X405743Y212743D01*
X404940Y213360D01*
X404004Y213747D01*
X403000Y213880D01*
D02*
G37*
G36*
X254500Y202124D02*
Y200500D01*
X256124D01*
X256055Y200851D01*
X255573Y201572D01*
X254851Y202055D01*
X254500Y202124D01*
D02*
G37*
G36*
X253500D02*
X253149Y202055D01*
X252428Y201572D01*
X251945Y200851D01*
X251876Y200500D01*
X253500D01*
Y202124D01*
D02*
G37*
G36*
X194500Y201124D02*
Y199500D01*
X196124D01*
X196054Y199851D01*
X195572Y200572D01*
X194851Y201055D01*
X194500Y201124D01*
D02*
G37*
G36*
X193500D02*
X193149Y201055D01*
X192428Y200572D01*
X191946Y199851D01*
X191876Y199500D01*
X193500D01*
Y201124D01*
D02*
G37*
G36*
X203000Y206880D02*
X201996Y206747D01*
X201060Y206360D01*
X200257Y205743D01*
X199640Y204940D01*
X199253Y204004D01*
X199120Y203000D01*
X199253Y201996D01*
X199640Y201060D01*
X200257Y200257D01*
X201060Y199640D01*
X201996Y199253D01*
X203000Y199120D01*
X204004Y199253D01*
X204940Y199640D01*
X205743Y200257D01*
X206360Y201060D01*
X206747Y201996D01*
X206880Y203000D01*
X206747Y204004D01*
X206360Y204940D01*
X205743Y205743D01*
X204940Y206360D01*
X204004Y206747D01*
X203000Y206880D01*
D02*
G37*
G36*
X256124Y199500D02*
X254500D01*
Y197876D01*
X254851Y197945D01*
X255573Y198427D01*
X256055Y199149D01*
X256124Y199500D01*
D02*
G37*
G36*
X253500D02*
X251876D01*
X251945Y199149D01*
X252428Y198427D01*
X253149Y197945D01*
X253500Y197876D01*
Y199500D01*
D02*
G37*
G36*
X196124Y198500D02*
X194500D01*
Y196876D01*
X194851Y196946D01*
X195572Y197427D01*
X196054Y198149D01*
X196124Y198500D01*
D02*
G37*
G36*
X193500D02*
X191876D01*
X191946Y198149D01*
X192428Y197427D01*
X193149Y196946D01*
X193500Y196876D01*
Y198500D01*
D02*
G37*
G36*
X403000Y203880D02*
X401996Y203747D01*
X401060Y203360D01*
X400257Y202743D01*
X399640Y201940D01*
X399253Y201004D01*
X399120Y200000D01*
X399253Y198996D01*
X399640Y198060D01*
X400257Y197257D01*
X401060Y196640D01*
X401996Y196253D01*
X403000Y196120D01*
X404004Y196253D01*
X404940Y196640D01*
X405743Y197257D01*
X406360Y198060D01*
X406747Y198996D01*
X406880Y200000D01*
X406747Y201004D01*
X406360Y201940D01*
X405743Y202743D01*
X404940Y203360D01*
X404004Y203747D01*
X403000Y203880D01*
D02*
G37*
G36*
X254500Y192124D02*
Y190500D01*
X256124D01*
X256055Y190851D01*
X255573Y191572D01*
X254851Y192054D01*
X254500Y192124D01*
D02*
G37*
G36*
X253500D02*
X253149Y192054D01*
X252428Y191572D01*
X251945Y190851D01*
X251876Y190500D01*
X253500D01*
Y192124D01*
D02*
G37*
G36*
X187500Y210214D02*
X186844Y210084D01*
X186288Y209712D01*
X185916Y209156D01*
X185786Y208500D01*
Y196500D01*
X185916Y195844D01*
X186288Y195288D01*
X189788Y191788D01*
X190344Y191416D01*
X191000Y191286D01*
X199153D01*
Y189154D01*
X206846D01*
Y196846D01*
X199153D01*
Y194714D01*
X191710D01*
X189214Y197210D01*
Y208500D01*
X189084Y209156D01*
X188712Y209712D01*
X188156Y210084D01*
X187500Y210214D01*
D02*
G37*
G36*
X256124Y189500D02*
X254500D01*
Y187876D01*
X254851Y187945D01*
X255573Y188427D01*
X256055Y189149D01*
X256124Y189500D01*
D02*
G37*
G36*
X253500D02*
X251876D01*
X251945Y189149D01*
X252428Y188427D01*
X253149Y187945D01*
X253500Y187876D01*
Y189500D01*
D02*
G37*
G36*
X406847Y193846D02*
X399153D01*
Y186153D01*
X406847D01*
Y193846D01*
D02*
G37*
G36*
X235500Y183624D02*
Y182000D01*
X237124D01*
X237055Y182351D01*
X236573Y183072D01*
X235851Y183554D01*
X235500Y183624D01*
D02*
G37*
G36*
X234500D02*
X234149Y183554D01*
X233428Y183072D01*
X232945Y182351D01*
X232876Y182000D01*
X234500D01*
Y183624D01*
D02*
G37*
G36*
X237124Y181000D02*
X235500D01*
Y179376D01*
X235851Y179446D01*
X236573Y179928D01*
X237055Y180649D01*
X237124Y181000D01*
D02*
G37*
G36*
X234500D02*
X232876D01*
X232945Y180649D01*
X233428Y179928D01*
X234149Y179446D01*
X234500Y179376D01*
Y181000D01*
D02*
G37*
G36*
X206846Y445847D02*
X199153D01*
Y438154D01*
X206846D01*
Y445847D01*
D02*
G37*
G36*
X254801Y434591D02*
Y432967D01*
X256426D01*
X256356Y433318D01*
X255874Y434039D01*
X255152Y434521D01*
X254801Y434591D01*
D02*
G37*
G36*
X253801D02*
X253450Y434521D01*
X252729Y434039D01*
X252247Y433318D01*
X252177Y432967D01*
X253801D01*
Y434591D01*
D02*
G37*
G36*
X294500Y434124D02*
Y432500D01*
X296124D01*
X296055Y432851D01*
X295572Y433572D01*
X294851Y434055D01*
X294500Y434124D01*
D02*
G37*
G36*
X293500D02*
X293149Y434055D01*
X292427Y433572D01*
X291945Y432851D01*
X291876Y432500D01*
X293500D01*
Y434124D01*
D02*
G37*
G36*
X284500D02*
Y432500D01*
X286124D01*
X286055Y432851D01*
X285573Y433572D01*
X284851Y434055D01*
X284500Y434124D01*
D02*
G37*
G36*
X283500D02*
X283149Y434055D01*
X282428Y433572D01*
X281945Y432851D01*
X281876Y432500D01*
X283500D01*
Y434124D01*
D02*
G37*
G36*
X256426Y431967D02*
X254801D01*
Y430342D01*
X255152Y430412D01*
X255874Y430894D01*
X256356Y431615D01*
X256426Y431967D01*
D02*
G37*
G36*
X253801D02*
X252177D01*
X252247Y431615D01*
X252729Y430894D01*
X253450Y430412D01*
X253801Y430342D01*
Y431967D01*
D02*
G37*
G36*
X296124Y431500D02*
X294500D01*
Y429876D01*
X294851Y429945D01*
X295572Y430428D01*
X296055Y431149D01*
X296124Y431500D01*
D02*
G37*
G36*
X293500D02*
X291876D01*
X291945Y431149D01*
X292427Y430428D01*
X293149Y429945D01*
X293500Y429876D01*
Y431500D01*
D02*
G37*
G36*
X286124D02*
X284500D01*
Y429876D01*
X284851Y429945D01*
X285573Y430428D01*
X286055Y431149D01*
X286124Y431500D01*
D02*
G37*
G36*
X283500D02*
X281876D01*
X281945Y431149D01*
X282428Y430428D01*
X283149Y429945D01*
X283500Y429876D01*
Y431500D01*
D02*
G37*
G36*
X346500Y430624D02*
Y429000D01*
X348124D01*
X348055Y429351D01*
X347572Y430072D01*
X346851Y430555D01*
X346500Y430624D01*
D02*
G37*
G36*
X345500D02*
X345149Y430555D01*
X344427Y430072D01*
X343945Y429351D01*
X343876Y429000D01*
X345500D01*
Y430624D01*
D02*
G37*
G36*
X203000Y435880D02*
X201996Y435747D01*
X201060Y435360D01*
X200257Y434743D01*
X199640Y433940D01*
X199253Y433004D01*
X199120Y432000D01*
X199253Y430996D01*
X199640Y430060D01*
X200257Y429257D01*
X201060Y428640D01*
X201996Y428253D01*
X203000Y428120D01*
X204004Y428253D01*
X204940Y428640D01*
X205743Y429257D01*
X206360Y430060D01*
X206747Y430996D01*
X206880Y432000D01*
X206747Y433004D01*
X206360Y433940D01*
X205743Y434743D01*
X204940Y435360D01*
X204004Y435747D01*
X203000Y435880D01*
D02*
G37*
G36*
X348124Y428000D02*
X346500D01*
Y426376D01*
X346851Y426445D01*
X347572Y426928D01*
X348055Y427649D01*
X348124Y428000D01*
D02*
G37*
G36*
X345500D02*
X343876D01*
X343945Y427649D01*
X344427Y426928D01*
X345149Y426445D01*
X345500Y426376D01*
Y428000D01*
D02*
G37*
G36*
X385386Y429356D02*
X384405Y429226D01*
X383491Y428848D01*
X383107Y428553D01*
X385386Y426274D01*
X387664Y428553D01*
X387280Y428848D01*
X386366Y429226D01*
X385386Y429356D01*
D02*
G37*
G36*
X388371Y427846D02*
X386093Y425567D01*
X388371Y423289D01*
X388666Y423673D01*
X389045Y424587D01*
X389174Y425567D01*
X389045Y426548D01*
X388666Y427461D01*
X388371Y427846D01*
D02*
G37*
G36*
X382400Y427846D02*
X382105Y427461D01*
X381726Y426548D01*
X381597Y425567D01*
X381726Y424587D01*
X382105Y423673D01*
X382400Y423289D01*
X384679Y425567D01*
X382400Y427846D01*
D02*
G37*
G36*
X385095Y441714D02*
X363000D01*
X362344Y441584D01*
X361788Y441212D01*
X361416Y440656D01*
X361286Y440000D01*
X361416Y439344D01*
X361788Y438788D01*
X362344Y438416D01*
X363000Y438286D01*
X384385D01*
X396344Y426327D01*
X396244Y425567D01*
X396356Y424717D01*
X396684Y423925D01*
X397206Y423245D01*
X397886Y422723D01*
X398678Y422395D01*
X399528Y422283D01*
X400378Y422395D01*
X401170Y422723D01*
X401850Y423245D01*
X402372Y423925D01*
X402700Y424717D01*
X402812Y425567D01*
X402700Y426417D01*
X402372Y427209D01*
X401850Y427889D01*
X401170Y428411D01*
X400378Y428739D01*
X399528Y428851D01*
X398768Y428751D01*
X386307Y441212D01*
X385751Y441584D01*
X385095Y441714D01*
D02*
G37*
G36*
X385386Y424860D02*
X383107Y422582D01*
X383491Y422287D01*
X384405Y421908D01*
X385386Y421779D01*
X386366Y421908D01*
X387280Y422287D01*
X387664Y422582D01*
X385386Y424860D01*
D02*
G37*
G36*
X266000Y422124D02*
Y420500D01*
X267624D01*
X267555Y420851D01*
X267073Y421572D01*
X266351Y422055D01*
X266000Y422124D01*
D02*
G37*
G36*
X265000D02*
X264649Y422055D01*
X263928Y421572D01*
X263445Y420851D01*
X263376Y420500D01*
X265000D01*
Y422124D01*
D02*
G37*
G36*
X276500Y420124D02*
Y418500D01*
X278124D01*
X278055Y418851D01*
X277572Y419572D01*
X276851Y420055D01*
X276500Y420124D01*
D02*
G37*
G36*
X275500D02*
X275149Y420055D01*
X274428Y419572D01*
X273945Y418851D01*
X273876Y418500D01*
X275500D01*
Y420124D01*
D02*
G37*
G36*
X203000Y425880D02*
X201996Y425747D01*
X201060Y425360D01*
X200257Y424743D01*
X199640Y423940D01*
X199253Y423004D01*
X199120Y422000D01*
X199253Y420996D01*
X199640Y420060D01*
X200257Y419257D01*
X201060Y418640D01*
X201996Y418253D01*
X203000Y418120D01*
X204004Y418253D01*
X204940Y418640D01*
X205743Y419257D01*
X206360Y420060D01*
X206747Y420996D01*
X206880Y422000D01*
X206747Y423004D01*
X206360Y423940D01*
X205743Y424743D01*
X204940Y425360D01*
X204004Y425747D01*
X203000Y425880D01*
D02*
G37*
G36*
X267624Y419500D02*
X266000D01*
Y417876D01*
X266351Y417945D01*
X267073Y418428D01*
X267555Y419149D01*
X267624Y419500D01*
D02*
G37*
G36*
X265000D02*
X263376D01*
X263445Y419149D01*
X263928Y418428D01*
X264649Y417945D01*
X265000Y417876D01*
Y419500D01*
D02*
G37*
G36*
X278124Y417500D02*
X276500D01*
Y415876D01*
X276851Y415945D01*
X277572Y416428D01*
X278055Y417149D01*
X278124Y417500D01*
D02*
G37*
G36*
X275500D02*
X273876D01*
X273945Y417149D01*
X274428Y416428D01*
X275149Y415945D01*
X275500Y415876D01*
Y417500D01*
D02*
G37*
G36*
X265500Y414124D02*
Y412500D01*
X267124D01*
X267055Y412851D01*
X266572Y413573D01*
X265851Y414055D01*
X265500Y414124D01*
D02*
G37*
G36*
X264500D02*
X264149Y414055D01*
X263427Y413573D01*
X262945Y412851D01*
X262876Y412500D01*
X264500D01*
Y414124D01*
D02*
G37*
G36*
X267124Y411500D02*
X265500D01*
Y409876D01*
X265851Y409945D01*
X266572Y410428D01*
X267055Y411149D01*
X267124Y411500D01*
D02*
G37*
G36*
X264500D02*
X262876D01*
X262945Y411149D01*
X263427Y410428D01*
X264149Y409945D01*
X264500Y409876D01*
Y411500D01*
D02*
G37*
G36*
X332500Y412214D02*
X331844Y412084D01*
X331288Y411712D01*
X331159Y411520D01*
X298941D01*
X298551Y411442D01*
X298220Y411221D01*
X294227Y407228D01*
X294000Y407273D01*
X293344Y407143D01*
X292788Y406771D01*
X292416Y406215D01*
X292286Y405559D01*
X292416Y404903D01*
X292788Y404347D01*
X293344Y403976D01*
X294000Y403845D01*
X294656Y403976D01*
X295212Y404347D01*
X295584Y404903D01*
X295714Y405559D01*
X295669Y405786D01*
X299363Y409480D01*
X331159D01*
X331288Y409288D01*
X331844Y408916D01*
X332500Y408786D01*
X333156Y408916D01*
X333712Y409288D01*
X334084Y409844D01*
X334214Y410500D01*
X334084Y411156D01*
X333712Y411712D01*
X333156Y412084D01*
X332500Y412214D01*
D02*
G37*
G36*
X399416Y414820D02*
X398566Y414709D01*
X397774Y414381D01*
X397094Y413859D01*
X396572Y413178D01*
X396244Y412387D01*
X396132Y411537D01*
X396233Y410777D01*
X386170Y400714D01*
X367000D01*
X366344Y400584D01*
X365788Y400212D01*
X365416Y399656D01*
X365286Y399000D01*
X365416Y398344D01*
X365788Y397788D01*
X366344Y397416D01*
X367000Y397286D01*
X386880D01*
X387536Y397416D01*
X388092Y397788D01*
X398657Y408353D01*
X399416Y408252D01*
X400266Y408364D01*
X401058Y408693D01*
X401739Y409214D01*
X402260Y409895D01*
X402589Y410687D01*
X402700Y411537D01*
X402589Y412387D01*
X402260Y413178D01*
X401739Y413859D01*
X401058Y414381D01*
X400266Y414709D01*
X399416Y414820D01*
D02*
G37*
G36*
X385386Y414709D02*
X384536Y414597D01*
X383744Y414269D01*
X383064Y413747D01*
X382597Y413139D01*
X369425D01*
X368769Y413009D01*
X368213Y412637D01*
X356788Y401212D01*
X356416Y400656D01*
X356286Y400000D01*
Y393000D01*
X356416Y392344D01*
X356788Y391788D01*
X357344Y391416D01*
X358000Y391286D01*
X358656Y391416D01*
X359212Y391788D01*
X359584Y392344D01*
X359714Y393000D01*
Y399290D01*
X370135Y409711D01*
X382597D01*
X383064Y409103D01*
X383744Y408581D01*
X384536Y408253D01*
X385386Y408141D01*
X386236Y408253D01*
X387028Y408581D01*
X387708Y409103D01*
X388230Y409783D01*
X388558Y410575D01*
X388670Y411425D01*
X388558Y412275D01*
X388230Y413067D01*
X387708Y413747D01*
X387028Y414269D01*
X386236Y414597D01*
X385386Y414709D01*
D02*
G37*
G36*
X203000Y415880D02*
X201996Y415747D01*
X201060Y415360D01*
X200257Y414743D01*
X199640Y413940D01*
X199253Y413004D01*
X199120Y412000D01*
X199253Y410996D01*
X199640Y410060D01*
X200257Y409257D01*
X201060Y408640D01*
X201996Y408253D01*
X203000Y408120D01*
X204004Y408253D01*
X204940Y408640D01*
X205743Y409257D01*
X206360Y410060D01*
X206747Y410996D01*
X206880Y412000D01*
X206747Y413004D01*
X206360Y413940D01*
X205743Y414743D01*
X204940Y415360D01*
X204004Y415747D01*
X203000Y415880D01*
D02*
G37*
G36*
X275500Y407124D02*
Y405500D01*
X277124D01*
X277055Y405851D01*
X276572Y406572D01*
X275851Y407055D01*
X275500Y407124D01*
D02*
G37*
G36*
X274500D02*
X274149Y407055D01*
X273428Y406572D01*
X272945Y405851D01*
X272876Y405500D01*
X274500D01*
Y407124D01*
D02*
G37*
G36*
X277124Y404500D02*
X275500D01*
Y402876D01*
X275851Y402945D01*
X276572Y403428D01*
X277055Y404149D01*
X277124Y404500D01*
D02*
G37*
G36*
X274500D02*
X272876D01*
X272945Y404149D01*
X273428Y403428D01*
X274149Y402945D01*
X274500Y402876D01*
Y404500D01*
D02*
G37*
G36*
X203500Y406318D02*
Y402500D01*
X207318D01*
X207235Y403135D01*
X206797Y404192D01*
X206100Y405100D01*
X205192Y405797D01*
X204135Y406235D01*
X203500Y406318D01*
D02*
G37*
G36*
X202500D02*
X201865Y406235D01*
X200808Y405797D01*
X199900Y405100D01*
X199203Y404192D01*
X198765Y403135D01*
X198682Y402500D01*
X202500D01*
Y406318D01*
D02*
G37*
G36*
X294673Y400212D02*
Y398588D01*
X296297D01*
X296227Y398939D01*
X295745Y399660D01*
X295024Y400143D01*
X294673Y400212D01*
D02*
G37*
G36*
X293673D02*
X293322Y400143D01*
X292600Y399660D01*
X292118Y398939D01*
X292048Y398588D01*
X293673D01*
Y400212D01*
D02*
G37*
G36*
X202500Y401500D02*
X198682D01*
X198765Y400865D01*
X199203Y399808D01*
X199900Y398900D01*
X200808Y398203D01*
X201865Y397765D01*
X202500Y397682D01*
Y401500D01*
D02*
G37*
G36*
X207318D02*
X203500D01*
Y397682D01*
X204135Y397765D01*
X205192Y398203D01*
X206100Y398900D01*
X206797Y399808D01*
X207235Y400865D01*
X207318Y401500D01*
D02*
G37*
G36*
X275500Y399124D02*
Y397500D01*
X277124D01*
X277055Y397851D01*
X276572Y398572D01*
X275851Y399055D01*
X275500Y399124D01*
D02*
G37*
G36*
X274500D02*
X274149Y399055D01*
X273428Y398572D01*
X272945Y397851D01*
X272876Y397500D01*
X274500D01*
Y399124D01*
D02*
G37*
G36*
X296297Y397588D02*
X294673D01*
Y395964D01*
X295024Y396034D01*
X295745Y396516D01*
X296227Y397237D01*
X296297Y397588D01*
D02*
G37*
G36*
X293673D02*
X292048D01*
X292118Y397237D01*
X292600Y396516D01*
X293322Y396034D01*
X293673Y395964D01*
Y397588D01*
D02*
G37*
G36*
X277124Y396500D02*
X275500D01*
Y394876D01*
X275851Y394945D01*
X276572Y395427D01*
X277055Y396149D01*
X277124Y396500D01*
D02*
G37*
G36*
X274500D02*
X272876D01*
X272945Y396149D01*
X273428Y395427D01*
X274149Y394945D01*
X274500Y394876D01*
Y396500D01*
D02*
G37*
G36*
X222000Y436026D02*
X221217Y435923D01*
X220487Y435620D01*
X219860Y435140D01*
X219379Y434513D01*
X219077Y433783D01*
X218974Y433000D01*
X219077Y432217D01*
X219379Y431487D01*
X219860Y430860D01*
X220286Y430534D01*
Y398710D01*
X215290Y393714D01*
X206453D01*
X206360Y393940D01*
X205743Y394743D01*
X204940Y395360D01*
X204004Y395747D01*
X203000Y395880D01*
X201996Y395747D01*
X201060Y395360D01*
X200257Y394743D01*
X199640Y393940D01*
X199547Y393714D01*
X196710D01*
X189714Y400710D01*
Y429534D01*
X190140Y429860D01*
X190621Y430487D01*
X190923Y431217D01*
X191026Y432000D01*
X190923Y432783D01*
X190621Y433513D01*
X190140Y434140D01*
X189513Y434621D01*
X188783Y434923D01*
X188000Y435026D01*
X187217Y434923D01*
X186487Y434621D01*
X185860Y434140D01*
X185380Y433513D01*
X185077Y432783D01*
X184974Y432000D01*
X185077Y431217D01*
X185380Y430487D01*
X185860Y429860D01*
X186286Y429534D01*
Y400000D01*
X186416Y399344D01*
X186788Y398788D01*
X194788Y390788D01*
X195344Y390416D01*
X196000Y390286D01*
X199547D01*
X199640Y390060D01*
X200257Y389257D01*
X201060Y388640D01*
X201996Y388253D01*
X203000Y388120D01*
X204004Y388253D01*
X204940Y388640D01*
X205743Y389257D01*
X206360Y390060D01*
X206453Y390286D01*
X216000D01*
X216656Y390416D01*
X217212Y390788D01*
X223212Y396788D01*
X223584Y397344D01*
X223714Y398000D01*
Y430534D01*
X224140Y430860D01*
X224621Y431487D01*
X224923Y432217D01*
X225026Y433000D01*
X224923Y433783D01*
X224621Y434513D01*
X224140Y435140D01*
X223513Y435620D01*
X222783Y435923D01*
X222000Y436026D01*
D02*
G37*
G36*
X251000Y394124D02*
Y392500D01*
X252624D01*
X252555Y392851D01*
X252073Y393572D01*
X251351Y394055D01*
X251000Y394124D01*
D02*
G37*
G36*
X250000D02*
X249649Y394055D01*
X248927Y393572D01*
X248445Y392851D01*
X248376Y392500D01*
X250000D01*
Y394124D01*
D02*
G37*
G36*
X252624Y391500D02*
X251000D01*
Y389876D01*
X251351Y389945D01*
X252073Y390427D01*
X252555Y391149D01*
X252624Y391500D01*
D02*
G37*
G36*
X250000D02*
X248376D01*
X248445Y391149D01*
X248927Y390427D01*
X249649Y389945D01*
X250000Y389876D01*
Y391500D01*
D02*
G37*
G36*
X241500Y329624D02*
Y328000D01*
X243124D01*
X243055Y328351D01*
X242572Y329072D01*
X241851Y329555D01*
X241500Y329624D01*
D02*
G37*
G36*
X240500D02*
X240149Y329555D01*
X239427Y329072D01*
X238945Y328351D01*
X238876Y328000D01*
X240500D01*
Y329624D01*
D02*
G37*
G36*
X243124Y327000D02*
X241500D01*
Y325376D01*
X241851Y325445D01*
X242572Y325927D01*
X243055Y326649D01*
X243124Y327000D01*
D02*
G37*
G36*
X240500D02*
X238876D01*
X238945Y326649D01*
X239427Y325927D01*
X240149Y325445D01*
X240500Y325376D01*
Y327000D01*
D02*
G37*
G36*
X203000Y325880D02*
X201996Y325747D01*
X201060Y325360D01*
X200257Y324743D01*
X199640Y323940D01*
X199253Y323004D01*
X199120Y322000D01*
X199253Y320996D01*
X199640Y320060D01*
X200257Y319257D01*
X201060Y318640D01*
X201996Y318253D01*
X203000Y318120D01*
X204004Y318253D01*
X204940Y318640D01*
X205743Y319257D01*
X206360Y320060D01*
X206747Y320996D01*
X206880Y322000D01*
X206747Y323004D01*
X206360Y323940D01*
X205743Y324743D01*
X204940Y325360D01*
X204004Y325747D01*
X203000Y325880D01*
D02*
G37*
G36*
X241500Y319624D02*
Y318000D01*
X243124D01*
X243055Y318351D01*
X242572Y319073D01*
X241851Y319555D01*
X241500Y319624D01*
D02*
G37*
G36*
X240500D02*
X240149Y319555D01*
X239427Y319073D01*
X238945Y318351D01*
X238876Y318000D01*
X240500D01*
Y319624D01*
D02*
G37*
G36*
X243124Y317000D02*
X241500D01*
Y315376D01*
X241851Y315445D01*
X242572Y315928D01*
X243055Y316649D01*
X243124Y317000D01*
D02*
G37*
G36*
X240500D02*
X238876D01*
X238945Y316649D01*
X239427Y315928D01*
X240149Y315445D01*
X240500Y315376D01*
Y317000D01*
D02*
G37*
G36*
X203000Y335880D02*
X201996Y335747D01*
X201060Y335360D01*
X200257Y334743D01*
X199640Y333940D01*
X199253Y333004D01*
X199120Y332000D01*
X199253Y330996D01*
X199640Y330060D01*
X200257Y329257D01*
X201060Y328640D01*
X201996Y328253D01*
X203000Y328120D01*
X204004Y328253D01*
X204940Y328640D01*
X205743Y329257D01*
X205972Y329555D01*
X206471Y329587D01*
X225331Y310727D01*
X225286Y310500D01*
X225416Y309844D01*
X225788Y309288D01*
X226344Y308916D01*
X227000Y308786D01*
X227656Y308916D01*
X228212Y309288D01*
X228584Y309844D01*
X228714Y310500D01*
X228584Y311156D01*
X228212Y311712D01*
X227656Y312084D01*
X227000Y312214D01*
X226773Y312169D01*
X207310Y331632D01*
X206979Y331853D01*
X206863Y331876D01*
X206880Y332000D01*
X206747Y333004D01*
X206360Y333940D01*
X205743Y334743D01*
X204940Y335360D01*
X204004Y335747D01*
X203000Y335880D01*
D02*
G37*
G36*
Y315880D02*
X201996Y315747D01*
X201060Y315360D01*
X200257Y314743D01*
X199640Y313940D01*
X199253Y313004D01*
X199120Y312000D01*
X199253Y310996D01*
X199640Y310060D01*
X200257Y309257D01*
X201060Y308640D01*
X201996Y308253D01*
X203000Y308120D01*
X204004Y308253D01*
X204940Y308640D01*
X205743Y309257D01*
X206360Y310060D01*
X206747Y310996D01*
X206880Y312000D01*
X206747Y313004D01*
X206360Y313940D01*
X205743Y314743D01*
X204940Y315360D01*
X204004Y315747D01*
X203000Y315880D01*
D02*
G37*
G36*
X361000Y309124D02*
Y307500D01*
X362624D01*
X362555Y307851D01*
X362072Y308573D01*
X361351Y309055D01*
X361000Y309124D01*
D02*
G37*
G36*
X360000D02*
X359649Y309055D01*
X358927Y308573D01*
X358445Y307851D01*
X358376Y307500D01*
X360000D01*
Y309124D01*
D02*
G37*
G36*
X362624Y306500D02*
X361000D01*
Y304876D01*
X361351Y304945D01*
X362072Y305428D01*
X362555Y306149D01*
X362624Y306500D01*
D02*
G37*
G36*
X360000D02*
X358376D01*
X358445Y306149D01*
X358927Y305428D01*
X359649Y304945D01*
X360000Y304876D01*
Y306500D01*
D02*
G37*
G36*
X404819Y305124D02*
Y303500D01*
X406443D01*
X406374Y303851D01*
X405891Y304573D01*
X405170Y305055D01*
X404819Y305124D01*
D02*
G37*
G36*
X403819D02*
X403468Y305055D01*
X402746Y304573D01*
X402264Y303851D01*
X402194Y303500D01*
X403819D01*
Y305124D01*
D02*
G37*
G36*
X347500Y315214D02*
X346844Y315084D01*
X346288Y314712D01*
X345916Y314156D01*
X345786Y313500D01*
X345810Y313382D01*
X345214Y312786D01*
X344973Y312425D01*
X344888Y312000D01*
X344888Y312000D01*
Y305779D01*
X344788Y305712D01*
X344416Y305156D01*
X344286Y304500D01*
X344416Y303844D01*
X344788Y303288D01*
X345344Y302916D01*
X346000Y302786D01*
X346656Y302916D01*
X347212Y303288D01*
X347584Y303844D01*
X347714Y304500D01*
X347584Y305156D01*
X347212Y305712D01*
X347112Y305779D01*
Y311434D01*
X347500Y311786D01*
X348156Y311916D01*
X348712Y312288D01*
X349084Y312844D01*
X349214Y313500D01*
X349084Y314156D01*
X348712Y314712D01*
X348156Y315084D01*
X347500Y315214D01*
D02*
G37*
G36*
X203500Y306318D02*
Y302500D01*
X207318D01*
X207235Y303135D01*
X206797Y304192D01*
X206100Y305100D01*
X205192Y305797D01*
X204135Y306235D01*
X203500Y306318D01*
D02*
G37*
G36*
X202500D02*
X201865Y306235D01*
X200808Y305797D01*
X199900Y305100D01*
X199203Y304192D01*
X198765Y303135D01*
X198682Y302500D01*
X202500D01*
Y306318D01*
D02*
G37*
G36*
X406443Y302500D02*
X404819D01*
Y300876D01*
X405170Y300945D01*
X405891Y301428D01*
X406374Y302149D01*
X406443Y302500D01*
D02*
G37*
G36*
X403819D02*
X402194D01*
X402264Y302149D01*
X402746Y301428D01*
X403468Y300945D01*
X403819Y300876D01*
Y302500D01*
D02*
G37*
G36*
X207318Y301500D02*
X203500D01*
Y297682D01*
X204135Y297765D01*
X205192Y298203D01*
X206100Y298900D01*
X206797Y299808D01*
X207235Y300865D01*
X207318Y301500D01*
D02*
G37*
G36*
X202500D02*
X198682D01*
X198765Y300865D01*
X199203Y299808D01*
X199900Y298900D01*
X200808Y298203D01*
X201865Y297765D01*
X202500Y297682D01*
Y301500D01*
D02*
G37*
G36*
X383500Y321714D02*
X382844Y321584D01*
X382288Y321212D01*
X381916Y320656D01*
X381786Y320000D01*
X381916Y319344D01*
X382288Y318788D01*
X382844Y318416D01*
X383500Y318286D01*
X383727Y318331D01*
X385480Y316578D01*
Y299341D01*
X385288Y299212D01*
X384916Y298656D01*
X384786Y298000D01*
X384916Y297344D01*
X385288Y296788D01*
X385844Y296416D01*
X386500Y296286D01*
X387156Y296416D01*
X387712Y296788D01*
X388084Y297344D01*
X388214Y298000D01*
X388084Y298656D01*
X387712Y299212D01*
X387520Y299341D01*
Y317000D01*
X387442Y317390D01*
X387221Y317721D01*
X385169Y319773D01*
X385214Y320000D01*
X385084Y320656D01*
X384712Y321212D01*
X384156Y321584D01*
X383500Y321714D01*
D02*
G37*
G36*
X274500Y296965D02*
Y295340D01*
X276124D01*
X276055Y295691D01*
X275572Y296413D01*
X274851Y296895D01*
X274500Y296965D01*
D02*
G37*
G36*
X273500D02*
X273149Y296895D01*
X272428Y296413D01*
X271945Y295691D01*
X271876Y295340D01*
X273500D01*
Y296965D01*
D02*
G37*
G36*
X236760D02*
Y295340D01*
X238384D01*
X238314Y295691D01*
X237832Y296413D01*
X237111Y296895D01*
X236760Y296965D01*
D02*
G37*
G36*
X235760D02*
X235409Y296895D01*
X234687Y296413D01*
X234205Y295691D01*
X234136Y295340D01*
X235760D01*
Y296965D01*
D02*
G37*
G36*
X250000Y296124D02*
Y294500D01*
X251624D01*
X251555Y294851D01*
X251073Y295572D01*
X250351Y296055D01*
X250000Y296124D01*
D02*
G37*
G36*
X249000D02*
X248649Y296055D01*
X247927Y295572D01*
X247445Y294851D01*
X247376Y294500D01*
X249000D01*
Y296124D01*
D02*
G37*
G36*
X276124Y294340D02*
X274500D01*
Y292716D01*
X274851Y292786D01*
X275572Y293268D01*
X276055Y293989D01*
X276124Y294340D01*
D02*
G37*
G36*
X273500D02*
X271876D01*
X271945Y293989D01*
X272428Y293268D01*
X273149Y292786D01*
X273500Y292716D01*
Y294340D01*
D02*
G37*
G36*
X238384D02*
X236760D01*
Y292716D01*
X237111Y292786D01*
X237832Y293268D01*
X238314Y293989D01*
X238384Y294340D01*
D02*
G37*
G36*
X235760D02*
X234136D01*
X234205Y293989D01*
X234687Y293268D01*
X235409Y292786D01*
X235760Y292716D01*
Y294340D01*
D02*
G37*
G36*
X251624Y293500D02*
X250000D01*
Y291876D01*
X250351Y291945D01*
X251073Y292427D01*
X251555Y293149D01*
X251624Y293500D01*
D02*
G37*
G36*
X249000D02*
X247376D01*
X247445Y293149D01*
X247927Y292427D01*
X248649Y291945D01*
X249000Y291876D01*
Y293500D01*
D02*
G37*
G36*
X245000Y288124D02*
Y286500D01*
X246624D01*
X246555Y286851D01*
X246073Y287573D01*
X245351Y288055D01*
X245000Y288124D01*
D02*
G37*
G36*
X244000D02*
X243649Y288055D01*
X242928Y287573D01*
X242445Y286851D01*
X242376Y286500D01*
X244000D01*
Y288124D01*
D02*
G37*
G36*
X246624Y285500D02*
X245000D01*
Y283876D01*
X245351Y283945D01*
X246073Y284427D01*
X246555Y285149D01*
X246624Y285500D01*
D02*
G37*
G36*
X244000D02*
X242376D01*
X242445Y285149D01*
X242928Y284427D01*
X243649Y283945D01*
X244000Y283876D01*
Y285500D01*
D02*
G37*
%LPD*%
D12*
X294000Y405559D02*
X298941Y410500D01*
X332500D01*
X386500Y298000D02*
Y317000D01*
X383500Y320000D02*
X386500Y317000D01*
X203000Y332000D02*
X204089Y330911D01*
X206589D02*
X227000Y310500D01*
X204089Y330911D02*
X206589D01*
D53*
X194000Y199000D02*
Y209000D01*
X202990Y212990D02*
X203000Y213000D01*
X194000Y209000D02*
X197990Y212990D01*
X202990D01*
X187500Y196500D02*
X191000Y193000D01*
X203000D01*
X187500Y196500D02*
Y208500D01*
X182750Y317250D02*
X186750D01*
X189500Y314500D01*
X193884Y292000D02*
X203000D01*
X189500Y296384D02*
X193884Y292000D01*
X189500Y296384D02*
Y314500D01*
X222000Y398000D02*
Y433000D01*
X369425Y411425D02*
X385386D01*
X358000Y400000D02*
X369425Y411425D01*
X358000Y393000D02*
Y400000D01*
X367000Y399000D02*
X386880D01*
X399416Y411537D01*
X363000Y440000D02*
X385095D01*
X399528Y425567D01*
X203000Y392000D02*
X216000D01*
X222000Y398000D01*
X196000Y392000D02*
X203000D01*
X188000Y400000D02*
Y432000D01*
Y400000D02*
X196000Y392000D01*
D54*
X346000Y304500D02*
Y312000D01*
X347500Y313500D01*
D55*
X203000Y392000D02*
D03*
Y402000D02*
D03*
Y412000D02*
D03*
Y422000D02*
D03*
Y432000D02*
D03*
Y213000D02*
D03*
Y203000D02*
D03*
X403000Y220000D02*
D03*
Y210000D02*
D03*
Y200000D02*
D03*
X203000Y302000D02*
D03*
Y312000D02*
D03*
Y322000D02*
D03*
Y332000D02*
D03*
D56*
Y442000D02*
D03*
Y193000D02*
D03*
X403000Y190000D02*
D03*
X203000Y292000D02*
D03*
D57*
X399416Y411537D02*
D03*
X399528Y425567D02*
D03*
X385386D02*
D03*
Y411425D02*
D03*
D58*
X480315Y236221D02*
D03*
Y173228D02*
D03*
X165354D02*
D03*
Y236221D02*
D03*
Y342520D02*
D03*
Y279528D02*
D03*
X480315D02*
D03*
Y342520D02*
D03*
Y448819D02*
D03*
Y385827D02*
D03*
X165354D02*
D03*
Y448819D02*
D03*
D59*
X141732Y433228D02*
D03*
Y326772D02*
D03*
Y220472D02*
D03*
D60*
Y423228D02*
D03*
Y413228D02*
D03*
Y403228D02*
D03*
Y316772D02*
D03*
Y306772D02*
D03*
Y296772D02*
D03*
Y210472D02*
D03*
Y200472D02*
D03*
Y190472D02*
D03*
D61*
X244500Y286000D02*
D03*
X332500Y410500D02*
D03*
X294000Y405559D02*
D03*
X235000Y181500D02*
D03*
X254500Y209000D02*
D03*
X254000Y200000D02*
D03*
Y190000D02*
D03*
X360500Y307000D02*
D03*
X404319Y303000D02*
D03*
X347500Y313500D02*
D03*
X346000Y304500D02*
D03*
X274000Y294840D02*
D03*
X249500Y294000D02*
D03*
X236260Y294840D02*
D03*
X241000Y317500D02*
D03*
Y327500D02*
D03*
X346000Y428500D02*
D03*
X250500Y392000D02*
D03*
X265500Y420000D02*
D03*
X265000Y412000D02*
D03*
X275000Y397000D02*
D03*
Y405000D02*
D03*
X276000Y418000D02*
D03*
X294173Y398088D02*
D03*
X294000Y432000D02*
D03*
X284000D02*
D03*
X254301Y432467D02*
D03*
X194000Y199000D02*
D03*
X187500Y208500D02*
D03*
X182750Y317250D02*
D03*
X386500Y298000D02*
D03*
X383500Y320000D02*
D03*
X227000Y310500D02*
D03*
X358000Y393000D02*
D03*
X367000Y399000D02*
D03*
X363000Y440000D02*
D03*
D62*
X222000Y433000D02*
D03*
X188000Y432000D02*
D03*
M02*
