G04*
G04 #@! TF.GenerationSoftware,Altium Limited,Altium Designer,21.0.3 (12)*
G04*
G04 Layer_Color=16711935*
%FSLAX25Y25*%
%MOIN*%
G70*
G04*
G04 #@! TF.SameCoordinates,439F85FB-2BEC-417C-9B7D-EA87D0E056F6*
G04*
G04*
G04 #@! TF.FilePolarity,Positive*
G04*
G01*
G75*
%ADD12C,0.01000*%
D12*
X240299Y258000D02*
G03*
X240299Y258000I-6299J0D01*
G01*
X257299D02*
G03*
X257299Y258000I-6299J0D01*
G01*
X274299D02*
G03*
X274299Y258000I-6299J0D01*
G01*
X291299D02*
G03*
X291299Y258000I-6299J0D01*
G01*
X308299D02*
G03*
X308299Y258000I-6299J0D01*
G01*
X325299D02*
G03*
X325299Y258000I-6299J0D01*
G01*
X342299D02*
G03*
X342299Y258000I-6299J0D01*
G01*
X359299D02*
G03*
X359299Y258000I-6299J0D01*
G01*
X376299D02*
G03*
X376299Y258000I-6299J0D01*
G01*
Y365000D02*
G03*
X376299Y365000I-6299J0D01*
G01*
X359299D02*
G03*
X359299Y365000I-6299J0D01*
G01*
X342299D02*
G03*
X342299Y365000I-6299J0D01*
G01*
X325299D02*
G03*
X325299Y365000I-6299J0D01*
G01*
X308299D02*
G03*
X308299Y365000I-6299J0D01*
G01*
X291299D02*
G03*
X291299Y365000I-6299J0D01*
G01*
X274299D02*
G03*
X274299Y365000I-6299J0D01*
G01*
X257299D02*
G03*
X257299Y365000I-6299J0D01*
G01*
X240299D02*
G03*
X240299Y365000I-6299J0D01*
G01*
X122047Y362205D02*
G03*
X106299Y346457I0J-15748D01*
G01*
X122047Y253937D02*
G03*
X106299Y238189I0J-15748D01*
G01*
Y277559D02*
G03*
X122047Y261811I15748J0D01*
G01*
X106299Y383858D02*
G03*
X122047Y368110I15748J0D01*
G01*
X498032Y238189D02*
G03*
X482283Y253937I-15748J0D01*
G01*
X482283Y261811D02*
G03*
X498032Y277559I0J15748D01*
G01*
X498032Y346457D02*
G03*
X482283Y362205I-15748J0D01*
G01*
X482283Y368110D02*
G03*
X498032Y383858I0J15748D01*
G01*
X498032Y450787D02*
G03*
X482283Y466535I-15748J0D01*
G01*
X482283Y155512D02*
G03*
X498032Y171260I0J15748D01*
G01*
X122047Y466535D02*
G03*
X106299Y450787I0J-15748D01*
G01*
Y171260D02*
G03*
X122047Y155512I15748J0D01*
G01*
X379921Y362205D02*
Y368110D01*
Y362205D02*
X482283D01*
X379921Y368110D02*
X482283D01*
X498032Y450787D02*
X498032Y450787D01*
Y383858D02*
Y450787D01*
X498032Y346457D02*
X498032Y346457D01*
Y277559D02*
Y346457D01*
X498032Y175197D02*
X498032Y175197D01*
X498032Y175197D02*
Y238189D01*
X106299Y171260D02*
Y238189D01*
Y277559D02*
Y346457D01*
Y383858D02*
Y450787D01*
X379921Y253937D02*
X482283D01*
X379921Y261811D02*
X482283Y261811D01*
X379921Y253937D02*
Y261811D01*
X224410Y253937D02*
Y261811D01*
Y362205D02*
Y368110D01*
X122047Y253937D02*
X224410D01*
X122047Y261811D02*
X224410D01*
X122047Y362205D02*
X224410D01*
X122047Y368110D02*
X224410D01*
X498032Y171260D02*
Y175197D01*
X122047Y155512D02*
X482283D01*
X122047Y466535D02*
X482283D01*
M02*
