G04*
G04 #@! TF.GenerationSoftware,Altium Limited,Altium Designer,21.0.3 (12)*
G04*
G04 Layer_Color=16711935*
%FSLAX25Y25*%
%MOIN*%
G70*
G04*
G04 #@! TF.SameCoordinates,439F85FB-2BEC-417C-9B7D-EA87D0E056F6*
G04*
G04*
G04 #@! TF.FilePolarity,Negative*
G04*
G01*
G75*
%ADD47C,0.07493*%
%ADD48R,0.07493X0.07493*%
%ADD49C,0.06312*%
%ADD50C,0.32296*%
%ADD51R,0.08674X0.08674*%
%ADD52C,0.08674*%
D47*
X203000Y392000D02*
D03*
Y402000D02*
D03*
Y412000D02*
D03*
Y422000D02*
D03*
Y432000D02*
D03*
Y213000D02*
D03*
Y203000D02*
D03*
X403000Y220000D02*
D03*
Y210000D02*
D03*
Y200000D02*
D03*
X203000Y302000D02*
D03*
Y312000D02*
D03*
Y322000D02*
D03*
Y332000D02*
D03*
D48*
Y442000D02*
D03*
Y193000D02*
D03*
X403000Y190000D02*
D03*
X203000Y292000D02*
D03*
D49*
X399416Y411537D02*
D03*
X399528Y425567D02*
D03*
X385386D02*
D03*
Y411425D02*
D03*
D50*
X480315Y236221D02*
D03*
Y173228D02*
D03*
X165354D02*
D03*
Y236221D02*
D03*
Y342520D02*
D03*
Y279528D02*
D03*
X480315D02*
D03*
Y342520D02*
D03*
Y448819D02*
D03*
Y385827D02*
D03*
X165354D02*
D03*
Y448819D02*
D03*
D51*
X141732Y433228D02*
D03*
Y326772D02*
D03*
Y220472D02*
D03*
D52*
Y423228D02*
D03*
Y413228D02*
D03*
Y403228D02*
D03*
Y316772D02*
D03*
Y306772D02*
D03*
Y296772D02*
D03*
Y210472D02*
D03*
Y200472D02*
D03*
Y190472D02*
D03*
M02*
