M48
;Layer_Color=9474304
;FILE_FORMAT=2:5
INCH,LZ
;TYPE=PLATED
T1F00S00C0.01181
T2F00S00C0.02800
T3F00S00C0.03150
T4F00S00C0.03543
T5F00S00C0.04331
T6F00S00C0.20472
%
T01
X0346Y03045
X03605Y0307
X03865Y0298
X0404319Y0303
X0274Y029484
X02495Y0294
X02445Y0286
X023626Y029484
X0227Y03105
X02545Y0209
X0254Y02
Y019
X0235Y01815
X0194Y0199
X01875Y02085
X018275Y031725
X0241Y03175
Y03275
X02505Y0392
X0275Y0397
Y0405
X0276Y0418
X02655Y042
X0265Y0412
X0254301Y0432467
X0284Y0432
X0294
Y0405559
X0294173Y0398088
X03325Y04105
X0346Y04285
X0363Y044
X0367Y0399
X0358Y0393
X03475Y03135
X03835Y032
T02
X0188Y0432
X0222Y0433
T03
X0385386Y0411425
X0399416Y0411537
X0399528Y0425567
X0385386
T04
X0403Y019
Y02
Y021
Y022
X0203Y0213
Y0203
Y0193
Y0292
Y0302
Y0312
Y0322
Y0332
Y0392
Y0402
Y0412
Y0422
Y0432
Y0442
T05
X0141732Y0190472
Y0200472
Y0210472
Y0220472
Y0296772
Y0306772
Y0316772
Y0326772
Y0403228
Y0413228
Y0423228
Y0433228
T06
X0480315Y0173228
Y0236221
Y0279528
X0165354
Y0236221
Y0173228
Y034252
Y0385827
Y0448819
X0480315
Y0385827
Y034252
M30
